<?xml version="1.0" encoding="utf-8" standalone="no"?>
<!DOCTYPE svg PUBLIC "-//W3C//DTD SVG 1.1//EN"
  "http://www.w3.org/Graphics/SVG/1.1/DTD/svg11.dtd">
<svg xmlns:xlink="http://www.w3.org/1999/xlink" width="618.51pt" height="382.799688pt" viewBox="0 0 618.51 382.799688" xmlns="http://www.w3.org/2000/svg" version="1.1">
 <metadata>
  <rdf:RDF xmlns:dc="http://purl.org/dc/elements/1.1/" xmlns:cc="http://creativecommons.org/ns#" xmlns:rdf="http://www.w3.org/1999/02/22-rdf-syntax-ns#">
   <cc:Work>
    <dc:type rdf:resource="http://purl.org/dc/dcmitype/StillImage"/>
    <dc:date>2024-08-27T12:43:33.356951</dc:date>
    <dc:format>image/svg+xml</dc:format>
    <dc:creator>
     <cc:Agent>
      <dc:title>Matplotlib v3.7.2, https://matplotlib.org/</dc:title>
     </cc:Agent>
    </dc:creator>
   </cc:Work>
  </rdf:RDF>
 </metadata>
 <defs>
  <style type="text/css">*{stroke-linejoin: round; stroke-linecap: butt}</style>
 </defs>
 <g id="figure_1">
  <g id="patch_1">
   <path d="M 0 382.799688 
L 618.51 382.799688 
L 618.51 0 
L 0 0 
z
" style="fill: #ffffff"/>
  </g>
  <g id="axes_1">
   <g id="patch_2">
    <path d="M 53.31 188.64 
L 611.31 188.64 
L 611.31 7.2 
L 53.31 7.2 
z
" style="fill: #eaeaf2"/>
   </g>
   <g id="matplotlib.axis_1">
    <g id="xtick_1">
     <g id="line2d_1">
      <path d="M 78.243744 188.64 
L 78.243744 7.2 
" clip-path="url(#p4d99b921cc)" style="fill: none; stroke: #ffffff; stroke-linecap: round"/>
     </g>
     <g id="text_1">
      <!-- 0 -->
      <g style="fill: #262626" transform="translate(74.744369 206.498281) scale(0.11 -0.11)">
       <defs>
        <path id="DejaVuSans-30" d="M 2034 4250 
Q 1547 4250 1301 3770 
Q 1056 3291 1056 2328 
Q 1056 1369 1301 889 
Q 1547 409 2034 409 
Q 2525 409 2770 889 
Q 3016 1369 3016 2328 
Q 3016 3291 2770 3770 
Q 2525 4250 2034 4250 
z
M 2034 4750 
Q 2819 4750 3233 4129 
Q 3647 3509 3647 2328 
Q 3647 1150 3233 529 
Q 2819 -91 2034 -91 
Q 1250 -91 836 529 
Q 422 1150 422 2328 
Q 422 3509 836 4129 
Q 1250 4750 2034 4750 
z
" transform="scale(0.015625)"/>
       </defs>
       <use xlink:href="#DejaVuSans-30"/>
      </g>
     </g>
    </g>
    <g id="xtick_2">
     <g id="line2d_2">
      <path d="M 112.635116 188.64 
L 112.635116 7.2 
" clip-path="url(#p4d99b921cc)" style="fill: none; stroke: #ffffff; stroke-linecap: round"/>
     </g>
     <g id="text_2">
      <!-- 64 -->
      <g style="fill: #262626" transform="translate(105.636366 206.498281) scale(0.11 -0.11)">
       <defs>
        <path id="DejaVuSans-36" d="M 2113 2584 
Q 1688 2584 1439 2293 
Q 1191 2003 1191 1497 
Q 1191 994 1439 701 
Q 1688 409 2113 409 
Q 2538 409 2786 701 
Q 3034 994 3034 1497 
Q 3034 2003 2786 2293 
Q 2538 2584 2113 2584 
z
M 3366 4563 
L 3366 3988 
Q 3128 4100 2886 4159 
Q 2644 4219 2406 4219 
Q 1781 4219 1451 3797 
Q 1122 3375 1075 2522 
Q 1259 2794 1537 2939 
Q 1816 3084 2150 3084 
Q 2853 3084 3261 2657 
Q 3669 2231 3669 1497 
Q 3669 778 3244 343 
Q 2819 -91 2113 -91 
Q 1303 -91 875 529 
Q 447 1150 447 2328 
Q 447 3434 972 4092 
Q 1497 4750 2381 4750 
Q 2619 4750 2861 4703 
Q 3103 4656 3366 4563 
z
" transform="scale(0.015625)"/>
        <path id="DejaVuSans-34" d="M 2419 4116 
L 825 1625 
L 2419 1625 
L 2419 4116 
z
M 2253 4666 
L 3047 4666 
L 3047 1625 
L 3713 1625 
L 3713 1100 
L 3047 1100 
L 3047 0 
L 2419 0 
L 2419 1100 
L 313 1100 
L 313 1709 
L 2253 4666 
z
" transform="scale(0.015625)"/>
       </defs>
       <use xlink:href="#DejaVuSans-36"/>
       <use xlink:href="#DejaVuSans-34" x="63.623047"/>
      </g>
     </g>
    </g>
    <g id="xtick_3">
     <g id="line2d_3">
      <path d="M 147.026487 188.64 
L 147.026487 7.2 
" clip-path="url(#p4d99b921cc)" style="fill: none; stroke: #ffffff; stroke-linecap: round"/>
     </g>
     <g id="text_3">
      <!-- 128 -->
      <g style="fill: #262626" transform="translate(136.528362 206.498281) scale(0.11 -0.11)">
       <defs>
        <path id="DejaVuSans-31" d="M 794 531 
L 1825 531 
L 1825 4091 
L 703 3866 
L 703 4441 
L 1819 4666 
L 2450 4666 
L 2450 531 
L 3481 531 
L 3481 0 
L 794 0 
L 794 531 
z
" transform="scale(0.015625)"/>
        <path id="DejaVuSans-32" d="M 1228 531 
L 3431 531 
L 3431 0 
L 469 0 
L 469 531 
Q 828 903 1448 1529 
Q 2069 2156 2228 2338 
Q 2531 2678 2651 2914 
Q 2772 3150 2772 3378 
Q 2772 3750 2511 3984 
Q 2250 4219 1831 4219 
Q 1534 4219 1204 4116 
Q 875 4013 500 3803 
L 500 4441 
Q 881 4594 1212 4672 
Q 1544 4750 1819 4750 
Q 2544 4750 2975 4387 
Q 3406 4025 3406 3419 
Q 3406 3131 3298 2873 
Q 3191 2616 2906 2266 
Q 2828 2175 2409 1742 
Q 1991 1309 1228 531 
z
" transform="scale(0.015625)"/>
        <path id="DejaVuSans-38" d="M 2034 2216 
Q 1584 2216 1326 1975 
Q 1069 1734 1069 1313 
Q 1069 891 1326 650 
Q 1584 409 2034 409 
Q 2484 409 2743 651 
Q 3003 894 3003 1313 
Q 3003 1734 2745 1975 
Q 2488 2216 2034 2216 
z
M 1403 2484 
Q 997 2584 770 2862 
Q 544 3141 544 3541 
Q 544 4100 942 4425 
Q 1341 4750 2034 4750 
Q 2731 4750 3128 4425 
Q 3525 4100 3525 3541 
Q 3525 3141 3298 2862 
Q 3072 2584 2669 2484 
Q 3125 2378 3379 2068 
Q 3634 1759 3634 1313 
Q 3634 634 3220 271 
Q 2806 -91 2034 -91 
Q 1263 -91 848 271 
Q 434 634 434 1313 
Q 434 1759 690 2068 
Q 947 2378 1403 2484 
z
M 1172 3481 
Q 1172 3119 1398 2916 
Q 1625 2713 2034 2713 
Q 2441 2713 2670 2916 
Q 2900 3119 2900 3481 
Q 2900 3844 2670 4047 
Q 2441 4250 2034 4250 
Q 1625 4250 1398 4047 
Q 1172 3844 1172 3481 
z
" transform="scale(0.015625)"/>
       </defs>
       <use xlink:href="#DejaVuSans-31"/>
       <use xlink:href="#DejaVuSans-32" x="63.623047"/>
       <use xlink:href="#DejaVuSans-38" x="127.246094"/>
      </g>
     </g>
    </g>
    <g id="xtick_4">
     <g id="line2d_4">
      <path d="M 181.417858 188.64 
L 181.417858 7.2 
" clip-path="url(#p4d99b921cc)" style="fill: none; stroke: #ffffff; stroke-linecap: round"/>
     </g>
     <g id="text_4">
      <!-- 192 -->
      <g style="fill: #262626" transform="translate(170.919733 206.498281) scale(0.11 -0.11)">
       <defs>
        <path id="DejaVuSans-39" d="M 703 97 
L 703 672 
Q 941 559 1184 500 
Q 1428 441 1663 441 
Q 2288 441 2617 861 
Q 2947 1281 2994 2138 
Q 2813 1869 2534 1725 
Q 2256 1581 1919 1581 
Q 1219 1581 811 2004 
Q 403 2428 403 3163 
Q 403 3881 828 4315 
Q 1253 4750 1959 4750 
Q 2769 4750 3195 4129 
Q 3622 3509 3622 2328 
Q 3622 1225 3098 567 
Q 2575 -91 1691 -91 
Q 1453 -91 1209 -44 
Q 966 3 703 97 
z
M 1959 2075 
Q 2384 2075 2632 2365 
Q 2881 2656 2881 3163 
Q 2881 3666 2632 3958 
Q 2384 4250 1959 4250 
Q 1534 4250 1286 3958 
Q 1038 3666 1038 3163 
Q 1038 2656 1286 2365 
Q 1534 2075 1959 2075 
z
" transform="scale(0.015625)"/>
       </defs>
       <use xlink:href="#DejaVuSans-31"/>
       <use xlink:href="#DejaVuSans-39" x="63.623047"/>
       <use xlink:href="#DejaVuSans-32" x="127.246094"/>
      </g>
     </g>
    </g>
    <g id="xtick_5">
     <g id="line2d_5">
      <path d="M 215.80923 188.64 
L 215.80923 7.2 
" clip-path="url(#p4d99b921cc)" style="fill: none; stroke: #ffffff; stroke-linecap: round"/>
     </g>
     <g id="text_5">
      <!-- 256 -->
      <g style="fill: #262626" transform="translate(205.311105 206.498281) scale(0.11 -0.11)">
       <defs>
        <path id="DejaVuSans-35" d="M 691 4666 
L 3169 4666 
L 3169 4134 
L 1269 4134 
L 1269 2991 
Q 1406 3038 1543 3061 
Q 1681 3084 1819 3084 
Q 2600 3084 3056 2656 
Q 3513 2228 3513 1497 
Q 3513 744 3044 326 
Q 2575 -91 1722 -91 
Q 1428 -91 1123 -41 
Q 819 9 494 109 
L 494 744 
Q 775 591 1075 516 
Q 1375 441 1709 441 
Q 2250 441 2565 725 
Q 2881 1009 2881 1497 
Q 2881 1984 2565 2268 
Q 2250 2553 1709 2553 
Q 1456 2553 1204 2497 
Q 953 2441 691 2322 
L 691 4666 
z
" transform="scale(0.015625)"/>
       </defs>
       <use xlink:href="#DejaVuSans-32"/>
       <use xlink:href="#DejaVuSans-35" x="63.623047"/>
       <use xlink:href="#DejaVuSans-36" x="127.246094"/>
      </g>
     </g>
    </g>
    <g id="xtick_6">
     <g id="line2d_6">
      <path d="M 250.200601 188.64 
L 250.200601 7.2 
" clip-path="url(#p4d99b921cc)" style="fill: none; stroke: #ffffff; stroke-linecap: round"/>
     </g>
     <g id="text_6">
      <!-- 320 -->
      <g style="fill: #262626" transform="translate(239.702476 206.498281) scale(0.11 -0.11)">
       <defs>
        <path id="DejaVuSans-33" d="M 2597 2516 
Q 3050 2419 3304 2112 
Q 3559 1806 3559 1356 
Q 3559 666 3084 287 
Q 2609 -91 1734 -91 
Q 1441 -91 1130 -33 
Q 819 25 488 141 
L 488 750 
Q 750 597 1062 519 
Q 1375 441 1716 441 
Q 2309 441 2620 675 
Q 2931 909 2931 1356 
Q 2931 1769 2642 2001 
Q 2353 2234 1838 2234 
L 1294 2234 
L 1294 2753 
L 1863 2753 
Q 2328 2753 2575 2939 
Q 2822 3125 2822 3475 
Q 2822 3834 2567 4026 
Q 2313 4219 1838 4219 
Q 1578 4219 1281 4162 
Q 984 4106 628 3988 
L 628 4550 
Q 988 4650 1302 4700 
Q 1616 4750 1894 4750 
Q 2613 4750 3031 4423 
Q 3450 4097 3450 3541 
Q 3450 3153 3228 2886 
Q 3006 2619 2597 2516 
z
" transform="scale(0.015625)"/>
       </defs>
       <use xlink:href="#DejaVuSans-33"/>
       <use xlink:href="#DejaVuSans-32" x="63.623047"/>
       <use xlink:href="#DejaVuSans-30" x="127.246094"/>
      </g>
     </g>
    </g>
    <g id="xtick_7">
     <g id="line2d_7">
      <path d="M 284.591972 188.64 
L 284.591972 7.2 
" clip-path="url(#p4d99b921cc)" style="fill: none; stroke: #ffffff; stroke-linecap: round"/>
     </g>
     <g id="text_7">
      <!-- 384 -->
      <g style="fill: #262626" transform="translate(274.093847 206.498281) scale(0.11 -0.11)">
       <use xlink:href="#DejaVuSans-33"/>
       <use xlink:href="#DejaVuSans-38" x="63.623047"/>
       <use xlink:href="#DejaVuSans-34" x="127.246094"/>
      </g>
     </g>
    </g>
    <g id="xtick_8">
     <g id="line2d_8">
      <path d="M 318.983344 188.64 
L 318.983344 7.2 
" clip-path="url(#p4d99b921cc)" style="fill: none; stroke: #ffffff; stroke-linecap: round"/>
     </g>
     <g id="text_8">
      <!-- 448 -->
      <g style="fill: #262626" transform="translate(308.485219 206.498281) scale(0.11 -0.11)">
       <use xlink:href="#DejaVuSans-34"/>
       <use xlink:href="#DejaVuSans-34" x="63.623047"/>
       <use xlink:href="#DejaVuSans-38" x="127.246094"/>
      </g>
     </g>
    </g>
    <g id="xtick_9">
     <g id="line2d_9">
      <path d="M 353.374715 188.64 
L 353.374715 7.2 
" clip-path="url(#p4d99b921cc)" style="fill: none; stroke: #ffffff; stroke-linecap: round"/>
     </g>
     <g id="text_9">
      <!-- 512 -->
      <g style="fill: #262626" transform="translate(342.87659 206.498281) scale(0.11 -0.11)">
       <use xlink:href="#DejaVuSans-35"/>
       <use xlink:href="#DejaVuSans-31" x="63.623047"/>
       <use xlink:href="#DejaVuSans-32" x="127.246094"/>
      </g>
     </g>
    </g>
    <g id="xtick_10">
     <g id="line2d_10">
      <path d="M 387.766086 188.64 
L 387.766086 7.2 
" clip-path="url(#p4d99b921cc)" style="fill: none; stroke: #ffffff; stroke-linecap: round"/>
     </g>
     <g id="text_10">
      <!-- 576 -->
      <g style="fill: #262626" transform="translate(377.267961 206.498281) scale(0.11 -0.11)">
       <defs>
        <path id="DejaVuSans-37" d="M 525 4666 
L 3525 4666 
L 3525 4397 
L 1831 0 
L 1172 0 
L 2766 4134 
L 525 4134 
L 525 4666 
z
" transform="scale(0.015625)"/>
       </defs>
       <use xlink:href="#DejaVuSans-35"/>
       <use xlink:href="#DejaVuSans-37" x="63.623047"/>
       <use xlink:href="#DejaVuSans-36" x="127.246094"/>
      </g>
     </g>
    </g>
    <g id="xtick_11">
     <g id="line2d_11">
      <path d="M 422.157458 188.64 
L 422.157458 7.2 
" clip-path="url(#p4d99b921cc)" style="fill: none; stroke: #ffffff; stroke-linecap: round"/>
     </g>
     <g id="text_11">
      <!-- 640 -->
      <g style="fill: #262626" transform="translate(411.659333 206.498281) scale(0.11 -0.11)">
       <use xlink:href="#DejaVuSans-36"/>
       <use xlink:href="#DejaVuSans-34" x="63.623047"/>
       <use xlink:href="#DejaVuSans-30" x="127.246094"/>
      </g>
     </g>
    </g>
    <g id="xtick_12">
     <g id="line2d_12">
      <path d="M 456.548829 188.64 
L 456.548829 7.2 
" clip-path="url(#p4d99b921cc)" style="fill: none; stroke: #ffffff; stroke-linecap: round"/>
     </g>
     <g id="text_12">
      <!-- 704 -->
      <g style="fill: #262626" transform="translate(446.050704 206.498281) scale(0.11 -0.11)">
       <use xlink:href="#DejaVuSans-37"/>
       <use xlink:href="#DejaVuSans-30" x="63.623047"/>
       <use xlink:href="#DejaVuSans-34" x="127.246094"/>
      </g>
     </g>
    </g>
    <g id="xtick_13">
     <g id="line2d_13">
      <path d="M 490.9402 188.64 
L 490.9402 7.2 
" clip-path="url(#p4d99b921cc)" style="fill: none; stroke: #ffffff; stroke-linecap: round"/>
     </g>
     <g id="text_13">
      <!-- 768 -->
      <g style="fill: #262626" transform="translate(480.442075 206.498281) scale(0.11 -0.11)">
       <use xlink:href="#DejaVuSans-37"/>
       <use xlink:href="#DejaVuSans-36" x="63.623047"/>
       <use xlink:href="#DejaVuSans-38" x="127.246094"/>
      </g>
     </g>
    </g>
    <g id="xtick_14">
     <g id="line2d_14">
      <path d="M 525.331572 188.64 
L 525.331572 7.2 
" clip-path="url(#p4d99b921cc)" style="fill: none; stroke: #ffffff; stroke-linecap: round"/>
     </g>
     <g id="text_14">
      <!-- 832 -->
      <g style="fill: #262626" transform="translate(514.833447 206.498281) scale(0.11 -0.11)">
       <use xlink:href="#DejaVuSans-38"/>
       <use xlink:href="#DejaVuSans-33" x="63.623047"/>
       <use xlink:href="#DejaVuSans-32" x="127.246094"/>
      </g>
     </g>
    </g>
    <g id="xtick_15">
     <g id="line2d_15">
      <path d="M 559.722943 188.64 
L 559.722943 7.2 
" clip-path="url(#p4d99b921cc)" style="fill: none; stroke: #ffffff; stroke-linecap: round"/>
     </g>
     <g id="text_15">
      <!-- 896 -->
      <g style="fill: #262626" transform="translate(549.224818 206.498281) scale(0.11 -0.11)">
       <use xlink:href="#DejaVuSans-38"/>
       <use xlink:href="#DejaVuSans-39" x="63.623047"/>
       <use xlink:href="#DejaVuSans-36" x="127.246094"/>
      </g>
     </g>
    </g>
    <g id="xtick_16">
     <g id="line2d_16">
      <path d="M 594.114314 188.64 
L 594.114314 7.2 
" clip-path="url(#p4d99b921cc)" style="fill: none; stroke: #ffffff; stroke-linecap: round"/>
     </g>
     <g id="text_16">
      <!-- 960 -->
      <g style="fill: #262626" transform="translate(583.616189 206.498281) scale(0.11 -0.11)">
       <use xlink:href="#DejaVuSans-39"/>
       <use xlink:href="#DejaVuSans-36" x="63.623047"/>
       <use xlink:href="#DejaVuSans-30" x="127.246094"/>
      </g>
     </g>
    </g>
    <g id="xtick_17"/>
    <g id="xtick_18"/>
    <g id="xtick_19"/>
    <g id="xtick_20"/>
    <g id="xtick_21"/>
    <g id="xtick_22"/>
    <g id="xtick_23"/>
    <g id="xtick_24"/>
    <g id="xtick_25"/>
    <g id="xtick_26"/>
    <g id="xtick_27"/>
    <g id="xtick_28"/>
    <g id="xtick_29"/>
    <g id="xtick_30"/>
    <g id="xtick_31"/>
    <g id="xtick_32"/>
   </g>
   <g id="matplotlib.axis_2">
    <g id="ytick_1">
     <g id="line2d_17">
      <path d="M 53.31 181.907658 
L 611.31 181.907658 
" clip-path="url(#p4d99b921cc)" style="fill: none; stroke: #ffffff; stroke-linecap: round"/>
     </g>
     <g id="text_17">
      <!-- 0 -->
      <g style="fill: #262626" transform="translate(36.81125 186.086799) scale(0.11 -0.11)">
       <use xlink:href="#DejaVuSans-30"/>
      </g>
     </g>
    </g>
    <g id="ytick_2">
     <g id="line2d_18">
      <path d="M 53.31 142.558809 
L 611.31 142.558809 
" clip-path="url(#p4d99b921cc)" style="fill: none; stroke: #ffffff; stroke-linecap: round"/>
     </g>
     <g id="text_18">
      <!-- 1 -->
      <g style="fill: #262626" transform="translate(36.81125 146.73795) scale(0.11 -0.11)">
       <use xlink:href="#DejaVuSans-31"/>
      </g>
     </g>
    </g>
    <g id="ytick_3">
     <g id="line2d_19">
      <path d="M 53.31 103.209961 
L 611.31 103.209961 
" clip-path="url(#p4d99b921cc)" style="fill: none; stroke: #ffffff; stroke-linecap: round"/>
     </g>
     <g id="text_19">
      <!-- 2 -->
      <g style="fill: #262626" transform="translate(36.81125 107.389101) scale(0.11 -0.11)">
       <use xlink:href="#DejaVuSans-32"/>
      </g>
     </g>
    </g>
    <g id="ytick_4">
     <g id="line2d_20">
      <path d="M 53.31 63.861112 
L 611.31 63.861112 
" clip-path="url(#p4d99b921cc)" style="fill: none; stroke: #ffffff; stroke-linecap: round"/>
     </g>
     <g id="text_20">
      <!-- 3 -->
      <g style="fill: #262626" transform="translate(36.81125 68.040253) scale(0.11 -0.11)">
       <use xlink:href="#DejaVuSans-33"/>
      </g>
     </g>
    </g>
    <g id="ytick_5">
     <g id="line2d_21">
      <path d="M 53.31 24.512264 
L 611.31 24.512264 
" clip-path="url(#p4d99b921cc)" style="fill: none; stroke: #ffffff; stroke-linecap: round"/>
     </g>
     <g id="text_21">
      <!-- 4 -->
      <g style="fill: #262626" transform="translate(36.81125 28.691404) scale(0.11 -0.11)">
       <use xlink:href="#DejaVuSans-34"/>
      </g>
     </g>
    </g>
    <g id="text_22">
     <!-- Latency [ms] -->
     <g style="fill: #262626" transform="translate(30.315625 137.195625) rotate(-90) scale(0.12 -0.12)">
      <defs>
       <path id="DejaVuSans-4c" d="M 628 4666 
L 1259 4666 
L 1259 531 
L 3531 531 
L 3531 0 
L 628 0 
L 628 4666 
z
" transform="scale(0.015625)"/>
       <path id="DejaVuSans-61" d="M 2194 1759 
Q 1497 1759 1228 1600 
Q 959 1441 959 1056 
Q 959 750 1161 570 
Q 1363 391 1709 391 
Q 2188 391 2477 730 
Q 2766 1069 2766 1631 
L 2766 1759 
L 2194 1759 
z
M 3341 1997 
L 3341 0 
L 2766 0 
L 2766 531 
Q 2569 213 2275 61 
Q 1981 -91 1556 -91 
Q 1019 -91 701 211 
Q 384 513 384 1019 
Q 384 1609 779 1909 
Q 1175 2209 1959 2209 
L 2766 2209 
L 2766 2266 
Q 2766 2663 2505 2880 
Q 2244 3097 1772 3097 
Q 1472 3097 1187 3025 
Q 903 2953 641 2809 
L 641 3341 
Q 956 3463 1253 3523 
Q 1550 3584 1831 3584 
Q 2591 3584 2966 3190 
Q 3341 2797 3341 1997 
z
" transform="scale(0.015625)"/>
       <path id="DejaVuSans-74" d="M 1172 4494 
L 1172 3500 
L 2356 3500 
L 2356 3053 
L 1172 3053 
L 1172 1153 
Q 1172 725 1289 603 
Q 1406 481 1766 481 
L 2356 481 
L 2356 0 
L 1766 0 
Q 1100 0 847 248 
Q 594 497 594 1153 
L 594 3053 
L 172 3053 
L 172 3500 
L 594 3500 
L 594 4494 
L 1172 4494 
z
" transform="scale(0.015625)"/>
       <path id="DejaVuSans-65" d="M 3597 1894 
L 3597 1613 
L 953 1613 
Q 991 1019 1311 708 
Q 1631 397 2203 397 
Q 2534 397 2845 478 
Q 3156 559 3463 722 
L 3463 178 
Q 3153 47 2828 -22 
Q 2503 -91 2169 -91 
Q 1331 -91 842 396 
Q 353 884 353 1716 
Q 353 2575 817 3079 
Q 1281 3584 2069 3584 
Q 2775 3584 3186 3129 
Q 3597 2675 3597 1894 
z
M 3022 2063 
Q 3016 2534 2758 2815 
Q 2500 3097 2075 3097 
Q 1594 3097 1305 2825 
Q 1016 2553 972 2059 
L 3022 2063 
z
" transform="scale(0.015625)"/>
       <path id="DejaVuSans-6e" d="M 3513 2113 
L 3513 0 
L 2938 0 
L 2938 2094 
Q 2938 2591 2744 2837 
Q 2550 3084 2163 3084 
Q 1697 3084 1428 2787 
Q 1159 2491 1159 1978 
L 1159 0 
L 581 0 
L 581 3500 
L 1159 3500 
L 1159 2956 
Q 1366 3272 1645 3428 
Q 1925 3584 2291 3584 
Q 2894 3584 3203 3211 
Q 3513 2838 3513 2113 
z
" transform="scale(0.015625)"/>
       <path id="DejaVuSans-63" d="M 3122 3366 
L 3122 2828 
Q 2878 2963 2633 3030 
Q 2388 3097 2138 3097 
Q 1578 3097 1268 2742 
Q 959 2388 959 1747 
Q 959 1106 1268 751 
Q 1578 397 2138 397 
Q 2388 397 2633 464 
Q 2878 531 3122 666 
L 3122 134 
Q 2881 22 2623 -34 
Q 2366 -91 2075 -91 
Q 1284 -91 818 406 
Q 353 903 353 1747 
Q 353 2603 823 3093 
Q 1294 3584 2113 3584 
Q 2378 3584 2631 3529 
Q 2884 3475 3122 3366 
z
" transform="scale(0.015625)"/>
       <path id="DejaVuSans-79" d="M 2059 -325 
Q 1816 -950 1584 -1140 
Q 1353 -1331 966 -1331 
L 506 -1331 
L 506 -850 
L 844 -850 
Q 1081 -850 1212 -737 
Q 1344 -625 1503 -206 
L 1606 56 
L 191 3500 
L 800 3500 
L 1894 763 
L 2988 3500 
L 3597 3500 
L 2059 -325 
z
" transform="scale(0.015625)"/>
       <path id="DejaVuSans-20" transform="scale(0.015625)"/>
       <path id="DejaVuSans-5b" d="M 550 4863 
L 1875 4863 
L 1875 4416 
L 1125 4416 
L 1125 -397 
L 1875 -397 
L 1875 -844 
L 550 -844 
L 550 4863 
z
" transform="scale(0.015625)"/>
       <path id="DejaVuSans-6d" d="M 3328 2828 
Q 3544 3216 3844 3400 
Q 4144 3584 4550 3584 
Q 5097 3584 5394 3201 
Q 5691 2819 5691 2113 
L 5691 0 
L 5113 0 
L 5113 2094 
Q 5113 2597 4934 2840 
Q 4756 3084 4391 3084 
Q 3944 3084 3684 2787 
Q 3425 2491 3425 1978 
L 3425 0 
L 2847 0 
L 2847 2094 
Q 2847 2600 2669 2842 
Q 2491 3084 2119 3084 
Q 1678 3084 1418 2786 
Q 1159 2488 1159 1978 
L 1159 0 
L 581 0 
L 581 3500 
L 1159 3500 
L 1159 2956 
Q 1356 3278 1631 3431 
Q 1906 3584 2284 3584 
Q 2666 3584 2933 3390 
Q 3200 3197 3328 2828 
z
" transform="scale(0.015625)"/>
       <path id="DejaVuSans-73" d="M 2834 3397 
L 2834 2853 
Q 2591 2978 2328 3040 
Q 2066 3103 1784 3103 
Q 1356 3103 1142 2972 
Q 928 2841 928 2578 
Q 928 2378 1081 2264 
Q 1234 2150 1697 2047 
L 1894 2003 
Q 2506 1872 2764 1633 
Q 3022 1394 3022 966 
Q 3022 478 2636 193 
Q 2250 -91 1575 -91 
Q 1294 -91 989 -36 
Q 684 19 347 128 
L 347 722 
Q 666 556 975 473 
Q 1284 391 1588 391 
Q 1994 391 2212 530 
Q 2431 669 2431 922 
Q 2431 1156 2273 1281 
Q 2116 1406 1581 1522 
L 1381 1569 
Q 847 1681 609 1914 
Q 372 2147 372 2553 
Q 372 3047 722 3315 
Q 1072 3584 1716 3584 
Q 2034 3584 2315 3537 
Q 2597 3491 2834 3397 
z
" transform="scale(0.015625)"/>
       <path id="DejaVuSans-5d" d="M 1947 4863 
L 1947 -844 
L 622 -844 
L 622 -397 
L 1369 -397 
L 1369 4416 
L 622 4416 
L 622 4863 
L 1947 4863 
z
" transform="scale(0.015625)"/>
      </defs>
      <use xlink:href="#DejaVuSans-4c"/>
      <use xlink:href="#DejaVuSans-61" x="55.712891"/>
      <use xlink:href="#DejaVuSans-74" x="116.992188"/>
      <use xlink:href="#DejaVuSans-65" x="156.201172"/>
      <use xlink:href="#DejaVuSans-6e" x="217.724609"/>
      <use xlink:href="#DejaVuSans-63" x="281.103516"/>
      <use xlink:href="#DejaVuSans-79" x="336.083984"/>
      <use xlink:href="#DejaVuSans-20" x="395.263672"/>
      <use xlink:href="#DejaVuSans-5b" x="427.050781"/>
      <use xlink:href="#DejaVuSans-6d" x="466.064453"/>
      <use xlink:href="#DejaVuSans-73" x="563.476562"/>
      <use xlink:href="#DejaVuSans-5d" x="615.576172"/>
     </g>
    </g>
   </g>
   <g id="PolyCollection_1"/>
   <g id="PolyCollection_2"/>
   <g id="PolyCollection_3">
    <defs>
     <path id="m2340f0089e" d="M 78.243744 -367.352415 
L 78.243744 -367.352415 
L 95.43943 -325.20242 
L 112.635116 -299.54943 
L 129.830801 -318.837744 
L 147.026487 -319.37879 
L 164.222173 -320.347756 
L 181.417858 -320.979797 
L 198.613544 -321.951221 
L 215.80923 -322.583262 
L 233.004915 -323.552228 
L 250.200601 -324.186728 
L 267.396287 -325.160612 
L 284.591972 -325.795112 
L 301.787658 -326.766537 
L 318.983344 -327.396118 
L 336.179029 -329.405369 
L 353.374715 -330.101352 
L 370.570401 -331.134259 
L 387.766086 -331.798271 
L 404.961772 -332.831178 
L 422.157458 -333.500108 
L 439.353143 -334.540394 
L 456.548829 -335.221621 
L 473.744515 -336.392249 
L 490.9402 -337.031668 
L 508.135886 -338.000633 
L 525.331572 -338.632674 
L 542.527257 -339.606558 
L 559.722943 -358.26529 
L 576.918629 -284.205838 
L 576.918629 -284.205838 
L 576.918629 -284.205838 
L 559.722943 -358.26529 
L 542.527257 -339.606558 
L 525.331572 -338.632674 
L 508.135886 -338.000633 
L 490.9402 -337.031668 
L 473.744515 -336.392249 
L 456.548829 -335.425743 
L 439.353143 -334.540394 
L 422.157458 -333.500108 
L 404.961772 -332.831178 
L 387.766086 -331.798271 
L 370.570401 -331.134259 
L 353.374715 -330.101352 
L 336.179029 -329.405369 
L 318.983344 -327.396118 
L 301.787658 -326.766537 
L 284.591972 -325.795112 
L 267.396287 -325.160612 
L 250.200601 -324.186728 
L 233.004915 -323.552228 
L 215.80923 -322.583262 
L 198.613544 -321.951221 
L 181.417858 -320.979797 
L 164.222173 -320.347756 
L 147.026487 -319.37879 
L 129.830801 -318.837744 
L 112.635116 -299.54943 
L 95.43943 -325.20242 
L 78.243744 -367.352415 
z
" style="stroke: #ffffff; stroke-opacity: 0.2"/>
    </defs>
    <g clip-path="url(#p4d99b921cc)">
     <use xlink:href="#m2340f0089e" x="0" y="382.799688" style="fill: #3e356b; fill-opacity: 0.2; stroke: #ffffff; stroke-opacity: 0.2"/>
    </g>
   </g>
   <g id="PolyCollection_4"/>
   <g id="PolyCollection_5">
    <defs>
     <path id="m14b451e142" d="M 78.243744 -358.926843 
L 78.243744 -358.83093 
L 95.43943 -297.589366 
L 112.635116 -289.362997 
L 129.830801 -281.134169 
L 147.026487 -281.20057 
L 164.222173 -254.743388 
L 181.417858 -254.809789 
L 198.613544 -254.873731 
L 215.80923 -254.940132 
L 233.004915 -246.711304 
L 250.200601 -246.777706 
L 267.396287 -246.841647 
L 284.591972 -246.900671 
L 301.787658 -246.947397 
L 318.983344 -247.006421 
L 336.179029 -247.072822 
L 353.374715 -247.168735 
L 370.570401 -220.711553 
L 387.766086 -220.777954 
L 404.961772 -220.844355 
L 422.157458 -220.908297 
L 439.353143 -220.974698 
L 456.548829 -221.055855 
L 473.744515 -221.119797 
L 490.9402 -221.186198 
L 508.135886 -221.25014 
L 525.331572 -221.314082 
L 542.527257 -221.380483 
L 559.722943 -221.444425 
L 576.918629 -221.510826 
L 576.918629 -221.510826 
L 576.918629 -221.510826 
L 559.722943 -221.596902 
L 542.527257 -221.380483 
L 525.331572 -221.314082 
L 508.135886 -221.25014 
L 490.9402 -221.186198 
L 473.744515 -221.267355 
L 456.548829 -221.055855 
L 439.353143 -220.974698 
L 422.157458 -220.908297 
L 404.961772 -220.844355 
L 387.766086 -221.085367 
L 370.570401 -220.711553 
L 353.374715 -247.168735 
L 336.179029 -247.072822 
L 318.983344 -247.006421 
L 301.787658 -246.947397 
L 284.591972 -246.900671 
L 267.396287 -247.247432 
L 250.200601 -246.930182 
L 233.004915 -246.711304 
L 215.80923 -254.940132 
L 198.613544 -254.873731 
L 181.417858 -254.809789 
L 164.222173 -254.743388 
L 147.026487 -281.20057 
L 129.830801 -281.134169 
L 112.635116 -289.362997 
L 95.43943 -297.648389 
L 78.243744 -358.926843 
z
" style="stroke: #ffffff; stroke-opacity: 0.2"/>
    </defs>
    <g clip-path="url(#p4d99b921cc)">
     <use xlink:href="#m14b451e142" x="0" y="382.799688" style="fill: #357ba3; fill-opacity: 0.2; stroke: #ffffff; stroke-opacity: 0.2"/>
    </g>
   </g>
   <g id="PolyCollection_6"/>
   <g id="PolyCollection_7">
    <defs>
     <path id="ma32fd7af93" d="M 78.243744 -202.979978 
L 78.243744 -202.979978 
L 95.43943 -203.07835 
L 112.635116 -203.142292 
L 129.830801 -203.208693 
L 147.026487 -203.275094 
L 164.222173 -203.339036 
L 181.417858 -203.405437 
L 198.613544 -203.469379 
L 215.80923 -203.53578 
L 233.004915 -203.599722 
L 250.200601 -203.668583 
L 267.396287 -203.732525 
L 284.591972 -203.796466 
L 301.787658 -203.862868 
L 318.983344 -203.929269 
L 336.179029 -203.993211 
L 353.374715 -204.057153 
L 370.570401 -204.123554 
L 387.766086 -204.189955 
L 404.961772 -204.256356 
L 422.157458 -204.322757 
L 439.353143 -204.389158 
L 456.548829 -204.465397 
L 473.744515 -204.531798 
L 490.9402 -204.59574 
L 508.135886 -204.662141 
L 525.331572 -204.726083 
L 542.527257 -204.792484 
L 559.722943 -204.858885 
L 576.918629 -204.922827 
L 576.918629 -204.922827 
L 576.918629 -204.922827 
L 559.722943 -204.858885 
L 542.527257 -204.792484 
L 525.331572 -204.726083 
L 508.135886 -204.814618 
L 490.9402 -204.59574 
L 473.744515 -204.531798 
L 456.548829 -204.465397 
L 439.353143 -204.389158 
L 422.157458 -204.322757 
L 404.961772 -204.497368 
L 387.766086 -204.189955 
L 370.570401 -204.27849 
L 353.374715 -204.057153 
L 336.179029 -203.993211 
L 318.983344 -203.929269 
L 301.787658 -203.862868 
L 284.591972 -203.796466 
L 267.396287 -203.870246 
L 250.200601 -203.668583 
L 233.004915 -203.599722 
L 215.80923 -203.821059 
L 198.613544 -203.469379 
L 181.417858 -203.405437 
L 164.222173 -203.339036 
L 147.026487 -203.275094 
L 129.830801 -203.208693 
L 112.635116 -203.142292 
L 95.43943 -203.07835 
L 78.243744 -202.979978 
z
" style="stroke: #ffffff; stroke-opacity: 0.2"/>
    </defs>
    <g clip-path="url(#p4d99b921cc)">
     <use xlink:href="#ma32fd7af93" x="0" y="382.799688" style="fill: #4bc2ad; fill-opacity: 0.2; stroke: #ffffff; stroke-opacity: 0.2"/>
    </g>
   </g>
   <g id="line2d_22">
    <path d="M 78.243744 180.392727 
L 95.43943 179.214721 
L 112.635116 178.383477 
L 129.830801 177.20793 
L 147.026487 176.376685 
L 164.222173 175.203598 
L 181.417858 174.374813 
L 198.613544 173.199266 
L 215.80923 172.368021 
L 233.004915 171.192475 
L 250.200601 170.363689 
L 267.396287 169.188143 
L 284.591972 168.356898 
L 301.787658 167.183811 
L 318.983344 166.352566 
L 336.179029 165.177019 
L 353.374715 164.345775 
L 370.570401 163.172385 
L 387.766086 162.341443 
L 404.961772 161.168355 
L 422.157458 142.10871 
L 439.353143 140.93321 
L 456.548829 140.104425 
L 473.744515 138.926419 
L 490.9402 138.095174 
L 508.135886 136.924546 
L 525.331572 136.090842 
L 542.527257 134.917755 
L 559.722943 134.08651 
L 576.918629 132.913423 
" clip-path="url(#p4d99b921cc)" style="fill: none; stroke: #aaaaaa; stroke-width: 1.5; stroke-linecap: round"/>
    <defs>
     <path id="m56b8c65a26" d="M -1.5 3 
L 0 1.5 
L 1.5 3 
L 3 1.5 
L 1.5 0 
L 3 -1.5 
L 1.5 -3 
L 0 -1.5 
L -1.5 -3 
L -3 -1.5 
L -1.5 0 
L -3 1.5 
z
" style="stroke: #ffffff; stroke-width: 0.75; stroke-linejoin: miter"/>
    </defs>
    <g clip-path="url(#p4d99b921cc)">
     <use xlink:href="#m56b8c65a26" x="78.243744" y="180.392727" style="fill: #aaaaaa; stroke: #ffffff; stroke-width: 0.75; stroke-linejoin: miter"/>
     <use xlink:href="#m56b8c65a26" x="95.43943" y="179.214721" style="fill: #aaaaaa; stroke: #ffffff; stroke-width: 0.75; stroke-linejoin: miter"/>
     <use xlink:href="#m56b8c65a26" x="112.635116" y="178.383477" style="fill: #aaaaaa; stroke: #ffffff; stroke-width: 0.75; stroke-linejoin: miter"/>
     <use xlink:href="#m56b8c65a26" x="129.830801" y="177.20793" style="fill: #aaaaaa; stroke: #ffffff; stroke-width: 0.75; stroke-linejoin: miter"/>
     <use xlink:href="#m56b8c65a26" x="147.026487" y="176.376685" style="fill: #aaaaaa; stroke: #ffffff; stroke-width: 0.75; stroke-linejoin: miter"/>
     <use xlink:href="#m56b8c65a26" x="164.222173" y="175.203598" style="fill: #aaaaaa; stroke: #ffffff; stroke-width: 0.75; stroke-linejoin: miter"/>
     <use xlink:href="#m56b8c65a26" x="181.417858" y="174.374813" style="fill: #aaaaaa; stroke: #ffffff; stroke-width: 0.75; stroke-linejoin: miter"/>
     <use xlink:href="#m56b8c65a26" x="198.613544" y="173.199266" style="fill: #aaaaaa; stroke: #ffffff; stroke-width: 0.75; stroke-linejoin: miter"/>
     <use xlink:href="#m56b8c65a26" x="215.80923" y="172.368021" style="fill: #aaaaaa; stroke: #ffffff; stroke-width: 0.75; stroke-linejoin: miter"/>
     <use xlink:href="#m56b8c65a26" x="233.004915" y="171.192475" style="fill: #aaaaaa; stroke: #ffffff; stroke-width: 0.75; stroke-linejoin: miter"/>
     <use xlink:href="#m56b8c65a26" x="250.200601" y="170.363689" style="fill: #aaaaaa; stroke: #ffffff; stroke-width: 0.75; stroke-linejoin: miter"/>
     <use xlink:href="#m56b8c65a26" x="267.396287" y="169.188143" style="fill: #aaaaaa; stroke: #ffffff; stroke-width: 0.75; stroke-linejoin: miter"/>
     <use xlink:href="#m56b8c65a26" x="284.591972" y="168.356898" style="fill: #aaaaaa; stroke: #ffffff; stroke-width: 0.75; stroke-linejoin: miter"/>
     <use xlink:href="#m56b8c65a26" x="301.787658" y="167.183811" style="fill: #aaaaaa; stroke: #ffffff; stroke-width: 0.75; stroke-linejoin: miter"/>
     <use xlink:href="#m56b8c65a26" x="318.983344" y="166.352566" style="fill: #aaaaaa; stroke: #ffffff; stroke-width: 0.75; stroke-linejoin: miter"/>
     <use xlink:href="#m56b8c65a26" x="336.179029" y="165.177019" style="fill: #aaaaaa; stroke: #ffffff; stroke-width: 0.75; stroke-linejoin: miter"/>
     <use xlink:href="#m56b8c65a26" x="353.374715" y="164.345775" style="fill: #aaaaaa; stroke: #ffffff; stroke-width: 0.75; stroke-linejoin: miter"/>
     <use xlink:href="#m56b8c65a26" x="370.570401" y="163.172385" style="fill: #aaaaaa; stroke: #ffffff; stroke-width: 0.75; stroke-linejoin: miter"/>
     <use xlink:href="#m56b8c65a26" x="387.766086" y="162.341443" style="fill: #aaaaaa; stroke: #ffffff; stroke-width: 0.75; stroke-linejoin: miter"/>
     <use xlink:href="#m56b8c65a26" x="404.961772" y="161.168355" style="fill: #aaaaaa; stroke: #ffffff; stroke-width: 0.75; stroke-linejoin: miter"/>
     <use xlink:href="#m56b8c65a26" x="422.157458" y="142.10871" style="fill: #aaaaaa; stroke: #ffffff; stroke-width: 0.75; stroke-linejoin: miter"/>
     <use xlink:href="#m56b8c65a26" x="439.353143" y="140.93321" style="fill: #aaaaaa; stroke: #ffffff; stroke-width: 0.75; stroke-linejoin: miter"/>
     <use xlink:href="#m56b8c65a26" x="456.548829" y="140.104425" style="fill: #aaaaaa; stroke: #ffffff; stroke-width: 0.75; stroke-linejoin: miter"/>
     <use xlink:href="#m56b8c65a26" x="473.744515" y="138.926419" style="fill: #aaaaaa; stroke: #ffffff; stroke-width: 0.75; stroke-linejoin: miter"/>
     <use xlink:href="#m56b8c65a26" x="490.9402" y="138.095174" style="fill: #aaaaaa; stroke: #ffffff; stroke-width: 0.75; stroke-linejoin: miter"/>
     <use xlink:href="#m56b8c65a26" x="508.135886" y="136.924546" style="fill: #aaaaaa; stroke: #ffffff; stroke-width: 0.75; stroke-linejoin: miter"/>
     <use xlink:href="#m56b8c65a26" x="525.331572" y="136.090842" style="fill: #aaaaaa; stroke: #ffffff; stroke-width: 0.75; stroke-linejoin: miter"/>
     <use xlink:href="#m56b8c65a26" x="542.527257" y="134.917755" style="fill: #aaaaaa; stroke: #ffffff; stroke-width: 0.75; stroke-linejoin: miter"/>
     <use xlink:href="#m56b8c65a26" x="559.722943" y="134.08651" style="fill: #aaaaaa; stroke: #ffffff; stroke-width: 0.75; stroke-linejoin: miter"/>
     <use xlink:href="#m56b8c65a26" x="576.918629" y="132.913423" style="fill: #aaaaaa; stroke: #ffffff; stroke-width: 0.75; stroke-linejoin: miter"/>
    </g>
   </g>
   <g id="line2d_23">
    <path d="M 78.243744 15.447273 
L 95.43943 57.597267 
L 112.635116 83.250257 
L 129.830801 63.961944 
L 147.026487 63.420897 
L 164.222173 62.451932 
L 181.417858 61.819891 
L 198.613544 60.848466 
L 215.80923 60.216425 
L 233.004915 59.24746 
L 250.200601 58.61296 
L 267.396287 57.639076 
L 284.591972 57.004575 
L 301.787658 56.033151 
L 318.983344 55.403569 
L 336.179029 53.394319 
L 353.374715 52.698336 
L 370.570401 51.665429 
L 387.766086 51.001417 
L 404.961772 49.968509 
L 422.157458 49.299579 
L 439.353143 48.259294 
L 456.548829 47.577863 
L 473.744515 46.407439 
L 490.9402 45.76802 
L 508.135886 44.799054 
L 525.331572 44.167014 
L 542.527257 43.19313 
L 559.722943 24.534397 
L 576.918629 98.593849 
" clip-path="url(#p4d99b921cc)" style="fill: none; stroke: #3e356b; stroke-width: 1.5; stroke-linecap: round"/>
    <defs>
     <path id="m5e2db836e4" d="M 0 3 
C 0.795609 3 1.55874 2.683901 2.12132 2.12132 
C 2.683901 1.55874 3 0.795609 3 0 
C 3 -0.795609 2.683901 -1.55874 2.12132 -2.12132 
C 1.55874 -2.683901 0.795609 -3 0 -3 
C -0.795609 -3 -1.55874 -2.683901 -2.12132 -2.12132 
C -2.683901 -1.55874 -3 -0.795609 -3 0 
C -3 0.795609 -2.683901 1.55874 -2.12132 2.12132 
C -1.55874 2.683901 -0.795609 3 0 3 
z
" style="stroke: #ffffff; stroke-width: 0.75"/>
    </defs>
    <g clip-path="url(#p4d99b921cc)">
     <use xlink:href="#m5e2db836e4" x="78.243744" y="15.447273" style="fill: #3e356b; stroke: #ffffff; stroke-width: 0.75"/>
     <use xlink:href="#m5e2db836e4" x="95.43943" y="57.597267" style="fill: #3e356b; stroke: #ffffff; stroke-width: 0.75"/>
     <use xlink:href="#m5e2db836e4" x="112.635116" y="83.250257" style="fill: #3e356b; stroke: #ffffff; stroke-width: 0.75"/>
     <use xlink:href="#m5e2db836e4" x="129.830801" y="63.961944" style="fill: #3e356b; stroke: #ffffff; stroke-width: 0.75"/>
     <use xlink:href="#m5e2db836e4" x="147.026487" y="63.420897" style="fill: #3e356b; stroke: #ffffff; stroke-width: 0.75"/>
     <use xlink:href="#m5e2db836e4" x="164.222173" y="62.451932" style="fill: #3e356b; stroke: #ffffff; stroke-width: 0.75"/>
     <use xlink:href="#m5e2db836e4" x="181.417858" y="61.819891" style="fill: #3e356b; stroke: #ffffff; stroke-width: 0.75"/>
     <use xlink:href="#m5e2db836e4" x="198.613544" y="60.848466" style="fill: #3e356b; stroke: #ffffff; stroke-width: 0.75"/>
     <use xlink:href="#m5e2db836e4" x="215.80923" y="60.216425" style="fill: #3e356b; stroke: #ffffff; stroke-width: 0.75"/>
     <use xlink:href="#m5e2db836e4" x="233.004915" y="59.24746" style="fill: #3e356b; stroke: #ffffff; stroke-width: 0.75"/>
     <use xlink:href="#m5e2db836e4" x="250.200601" y="58.61296" style="fill: #3e356b; stroke: #ffffff; stroke-width: 0.75"/>
     <use xlink:href="#m5e2db836e4" x="267.396287" y="57.639076" style="fill: #3e356b; stroke: #ffffff; stroke-width: 0.75"/>
     <use xlink:href="#m5e2db836e4" x="284.591972" y="57.004575" style="fill: #3e356b; stroke: #ffffff; stroke-width: 0.75"/>
     <use xlink:href="#m5e2db836e4" x="301.787658" y="56.033151" style="fill: #3e356b; stroke: #ffffff; stroke-width: 0.75"/>
     <use xlink:href="#m5e2db836e4" x="318.983344" y="55.403569" style="fill: #3e356b; stroke: #ffffff; stroke-width: 0.75"/>
     <use xlink:href="#m5e2db836e4" x="336.179029" y="53.394319" style="fill: #3e356b; stroke: #ffffff; stroke-width: 0.75"/>
     <use xlink:href="#m5e2db836e4" x="353.374715" y="52.698336" style="fill: #3e356b; stroke: #ffffff; stroke-width: 0.75"/>
     <use xlink:href="#m5e2db836e4" x="370.570401" y="51.665429" style="fill: #3e356b; stroke: #ffffff; stroke-width: 0.75"/>
     <use xlink:href="#m5e2db836e4" x="387.766086" y="51.001417" style="fill: #3e356b; stroke: #ffffff; stroke-width: 0.75"/>
     <use xlink:href="#m5e2db836e4" x="404.961772" y="49.968509" style="fill: #3e356b; stroke: #ffffff; stroke-width: 0.75"/>
     <use xlink:href="#m5e2db836e4" x="422.157458" y="49.299579" style="fill: #3e356b; stroke: #ffffff; stroke-width: 0.75"/>
     <use xlink:href="#m5e2db836e4" x="439.353143" y="48.259294" style="fill: #3e356b; stroke: #ffffff; stroke-width: 0.75"/>
     <use xlink:href="#m5e2db836e4" x="456.548829" y="47.577863" style="fill: #3e356b; stroke: #ffffff; stroke-width: 0.75"/>
     <use xlink:href="#m5e2db836e4" x="473.744515" y="46.407439" style="fill: #3e356b; stroke: #ffffff; stroke-width: 0.75"/>
     <use xlink:href="#m5e2db836e4" x="490.9402" y="45.76802" style="fill: #3e356b; stroke: #ffffff; stroke-width: 0.75"/>
     <use xlink:href="#m5e2db836e4" x="508.135886" y="44.799054" style="fill: #3e356b; stroke: #ffffff; stroke-width: 0.75"/>
     <use xlink:href="#m5e2db836e4" x="525.331572" y="44.167014" style="fill: #3e356b; stroke: #ffffff; stroke-width: 0.75"/>
     <use xlink:href="#m5e2db836e4" x="542.527257" y="43.19313" style="fill: #3e356b; stroke: #ffffff; stroke-width: 0.75"/>
     <use xlink:href="#m5e2db836e4" x="559.722943" y="24.534397" style="fill: #3e356b; stroke: #ffffff; stroke-width: 0.75"/>
     <use xlink:href="#m5e2db836e4" x="576.918629" y="98.593849" style="fill: #3e356b; stroke: #ffffff; stroke-width: 0.75"/>
    </g>
   </g>
   <g id="line2d_24">
    <path d="M 78.243744 23.968662 
L 95.43943 85.210263 
L 112.635116 93.436691 
L 129.830801 101.665519 
L 147.026487 101.599117 
L 164.222173 128.056299 
L 181.417858 127.989898 
L 198.613544 127.925956 
L 215.80923 127.859555 
L 233.004915 136.088383 
L 250.200601 136.021829 
L 267.396287 135.957634 
L 284.591972 135.899017 
L 301.787658 135.85229 
L 318.983344 135.793267 
L 336.179029 135.726866 
L 353.374715 135.630953 
L 370.570401 162.088135 
L 387.766086 162.021426 
L 404.961772 161.955332 
L 422.157458 161.891391 
L 439.353143 161.824989 
L 456.548829 161.743832 
L 473.744515 161.679743 
L 490.9402 161.613489 
L 508.135886 161.549547 
L 525.331572 161.485606 
L 542.527257 161.419204 
L 559.722943 161.35511 
L 576.918629 161.288861 
" clip-path="url(#p4d99b921cc)" style="fill: none; stroke: #357ba3; stroke-width: 1.5; stroke-linecap: round"/>
    <defs>
     <path id="m0e8af27145" d="M -3 3 
L 3 3 
L 3 -3 
L -3 -3 
z
" style="stroke: #ffffff; stroke-width: 0.75; stroke-linejoin: miter"/>
    </defs>
    <g clip-path="url(#p4d99b921cc)">
     <use xlink:href="#m0e8af27145" x="78.243744" y="23.968662" style="fill: #357ba3; stroke: #ffffff; stroke-width: 0.75; stroke-linejoin: miter"/>
     <use xlink:href="#m0e8af27145" x="95.43943" y="85.210263" style="fill: #357ba3; stroke: #ffffff; stroke-width: 0.75; stroke-linejoin: miter"/>
     <use xlink:href="#m0e8af27145" x="112.635116" y="93.436691" style="fill: #357ba3; stroke: #ffffff; stroke-width: 0.75; stroke-linejoin: miter"/>
     <use xlink:href="#m0e8af27145" x="129.830801" y="101.665519" style="fill: #357ba3; stroke: #ffffff; stroke-width: 0.75; stroke-linejoin: miter"/>
     <use xlink:href="#m0e8af27145" x="147.026487" y="101.599117" style="fill: #357ba3; stroke: #ffffff; stroke-width: 0.75; stroke-linejoin: miter"/>
     <use xlink:href="#m0e8af27145" x="164.222173" y="128.056299" style="fill: #357ba3; stroke: #ffffff; stroke-width: 0.75; stroke-linejoin: miter"/>
     <use xlink:href="#m0e8af27145" x="181.417858" y="127.989898" style="fill: #357ba3; stroke: #ffffff; stroke-width: 0.75; stroke-linejoin: miter"/>
     <use xlink:href="#m0e8af27145" x="198.613544" y="127.925956" style="fill: #357ba3; stroke: #ffffff; stroke-width: 0.75; stroke-linejoin: miter"/>
     <use xlink:href="#m0e8af27145" x="215.80923" y="127.859555" style="fill: #357ba3; stroke: #ffffff; stroke-width: 0.75; stroke-linejoin: miter"/>
     <use xlink:href="#m0e8af27145" x="233.004915" y="136.088383" style="fill: #357ba3; stroke: #ffffff; stroke-width: 0.75; stroke-linejoin: miter"/>
     <use xlink:href="#m0e8af27145" x="250.200601" y="136.021829" style="fill: #357ba3; stroke: #ffffff; stroke-width: 0.75; stroke-linejoin: miter"/>
     <use xlink:href="#m0e8af27145" x="267.396287" y="135.957634" style="fill: #357ba3; stroke: #ffffff; stroke-width: 0.75; stroke-linejoin: miter"/>
     <use xlink:href="#m0e8af27145" x="284.591972" y="135.899017" style="fill: #357ba3; stroke: #ffffff; stroke-width: 0.75; stroke-linejoin: miter"/>
     <use xlink:href="#m0e8af27145" x="301.787658" y="135.85229" style="fill: #357ba3; stroke: #ffffff; stroke-width: 0.75; stroke-linejoin: miter"/>
     <use xlink:href="#m0e8af27145" x="318.983344" y="135.793267" style="fill: #357ba3; stroke: #ffffff; stroke-width: 0.75; stroke-linejoin: miter"/>
     <use xlink:href="#m0e8af27145" x="336.179029" y="135.726866" style="fill: #357ba3; stroke: #ffffff; stroke-width: 0.75; stroke-linejoin: miter"/>
     <use xlink:href="#m0e8af27145" x="353.374715" y="135.630953" style="fill: #357ba3; stroke: #ffffff; stroke-width: 0.75; stroke-linejoin: miter"/>
     <use xlink:href="#m0e8af27145" x="370.570401" y="162.088135" style="fill: #357ba3; stroke: #ffffff; stroke-width: 0.75; stroke-linejoin: miter"/>
     <use xlink:href="#m0e8af27145" x="387.766086" y="162.021426" style="fill: #357ba3; stroke: #ffffff; stroke-width: 0.75; stroke-linejoin: miter"/>
     <use xlink:href="#m0e8af27145" x="404.961772" y="161.955332" style="fill: #357ba3; stroke: #ffffff; stroke-width: 0.75; stroke-linejoin: miter"/>
     <use xlink:href="#m0e8af27145" x="422.157458" y="161.891391" style="fill: #357ba3; stroke: #ffffff; stroke-width: 0.75; stroke-linejoin: miter"/>
     <use xlink:href="#m0e8af27145" x="439.353143" y="161.824989" style="fill: #357ba3; stroke: #ffffff; stroke-width: 0.75; stroke-linejoin: miter"/>
     <use xlink:href="#m0e8af27145" x="456.548829" y="161.743832" style="fill: #357ba3; stroke: #ffffff; stroke-width: 0.75; stroke-linejoin: miter"/>
     <use xlink:href="#m0e8af27145" x="473.744515" y="161.679743" style="fill: #357ba3; stroke: #ffffff; stroke-width: 0.75; stroke-linejoin: miter"/>
     <use xlink:href="#m0e8af27145" x="490.9402" y="161.613489" style="fill: #357ba3; stroke: #ffffff; stroke-width: 0.75; stroke-linejoin: miter"/>
     <use xlink:href="#m0e8af27145" x="508.135886" y="161.549547" style="fill: #357ba3; stroke: #ffffff; stroke-width: 0.75; stroke-linejoin: miter"/>
     <use xlink:href="#m0e8af27145" x="525.331572" y="161.485606" style="fill: #357ba3; stroke: #ffffff; stroke-width: 0.75; stroke-linejoin: miter"/>
     <use xlink:href="#m0e8af27145" x="542.527257" y="161.419204" style="fill: #357ba3; stroke: #ffffff; stroke-width: 0.75; stroke-linejoin: miter"/>
     <use xlink:href="#m0e8af27145" x="559.722943" y="161.35511" style="fill: #357ba3; stroke: #ffffff; stroke-width: 0.75; stroke-linejoin: miter"/>
     <use xlink:href="#m0e8af27145" x="576.918629" y="161.288861" style="fill: #357ba3; stroke: #ffffff; stroke-width: 0.75; stroke-linejoin: miter"/>
    </g>
   </g>
   <g id="line2d_25">
    <path d="M 78.243744 179.81971 
L 95.43943 179.721338 
L 112.635116 179.657396 
L 129.830801 179.590994 
L 147.026487 179.524593 
L 164.222173 179.460651 
L 181.417858 179.39425 
L 198.613544 179.330308 
L 215.80923 179.263622 
L 233.004915 179.199965 
L 250.200601 179.131105 
L 267.396287 179.067025 
L 284.591972 179.003221 
L 301.787658 178.93682 
L 318.983344 178.870419 
L 336.179029 178.806477 
L 353.374715 178.742535 
L 370.570401 178.675979 
L 387.766086 178.609733 
L 404.961772 178.54309 
L 422.157458 178.47693 
L 439.353143 178.410529 
L 456.548829 178.334291 
L 473.744515 178.267889 
L 490.9402 178.203948 
L 508.135886 178.137394 
L 525.331572 178.073605 
L 542.527257 178.007203 
L 559.722943 177.940802 
L 576.918629 177.87686 
" clip-path="url(#p4d99b921cc)" style="fill: none; stroke: #4bc2ad; stroke-width: 1.5; stroke-linecap: round"/>
    <defs>
     <path id="m69cbe443aa" d="M -0 3 
L 3 -3 
L -3 -3 
z
" style="stroke: #ffffff; stroke-width: 0.75; stroke-linejoin: miter"/>
    </defs>
    <g clip-path="url(#p4d99b921cc)">
     <use xlink:href="#m69cbe443aa" x="78.243744" y="179.81971" style="fill: #4bc2ad; stroke: #ffffff; stroke-width: 0.75; stroke-linejoin: miter"/>
     <use xlink:href="#m69cbe443aa" x="95.43943" y="179.721338" style="fill: #4bc2ad; stroke: #ffffff; stroke-width: 0.75; stroke-linejoin: miter"/>
     <use xlink:href="#m69cbe443aa" x="112.635116" y="179.657396" style="fill: #4bc2ad; stroke: #ffffff; stroke-width: 0.75; stroke-linejoin: miter"/>
     <use xlink:href="#m69cbe443aa" x="129.830801" y="179.590994" style="fill: #4bc2ad; stroke: #ffffff; stroke-width: 0.75; stroke-linejoin: miter"/>
     <use xlink:href="#m69cbe443aa" x="147.026487" y="179.524593" style="fill: #4bc2ad; stroke: #ffffff; stroke-width: 0.75; stroke-linejoin: miter"/>
     <use xlink:href="#m69cbe443aa" x="164.222173" y="179.460651" style="fill: #4bc2ad; stroke: #ffffff; stroke-width: 0.75; stroke-linejoin: miter"/>
     <use xlink:href="#m69cbe443aa" x="181.417858" y="179.39425" style="fill: #4bc2ad; stroke: #ffffff; stroke-width: 0.75; stroke-linejoin: miter"/>
     <use xlink:href="#m69cbe443aa" x="198.613544" y="179.330308" style="fill: #4bc2ad; stroke: #ffffff; stroke-width: 0.75; stroke-linejoin: miter"/>
     <use xlink:href="#m69cbe443aa" x="215.80923" y="179.263622" style="fill: #4bc2ad; stroke: #ffffff; stroke-width: 0.75; stroke-linejoin: miter"/>
     <use xlink:href="#m69cbe443aa" x="233.004915" y="179.199965" style="fill: #4bc2ad; stroke: #ffffff; stroke-width: 0.75; stroke-linejoin: miter"/>
     <use xlink:href="#m69cbe443aa" x="250.200601" y="179.131105" style="fill: #4bc2ad; stroke: #ffffff; stroke-width: 0.75; stroke-linejoin: miter"/>
     <use xlink:href="#m69cbe443aa" x="267.396287" y="179.067025" style="fill: #4bc2ad; stroke: #ffffff; stroke-width: 0.75; stroke-linejoin: miter"/>
     <use xlink:href="#m69cbe443aa" x="284.591972" y="179.003221" style="fill: #4bc2ad; stroke: #ffffff; stroke-width: 0.75; stroke-linejoin: miter"/>
     <use xlink:href="#m69cbe443aa" x="301.787658" y="178.93682" style="fill: #4bc2ad; stroke: #ffffff; stroke-width: 0.75; stroke-linejoin: miter"/>
     <use xlink:href="#m69cbe443aa" x="318.983344" y="178.870419" style="fill: #4bc2ad; stroke: #ffffff; stroke-width: 0.75; stroke-linejoin: miter"/>
     <use xlink:href="#m69cbe443aa" x="336.179029" y="178.806477" style="fill: #4bc2ad; stroke: #ffffff; stroke-width: 0.75; stroke-linejoin: miter"/>
     <use xlink:href="#m69cbe443aa" x="353.374715" y="178.742535" style="fill: #4bc2ad; stroke: #ffffff; stroke-width: 0.75; stroke-linejoin: miter"/>
     <use xlink:href="#m69cbe443aa" x="370.570401" y="178.675979" style="fill: #4bc2ad; stroke: #ffffff; stroke-width: 0.75; stroke-linejoin: miter"/>
     <use xlink:href="#m69cbe443aa" x="387.766086" y="178.609733" style="fill: #4bc2ad; stroke: #ffffff; stroke-width: 0.75; stroke-linejoin: miter"/>
     <use xlink:href="#m69cbe443aa" x="404.961772" y="178.54309" style="fill: #4bc2ad; stroke: #ffffff; stroke-width: 0.75; stroke-linejoin: miter"/>
     <use xlink:href="#m69cbe443aa" x="422.157458" y="178.47693" style="fill: #4bc2ad; stroke: #ffffff; stroke-width: 0.75; stroke-linejoin: miter"/>
     <use xlink:href="#m69cbe443aa" x="439.353143" y="178.410529" style="fill: #4bc2ad; stroke: #ffffff; stroke-width: 0.75; stroke-linejoin: miter"/>
     <use xlink:href="#m69cbe443aa" x="456.548829" y="178.334291" style="fill: #4bc2ad; stroke: #ffffff; stroke-width: 0.75; stroke-linejoin: miter"/>
     <use xlink:href="#m69cbe443aa" x="473.744515" y="178.267889" style="fill: #4bc2ad; stroke: #ffffff; stroke-width: 0.75; stroke-linejoin: miter"/>
     <use xlink:href="#m69cbe443aa" x="490.9402" y="178.203948" style="fill: #4bc2ad; stroke: #ffffff; stroke-width: 0.75; stroke-linejoin: miter"/>
     <use xlink:href="#m69cbe443aa" x="508.135886" y="178.137394" style="fill: #4bc2ad; stroke: #ffffff; stroke-width: 0.75; stroke-linejoin: miter"/>
     <use xlink:href="#m69cbe443aa" x="525.331572" y="178.073605" style="fill: #4bc2ad; stroke: #ffffff; stroke-width: 0.75; stroke-linejoin: miter"/>
     <use xlink:href="#m69cbe443aa" x="542.527257" y="178.007203" style="fill: #4bc2ad; stroke: #ffffff; stroke-width: 0.75; stroke-linejoin: miter"/>
     <use xlink:href="#m69cbe443aa" x="559.722943" y="177.940802" style="fill: #4bc2ad; stroke: #ffffff; stroke-width: 0.75; stroke-linejoin: miter"/>
     <use xlink:href="#m69cbe443aa" x="576.918629" y="177.87686" style="fill: #4bc2ad; stroke: #ffffff; stroke-width: 0.75; stroke-linejoin: miter"/>
    </g>
   </g>
   <g id="patch_3">
    <path d="M 53.31 188.64 
L 53.31 7.2 
" style="fill: none; stroke: #ffffff; stroke-width: 1.25; stroke-linejoin: miter; stroke-linecap: square"/>
   </g>
   <g id="patch_4">
    <path d="M 611.31 188.64 
L 611.31 7.2 
" style="fill: none; stroke: #ffffff; stroke-width: 1.25; stroke-linejoin: miter; stroke-linecap: square"/>
   </g>
   <g id="patch_5">
    <path d="M 53.31 188.64 
L 611.31 188.64 
" style="fill: none; stroke: #ffffff; stroke-width: 1.25; stroke-linejoin: miter; stroke-linecap: square"/>
   </g>
   <g id="patch_6">
    <path d="M 53.31 7.2 
L 611.31 7.2 
" style="fill: none; stroke: #ffffff; stroke-width: 1.25; stroke-linejoin: miter; stroke-linecap: square"/>
   </g>
   <g id="legend_1">
    <g id="patch_7">
     <path d="M 61.01 183.14 
L 158.152031 183.14 
Q 160.352031 183.14 160.352031 180.94 
L 160.352031 117.45625 
Q 160.352031 115.25625 158.152031 115.25625 
L 61.01 115.25625 
Q 58.81 115.25625 58.81 117.45625 
L 58.81 180.94 
Q 58.81 183.14 61.01 183.14 
z
" style="fill: #eaeaf2; opacity: 0.8; stroke: #cccccc; stroke-linejoin: miter"/>
    </g>
    <g id="line2d_26">
     <path d="M 63.21 124.164531 
L 74.21 124.164531 
L 85.21 124.164531 
" style="fill: none; stroke: #aaaaaa; stroke-width: 1.5; stroke-linecap: round"/>
     <g>
      <use xlink:href="#m56b8c65a26" x="74.21" y="124.164531" style="fill: #aaaaaa; stroke: #ffffff; stroke-width: 0.75; stroke-linejoin: miter"/>
     </g>
    </g>
    <g id="text_23">
     <!-- Raw Read -->
     <g style="fill: #262626" transform="translate(94.01 128.014531) scale(0.11 -0.11)">
      <defs>
       <path id="DejaVuSans-52" d="M 2841 2188 
Q 3044 2119 3236 1894 
Q 3428 1669 3622 1275 
L 4263 0 
L 3584 0 
L 2988 1197 
Q 2756 1666 2539 1819 
Q 2322 1972 1947 1972 
L 1259 1972 
L 1259 0 
L 628 0 
L 628 4666 
L 2053 4666 
Q 2853 4666 3247 4331 
Q 3641 3997 3641 3322 
Q 3641 2881 3436 2590 
Q 3231 2300 2841 2188 
z
M 1259 4147 
L 1259 2491 
L 2053 2491 
Q 2509 2491 2742 2702 
Q 2975 2913 2975 3322 
Q 2975 3731 2742 3939 
Q 2509 4147 2053 4147 
L 1259 4147 
z
" transform="scale(0.015625)"/>
       <path id="DejaVuSans-77" d="M 269 3500 
L 844 3500 
L 1563 769 
L 2278 3500 
L 2956 3500 
L 3675 769 
L 4391 3500 
L 4966 3500 
L 4050 0 
L 3372 0 
L 2619 2869 
L 1863 0 
L 1184 0 
L 269 3500 
z
" transform="scale(0.015625)"/>
       <path id="DejaVuSans-64" d="M 2906 2969 
L 2906 4863 
L 3481 4863 
L 3481 0 
L 2906 0 
L 2906 525 
Q 2725 213 2448 61 
Q 2172 -91 1784 -91 
Q 1150 -91 751 415 
Q 353 922 353 1747 
Q 353 2572 751 3078 
Q 1150 3584 1784 3584 
Q 2172 3584 2448 3432 
Q 2725 3281 2906 2969 
z
M 947 1747 
Q 947 1113 1208 752 
Q 1469 391 1925 391 
Q 2381 391 2643 752 
Q 2906 1113 2906 1747 
Q 2906 2381 2643 2742 
Q 2381 3103 1925 3103 
Q 1469 3103 1208 2742 
Q 947 2381 947 1747 
z
" transform="scale(0.015625)"/>
      </defs>
      <use xlink:href="#DejaVuSans-52"/>
      <use xlink:href="#DejaVuSans-61" x="67.232422"/>
      <use xlink:href="#DejaVuSans-77" x="128.511719"/>
      <use xlink:href="#DejaVuSans-20" x="210.298828"/>
      <use xlink:href="#DejaVuSans-52" x="242.085938"/>
      <use xlink:href="#DejaVuSans-65" x="307.068359"/>
      <use xlink:href="#DejaVuSans-61" x="368.591797"/>
      <use xlink:href="#DejaVuSans-64" x="429.871094"/>
     </g>
    </g>
    <g id="line2d_27">
     <path d="M 63.21 140.310469 
L 74.21 140.310469 
L 85.21 140.310469 
" style="fill: none; stroke: #3e356b; stroke-width: 1.5; stroke-linecap: round"/>
     <g>
      <use xlink:href="#m5e2db836e4" x="74.21" y="140.310469" style="fill: #3e356b; stroke: #ffffff; stroke-width: 0.75"/>
     </g>
    </g>
    <g id="text_24">
     <!-- Worst Case -->
     <g style="fill: #262626" transform="translate(94.01 144.160469) scale(0.11 -0.11)">
      <defs>
       <path id="DejaVuSans-57" d="M 213 4666 
L 850 4666 
L 1831 722 
L 2809 4666 
L 3519 4666 
L 4500 722 
L 5478 4666 
L 6119 4666 
L 4947 0 
L 4153 0 
L 3169 4050 
L 2175 0 
L 1381 0 
L 213 4666 
z
" transform="scale(0.015625)"/>
       <path id="DejaVuSans-6f" d="M 1959 3097 
Q 1497 3097 1228 2736 
Q 959 2375 959 1747 
Q 959 1119 1226 758 
Q 1494 397 1959 397 
Q 2419 397 2687 759 
Q 2956 1122 2956 1747 
Q 2956 2369 2687 2733 
Q 2419 3097 1959 3097 
z
M 1959 3584 
Q 2709 3584 3137 3096 
Q 3566 2609 3566 1747 
Q 3566 888 3137 398 
Q 2709 -91 1959 -91 
Q 1206 -91 779 398 
Q 353 888 353 1747 
Q 353 2609 779 3096 
Q 1206 3584 1959 3584 
z
" transform="scale(0.015625)"/>
       <path id="DejaVuSans-72" d="M 2631 2963 
Q 2534 3019 2420 3045 
Q 2306 3072 2169 3072 
Q 1681 3072 1420 2755 
Q 1159 2438 1159 1844 
L 1159 0 
L 581 0 
L 581 3500 
L 1159 3500 
L 1159 2956 
Q 1341 3275 1631 3429 
Q 1922 3584 2338 3584 
Q 2397 3584 2469 3576 
Q 2541 3569 2628 3553 
L 2631 2963 
z
" transform="scale(0.015625)"/>
       <path id="DejaVuSans-43" d="M 4122 4306 
L 4122 3641 
Q 3803 3938 3442 4084 
Q 3081 4231 2675 4231 
Q 1875 4231 1450 3742 
Q 1025 3253 1025 2328 
Q 1025 1406 1450 917 
Q 1875 428 2675 428 
Q 3081 428 3442 575 
Q 3803 722 4122 1019 
L 4122 359 
Q 3791 134 3420 21 
Q 3050 -91 2638 -91 
Q 1578 -91 968 557 
Q 359 1206 359 2328 
Q 359 3453 968 4101 
Q 1578 4750 2638 4750 
Q 3056 4750 3426 4639 
Q 3797 4528 4122 4306 
z
" transform="scale(0.015625)"/>
      </defs>
      <use xlink:href="#DejaVuSans-57"/>
      <use xlink:href="#DejaVuSans-6f" x="93.001953"/>
      <use xlink:href="#DejaVuSans-72" x="154.183594"/>
      <use xlink:href="#DejaVuSans-73" x="195.296875"/>
      <use xlink:href="#DejaVuSans-74" x="247.396484"/>
      <use xlink:href="#DejaVuSans-20" x="286.605469"/>
      <use xlink:href="#DejaVuSans-43" x="318.392578"/>
      <use xlink:href="#DejaVuSans-61" x="388.216797"/>
      <use xlink:href="#DejaVuSans-73" x="449.496094"/>
      <use xlink:href="#DejaVuSans-65" x="501.595703"/>
     </g>
    </g>
    <g id="line2d_28">
     <path d="M 63.21 156.456406 
L 74.21 156.456406 
L 85.21 156.456406 
" style="fill: none; stroke: #357ba3; stroke-width: 1.5; stroke-linecap: round"/>
     <g>
      <use xlink:href="#m0e8af27145" x="74.21" y="156.456406" style="fill: #357ba3; stroke: #ffffff; stroke-width: 0.75; stroke-linejoin: miter"/>
     </g>
    </g>
    <g id="text_25">
     <!-- Hybrid -->
     <g style="fill: #262626" transform="translate(94.01 160.306406) scale(0.11 -0.11)">
      <defs>
       <path id="DejaVuSans-48" d="M 628 4666 
L 1259 4666 
L 1259 2753 
L 3553 2753 
L 3553 4666 
L 4184 4666 
L 4184 0 
L 3553 0 
L 3553 2222 
L 1259 2222 
L 1259 0 
L 628 0 
L 628 4666 
z
" transform="scale(0.015625)"/>
       <path id="DejaVuSans-62" d="M 3116 1747 
Q 3116 2381 2855 2742 
Q 2594 3103 2138 3103 
Q 1681 3103 1420 2742 
Q 1159 2381 1159 1747 
Q 1159 1113 1420 752 
Q 1681 391 2138 391 
Q 2594 391 2855 752 
Q 3116 1113 3116 1747 
z
M 1159 2969 
Q 1341 3281 1617 3432 
Q 1894 3584 2278 3584 
Q 2916 3584 3314 3078 
Q 3713 2572 3713 1747 
Q 3713 922 3314 415 
Q 2916 -91 2278 -91 
Q 1894 -91 1617 61 
Q 1341 213 1159 525 
L 1159 0 
L 581 0 
L 581 4863 
L 1159 4863 
L 1159 2969 
z
" transform="scale(0.015625)"/>
       <path id="DejaVuSans-69" d="M 603 3500 
L 1178 3500 
L 1178 0 
L 603 0 
L 603 3500 
z
M 603 4863 
L 1178 4863 
L 1178 4134 
L 603 4134 
L 603 4863 
z
" transform="scale(0.015625)"/>
      </defs>
      <use xlink:href="#DejaVuSans-48"/>
      <use xlink:href="#DejaVuSans-79" x="75.195312"/>
      <use xlink:href="#DejaVuSans-62" x="134.375"/>
      <use xlink:href="#DejaVuSans-72" x="197.851562"/>
      <use xlink:href="#DejaVuSans-69" x="238.964844"/>
      <use xlink:href="#DejaVuSans-64" x="266.748047"/>
     </g>
    </g>
    <g id="line2d_29">
     <path d="M 63.21 172.602344 
L 74.21 172.602344 
L 85.21 172.602344 
" style="fill: none; stroke: #4bc2ad; stroke-width: 1.5; stroke-linecap: round"/>
     <g>
      <use xlink:href="#m69cbe443aa" x="74.21" y="172.602344" style="fill: #4bc2ad; stroke: #ffffff; stroke-width: 0.75; stroke-linejoin: miter"/>
     </g>
    </g>
    <g id="text_26">
     <!-- Best Case -->
     <g style="fill: #262626" transform="translate(94.01 176.452344) scale(0.11 -0.11)">
      <defs>
       <path id="DejaVuSans-42" d="M 1259 2228 
L 1259 519 
L 2272 519 
Q 2781 519 3026 730 
Q 3272 941 3272 1375 
Q 3272 1813 3026 2020 
Q 2781 2228 2272 2228 
L 1259 2228 
z
M 1259 4147 
L 1259 2741 
L 2194 2741 
Q 2656 2741 2882 2914 
Q 3109 3088 3109 3444 
Q 3109 3797 2882 3972 
Q 2656 4147 2194 4147 
L 1259 4147 
z
M 628 4666 
L 2241 4666 
Q 2963 4666 3353 4366 
Q 3744 4066 3744 3513 
Q 3744 3084 3544 2831 
Q 3344 2578 2956 2516 
Q 3422 2416 3680 2098 
Q 3938 1781 3938 1306 
Q 3938 681 3513 340 
Q 3088 0 2303 0 
L 628 0 
L 628 4666 
z
" transform="scale(0.015625)"/>
      </defs>
      <use xlink:href="#DejaVuSans-42"/>
      <use xlink:href="#DejaVuSans-65" x="68.603516"/>
      <use xlink:href="#DejaVuSans-73" x="130.126953"/>
      <use xlink:href="#DejaVuSans-74" x="182.226562"/>
      <use xlink:href="#DejaVuSans-20" x="221.435547"/>
      <use xlink:href="#DejaVuSans-43" x="253.222656"/>
      <use xlink:href="#DejaVuSans-61" x="323.046875"/>
      <use xlink:href="#DejaVuSans-73" x="384.326172"/>
      <use xlink:href="#DejaVuSans-65" x="436.425781"/>
     </g>
    </g>
   </g>
  </g>
  <g id="axes_2">
   <g id="patch_8">
    <path d="M 53.31 339.84 
L 611.31 339.84 
L 611.31 218.88 
L 53.31 218.88 
z
" style="fill: #eaeaf2"/>
   </g>
   <g id="matplotlib.axis_3">
    <g id="xtick_33">
     <g id="line2d_30">
      <path d="M 78.243744 339.84 
L 78.243744 218.88 
" clip-path="url(#p05cc823d6a)" style="fill: none; stroke: #ffffff; stroke-linecap: round"/>
     </g>
     <g id="text_27">
      <!-- 0 -->
      <g style="fill: #262626" transform="translate(74.744369 357.698281) scale(0.11 -0.11)">
       <use xlink:href="#DejaVuSans-30"/>
      </g>
     </g>
    </g>
    <g id="xtick_34">
     <g id="line2d_31">
      <path d="M 112.635116 339.84 
L 112.635116 218.88 
" clip-path="url(#p05cc823d6a)" style="fill: none; stroke: #ffffff; stroke-linecap: round"/>
     </g>
     <g id="text_28">
      <!-- 64 -->
      <g style="fill: #262626" transform="translate(105.636366 357.698281) scale(0.11 -0.11)">
       <use xlink:href="#DejaVuSans-36"/>
       <use xlink:href="#DejaVuSans-34" x="63.623047"/>
      </g>
     </g>
    </g>
    <g id="xtick_35">
     <g id="line2d_32">
      <path d="M 147.026487 339.84 
L 147.026487 218.88 
" clip-path="url(#p05cc823d6a)" style="fill: none; stroke: #ffffff; stroke-linecap: round"/>
     </g>
     <g id="text_29">
      <!-- 128 -->
      <g style="fill: #262626" transform="translate(136.528362 357.698281) scale(0.11 -0.11)">
       <use xlink:href="#DejaVuSans-31"/>
       <use xlink:href="#DejaVuSans-32" x="63.623047"/>
       <use xlink:href="#DejaVuSans-38" x="127.246094"/>
      </g>
     </g>
    </g>
    <g id="xtick_36">
     <g id="line2d_33">
      <path d="M 181.417858 339.84 
L 181.417858 218.88 
" clip-path="url(#p05cc823d6a)" style="fill: none; stroke: #ffffff; stroke-linecap: round"/>
     </g>
     <g id="text_30">
      <!-- 192 -->
      <g style="fill: #262626" transform="translate(170.919733 357.698281) scale(0.11 -0.11)">
       <use xlink:href="#DejaVuSans-31"/>
       <use xlink:href="#DejaVuSans-39" x="63.623047"/>
       <use xlink:href="#DejaVuSans-32" x="127.246094"/>
      </g>
     </g>
    </g>
    <g id="xtick_37">
     <g id="line2d_34">
      <path d="M 215.80923 339.84 
L 215.80923 218.88 
" clip-path="url(#p05cc823d6a)" style="fill: none; stroke: #ffffff; stroke-linecap: round"/>
     </g>
     <g id="text_31">
      <!-- 256 -->
      <g style="fill: #262626" transform="translate(205.311105 357.698281) scale(0.11 -0.11)">
       <use xlink:href="#DejaVuSans-32"/>
       <use xlink:href="#DejaVuSans-35" x="63.623047"/>
       <use xlink:href="#DejaVuSans-36" x="127.246094"/>
      </g>
     </g>
    </g>
    <g id="xtick_38">
     <g id="line2d_35">
      <path d="M 250.200601 339.84 
L 250.200601 218.88 
" clip-path="url(#p05cc823d6a)" style="fill: none; stroke: #ffffff; stroke-linecap: round"/>
     </g>
     <g id="text_32">
      <!-- 320 -->
      <g style="fill: #262626" transform="translate(239.702476 357.698281) scale(0.11 -0.11)">
       <use xlink:href="#DejaVuSans-33"/>
       <use xlink:href="#DejaVuSans-32" x="63.623047"/>
       <use xlink:href="#DejaVuSans-30" x="127.246094"/>
      </g>
     </g>
    </g>
    <g id="xtick_39">
     <g id="line2d_36">
      <path d="M 284.591972 339.84 
L 284.591972 218.88 
" clip-path="url(#p05cc823d6a)" style="fill: none; stroke: #ffffff; stroke-linecap: round"/>
     </g>
     <g id="text_33">
      <!-- 384 -->
      <g style="fill: #262626" transform="translate(274.093847 357.698281) scale(0.11 -0.11)">
       <use xlink:href="#DejaVuSans-33"/>
       <use xlink:href="#DejaVuSans-38" x="63.623047"/>
       <use xlink:href="#DejaVuSans-34" x="127.246094"/>
      </g>
     </g>
    </g>
    <g id="xtick_40">
     <g id="line2d_37">
      <path d="M 318.983344 339.84 
L 318.983344 218.88 
" clip-path="url(#p05cc823d6a)" style="fill: none; stroke: #ffffff; stroke-linecap: round"/>
     </g>
     <g id="text_34">
      <!-- 448 -->
      <g style="fill: #262626" transform="translate(308.485219 357.698281) scale(0.11 -0.11)">
       <use xlink:href="#DejaVuSans-34"/>
       <use xlink:href="#DejaVuSans-34" x="63.623047"/>
       <use xlink:href="#DejaVuSans-38" x="127.246094"/>
      </g>
     </g>
    </g>
    <g id="xtick_41">
     <g id="line2d_38">
      <path d="M 353.374715 339.84 
L 353.374715 218.88 
" clip-path="url(#p05cc823d6a)" style="fill: none; stroke: #ffffff; stroke-linecap: round"/>
     </g>
     <g id="text_35">
      <!-- 512 -->
      <g style="fill: #262626" transform="translate(342.87659 357.698281) scale(0.11 -0.11)">
       <use xlink:href="#DejaVuSans-35"/>
       <use xlink:href="#DejaVuSans-31" x="63.623047"/>
       <use xlink:href="#DejaVuSans-32" x="127.246094"/>
      </g>
     </g>
    </g>
    <g id="xtick_42">
     <g id="line2d_39">
      <path d="M 387.766086 339.84 
L 387.766086 218.88 
" clip-path="url(#p05cc823d6a)" style="fill: none; stroke: #ffffff; stroke-linecap: round"/>
     </g>
     <g id="text_36">
      <!-- 576 -->
      <g style="fill: #262626" transform="translate(377.267961 357.698281) scale(0.11 -0.11)">
       <use xlink:href="#DejaVuSans-35"/>
       <use xlink:href="#DejaVuSans-37" x="63.623047"/>
       <use xlink:href="#DejaVuSans-36" x="127.246094"/>
      </g>
     </g>
    </g>
    <g id="xtick_43">
     <g id="line2d_40">
      <path d="M 422.157458 339.84 
L 422.157458 218.88 
" clip-path="url(#p05cc823d6a)" style="fill: none; stroke: #ffffff; stroke-linecap: round"/>
     </g>
     <g id="text_37">
      <!-- 640 -->
      <g style="fill: #262626" transform="translate(411.659333 357.698281) scale(0.11 -0.11)">
       <use xlink:href="#DejaVuSans-36"/>
       <use xlink:href="#DejaVuSans-34" x="63.623047"/>
       <use xlink:href="#DejaVuSans-30" x="127.246094"/>
      </g>
     </g>
    </g>
    <g id="xtick_44">
     <g id="line2d_41">
      <path d="M 456.548829 339.84 
L 456.548829 218.88 
" clip-path="url(#p05cc823d6a)" style="fill: none; stroke: #ffffff; stroke-linecap: round"/>
     </g>
     <g id="text_38">
      <!-- 704 -->
      <g style="fill: #262626" transform="translate(446.050704 357.698281) scale(0.11 -0.11)">
       <use xlink:href="#DejaVuSans-37"/>
       <use xlink:href="#DejaVuSans-30" x="63.623047"/>
       <use xlink:href="#DejaVuSans-34" x="127.246094"/>
      </g>
     </g>
    </g>
    <g id="xtick_45">
     <g id="line2d_42">
      <path d="M 490.9402 339.84 
L 490.9402 218.88 
" clip-path="url(#p05cc823d6a)" style="fill: none; stroke: #ffffff; stroke-linecap: round"/>
     </g>
     <g id="text_39">
      <!-- 768 -->
      <g style="fill: #262626" transform="translate(480.442075 357.698281) scale(0.11 -0.11)">
       <use xlink:href="#DejaVuSans-37"/>
       <use xlink:href="#DejaVuSans-36" x="63.623047"/>
       <use xlink:href="#DejaVuSans-38" x="127.246094"/>
      </g>
     </g>
    </g>
    <g id="xtick_46">
     <g id="line2d_43">
      <path d="M 525.331572 339.84 
L 525.331572 218.88 
" clip-path="url(#p05cc823d6a)" style="fill: none; stroke: #ffffff; stroke-linecap: round"/>
     </g>
     <g id="text_40">
      <!-- 832 -->
      <g style="fill: #262626" transform="translate(514.833447 357.698281) scale(0.11 -0.11)">
       <use xlink:href="#DejaVuSans-38"/>
       <use xlink:href="#DejaVuSans-33" x="63.623047"/>
       <use xlink:href="#DejaVuSans-32" x="127.246094"/>
      </g>
     </g>
    </g>
    <g id="xtick_47">
     <g id="line2d_44">
      <path d="M 559.722943 339.84 
L 559.722943 218.88 
" clip-path="url(#p05cc823d6a)" style="fill: none; stroke: #ffffff; stroke-linecap: round"/>
     </g>
     <g id="text_41">
      <!-- 896 -->
      <g style="fill: #262626" transform="translate(549.224818 357.698281) scale(0.11 -0.11)">
       <use xlink:href="#DejaVuSans-38"/>
       <use xlink:href="#DejaVuSans-39" x="63.623047"/>
       <use xlink:href="#DejaVuSans-36" x="127.246094"/>
      </g>
     </g>
    </g>
    <g id="xtick_48">
     <g id="line2d_45">
      <path d="M 594.114314 339.84 
L 594.114314 218.88 
" clip-path="url(#p05cc823d6a)" style="fill: none; stroke: #ffffff; stroke-linecap: round"/>
     </g>
     <g id="text_42">
      <!-- 960 -->
      <g style="fill: #262626" transform="translate(583.616189 357.698281) scale(0.11 -0.11)">
       <use xlink:href="#DejaVuSans-39"/>
       <use xlink:href="#DejaVuSans-36" x="63.623047"/>
       <use xlink:href="#DejaVuSans-30" x="127.246094"/>
      </g>
     </g>
    </g>
    <g id="xtick_49"/>
    <g id="xtick_50"/>
    <g id="xtick_51"/>
    <g id="xtick_52"/>
    <g id="xtick_53"/>
    <g id="xtick_54"/>
    <g id="xtick_55"/>
    <g id="xtick_56"/>
    <g id="xtick_57"/>
    <g id="xtick_58"/>
    <g id="xtick_59"/>
    <g id="xtick_60"/>
    <g id="xtick_61"/>
    <g id="xtick_62"/>
    <g id="xtick_63"/>
    <g id="xtick_64"/>
    <g id="text_43">
     <!-- Object Size [Bytes] -->
     <g style="fill: #262626" transform="translate(275.117813 373.104062) scale(0.12 -0.12)">
      <defs>
       <path id="DejaVuSans-4f" d="M 2522 4238 
Q 1834 4238 1429 3725 
Q 1025 3213 1025 2328 
Q 1025 1447 1429 934 
Q 1834 422 2522 422 
Q 3209 422 3611 934 
Q 4013 1447 4013 2328 
Q 4013 3213 3611 3725 
Q 3209 4238 2522 4238 
z
M 2522 4750 
Q 3503 4750 4090 4092 
Q 4678 3434 4678 2328 
Q 4678 1225 4090 567 
Q 3503 -91 2522 -91 
Q 1538 -91 948 565 
Q 359 1222 359 2328 
Q 359 3434 948 4092 
Q 1538 4750 2522 4750 
z
" transform="scale(0.015625)"/>
       <path id="DejaVuSans-6a" d="M 603 3500 
L 1178 3500 
L 1178 -63 
Q 1178 -731 923 -1031 
Q 669 -1331 103 -1331 
L -116 -1331 
L -116 -844 
L 38 -844 
Q 366 -844 484 -692 
Q 603 -541 603 -63 
L 603 3500 
z
M 603 4863 
L 1178 4863 
L 1178 4134 
L 603 4134 
L 603 4863 
z
" transform="scale(0.015625)"/>
       <path id="DejaVuSans-53" d="M 3425 4513 
L 3425 3897 
Q 3066 4069 2747 4153 
Q 2428 4238 2131 4238 
Q 1616 4238 1336 4038 
Q 1056 3838 1056 3469 
Q 1056 3159 1242 3001 
Q 1428 2844 1947 2747 
L 2328 2669 
Q 3034 2534 3370 2195 
Q 3706 1856 3706 1288 
Q 3706 609 3251 259 
Q 2797 -91 1919 -91 
Q 1588 -91 1214 -16 
Q 841 59 441 206 
L 441 856 
Q 825 641 1194 531 
Q 1563 422 1919 422 
Q 2459 422 2753 634 
Q 3047 847 3047 1241 
Q 3047 1584 2836 1778 
Q 2625 1972 2144 2069 
L 1759 2144 
Q 1053 2284 737 2584 
Q 422 2884 422 3419 
Q 422 4038 858 4394 
Q 1294 4750 2059 4750 
Q 2388 4750 2728 4690 
Q 3069 4631 3425 4513 
z
" transform="scale(0.015625)"/>
       <path id="DejaVuSans-7a" d="M 353 3500 
L 3084 3500 
L 3084 2975 
L 922 459 
L 3084 459 
L 3084 0 
L 275 0 
L 275 525 
L 2438 3041 
L 353 3041 
L 353 3500 
z
" transform="scale(0.015625)"/>
      </defs>
      <use xlink:href="#DejaVuSans-4f"/>
      <use xlink:href="#DejaVuSans-62" x="78.710938"/>
      <use xlink:href="#DejaVuSans-6a" x="142.1875"/>
      <use xlink:href="#DejaVuSans-65" x="169.970703"/>
      <use xlink:href="#DejaVuSans-63" x="231.494141"/>
      <use xlink:href="#DejaVuSans-74" x="286.474609"/>
      <use xlink:href="#DejaVuSans-20" x="325.683594"/>
      <use xlink:href="#DejaVuSans-53" x="357.470703"/>
      <use xlink:href="#DejaVuSans-69" x="420.947266"/>
      <use xlink:href="#DejaVuSans-7a" x="448.730469"/>
      <use xlink:href="#DejaVuSans-65" x="501.220703"/>
      <use xlink:href="#DejaVuSans-20" x="562.744141"/>
      <use xlink:href="#DejaVuSans-5b" x="594.53125"/>
      <use xlink:href="#DejaVuSans-42" x="633.544922"/>
      <use xlink:href="#DejaVuSans-79" x="702.148438"/>
      <use xlink:href="#DejaVuSans-74" x="761.328125"/>
      <use xlink:href="#DejaVuSans-65" x="800.537109"/>
      <use xlink:href="#DejaVuSans-73" x="862.060547"/>
      <use xlink:href="#DejaVuSans-5d" x="914.160156"/>
     </g>
    </g>
   </g>
   <g id="matplotlib.axis_4">
    <g id="ytick_6">
     <g id="line2d_46">
      <path d="M 53.31 318.891231 
L 611.31 318.891231 
" clip-path="url(#p05cc823d6a)" style="fill: none; stroke: #ffffff; stroke-linecap: round"/>
     </g>
     <g id="text_44">
      <!-- 60 -->
      <g style="fill: #262626" transform="translate(29.8125 323.070372) scale(0.11 -0.11)">
       <use xlink:href="#DejaVuSans-36"/>
       <use xlink:href="#DejaVuSans-30" x="63.623047"/>
      </g>
     </g>
    </g>
    <g id="ytick_7">
     <g id="line2d_47">
      <path d="M 53.31 274.348999 
L 611.31 274.348999 
" clip-path="url(#p05cc823d6a)" style="fill: none; stroke: #ffffff; stroke-linecap: round"/>
     </g>
     <g id="text_45">
      <!-- 80 -->
      <g style="fill: #262626" transform="translate(29.8125 278.528139) scale(0.11 -0.11)">
       <use xlink:href="#DejaVuSans-38"/>
       <use xlink:href="#DejaVuSans-30" x="63.623047"/>
      </g>
     </g>
    </g>
    <g id="ytick_8">
     <g id="line2d_48">
      <path d="M 53.31 229.806766 
L 611.31 229.806766 
" clip-path="url(#p05cc823d6a)" style="fill: none; stroke: #ffffff; stroke-linecap: round"/>
     </g>
     <g id="text_46">
      <!-- 100 -->
      <g style="fill: #262626" transform="translate(22.81375 233.985907) scale(0.11 -0.11)">
       <use xlink:href="#DejaVuSans-31"/>
       <use xlink:href="#DejaVuSans-30" x="63.623047"/>
       <use xlink:href="#DejaVuSans-30" x="127.246094"/>
      </g>
     </g>
    </g>
    <g id="text_47">
     <!-- Latency [s] -->
     <g style="fill: #262626" transform="translate(16.318125 316.60875) rotate(-90) scale(0.12 -0.12)">
      <defs>
       <path id="DejaVuSans-b5" d="M 544 -1331 
L 544 3500 
L 1119 3500 
L 1119 1325 
Q 1119 872 1334 640 
Q 1550 409 1972 409 
Q 2434 409 2667 671 
Q 2900 934 2900 1459 
L 2900 3500 
L 3475 3500 
L 3475 806 
Q 3475 619 3529 530 
Q 3584 441 3700 441 
Q 3728 441 3778 458 
Q 3828 475 3916 513 
L 3916 50 
Q 3788 -22 3673 -56 
Q 3559 -91 3450 -91 
Q 3234 -91 3106 31 
Q 2978 153 2931 403 
Q 2775 156 2548 32 
Q 2322 -91 2016 -91 
Q 1697 -91 1473 31 
Q 1250 153 1119 397 
L 1119 -1331 
L 544 -1331 
z
" transform="scale(0.015625)"/>
      </defs>
      <use xlink:href="#DejaVuSans-4c"/>
      <use xlink:href="#DejaVuSans-61" x="55.712891"/>
      <use xlink:href="#DejaVuSans-74" x="116.992188"/>
      <use xlink:href="#DejaVuSans-65" x="156.201172"/>
      <use xlink:href="#DejaVuSans-6e" x="217.724609"/>
      <use xlink:href="#DejaVuSans-63" x="281.103516"/>
      <use xlink:href="#DejaVuSans-79" x="336.083984"/>
      <use xlink:href="#DejaVuSans-20" x="395.263672"/>
      <use xlink:href="#DejaVuSans-5b" x="427.050781"/>
      <use xlink:href="#DejaVuSans-b5" x="466.064453"/>
      <use xlink:href="#DejaVuSans-73" x="529.6875"/>
      <use xlink:href="#DejaVuSans-5d" x="581.787109"/>
     </g>
    </g>
   </g>
   <g id="PolyCollection_8"/>
   <g id="PolyCollection_9">
    <defs>
     <path id="m0117a3d0e9" d="M 78.243744 -48.457869 
L 78.243744 -48.457869 
L 95.43943 -54.025648 
L 112.635116 -57.644705 
L 129.830801 -61.402956 
L 147.026487 -65.161206 
L 164.222173 -68.780263 
L 181.417858 -72.538514 
L 198.613544 -76.15757 
L 215.80923 -79.915821 
L 233.004915 -83.534877 
L 250.200601 -87.432323 
L 267.396287 -91.051379 
L 284.591972 -94.670435 
L 301.787658 -98.428686 
L 318.983344 -102.186937 
L 336.179029 -105.805994 
L 353.374715 -109.42505 
L 370.570401 -113.183301 
L 387.766086 -116.941552 
L 404.961772 -120.699803 
L 422.157458 -124.458053 
L 439.353143 -128.216304 
L 456.548829 -132.531333 
L 473.744515 -136.289584 
L 490.9402 -139.90864 
L 508.135886 -143.666891 
L 525.331572 -147.285948 
L 542.527257 -151.044198 
L 559.722943 -154.802449 
L 576.918629 -158.421506 
L 576.918629 -158.421506 
L 576.918629 -158.421506 
L 559.722943 -154.802449 
L 542.527257 -151.044198 
L 525.331572 -147.285948 
L 508.135886 -152.296949 
L 490.9402 -139.90864 
L 473.744515 -136.289584 
L 456.548829 -132.531333 
L 439.353143 -128.216304 
L 422.157458 -124.458053 
L 404.961772 -134.340861 
L 387.766086 -116.941552 
L 370.570401 -121.952553 
L 353.374715 -109.42505 
L 336.179029 -105.805994 
L 318.983344 -102.186937 
L 301.787658 -98.428686 
L 284.591972 -94.670435 
L 267.396287 -98.84627 
L 250.200601 -87.432323 
L 233.004915 -83.534877 
L 215.80923 -96.06238 
L 198.613544 -76.15757 
L 181.417858 -72.538514 
L 164.222173 -68.780263 
L 147.026487 -65.161206 
L 129.830801 -61.402956 
L 112.635116 -57.644705 
L 95.43943 -54.025648 
L 78.243744 -48.457869 
z
" style="stroke: #ffffff; stroke-opacity: 0.2"/>
    </defs>
    <g clip-path="url(#p05cc823d6a)">
     <use xlink:href="#m0117a3d0e9" x="0" y="382.799688" style="fill: #4bc2ad; fill-opacity: 0.2; stroke: #ffffff; stroke-opacity: 0.2"/>
    </g>
   </g>
   <g id="line2d_49">
    <path d="M 78.243744 334.341818 
L 95.43943 328.774039 
L 112.635116 325.154983 
L 129.830801 321.396732 
L 147.026487 317.638481 
L 164.222173 314.019425 
L 181.417858 310.261174 
L 198.613544 306.642117 
L 215.80923 302.86772 
L 233.004915 299.26481 
L 250.200601 295.367365 
L 267.396287 291.740514 
L 284.591972 288.129252 
L 301.787658 284.371001 
L 318.983344 280.61275 
L 336.179029 276.993694 
L 353.374715 273.374638 
L 370.570401 269.607617 
L 387.766086 265.858136 
L 404.961772 262.086244 
L 422.157458 258.341634 
L 439.353143 254.583383 
L 456.548829 250.268354 
L 473.744515 246.510104 
L 490.9402 242.891047 
L 508.135886 239.124166 
L 525.331572 235.51374 
L 542.527257 231.755489 
L 559.722943 227.997238 
L 576.918629 224.378182 
" clip-path="url(#p05cc823d6a)" style="fill: none; stroke: #4bc2ad; stroke-width: 1.5; stroke-linecap: round"/>
    <g clip-path="url(#p05cc823d6a)">
     <use xlink:href="#m69cbe443aa" x="78.243744" y="334.341818" style="fill: #4bc2ad; stroke: #ffffff; stroke-width: 0.75; stroke-linejoin: miter"/>
     <use xlink:href="#m69cbe443aa" x="95.43943" y="328.774039" style="fill: #4bc2ad; stroke: #ffffff; stroke-width: 0.75; stroke-linejoin: miter"/>
     <use xlink:href="#m69cbe443aa" x="112.635116" y="325.154983" style="fill: #4bc2ad; stroke: #ffffff; stroke-width: 0.75; stroke-linejoin: miter"/>
     <use xlink:href="#m69cbe443aa" x="129.830801" y="321.396732" style="fill: #4bc2ad; stroke: #ffffff; stroke-width: 0.75; stroke-linejoin: miter"/>
     <use xlink:href="#m69cbe443aa" x="147.026487" y="317.638481" style="fill: #4bc2ad; stroke: #ffffff; stroke-width: 0.75; stroke-linejoin: miter"/>
     <use xlink:href="#m69cbe443aa" x="164.222173" y="314.019425" style="fill: #4bc2ad; stroke: #ffffff; stroke-width: 0.75; stroke-linejoin: miter"/>
     <use xlink:href="#m69cbe443aa" x="181.417858" y="310.261174" style="fill: #4bc2ad; stroke: #ffffff; stroke-width: 0.75; stroke-linejoin: miter"/>
     <use xlink:href="#m69cbe443aa" x="198.613544" y="306.642117" style="fill: #4bc2ad; stroke: #ffffff; stroke-width: 0.75; stroke-linejoin: miter"/>
     <use xlink:href="#m69cbe443aa" x="215.80923" y="302.86772" style="fill: #4bc2ad; stroke: #ffffff; stroke-width: 0.75; stroke-linejoin: miter"/>
     <use xlink:href="#m69cbe443aa" x="233.004915" y="299.26481" style="fill: #4bc2ad; stroke: #ffffff; stroke-width: 0.75; stroke-linejoin: miter"/>
     <use xlink:href="#m69cbe443aa" x="250.200601" y="295.367365" style="fill: #4bc2ad; stroke: #ffffff; stroke-width: 0.75; stroke-linejoin: miter"/>
     <use xlink:href="#m69cbe443aa" x="267.396287" y="291.740514" style="fill: #4bc2ad; stroke: #ffffff; stroke-width: 0.75; stroke-linejoin: miter"/>
     <use xlink:href="#m69cbe443aa" x="284.591972" y="288.129252" style="fill: #4bc2ad; stroke: #ffffff; stroke-width: 0.75; stroke-linejoin: miter"/>
     <use xlink:href="#m69cbe443aa" x="301.787658" y="284.371001" style="fill: #4bc2ad; stroke: #ffffff; stroke-width: 0.75; stroke-linejoin: miter"/>
     <use xlink:href="#m69cbe443aa" x="318.983344" y="280.61275" style="fill: #4bc2ad; stroke: #ffffff; stroke-width: 0.75; stroke-linejoin: miter"/>
     <use xlink:href="#m69cbe443aa" x="336.179029" y="276.993694" style="fill: #4bc2ad; stroke: #ffffff; stroke-width: 0.75; stroke-linejoin: miter"/>
     <use xlink:href="#m69cbe443aa" x="353.374715" y="273.374638" style="fill: #4bc2ad; stroke: #ffffff; stroke-width: 0.75; stroke-linejoin: miter"/>
     <use xlink:href="#m69cbe443aa" x="370.570401" y="269.607617" style="fill: #4bc2ad; stroke: #ffffff; stroke-width: 0.75; stroke-linejoin: miter"/>
     <use xlink:href="#m69cbe443aa" x="387.766086" y="265.858136" style="fill: #4bc2ad; stroke: #ffffff; stroke-width: 0.75; stroke-linejoin: miter"/>
     <use xlink:href="#m69cbe443aa" x="404.961772" y="262.086244" style="fill: #4bc2ad; stroke: #ffffff; stroke-width: 0.75; stroke-linejoin: miter"/>
     <use xlink:href="#m69cbe443aa" x="422.157458" y="258.341634" style="fill: #4bc2ad; stroke: #ffffff; stroke-width: 0.75; stroke-linejoin: miter"/>
     <use xlink:href="#m69cbe443aa" x="439.353143" y="254.583383" style="fill: #4bc2ad; stroke: #ffffff; stroke-width: 0.75; stroke-linejoin: miter"/>
     <use xlink:href="#m69cbe443aa" x="456.548829" y="250.268354" style="fill: #4bc2ad; stroke: #ffffff; stroke-width: 0.75; stroke-linejoin: miter"/>
     <use xlink:href="#m69cbe443aa" x="473.744515" y="246.510104" style="fill: #4bc2ad; stroke: #ffffff; stroke-width: 0.75; stroke-linejoin: miter"/>
     <use xlink:href="#m69cbe443aa" x="490.9402" y="242.891047" style="fill: #4bc2ad; stroke: #ffffff; stroke-width: 0.75; stroke-linejoin: miter"/>
     <use xlink:href="#m69cbe443aa" x="508.135886" y="239.124166" style="fill: #4bc2ad; stroke: #ffffff; stroke-width: 0.75; stroke-linejoin: miter"/>
     <use xlink:href="#m69cbe443aa" x="525.331572" y="235.51374" style="fill: #4bc2ad; stroke: #ffffff; stroke-width: 0.75; stroke-linejoin: miter"/>
     <use xlink:href="#m69cbe443aa" x="542.527257" y="231.755489" style="fill: #4bc2ad; stroke: #ffffff; stroke-width: 0.75; stroke-linejoin: miter"/>
     <use xlink:href="#m69cbe443aa" x="559.722943" y="227.997238" style="fill: #4bc2ad; stroke: #ffffff; stroke-width: 0.75; stroke-linejoin: miter"/>
     <use xlink:href="#m69cbe443aa" x="576.918629" y="224.378182" style="fill: #4bc2ad; stroke: #ffffff; stroke-width: 0.75; stroke-linejoin: miter"/>
    </g>
   </g>
   <g id="patch_9">
    <path d="M 53.31 339.84 
L 53.31 218.88 
" style="fill: none; stroke: #ffffff; stroke-width: 1.25; stroke-linejoin: miter; stroke-linecap: square"/>
   </g>
   <g id="patch_10">
    <path d="M 611.31 339.84 
L 611.31 218.88 
" style="fill: none; stroke: #ffffff; stroke-width: 1.25; stroke-linejoin: miter; stroke-linecap: square"/>
   </g>
   <g id="patch_11">
    <path d="M 53.31 339.84 
L 611.31 339.84 
" style="fill: none; stroke: #ffffff; stroke-width: 1.25; stroke-linejoin: miter; stroke-linecap: square"/>
   </g>
   <g id="patch_12">
    <path d="M 53.31 218.88 
L 611.31 218.88 
" style="fill: none; stroke: #ffffff; stroke-width: 1.25; stroke-linejoin: miter; stroke-linecap: square"/>
   </g>
   <g id="legend_2">
    <g id="patch_13">
     <path d="M 61.01 243.825938 
L 150.984844 243.825938 
Q 153.184844 243.825938 153.184844 241.625938 
L 153.184844 226.58 
Q 153.184844 224.38 150.984844 224.38 
L 61.01 224.38 
Q 58.81 224.38 58.81 226.58 
L 58.81 241.625938 
Q 58.81 243.825938 61.01 243.825938 
z
" style="fill: #eaeaf2; opacity: 0.8; stroke: #cccccc; stroke-linejoin: miter"/>
    </g>
    <g id="line2d_50">
     <path d="M 63.21 233.288281 
L 74.21 233.288281 
L 85.21 233.288281 
" style="fill: none; stroke: #4bc2ad; stroke-width: 1.5; stroke-linecap: round"/>
     <g>
      <use xlink:href="#m69cbe443aa" x="74.21" y="233.288281" style="fill: #4bc2ad; stroke: #ffffff; stroke-width: 0.75; stroke-linejoin: miter"/>
     </g>
    </g>
    <g id="text_48">
     <!-- Best Case -->
     <g style="fill: #262626" transform="translate(94.01 237.138281) scale(0.11 -0.11)">
      <use xlink:href="#DejaVuSans-42"/>
      <use xlink:href="#DejaVuSans-65" x="68.603516"/>
      <use xlink:href="#DejaVuSans-73" x="130.126953"/>
      <use xlink:href="#DejaVuSans-74" x="182.226562"/>
      <use xlink:href="#DejaVuSans-20" x="221.435547"/>
      <use xlink:href="#DejaVuSans-43" x="253.222656"/>
      <use xlink:href="#DejaVuSans-61" x="323.046875"/>
      <use xlink:href="#DejaVuSans-73" x="384.326172"/>
      <use xlink:href="#DejaVuSans-65" x="436.425781"/>
     </g>
    </g>
   </g>
  </g>
 </g>
 <defs>
  <clipPath id="p4d99b921cc">
   <rect x="53.31" y="7.2" width="558" height="181.44"/>
  </clipPath>
  <clipPath id="p05cc823d6a">
   <rect x="53.31" y="218.88" width="558" height="120.96"/>
  </clipPath>
 </defs>
</svg>
