<?xml version="1.0" encoding="utf-8" standalone="no"?>
<!DOCTYPE svg PUBLIC "-//W3C//DTD SVG 1.1//EN"
  "http://www.w3.org/Graphics/SVG/1.1/DTD/svg11.dtd">
<svg xmlns:xlink="http://www.w3.org/1999/xlink" width="618.51pt" height="386.978828pt" viewBox="0 0 618.51 386.978828" xmlns="http://www.w3.org/2000/svg" version="1.1">
 <metadata>
  <rdf:RDF xmlns:dc="http://purl.org/dc/elements/1.1/" xmlns:cc="http://creativecommons.org/ns#" xmlns:rdf="http://www.w3.org/1999/02/22-rdf-syntax-ns#">
   <cc:Work>
    <dc:type rdf:resource="http://purl.org/dc/dcmitype/StillImage"/>
    <dc:date>2024-08-27T12:50:06.479377</dc:date>
    <dc:format>image/svg+xml</dc:format>
    <dc:creator>
     <cc:Agent>
      <dc:title>Matplotlib v3.7.2, https://matplotlib.org/</dc:title>
     </cc:Agent>
    </dc:creator>
   </cc:Work>
  </rdf:RDF>
 </metadata>
 <defs>
  <style type="text/css">*{stroke-linejoin: round; stroke-linecap: butt}</style>
 </defs>
 <g id="figure_1">
  <g id="patch_1">
   <path d="M 0 386.978828 
L 618.51 386.978828 
L 618.51 0 
L 0 0 
z
" style="fill: #ffffff"/>
  </g>
  <g id="axes_1">
   <g id="patch_2">
    <path d="M 53.31 192.819141 
L 611.31 192.819141 
L 611.31 11.379141 
L 53.31 11.379141 
z
" style="fill: #eaeaf2"/>
   </g>
   <g id="matplotlib.axis_1">
    <g id="xtick_1">
     <g id="line2d_1">
      <path d="M 78.243744 192.819141 
L 78.243744 11.379141 
" clip-path="url(#ped7ea5b3b5)" style="fill: none; stroke: #ffffff; stroke-linecap: round"/>
     </g>
     <g id="text_1">
      <!-- 0 -->
      <g style="fill: #262626" transform="translate(74.744369 210.677422) scale(0.11 -0.11)">
       <defs>
        <path id="DejaVuSans-30" d="M 2034 4250 
Q 1547 4250 1301 3770 
Q 1056 3291 1056 2328 
Q 1056 1369 1301 889 
Q 1547 409 2034 409 
Q 2525 409 2770 889 
Q 3016 1369 3016 2328 
Q 3016 3291 2770 3770 
Q 2525 4250 2034 4250 
z
M 2034 4750 
Q 2819 4750 3233 4129 
Q 3647 3509 3647 2328 
Q 3647 1150 3233 529 
Q 2819 -91 2034 -91 
Q 1250 -91 836 529 
Q 422 1150 422 2328 
Q 422 3509 836 4129 
Q 1250 4750 2034 4750 
z
" transform="scale(0.015625)"/>
       </defs>
       <use xlink:href="#DejaVuSans-30"/>
      </g>
     </g>
    </g>
    <g id="xtick_2">
     <g id="line2d_2">
      <path d="M 112.635116 192.819141 
L 112.635116 11.379141 
" clip-path="url(#ped7ea5b3b5)" style="fill: none; stroke: #ffffff; stroke-linecap: round"/>
     </g>
     <g id="text_2">
      <!-- 64 -->
      <g style="fill: #262626" transform="translate(105.636366 210.677422) scale(0.11 -0.11)">
       <defs>
        <path id="DejaVuSans-36" d="M 2113 2584 
Q 1688 2584 1439 2293 
Q 1191 2003 1191 1497 
Q 1191 994 1439 701 
Q 1688 409 2113 409 
Q 2538 409 2786 701 
Q 3034 994 3034 1497 
Q 3034 2003 2786 2293 
Q 2538 2584 2113 2584 
z
M 3366 4563 
L 3366 3988 
Q 3128 4100 2886 4159 
Q 2644 4219 2406 4219 
Q 1781 4219 1451 3797 
Q 1122 3375 1075 2522 
Q 1259 2794 1537 2939 
Q 1816 3084 2150 3084 
Q 2853 3084 3261 2657 
Q 3669 2231 3669 1497 
Q 3669 778 3244 343 
Q 2819 -91 2113 -91 
Q 1303 -91 875 529 
Q 447 1150 447 2328 
Q 447 3434 972 4092 
Q 1497 4750 2381 4750 
Q 2619 4750 2861 4703 
Q 3103 4656 3366 4563 
z
" transform="scale(0.015625)"/>
        <path id="DejaVuSans-34" d="M 2419 4116 
L 825 1625 
L 2419 1625 
L 2419 4116 
z
M 2253 4666 
L 3047 4666 
L 3047 1625 
L 3713 1625 
L 3713 1100 
L 3047 1100 
L 3047 0 
L 2419 0 
L 2419 1100 
L 313 1100 
L 313 1709 
L 2253 4666 
z
" transform="scale(0.015625)"/>
       </defs>
       <use xlink:href="#DejaVuSans-36"/>
       <use xlink:href="#DejaVuSans-34" x="63.623047"/>
      </g>
     </g>
    </g>
    <g id="xtick_3">
     <g id="line2d_3">
      <path d="M 147.026487 192.819141 
L 147.026487 11.379141 
" clip-path="url(#ped7ea5b3b5)" style="fill: none; stroke: #ffffff; stroke-linecap: round"/>
     </g>
     <g id="text_3">
      <!-- 128 -->
      <g style="fill: #262626" transform="translate(136.528362 210.677422) scale(0.11 -0.11)">
       <defs>
        <path id="DejaVuSans-31" d="M 794 531 
L 1825 531 
L 1825 4091 
L 703 3866 
L 703 4441 
L 1819 4666 
L 2450 4666 
L 2450 531 
L 3481 531 
L 3481 0 
L 794 0 
L 794 531 
z
" transform="scale(0.015625)"/>
        <path id="DejaVuSans-32" d="M 1228 531 
L 3431 531 
L 3431 0 
L 469 0 
L 469 531 
Q 828 903 1448 1529 
Q 2069 2156 2228 2338 
Q 2531 2678 2651 2914 
Q 2772 3150 2772 3378 
Q 2772 3750 2511 3984 
Q 2250 4219 1831 4219 
Q 1534 4219 1204 4116 
Q 875 4013 500 3803 
L 500 4441 
Q 881 4594 1212 4672 
Q 1544 4750 1819 4750 
Q 2544 4750 2975 4387 
Q 3406 4025 3406 3419 
Q 3406 3131 3298 2873 
Q 3191 2616 2906 2266 
Q 2828 2175 2409 1742 
Q 1991 1309 1228 531 
z
" transform="scale(0.015625)"/>
        <path id="DejaVuSans-38" d="M 2034 2216 
Q 1584 2216 1326 1975 
Q 1069 1734 1069 1313 
Q 1069 891 1326 650 
Q 1584 409 2034 409 
Q 2484 409 2743 651 
Q 3003 894 3003 1313 
Q 3003 1734 2745 1975 
Q 2488 2216 2034 2216 
z
M 1403 2484 
Q 997 2584 770 2862 
Q 544 3141 544 3541 
Q 544 4100 942 4425 
Q 1341 4750 2034 4750 
Q 2731 4750 3128 4425 
Q 3525 4100 3525 3541 
Q 3525 3141 3298 2862 
Q 3072 2584 2669 2484 
Q 3125 2378 3379 2068 
Q 3634 1759 3634 1313 
Q 3634 634 3220 271 
Q 2806 -91 2034 -91 
Q 1263 -91 848 271 
Q 434 634 434 1313 
Q 434 1759 690 2068 
Q 947 2378 1403 2484 
z
M 1172 3481 
Q 1172 3119 1398 2916 
Q 1625 2713 2034 2713 
Q 2441 2713 2670 2916 
Q 2900 3119 2900 3481 
Q 2900 3844 2670 4047 
Q 2441 4250 2034 4250 
Q 1625 4250 1398 4047 
Q 1172 3844 1172 3481 
z
" transform="scale(0.015625)"/>
       </defs>
       <use xlink:href="#DejaVuSans-31"/>
       <use xlink:href="#DejaVuSans-32" x="63.623047"/>
       <use xlink:href="#DejaVuSans-38" x="127.246094"/>
      </g>
     </g>
    </g>
    <g id="xtick_4">
     <g id="line2d_4">
      <path d="M 181.417858 192.819141 
L 181.417858 11.379141 
" clip-path="url(#ped7ea5b3b5)" style="fill: none; stroke: #ffffff; stroke-linecap: round"/>
     </g>
     <g id="text_4">
      <!-- 192 -->
      <g style="fill: #262626" transform="translate(170.919733 210.677422) scale(0.11 -0.11)">
       <defs>
        <path id="DejaVuSans-39" d="M 703 97 
L 703 672 
Q 941 559 1184 500 
Q 1428 441 1663 441 
Q 2288 441 2617 861 
Q 2947 1281 2994 2138 
Q 2813 1869 2534 1725 
Q 2256 1581 1919 1581 
Q 1219 1581 811 2004 
Q 403 2428 403 3163 
Q 403 3881 828 4315 
Q 1253 4750 1959 4750 
Q 2769 4750 3195 4129 
Q 3622 3509 3622 2328 
Q 3622 1225 3098 567 
Q 2575 -91 1691 -91 
Q 1453 -91 1209 -44 
Q 966 3 703 97 
z
M 1959 2075 
Q 2384 2075 2632 2365 
Q 2881 2656 2881 3163 
Q 2881 3666 2632 3958 
Q 2384 4250 1959 4250 
Q 1534 4250 1286 3958 
Q 1038 3666 1038 3163 
Q 1038 2656 1286 2365 
Q 1534 2075 1959 2075 
z
" transform="scale(0.015625)"/>
       </defs>
       <use xlink:href="#DejaVuSans-31"/>
       <use xlink:href="#DejaVuSans-39" x="63.623047"/>
       <use xlink:href="#DejaVuSans-32" x="127.246094"/>
      </g>
     </g>
    </g>
    <g id="xtick_5">
     <g id="line2d_5">
      <path d="M 215.80923 192.819141 
L 215.80923 11.379141 
" clip-path="url(#ped7ea5b3b5)" style="fill: none; stroke: #ffffff; stroke-linecap: round"/>
     </g>
     <g id="text_5">
      <!-- 256 -->
      <g style="fill: #262626" transform="translate(205.311105 210.677422) scale(0.11 -0.11)">
       <defs>
        <path id="DejaVuSans-35" d="M 691 4666 
L 3169 4666 
L 3169 4134 
L 1269 4134 
L 1269 2991 
Q 1406 3038 1543 3061 
Q 1681 3084 1819 3084 
Q 2600 3084 3056 2656 
Q 3513 2228 3513 1497 
Q 3513 744 3044 326 
Q 2575 -91 1722 -91 
Q 1428 -91 1123 -41 
Q 819 9 494 109 
L 494 744 
Q 775 591 1075 516 
Q 1375 441 1709 441 
Q 2250 441 2565 725 
Q 2881 1009 2881 1497 
Q 2881 1984 2565 2268 
Q 2250 2553 1709 2553 
Q 1456 2553 1204 2497 
Q 953 2441 691 2322 
L 691 4666 
z
" transform="scale(0.015625)"/>
       </defs>
       <use xlink:href="#DejaVuSans-32"/>
       <use xlink:href="#DejaVuSans-35" x="63.623047"/>
       <use xlink:href="#DejaVuSans-36" x="127.246094"/>
      </g>
     </g>
    </g>
    <g id="xtick_6">
     <g id="line2d_6">
      <path d="M 250.200601 192.819141 
L 250.200601 11.379141 
" clip-path="url(#ped7ea5b3b5)" style="fill: none; stroke: #ffffff; stroke-linecap: round"/>
     </g>
     <g id="text_6">
      <!-- 320 -->
      <g style="fill: #262626" transform="translate(239.702476 210.677422) scale(0.11 -0.11)">
       <defs>
        <path id="DejaVuSans-33" d="M 2597 2516 
Q 3050 2419 3304 2112 
Q 3559 1806 3559 1356 
Q 3559 666 3084 287 
Q 2609 -91 1734 -91 
Q 1441 -91 1130 -33 
Q 819 25 488 141 
L 488 750 
Q 750 597 1062 519 
Q 1375 441 1716 441 
Q 2309 441 2620 675 
Q 2931 909 2931 1356 
Q 2931 1769 2642 2001 
Q 2353 2234 1838 2234 
L 1294 2234 
L 1294 2753 
L 1863 2753 
Q 2328 2753 2575 2939 
Q 2822 3125 2822 3475 
Q 2822 3834 2567 4026 
Q 2313 4219 1838 4219 
Q 1578 4219 1281 4162 
Q 984 4106 628 3988 
L 628 4550 
Q 988 4650 1302 4700 
Q 1616 4750 1894 4750 
Q 2613 4750 3031 4423 
Q 3450 4097 3450 3541 
Q 3450 3153 3228 2886 
Q 3006 2619 2597 2516 
z
" transform="scale(0.015625)"/>
       </defs>
       <use xlink:href="#DejaVuSans-33"/>
       <use xlink:href="#DejaVuSans-32" x="63.623047"/>
       <use xlink:href="#DejaVuSans-30" x="127.246094"/>
      </g>
     </g>
    </g>
    <g id="xtick_7">
     <g id="line2d_7">
      <path d="M 284.591972 192.819141 
L 284.591972 11.379141 
" clip-path="url(#ped7ea5b3b5)" style="fill: none; stroke: #ffffff; stroke-linecap: round"/>
     </g>
     <g id="text_7">
      <!-- 384 -->
      <g style="fill: #262626" transform="translate(274.093847 210.677422) scale(0.11 -0.11)">
       <use xlink:href="#DejaVuSans-33"/>
       <use xlink:href="#DejaVuSans-38" x="63.623047"/>
       <use xlink:href="#DejaVuSans-34" x="127.246094"/>
      </g>
     </g>
    </g>
    <g id="xtick_8">
     <g id="line2d_8">
      <path d="M 318.983344 192.819141 
L 318.983344 11.379141 
" clip-path="url(#ped7ea5b3b5)" style="fill: none; stroke: #ffffff; stroke-linecap: round"/>
     </g>
     <g id="text_8">
      <!-- 448 -->
      <g style="fill: #262626" transform="translate(308.485219 210.677422) scale(0.11 -0.11)">
       <use xlink:href="#DejaVuSans-34"/>
       <use xlink:href="#DejaVuSans-34" x="63.623047"/>
       <use xlink:href="#DejaVuSans-38" x="127.246094"/>
      </g>
     </g>
    </g>
    <g id="xtick_9">
     <g id="line2d_9">
      <path d="M 353.374715 192.819141 
L 353.374715 11.379141 
" clip-path="url(#ped7ea5b3b5)" style="fill: none; stroke: #ffffff; stroke-linecap: round"/>
     </g>
     <g id="text_9">
      <!-- 512 -->
      <g style="fill: #262626" transform="translate(342.87659 210.677422) scale(0.11 -0.11)">
       <use xlink:href="#DejaVuSans-35"/>
       <use xlink:href="#DejaVuSans-31" x="63.623047"/>
       <use xlink:href="#DejaVuSans-32" x="127.246094"/>
      </g>
     </g>
    </g>
    <g id="xtick_10">
     <g id="line2d_10">
      <path d="M 387.766086 192.819141 
L 387.766086 11.379141 
" clip-path="url(#ped7ea5b3b5)" style="fill: none; stroke: #ffffff; stroke-linecap: round"/>
     </g>
     <g id="text_10">
      <!-- 576 -->
      <g style="fill: #262626" transform="translate(377.267961 210.677422) scale(0.11 -0.11)">
       <defs>
        <path id="DejaVuSans-37" d="M 525 4666 
L 3525 4666 
L 3525 4397 
L 1831 0 
L 1172 0 
L 2766 4134 
L 525 4134 
L 525 4666 
z
" transform="scale(0.015625)"/>
       </defs>
       <use xlink:href="#DejaVuSans-35"/>
       <use xlink:href="#DejaVuSans-37" x="63.623047"/>
       <use xlink:href="#DejaVuSans-36" x="127.246094"/>
      </g>
     </g>
    </g>
    <g id="xtick_11">
     <g id="line2d_11">
      <path d="M 422.157458 192.819141 
L 422.157458 11.379141 
" clip-path="url(#ped7ea5b3b5)" style="fill: none; stroke: #ffffff; stroke-linecap: round"/>
     </g>
     <g id="text_11">
      <!-- 640 -->
      <g style="fill: #262626" transform="translate(411.659333 210.677422) scale(0.11 -0.11)">
       <use xlink:href="#DejaVuSans-36"/>
       <use xlink:href="#DejaVuSans-34" x="63.623047"/>
       <use xlink:href="#DejaVuSans-30" x="127.246094"/>
      </g>
     </g>
    </g>
    <g id="xtick_12">
     <g id="line2d_12">
      <path d="M 456.548829 192.819141 
L 456.548829 11.379141 
" clip-path="url(#ped7ea5b3b5)" style="fill: none; stroke: #ffffff; stroke-linecap: round"/>
     </g>
     <g id="text_12">
      <!-- 704 -->
      <g style="fill: #262626" transform="translate(446.050704 210.677422) scale(0.11 -0.11)">
       <use xlink:href="#DejaVuSans-37"/>
       <use xlink:href="#DejaVuSans-30" x="63.623047"/>
       <use xlink:href="#DejaVuSans-34" x="127.246094"/>
      </g>
     </g>
    </g>
    <g id="xtick_13">
     <g id="line2d_13">
      <path d="M 490.9402 192.819141 
L 490.9402 11.379141 
" clip-path="url(#ped7ea5b3b5)" style="fill: none; stroke: #ffffff; stroke-linecap: round"/>
     </g>
     <g id="text_13">
      <!-- 768 -->
      <g style="fill: #262626" transform="translate(480.442075 210.677422) scale(0.11 -0.11)">
       <use xlink:href="#DejaVuSans-37"/>
       <use xlink:href="#DejaVuSans-36" x="63.623047"/>
       <use xlink:href="#DejaVuSans-38" x="127.246094"/>
      </g>
     </g>
    </g>
    <g id="xtick_14">
     <g id="line2d_14">
      <path d="M 525.331572 192.819141 
L 525.331572 11.379141 
" clip-path="url(#ped7ea5b3b5)" style="fill: none; stroke: #ffffff; stroke-linecap: round"/>
     </g>
     <g id="text_14">
      <!-- 832 -->
      <g style="fill: #262626" transform="translate(514.833447 210.677422) scale(0.11 -0.11)">
       <use xlink:href="#DejaVuSans-38"/>
       <use xlink:href="#DejaVuSans-33" x="63.623047"/>
       <use xlink:href="#DejaVuSans-32" x="127.246094"/>
      </g>
     </g>
    </g>
    <g id="xtick_15">
     <g id="line2d_15">
      <path d="M 559.722943 192.819141 
L 559.722943 11.379141 
" clip-path="url(#ped7ea5b3b5)" style="fill: none; stroke: #ffffff; stroke-linecap: round"/>
     </g>
     <g id="text_15">
      <!-- 896 -->
      <g style="fill: #262626" transform="translate(549.224818 210.677422) scale(0.11 -0.11)">
       <use xlink:href="#DejaVuSans-38"/>
       <use xlink:href="#DejaVuSans-39" x="63.623047"/>
       <use xlink:href="#DejaVuSans-36" x="127.246094"/>
      </g>
     </g>
    </g>
    <g id="xtick_16">
     <g id="line2d_16">
      <path d="M 594.114314 192.819141 
L 594.114314 11.379141 
" clip-path="url(#ped7ea5b3b5)" style="fill: none; stroke: #ffffff; stroke-linecap: round"/>
     </g>
     <g id="text_16">
      <!-- 960 -->
      <g style="fill: #262626" transform="translate(583.616189 210.677422) scale(0.11 -0.11)">
       <use xlink:href="#DejaVuSans-39"/>
       <use xlink:href="#DejaVuSans-36" x="63.623047"/>
       <use xlink:href="#DejaVuSans-30" x="127.246094"/>
      </g>
     </g>
    </g>
    <g id="xtick_17"/>
    <g id="xtick_18"/>
    <g id="xtick_19"/>
    <g id="xtick_20"/>
    <g id="xtick_21"/>
    <g id="xtick_22"/>
    <g id="xtick_23"/>
    <g id="xtick_24"/>
    <g id="xtick_25"/>
    <g id="xtick_26"/>
    <g id="xtick_27"/>
    <g id="xtick_28"/>
    <g id="xtick_29"/>
    <g id="xtick_30"/>
    <g id="xtick_31"/>
    <g id="xtick_32"/>
   </g>
   <g id="matplotlib.axis_2">
    <g id="ytick_1">
     <g id="line2d_17">
      <path d="M 53.31 176.324595 
L 611.31 176.324595 
" clip-path="url(#ped7ea5b3b5)" style="fill: none; stroke: #ffffff; stroke-linecap: round"/>
     </g>
     <g id="text_17">
      <!-- 0 -->
      <g style="fill: #262626" transform="translate(36.81125 180.503736) scale(0.11 -0.11)">
       <use xlink:href="#DejaVuSans-30"/>
      </g>
     </g>
    </g>
    <g id="ytick_2">
     <g id="line2d_18">
      <path d="M 53.31 143.335504 
L 611.31 143.335504 
" clip-path="url(#ped7ea5b3b5)" style="fill: none; stroke: #ffffff; stroke-linecap: round"/>
     </g>
     <g id="text_18">
      <!-- 1 -->
      <g style="fill: #262626" transform="translate(36.81125 147.514645) scale(0.11 -0.11)">
       <use xlink:href="#DejaVuSans-31"/>
      </g>
     </g>
    </g>
    <g id="ytick_3">
     <g id="line2d_19">
      <path d="M 53.31 110.346413 
L 611.31 110.346413 
" clip-path="url(#ped7ea5b3b5)" style="fill: none; stroke: #ffffff; stroke-linecap: round"/>
     </g>
     <g id="text_19">
      <!-- 2 -->
      <g style="fill: #262626" transform="translate(36.81125 114.525554) scale(0.11 -0.11)">
       <use xlink:href="#DejaVuSans-32"/>
      </g>
     </g>
    </g>
    <g id="ytick_4">
     <g id="line2d_20">
      <path d="M 53.31 77.357322 
L 611.31 77.357322 
" clip-path="url(#ped7ea5b3b5)" style="fill: none; stroke: #ffffff; stroke-linecap: round"/>
     </g>
     <g id="text_20">
      <!-- 3 -->
      <g style="fill: #262626" transform="translate(36.81125 81.536463) scale(0.11 -0.11)">
       <use xlink:href="#DejaVuSans-33"/>
      </g>
     </g>
    </g>
    <g id="ytick_5">
     <g id="line2d_21">
      <path d="M 53.31 44.368232 
L 611.31 44.368232 
" clip-path="url(#ped7ea5b3b5)" style="fill: none; stroke: #ffffff; stroke-linecap: round"/>
     </g>
     <g id="text_21">
      <!-- 4 -->
      <g style="fill: #262626" transform="translate(36.81125 48.547372) scale(0.11 -0.11)">
       <use xlink:href="#DejaVuSans-34"/>
      </g>
     </g>
    </g>
    <g id="ytick_6">
     <g id="line2d_22">
      <path d="M 53.31 11.379141 
L 611.31 11.379141 
" clip-path="url(#ped7ea5b3b5)" style="fill: none; stroke: #ffffff; stroke-linecap: round"/>
     </g>
     <g id="text_22">
      <!-- 5 -->
      <g style="fill: #262626" transform="translate(36.81125 15.558281) scale(0.11 -0.11)">
       <use xlink:href="#DejaVuSans-35"/>
      </g>
     </g>
    </g>
    <g id="text_23">
     <!-- Latency [ms] -->
     <g style="fill: #262626" transform="translate(30.315625 141.374766) rotate(-90) scale(0.12 -0.12)">
      <defs>
       <path id="DejaVuSans-4c" d="M 628 4666 
L 1259 4666 
L 1259 531 
L 3531 531 
L 3531 0 
L 628 0 
L 628 4666 
z
" transform="scale(0.015625)"/>
       <path id="DejaVuSans-61" d="M 2194 1759 
Q 1497 1759 1228 1600 
Q 959 1441 959 1056 
Q 959 750 1161 570 
Q 1363 391 1709 391 
Q 2188 391 2477 730 
Q 2766 1069 2766 1631 
L 2766 1759 
L 2194 1759 
z
M 3341 1997 
L 3341 0 
L 2766 0 
L 2766 531 
Q 2569 213 2275 61 
Q 1981 -91 1556 -91 
Q 1019 -91 701 211 
Q 384 513 384 1019 
Q 384 1609 779 1909 
Q 1175 2209 1959 2209 
L 2766 2209 
L 2766 2266 
Q 2766 2663 2505 2880 
Q 2244 3097 1772 3097 
Q 1472 3097 1187 3025 
Q 903 2953 641 2809 
L 641 3341 
Q 956 3463 1253 3523 
Q 1550 3584 1831 3584 
Q 2591 3584 2966 3190 
Q 3341 2797 3341 1997 
z
" transform="scale(0.015625)"/>
       <path id="DejaVuSans-74" d="M 1172 4494 
L 1172 3500 
L 2356 3500 
L 2356 3053 
L 1172 3053 
L 1172 1153 
Q 1172 725 1289 603 
Q 1406 481 1766 481 
L 2356 481 
L 2356 0 
L 1766 0 
Q 1100 0 847 248 
Q 594 497 594 1153 
L 594 3053 
L 172 3053 
L 172 3500 
L 594 3500 
L 594 4494 
L 1172 4494 
z
" transform="scale(0.015625)"/>
       <path id="DejaVuSans-65" d="M 3597 1894 
L 3597 1613 
L 953 1613 
Q 991 1019 1311 708 
Q 1631 397 2203 397 
Q 2534 397 2845 478 
Q 3156 559 3463 722 
L 3463 178 
Q 3153 47 2828 -22 
Q 2503 -91 2169 -91 
Q 1331 -91 842 396 
Q 353 884 353 1716 
Q 353 2575 817 3079 
Q 1281 3584 2069 3584 
Q 2775 3584 3186 3129 
Q 3597 2675 3597 1894 
z
M 3022 2063 
Q 3016 2534 2758 2815 
Q 2500 3097 2075 3097 
Q 1594 3097 1305 2825 
Q 1016 2553 972 2059 
L 3022 2063 
z
" transform="scale(0.015625)"/>
       <path id="DejaVuSans-6e" d="M 3513 2113 
L 3513 0 
L 2938 0 
L 2938 2094 
Q 2938 2591 2744 2837 
Q 2550 3084 2163 3084 
Q 1697 3084 1428 2787 
Q 1159 2491 1159 1978 
L 1159 0 
L 581 0 
L 581 3500 
L 1159 3500 
L 1159 2956 
Q 1366 3272 1645 3428 
Q 1925 3584 2291 3584 
Q 2894 3584 3203 3211 
Q 3513 2838 3513 2113 
z
" transform="scale(0.015625)"/>
       <path id="DejaVuSans-63" d="M 3122 3366 
L 3122 2828 
Q 2878 2963 2633 3030 
Q 2388 3097 2138 3097 
Q 1578 3097 1268 2742 
Q 959 2388 959 1747 
Q 959 1106 1268 751 
Q 1578 397 2138 397 
Q 2388 397 2633 464 
Q 2878 531 3122 666 
L 3122 134 
Q 2881 22 2623 -34 
Q 2366 -91 2075 -91 
Q 1284 -91 818 406 
Q 353 903 353 1747 
Q 353 2603 823 3093 
Q 1294 3584 2113 3584 
Q 2378 3584 2631 3529 
Q 2884 3475 3122 3366 
z
" transform="scale(0.015625)"/>
       <path id="DejaVuSans-79" d="M 2059 -325 
Q 1816 -950 1584 -1140 
Q 1353 -1331 966 -1331 
L 506 -1331 
L 506 -850 
L 844 -850 
Q 1081 -850 1212 -737 
Q 1344 -625 1503 -206 
L 1606 56 
L 191 3500 
L 800 3500 
L 1894 763 
L 2988 3500 
L 3597 3500 
L 2059 -325 
z
" transform="scale(0.015625)"/>
       <path id="DejaVuSans-20" transform="scale(0.015625)"/>
       <path id="DejaVuSans-5b" d="M 550 4863 
L 1875 4863 
L 1875 4416 
L 1125 4416 
L 1125 -397 
L 1875 -397 
L 1875 -844 
L 550 -844 
L 550 4863 
z
" transform="scale(0.015625)"/>
       <path id="DejaVuSans-6d" d="M 3328 2828 
Q 3544 3216 3844 3400 
Q 4144 3584 4550 3584 
Q 5097 3584 5394 3201 
Q 5691 2819 5691 2113 
L 5691 0 
L 5113 0 
L 5113 2094 
Q 5113 2597 4934 2840 
Q 4756 3084 4391 3084 
Q 3944 3084 3684 2787 
Q 3425 2491 3425 1978 
L 3425 0 
L 2847 0 
L 2847 2094 
Q 2847 2600 2669 2842 
Q 2491 3084 2119 3084 
Q 1678 3084 1418 2786 
Q 1159 2488 1159 1978 
L 1159 0 
L 581 0 
L 581 3500 
L 1159 3500 
L 1159 2956 
Q 1356 3278 1631 3431 
Q 1906 3584 2284 3584 
Q 2666 3584 2933 3390 
Q 3200 3197 3328 2828 
z
" transform="scale(0.015625)"/>
       <path id="DejaVuSans-73" d="M 2834 3397 
L 2834 2853 
Q 2591 2978 2328 3040 
Q 2066 3103 1784 3103 
Q 1356 3103 1142 2972 
Q 928 2841 928 2578 
Q 928 2378 1081 2264 
Q 1234 2150 1697 2047 
L 1894 2003 
Q 2506 1872 2764 1633 
Q 3022 1394 3022 966 
Q 3022 478 2636 193 
Q 2250 -91 1575 -91 
Q 1294 -91 989 -36 
Q 684 19 347 128 
L 347 722 
Q 666 556 975 473 
Q 1284 391 1588 391 
Q 1994 391 2212 530 
Q 2431 669 2431 922 
Q 2431 1156 2273 1281 
Q 2116 1406 1581 1522 
L 1381 1569 
Q 847 1681 609 1914 
Q 372 2147 372 2553 
Q 372 3047 722 3315 
Q 1072 3584 1716 3584 
Q 2034 3584 2315 3537 
Q 2597 3491 2834 3397 
z
" transform="scale(0.015625)"/>
       <path id="DejaVuSans-5d" d="M 1947 4863 
L 1947 -844 
L 622 -844 
L 622 -397 
L 1369 -397 
L 1369 4416 
L 622 4416 
L 622 4863 
L 1947 4863 
z
" transform="scale(0.015625)"/>
      </defs>
      <use xlink:href="#DejaVuSans-4c"/>
      <use xlink:href="#DejaVuSans-61" x="55.712891"/>
      <use xlink:href="#DejaVuSans-74" x="116.992188"/>
      <use xlink:href="#DejaVuSans-65" x="156.201172"/>
      <use xlink:href="#DejaVuSans-6e" x="217.724609"/>
      <use xlink:href="#DejaVuSans-63" x="281.103516"/>
      <use xlink:href="#DejaVuSans-79" x="336.083984"/>
      <use xlink:href="#DejaVuSans-20" x="395.263672"/>
      <use xlink:href="#DejaVuSans-5b" x="427.050781"/>
      <use xlink:href="#DejaVuSans-6d" x="466.064453"/>
      <use xlink:href="#DejaVuSans-73" x="563.476562"/>
      <use xlink:href="#DejaVuSans-5d" x="615.576172"/>
     </g>
    </g>
   </g>
   <g id="PolyCollection_1"/>
   <g id="PolyCollection_2"/>
   <g id="PolyCollection_3">
    <defs>
     <path id="mb882ea300f" d="M 78.243744 -346.789902 
L 78.243744 -346.783717 
L 95.43943 -287.325004 
L 112.635116 -277.549924 
L 129.830801 -276.9788 
L 147.026487 -277.417968 
L 164.222173 -278.234447 
L 181.417858 -280.300389 
L 198.613544 -281.042644 
L 215.80923 -280.782855 
L 233.004915 -281.547789 
L 250.200601 -283.395178 
L 267.396287 -283.137451 
L 284.591972 -283.393117 
L 301.787658 -286.063171 
L 318.983344 -285.07556 
L 336.179029 -286.656975 
L 353.374715 -286.755942 
L 370.570401 -288.337357 
L 387.766086 -290.195055 
L 404.961772 -291.102255 
L 422.157458 -290.120829 
L 439.353143 -292.916655 
L 456.548829 -291.933167 
L 473.744515 -292.918717 
L 490.9402 -309.994695 
L 508.135886 -311.221477 
L 525.331572 -311.221477 
L 542.527257 -313.332778 
L 559.722943 -312.126615 
L 576.918629 -313.239997 
L 576.918629 -313.239997 
L 576.918629 -313.239997 
L 559.722943 -312.126615 
L 542.527257 -313.332778 
L 525.331572 -311.235909 
L 508.135886 -311.240033 
L 490.9402 -310.015313 
L 473.744515 -292.992942 
L 456.548829 -291.933167 
L 439.353143 -292.916655 
L 422.157458 -290.992978 
L 404.961772 -291.104317 
L 387.766086 -290.195055 
L 370.570401 -288.463127 
L 353.374715 -286.811611 
L 336.179029 -286.656975 
L 318.983344 -285.203393 
L 301.787658 -286.063171 
L 284.591972 -283.393117 
L 267.396287 -283.137451 
L 250.200601 -283.395178 
L 233.004915 -281.547789 
L 215.80923 -280.898317 
L 198.613544 -281.042644 
L 181.417858 -280.389048 
L 164.222173 -279.285975 
L 147.026487 -277.733426 
L 129.830801 -276.9788 
L 112.635116 -277.929298 
L 95.43943 -287.325004 
L 78.243744 -346.789902 
z
" style="stroke: #ffffff; stroke-opacity: 0.2"/>
    </defs>
    <g clip-path="url(#ped7ea5b3b5)">
     <use xlink:href="#mb882ea300f" x="0" y="386.978828" style="fill: #3e356b; fill-opacity: 0.2; stroke: #ffffff; stroke-opacity: 0.2"/>
    </g>
   </g>
   <g id="PolyCollection_4"/>
   <g id="PolyCollection_5">
    <defs>
     <path id="m1f23b9e5ca" d="M 78.243744 -288.428077 
L 78.243744 -288.428077 
L 95.43943 -243.635077 
L 112.635116 -218.742746 
L 129.830801 -219.555102 
L 147.026487 -220.087051 
L 164.222173 -220.901469 
L 181.417858 -221.433418 
L 198.613544 -222.247837 
L 215.80923 -222.777724 
L 233.004915 -223.592142 
L 250.200601 -224.124091 
L 267.396287 -224.938509 
L 284.591972 -225.468397 
L 301.787658 -226.282815 
L 318.983344 -226.814764 
L 336.179029 -227.629182 
L 353.374715 -228.161131 
L 370.570401 -244.255684 
L 387.766086 -244.762891 
L 404.961772 -245.602051 
L 422.157458 -246.131938 
L 439.353143 -246.756669 
L 456.548829 -247.42676 
L 473.744515 -248.006131 
L 490.9402 -248.385506 
L 508.135886 -249.193738 
L 525.331572 -249.725687 
L 542.527257 -250.540106 
L 559.722943 -251.072055 
L 576.918629 -251.884411 
L 576.918629 -251.884411 
L 576.918629 -251.884411 
L 559.722943 -251.072055 
L 542.527257 -250.540106 
L 525.331572 -249.725687 
L 508.135886 -249.193738 
L 490.9402 -248.385506 
L 473.744515 -248.006131 
L 456.548829 -247.42676 
L 439.353143 -246.756669 
L 422.157458 -246.131938 
L 404.961772 -245.602051 
L 387.766086 -244.762891 
L 370.570401 -244.255684 
L 353.374715 -228.161131 
L 336.179029 -227.629182 
L 318.983344 -226.814764 
L 301.787658 -226.282815 
L 284.591972 -225.468397 
L 267.396287 -224.938509 
L 250.200601 -224.124091 
L 233.004915 -223.592142 
L 215.80923 -222.907618 
L 198.613544 -222.247837 
L 181.417858 -221.433418 
L 164.222173 -220.901469 
L 147.026487 -220.087051 
L 129.830801 -219.555102 
L 112.635116 -218.742746 
L 95.43943 -243.635077 
L 78.243744 -288.428077 
z
" style="stroke: #ffffff; stroke-opacity: 0.2"/>
    </defs>
    <g clip-path="url(#ped7ea5b3b5)">
     <use xlink:href="#m1f23b9e5ca" x="0" y="386.978828" style="fill: #357ba3; fill-opacity: 0.2; stroke: #ffffff; stroke-opacity: 0.2"/>
    </g>
   </g>
   <g id="PolyCollection_6"/>
   <g id="PolyCollection_7">
    <defs>
     <path id="m881e57fefb" d="M 78.243744 -215.000546 
L 78.243744 -215.000546 
L 95.43943 -215.006731 
L 112.635116 -215.006731 
L 129.830801 -215.006731 
L 147.026487 -215.006731 
L 164.222173 -215.006731 
L 181.417858 -215.006731 
L 198.613544 -215.006731 
L 215.80923 -215.006731 
L 233.004915 -215.006731 
L 250.200601 -215.006731 
L 267.396287 -215.006731 
L 284.591972 -215.006731 
L 301.787658 -215.006731 
L 318.983344 -215.006731 
L 336.179029 -215.006731 
L 353.374715 -215.006731 
L 370.570401 -215.006731 
L 387.766086 -215.006731 
L 404.961772 -215.006731 
L 422.157458 -215.006731 
L 439.353143 -215.006731 
L 456.548829 -215.006731 
L 473.744515 -215.006731 
L 490.9402 -215.006731 
L 508.135886 -215.006731 
L 525.331572 -215.006731 
L 542.527257 -215.006731 
L 559.722943 -215.006731 
L 576.918629 -215.006731 
L 576.918629 -215.006731 
L 576.918629 -215.006731 
L 559.722943 -215.006731 
L 542.527257 -215.006731 
L 525.331572 -215.006731 
L 508.135886 -215.006731 
L 490.9402 -215.006731 
L 473.744515 -215.006731 
L 456.548829 -215.006731 
L 439.353143 -215.006731 
L 422.157458 -215.006731 
L 404.961772 -215.006731 
L 387.766086 -215.006731 
L 370.570401 -215.006731 
L 353.374715 -215.006731 
L 336.179029 -215.006731 
L 318.983344 -215.006731 
L 301.787658 -215.006731 
L 284.591972 -215.006731 
L 267.396287 -215.006731 
L 250.200601 -215.006731 
L 233.004915 -215.006731 
L 215.80923 -215.006731 
L 198.613544 -215.006731 
L 181.417858 -215.006731 
L 164.222173 -215.006731 
L 147.026487 -215.006731 
L 129.830801 -215.006731 
L 112.635116 -215.006731 
L 95.43943 -215.006731 
L 78.243744 -215.000546 
z
" style="stroke: #ffffff; stroke-opacity: 0.2"/>
    </defs>
    <g clip-path="url(#ped7ea5b3b5)">
     <use xlink:href="#m881e57fefb" x="0" y="386.978828" style="fill: #4bc2ad; fill-opacity: 0.2; stroke: #ffffff; stroke-opacity: 0.2"/>
    </g>
   </g>
   <g id="line2d_23">
    <path d="M 78.243744 175.054515 
L 95.43943 174.066904 
L 112.635116 173.37001 
L 129.830801 172.384461 
L 147.026487 171.687566 
L 164.222173 170.704079 
L 181.417858 170.009246 
L 198.613544 169.023697 
L 215.80923 168.326802 
L 233.004915 167.341253 
L 250.200601 166.646421 
L 267.396287 165.660872 
L 284.591972 164.963977 
L 301.787658 163.98049 
L 318.983344 163.283595 
L 336.179029 162.298046 
L 353.374715 161.601152 
L 370.570401 160.617411 
L 387.766086 159.92077 
L 404.961772 158.937282 
L 422.157458 142.958152 
L 439.353143 141.972642 
L 456.548829 141.27781 
L 473.744515 140.290199 
L 490.9402 139.593304 
L 508.135886 138.611879 
L 525.331572 137.912922 
L 542.527257 136.929435 
L 559.722943 136.232541 
L 576.918629 135.249053 
" clip-path="url(#ped7ea5b3b5)" style="fill: none; stroke: #aaaaaa; stroke-width: 1.5; stroke-linecap: round"/>
    <defs>
     <path id="m88a4a855b2" d="M -1.5 3 
L 0 1.5 
L 1.5 3 
L 3 1.5 
L 1.5 0 
L 3 -1.5 
L 1.5 -3 
L 0 -1.5 
L -1.5 -3 
L -3 -1.5 
L -1.5 0 
L -3 1.5 
z
" style="stroke: #ffffff; stroke-width: 0.75; stroke-linejoin: miter"/>
    </defs>
    <g clip-path="url(#ped7ea5b3b5)">
     <use xlink:href="#m88a4a855b2" x="78.243744" y="175.054515" style="fill: #aaaaaa; stroke: #ffffff; stroke-width: 0.75; stroke-linejoin: miter"/>
     <use xlink:href="#m88a4a855b2" x="95.43943" y="174.066904" style="fill: #aaaaaa; stroke: #ffffff; stroke-width: 0.75; stroke-linejoin: miter"/>
     <use xlink:href="#m88a4a855b2" x="112.635116" y="173.37001" style="fill: #aaaaaa; stroke: #ffffff; stroke-width: 0.75; stroke-linejoin: miter"/>
     <use xlink:href="#m88a4a855b2" x="129.830801" y="172.384461" style="fill: #aaaaaa; stroke: #ffffff; stroke-width: 0.75; stroke-linejoin: miter"/>
     <use xlink:href="#m88a4a855b2" x="147.026487" y="171.687566" style="fill: #aaaaaa; stroke: #ffffff; stroke-width: 0.75; stroke-linejoin: miter"/>
     <use xlink:href="#m88a4a855b2" x="164.222173" y="170.704079" style="fill: #aaaaaa; stroke: #ffffff; stroke-width: 0.75; stroke-linejoin: miter"/>
     <use xlink:href="#m88a4a855b2" x="181.417858" y="170.009246" style="fill: #aaaaaa; stroke: #ffffff; stroke-width: 0.75; stroke-linejoin: miter"/>
     <use xlink:href="#m88a4a855b2" x="198.613544" y="169.023697" style="fill: #aaaaaa; stroke: #ffffff; stroke-width: 0.75; stroke-linejoin: miter"/>
     <use xlink:href="#m88a4a855b2" x="215.80923" y="168.326802" style="fill: #aaaaaa; stroke: #ffffff; stroke-width: 0.75; stroke-linejoin: miter"/>
     <use xlink:href="#m88a4a855b2" x="233.004915" y="167.341253" style="fill: #aaaaaa; stroke: #ffffff; stroke-width: 0.75; stroke-linejoin: miter"/>
     <use xlink:href="#m88a4a855b2" x="250.200601" y="166.646421" style="fill: #aaaaaa; stroke: #ffffff; stroke-width: 0.75; stroke-linejoin: miter"/>
     <use xlink:href="#m88a4a855b2" x="267.396287" y="165.660872" style="fill: #aaaaaa; stroke: #ffffff; stroke-width: 0.75; stroke-linejoin: miter"/>
     <use xlink:href="#m88a4a855b2" x="284.591972" y="164.963977" style="fill: #aaaaaa; stroke: #ffffff; stroke-width: 0.75; stroke-linejoin: miter"/>
     <use xlink:href="#m88a4a855b2" x="301.787658" y="163.98049" style="fill: #aaaaaa; stroke: #ffffff; stroke-width: 0.75; stroke-linejoin: miter"/>
     <use xlink:href="#m88a4a855b2" x="318.983344" y="163.283595" style="fill: #aaaaaa; stroke: #ffffff; stroke-width: 0.75; stroke-linejoin: miter"/>
     <use xlink:href="#m88a4a855b2" x="336.179029" y="162.298046" style="fill: #aaaaaa; stroke: #ffffff; stroke-width: 0.75; stroke-linejoin: miter"/>
     <use xlink:href="#m88a4a855b2" x="353.374715" y="161.601152" style="fill: #aaaaaa; stroke: #ffffff; stroke-width: 0.75; stroke-linejoin: miter"/>
     <use xlink:href="#m88a4a855b2" x="370.570401" y="160.617411" style="fill: #aaaaaa; stroke: #ffffff; stroke-width: 0.75; stroke-linejoin: miter"/>
     <use xlink:href="#m88a4a855b2" x="387.766086" y="159.92077" style="fill: #aaaaaa; stroke: #ffffff; stroke-width: 0.75; stroke-linejoin: miter"/>
     <use xlink:href="#m88a4a855b2" x="404.961772" y="158.937282" style="fill: #aaaaaa; stroke: #ffffff; stroke-width: 0.75; stroke-linejoin: miter"/>
     <use xlink:href="#m88a4a855b2" x="422.157458" y="142.958152" style="fill: #aaaaaa; stroke: #ffffff; stroke-width: 0.75; stroke-linejoin: miter"/>
     <use xlink:href="#m88a4a855b2" x="439.353143" y="141.972642" style="fill: #aaaaaa; stroke: #ffffff; stroke-width: 0.75; stroke-linejoin: miter"/>
     <use xlink:href="#m88a4a855b2" x="456.548829" y="141.27781" style="fill: #aaaaaa; stroke: #ffffff; stroke-width: 0.75; stroke-linejoin: miter"/>
     <use xlink:href="#m88a4a855b2" x="473.744515" y="140.290199" style="fill: #aaaaaa; stroke: #ffffff; stroke-width: 0.75; stroke-linejoin: miter"/>
     <use xlink:href="#m88a4a855b2" x="490.9402" y="139.593304" style="fill: #aaaaaa; stroke: #ffffff; stroke-width: 0.75; stroke-linejoin: miter"/>
     <use xlink:href="#m88a4a855b2" x="508.135886" y="138.611879" style="fill: #aaaaaa; stroke: #ffffff; stroke-width: 0.75; stroke-linejoin: miter"/>
     <use xlink:href="#m88a4a855b2" x="525.331572" y="137.912922" style="fill: #aaaaaa; stroke: #ffffff; stroke-width: 0.75; stroke-linejoin: miter"/>
     <use xlink:href="#m88a4a855b2" x="542.527257" y="136.929435" style="fill: #aaaaaa; stroke: #ffffff; stroke-width: 0.75; stroke-linejoin: miter"/>
     <use xlink:href="#m88a4a855b2" x="559.722943" y="136.232541" style="fill: #aaaaaa; stroke: #ffffff; stroke-width: 0.75; stroke-linejoin: miter"/>
     <use xlink:href="#m88a4a855b2" x="576.918629" y="135.249053" style="fill: #aaaaaa; stroke: #ffffff; stroke-width: 0.75; stroke-linejoin: miter"/>
    </g>
   </g>
   <g id="line2d_24">
    <path d="M 78.243744 40.192019 
L 95.43943 99.653824 
L 112.635116 109.239217 
L 129.830801 110.000028 
L 147.026487 109.403132 
L 164.222173 108.218617 
L 181.417858 106.63411 
L 198.613544 105.936184 
L 215.80923 106.138242 
L 233.004915 105.431039 
L 250.200601 103.58365 
L 267.396287 103.841377 
L 284.591972 103.585712 
L 301.787658 100.915657 
L 318.983344 101.839352 
L 336.179029 100.321853 
L 353.374715 100.204348 
L 370.570401 98.641346 
L 387.766086 96.783773 
L 404.961772 95.875542 
L 422.157458 96.421924 
L 439.353143 94.062173 
L 456.548829 95.045661 
L 473.744515 94.022999 
L 490.9402 76.973824 
L 508.135886 75.748073 
L 525.331572 75.750135 
L 542.527257 73.64605 
L 559.722943 74.852213 
L 576.918629 73.738832 
" clip-path="url(#ped7ea5b3b5)" style="fill: none; stroke: #3e356b; stroke-width: 1.5; stroke-linecap: round"/>
    <defs>
     <path id="madb88d47ec" d="M 0 3 
C 0.795609 3 1.55874 2.683901 2.12132 2.12132 
C 2.683901 1.55874 3 0.795609 3 0 
C 3 -0.795609 2.683901 -1.55874 2.12132 -2.12132 
C 1.55874 -2.683901 0.795609 -3 0 -3 
C -0.795609 -3 -1.55874 -2.683901 -2.12132 -2.12132 
C -2.683901 -1.55874 -3 -0.795609 -3 0 
C -3 0.795609 -2.683901 1.55874 -2.12132 2.12132 
C -1.55874 2.683901 -0.795609 3 0 3 
z
" style="stroke: #ffffff; stroke-width: 0.75"/>
    </defs>
    <g clip-path="url(#ped7ea5b3b5)">
     <use xlink:href="#madb88d47ec" x="78.243744" y="40.192019" style="fill: #3e356b; stroke: #ffffff; stroke-width: 0.75"/>
     <use xlink:href="#madb88d47ec" x="95.43943" y="99.653824" style="fill: #3e356b; stroke: #ffffff; stroke-width: 0.75"/>
     <use xlink:href="#madb88d47ec" x="112.635116" y="109.239217" style="fill: #3e356b; stroke: #ffffff; stroke-width: 0.75"/>
     <use xlink:href="#madb88d47ec" x="129.830801" y="110.000028" style="fill: #3e356b; stroke: #ffffff; stroke-width: 0.75"/>
     <use xlink:href="#madb88d47ec" x="147.026487" y="109.403132" style="fill: #3e356b; stroke: #ffffff; stroke-width: 0.75"/>
     <use xlink:href="#madb88d47ec" x="164.222173" y="108.218617" style="fill: #3e356b; stroke: #ffffff; stroke-width: 0.75"/>
     <use xlink:href="#madb88d47ec" x="181.417858" y="106.63411" style="fill: #3e356b; stroke: #ffffff; stroke-width: 0.75"/>
     <use xlink:href="#madb88d47ec" x="198.613544" y="105.936184" style="fill: #3e356b; stroke: #ffffff; stroke-width: 0.75"/>
     <use xlink:href="#madb88d47ec" x="215.80923" y="106.138242" style="fill: #3e356b; stroke: #ffffff; stroke-width: 0.75"/>
     <use xlink:href="#madb88d47ec" x="233.004915" y="105.431039" style="fill: #3e356b; stroke: #ffffff; stroke-width: 0.75"/>
     <use xlink:href="#madb88d47ec" x="250.200601" y="103.58365" style="fill: #3e356b; stroke: #ffffff; stroke-width: 0.75"/>
     <use xlink:href="#madb88d47ec" x="267.396287" y="103.841377" style="fill: #3e356b; stroke: #ffffff; stroke-width: 0.75"/>
     <use xlink:href="#madb88d47ec" x="284.591972" y="103.585712" style="fill: #3e356b; stroke: #ffffff; stroke-width: 0.75"/>
     <use xlink:href="#madb88d47ec" x="301.787658" y="100.915657" style="fill: #3e356b; stroke: #ffffff; stroke-width: 0.75"/>
     <use xlink:href="#madb88d47ec" x="318.983344" y="101.839352" style="fill: #3e356b; stroke: #ffffff; stroke-width: 0.75"/>
     <use xlink:href="#madb88d47ec" x="336.179029" y="100.321853" style="fill: #3e356b; stroke: #ffffff; stroke-width: 0.75"/>
     <use xlink:href="#madb88d47ec" x="353.374715" y="100.204348" style="fill: #3e356b; stroke: #ffffff; stroke-width: 0.75"/>
     <use xlink:href="#madb88d47ec" x="370.570401" y="98.641346" style="fill: #3e356b; stroke: #ffffff; stroke-width: 0.75"/>
     <use xlink:href="#madb88d47ec" x="387.766086" y="96.783773" style="fill: #3e356b; stroke: #ffffff; stroke-width: 0.75"/>
     <use xlink:href="#madb88d47ec" x="404.961772" y="95.875542" style="fill: #3e356b; stroke: #ffffff; stroke-width: 0.75"/>
     <use xlink:href="#madb88d47ec" x="422.157458" y="96.421924" style="fill: #3e356b; stroke: #ffffff; stroke-width: 0.75"/>
     <use xlink:href="#madb88d47ec" x="439.353143" y="94.062173" style="fill: #3e356b; stroke: #ffffff; stroke-width: 0.75"/>
     <use xlink:href="#madb88d47ec" x="456.548829" y="95.045661" style="fill: #3e356b; stroke: #ffffff; stroke-width: 0.75"/>
     <use xlink:href="#madb88d47ec" x="473.744515" y="94.022999" style="fill: #3e356b; stroke: #ffffff; stroke-width: 0.75"/>
     <use xlink:href="#madb88d47ec" x="490.9402" y="76.973824" style="fill: #3e356b; stroke: #ffffff; stroke-width: 0.75"/>
     <use xlink:href="#madb88d47ec" x="508.135886" y="75.748073" style="fill: #3e356b; stroke: #ffffff; stroke-width: 0.75"/>
     <use xlink:href="#madb88d47ec" x="525.331572" y="75.750135" style="fill: #3e356b; stroke: #ffffff; stroke-width: 0.75"/>
     <use xlink:href="#madb88d47ec" x="542.527257" y="73.64605" style="fill: #3e356b; stroke: #ffffff; stroke-width: 0.75"/>
     <use xlink:href="#madb88d47ec" x="559.722943" y="74.852213" style="fill: #3e356b; stroke: #ffffff; stroke-width: 0.75"/>
     <use xlink:href="#madb88d47ec" x="576.918629" y="73.738832" style="fill: #3e356b; stroke: #ffffff; stroke-width: 0.75"/>
    </g>
   </g>
   <g id="line2d_25">
    <path d="M 78.243744 98.550752 
L 95.43943 143.343752 
L 112.635116 168.236082 
L 129.830801 167.423726 
L 147.026487 166.891777 
L 164.222173 166.077359 
L 181.417858 165.54541 
L 198.613544 164.730992 
L 215.80923 164.200974 
L 233.004915 163.386686 
L 250.200601 162.854737 
L 267.396287 162.040319 
L 284.591972 161.510432 
L 301.787658 160.696013 
L 318.983344 160.164064 
L 336.179029 159.349646 
L 353.374715 158.817697 
L 370.570401 142.723144 
L 387.766086 142.215937 
L 404.961772 141.376777 
L 422.157458 140.84689 
L 439.353143 140.222159 
L 456.548829 139.552068 
L 473.744515 138.972697 
L 490.9402 138.593322 
L 508.135886 137.78509 
L 525.331572 137.253141 
L 542.527257 136.438722 
L 559.722943 135.906773 
L 576.918629 135.094417 
" clip-path="url(#ped7ea5b3b5)" style="fill: none; stroke: #357ba3; stroke-width: 1.5; stroke-linecap: round"/>
    <defs>
     <path id="mefd1a279e1" d="M -3 3 
L 3 3 
L 3 -3 
L -3 -3 
z
" style="stroke: #ffffff; stroke-width: 0.75; stroke-linejoin: miter"/>
    </defs>
    <g clip-path="url(#ped7ea5b3b5)">
     <use xlink:href="#mefd1a279e1" x="78.243744" y="98.550752" style="fill: #357ba3; stroke: #ffffff; stroke-width: 0.75; stroke-linejoin: miter"/>
     <use xlink:href="#mefd1a279e1" x="95.43943" y="143.343752" style="fill: #357ba3; stroke: #ffffff; stroke-width: 0.75; stroke-linejoin: miter"/>
     <use xlink:href="#mefd1a279e1" x="112.635116" y="168.236082" style="fill: #357ba3; stroke: #ffffff; stroke-width: 0.75; stroke-linejoin: miter"/>
     <use xlink:href="#mefd1a279e1" x="129.830801" y="167.423726" style="fill: #357ba3; stroke: #ffffff; stroke-width: 0.75; stroke-linejoin: miter"/>
     <use xlink:href="#mefd1a279e1" x="147.026487" y="166.891777" style="fill: #357ba3; stroke: #ffffff; stroke-width: 0.75; stroke-linejoin: miter"/>
     <use xlink:href="#mefd1a279e1" x="164.222173" y="166.077359" style="fill: #357ba3; stroke: #ffffff; stroke-width: 0.75; stroke-linejoin: miter"/>
     <use xlink:href="#mefd1a279e1" x="181.417858" y="165.54541" style="fill: #357ba3; stroke: #ffffff; stroke-width: 0.75; stroke-linejoin: miter"/>
     <use xlink:href="#mefd1a279e1" x="198.613544" y="164.730992" style="fill: #357ba3; stroke: #ffffff; stroke-width: 0.75; stroke-linejoin: miter"/>
     <use xlink:href="#mefd1a279e1" x="215.80923" y="164.200974" style="fill: #357ba3; stroke: #ffffff; stroke-width: 0.75; stroke-linejoin: miter"/>
     <use xlink:href="#mefd1a279e1" x="233.004915" y="163.386686" style="fill: #357ba3; stroke: #ffffff; stroke-width: 0.75; stroke-linejoin: miter"/>
     <use xlink:href="#mefd1a279e1" x="250.200601" y="162.854737" style="fill: #357ba3; stroke: #ffffff; stroke-width: 0.75; stroke-linejoin: miter"/>
     <use xlink:href="#mefd1a279e1" x="267.396287" y="162.040319" style="fill: #357ba3; stroke: #ffffff; stroke-width: 0.75; stroke-linejoin: miter"/>
     <use xlink:href="#mefd1a279e1" x="284.591972" y="161.510432" style="fill: #357ba3; stroke: #ffffff; stroke-width: 0.75; stroke-linejoin: miter"/>
     <use xlink:href="#mefd1a279e1" x="301.787658" y="160.696013" style="fill: #357ba3; stroke: #ffffff; stroke-width: 0.75; stroke-linejoin: miter"/>
     <use xlink:href="#mefd1a279e1" x="318.983344" y="160.164064" style="fill: #357ba3; stroke: #ffffff; stroke-width: 0.75; stroke-linejoin: miter"/>
     <use xlink:href="#mefd1a279e1" x="336.179029" y="159.349646" style="fill: #357ba3; stroke: #ffffff; stroke-width: 0.75; stroke-linejoin: miter"/>
     <use xlink:href="#mefd1a279e1" x="353.374715" y="158.817697" style="fill: #357ba3; stroke: #ffffff; stroke-width: 0.75; stroke-linejoin: miter"/>
     <use xlink:href="#mefd1a279e1" x="370.570401" y="142.723144" style="fill: #357ba3; stroke: #ffffff; stroke-width: 0.75; stroke-linejoin: miter"/>
     <use xlink:href="#mefd1a279e1" x="387.766086" y="142.215937" style="fill: #357ba3; stroke: #ffffff; stroke-width: 0.75; stroke-linejoin: miter"/>
     <use xlink:href="#mefd1a279e1" x="404.961772" y="141.376777" style="fill: #357ba3; stroke: #ffffff; stroke-width: 0.75; stroke-linejoin: miter"/>
     <use xlink:href="#mefd1a279e1" x="422.157458" y="140.84689" style="fill: #357ba3; stroke: #ffffff; stroke-width: 0.75; stroke-linejoin: miter"/>
     <use xlink:href="#mefd1a279e1" x="439.353143" y="140.222159" style="fill: #357ba3; stroke: #ffffff; stroke-width: 0.75; stroke-linejoin: miter"/>
     <use xlink:href="#mefd1a279e1" x="456.548829" y="139.552068" style="fill: #357ba3; stroke: #ffffff; stroke-width: 0.75; stroke-linejoin: miter"/>
     <use xlink:href="#mefd1a279e1" x="473.744515" y="138.972697" style="fill: #357ba3; stroke: #ffffff; stroke-width: 0.75; stroke-linejoin: miter"/>
     <use xlink:href="#mefd1a279e1" x="490.9402" y="138.593322" style="fill: #357ba3; stroke: #ffffff; stroke-width: 0.75; stroke-linejoin: miter"/>
     <use xlink:href="#mefd1a279e1" x="508.135886" y="137.78509" style="fill: #357ba3; stroke: #ffffff; stroke-width: 0.75; stroke-linejoin: miter"/>
     <use xlink:href="#mefd1a279e1" x="525.331572" y="137.253141" style="fill: #357ba3; stroke: #ffffff; stroke-width: 0.75; stroke-linejoin: miter"/>
     <use xlink:href="#mefd1a279e1" x="542.527257" y="136.438722" style="fill: #357ba3; stroke: #ffffff; stroke-width: 0.75; stroke-linejoin: miter"/>
     <use xlink:href="#mefd1a279e1" x="559.722943" y="135.906773" style="fill: #357ba3; stroke: #ffffff; stroke-width: 0.75; stroke-linejoin: miter"/>
     <use xlink:href="#mefd1a279e1" x="576.918629" y="135.094417" style="fill: #357ba3; stroke: #ffffff; stroke-width: 0.75; stroke-linejoin: miter"/>
    </g>
   </g>
   <g id="line2d_26">
    <path d="M 78.243744 171.978282 
L 95.43943 171.972097 
L 112.635116 171.972097 
L 129.830801 171.972097 
L 147.026487 171.972097 
L 164.222173 171.972097 
L 181.417858 171.972097 
L 198.613544 171.972097 
L 215.80923 171.972097 
L 233.004915 171.972097 
L 250.200601 171.972097 
L 267.396287 171.972097 
L 284.591972 171.972097 
L 301.787658 171.972097 
L 318.983344 171.972097 
L 336.179029 171.972097 
L 353.374715 171.972097 
L 370.570401 171.972097 
L 387.766086 171.972097 
L 404.961772 171.972097 
L 422.157458 171.972097 
L 439.353143 171.972097 
L 456.548829 171.972097 
L 473.744515 171.972097 
L 490.9402 171.972097 
L 508.135886 171.972097 
L 525.331572 171.972097 
L 542.527257 171.972097 
L 559.722943 171.972097 
L 576.918629 171.972097 
" clip-path="url(#ped7ea5b3b5)" style="fill: none; stroke: #4bc2ad; stroke-width: 1.5; stroke-linecap: round"/>
    <defs>
     <path id="m141993a900" d="M -0 3 
L 3 -3 
L -3 -3 
z
" style="stroke: #ffffff; stroke-width: 0.75; stroke-linejoin: miter"/>
    </defs>
    <g clip-path="url(#ped7ea5b3b5)">
     <use xlink:href="#m141993a900" x="78.243744" y="171.978282" style="fill: #4bc2ad; stroke: #ffffff; stroke-width: 0.75; stroke-linejoin: miter"/>
     <use xlink:href="#m141993a900" x="95.43943" y="171.972097" style="fill: #4bc2ad; stroke: #ffffff; stroke-width: 0.75; stroke-linejoin: miter"/>
     <use xlink:href="#m141993a900" x="112.635116" y="171.972097" style="fill: #4bc2ad; stroke: #ffffff; stroke-width: 0.75; stroke-linejoin: miter"/>
     <use xlink:href="#m141993a900" x="129.830801" y="171.972097" style="fill: #4bc2ad; stroke: #ffffff; stroke-width: 0.75; stroke-linejoin: miter"/>
     <use xlink:href="#m141993a900" x="147.026487" y="171.972097" style="fill: #4bc2ad; stroke: #ffffff; stroke-width: 0.75; stroke-linejoin: miter"/>
     <use xlink:href="#m141993a900" x="164.222173" y="171.972097" style="fill: #4bc2ad; stroke: #ffffff; stroke-width: 0.75; stroke-linejoin: miter"/>
     <use xlink:href="#m141993a900" x="181.417858" y="171.972097" style="fill: #4bc2ad; stroke: #ffffff; stroke-width: 0.75; stroke-linejoin: miter"/>
     <use xlink:href="#m141993a900" x="198.613544" y="171.972097" style="fill: #4bc2ad; stroke: #ffffff; stroke-width: 0.75; stroke-linejoin: miter"/>
     <use xlink:href="#m141993a900" x="215.80923" y="171.972097" style="fill: #4bc2ad; stroke: #ffffff; stroke-width: 0.75; stroke-linejoin: miter"/>
     <use xlink:href="#m141993a900" x="233.004915" y="171.972097" style="fill: #4bc2ad; stroke: #ffffff; stroke-width: 0.75; stroke-linejoin: miter"/>
     <use xlink:href="#m141993a900" x="250.200601" y="171.972097" style="fill: #4bc2ad; stroke: #ffffff; stroke-width: 0.75; stroke-linejoin: miter"/>
     <use xlink:href="#m141993a900" x="267.396287" y="171.972097" style="fill: #4bc2ad; stroke: #ffffff; stroke-width: 0.75; stroke-linejoin: miter"/>
     <use xlink:href="#m141993a900" x="284.591972" y="171.972097" style="fill: #4bc2ad; stroke: #ffffff; stroke-width: 0.75; stroke-linejoin: miter"/>
     <use xlink:href="#m141993a900" x="301.787658" y="171.972097" style="fill: #4bc2ad; stroke: #ffffff; stroke-width: 0.75; stroke-linejoin: miter"/>
     <use xlink:href="#m141993a900" x="318.983344" y="171.972097" style="fill: #4bc2ad; stroke: #ffffff; stroke-width: 0.75; stroke-linejoin: miter"/>
     <use xlink:href="#m141993a900" x="336.179029" y="171.972097" style="fill: #4bc2ad; stroke: #ffffff; stroke-width: 0.75; stroke-linejoin: miter"/>
     <use xlink:href="#m141993a900" x="353.374715" y="171.972097" style="fill: #4bc2ad; stroke: #ffffff; stroke-width: 0.75; stroke-linejoin: miter"/>
     <use xlink:href="#m141993a900" x="370.570401" y="171.972097" style="fill: #4bc2ad; stroke: #ffffff; stroke-width: 0.75; stroke-linejoin: miter"/>
     <use xlink:href="#m141993a900" x="387.766086" y="171.972097" style="fill: #4bc2ad; stroke: #ffffff; stroke-width: 0.75; stroke-linejoin: miter"/>
     <use xlink:href="#m141993a900" x="404.961772" y="171.972097" style="fill: #4bc2ad; stroke: #ffffff; stroke-width: 0.75; stroke-linejoin: miter"/>
     <use xlink:href="#m141993a900" x="422.157458" y="171.972097" style="fill: #4bc2ad; stroke: #ffffff; stroke-width: 0.75; stroke-linejoin: miter"/>
     <use xlink:href="#m141993a900" x="439.353143" y="171.972097" style="fill: #4bc2ad; stroke: #ffffff; stroke-width: 0.75; stroke-linejoin: miter"/>
     <use xlink:href="#m141993a900" x="456.548829" y="171.972097" style="fill: #4bc2ad; stroke: #ffffff; stroke-width: 0.75; stroke-linejoin: miter"/>
     <use xlink:href="#m141993a900" x="473.744515" y="171.972097" style="fill: #4bc2ad; stroke: #ffffff; stroke-width: 0.75; stroke-linejoin: miter"/>
     <use xlink:href="#m141993a900" x="490.9402" y="171.972097" style="fill: #4bc2ad; stroke: #ffffff; stroke-width: 0.75; stroke-linejoin: miter"/>
     <use xlink:href="#m141993a900" x="508.135886" y="171.972097" style="fill: #4bc2ad; stroke: #ffffff; stroke-width: 0.75; stroke-linejoin: miter"/>
     <use xlink:href="#m141993a900" x="525.331572" y="171.972097" style="fill: #4bc2ad; stroke: #ffffff; stroke-width: 0.75; stroke-linejoin: miter"/>
     <use xlink:href="#m141993a900" x="542.527257" y="171.972097" style="fill: #4bc2ad; stroke: #ffffff; stroke-width: 0.75; stroke-linejoin: miter"/>
     <use xlink:href="#m141993a900" x="559.722943" y="171.972097" style="fill: #4bc2ad; stroke: #ffffff; stroke-width: 0.75; stroke-linejoin: miter"/>
     <use xlink:href="#m141993a900" x="576.918629" y="171.972097" style="fill: #4bc2ad; stroke: #ffffff; stroke-width: 0.75; stroke-linejoin: miter"/>
    </g>
   </g>
   <g id="patch_3">
    <path d="M 53.31 192.819141 
L 53.31 11.379141 
" style="fill: none; stroke: #ffffff; stroke-width: 1.25; stroke-linejoin: miter; stroke-linecap: square"/>
   </g>
   <g id="patch_4">
    <path d="M 611.31 192.819141 
L 611.31 11.379141 
" style="fill: none; stroke: #ffffff; stroke-width: 1.25; stroke-linejoin: miter; stroke-linecap: square"/>
   </g>
   <g id="patch_5">
    <path d="M 53.31 192.819141 
L 611.31 192.819141 
" style="fill: none; stroke: #ffffff; stroke-width: 1.25; stroke-linejoin: miter; stroke-linecap: square"/>
   </g>
   <g id="patch_6">
    <path d="M 53.31 11.379141 
L 611.31 11.379141 
" style="fill: none; stroke: #ffffff; stroke-width: 1.25; stroke-linejoin: miter; stroke-linecap: square"/>
   </g>
   <g id="legend_1">
    <g id="patch_7">
     <path d="M 506.467969 187.319141 
L 603.61 187.319141 
Q 605.81 187.319141 605.81 185.119141 
L 605.81 121.635391 
Q 605.81 119.435391 603.61 119.435391 
L 506.467969 119.435391 
Q 504.267969 119.435391 504.267969 121.635391 
L 504.267969 185.119141 
Q 504.267969 187.319141 506.467969 187.319141 
z
" style="fill: #eaeaf2; opacity: 0.8; stroke: #cccccc; stroke-linejoin: miter"/>
    </g>
    <g id="line2d_27">
     <path d="M 508.667969 128.343672 
L 519.667969 128.343672 
L 530.667969 128.343672 
" style="fill: none; stroke: #3e356b; stroke-width: 1.5; stroke-linecap: round"/>
     <g>
      <use xlink:href="#madb88d47ec" x="519.667969" y="128.343672" style="fill: #3e356b; stroke: #ffffff; stroke-width: 0.75"/>
     </g>
    </g>
    <g id="text_24">
     <!-- Worst Case -->
     <g style="fill: #262626" transform="translate(539.467969 132.193672) scale(0.11 -0.11)">
      <defs>
       <path id="DejaVuSans-57" d="M 213 4666 
L 850 4666 
L 1831 722 
L 2809 4666 
L 3519 4666 
L 4500 722 
L 5478 4666 
L 6119 4666 
L 4947 0 
L 4153 0 
L 3169 4050 
L 2175 0 
L 1381 0 
L 213 4666 
z
" transform="scale(0.015625)"/>
       <path id="DejaVuSans-6f" d="M 1959 3097 
Q 1497 3097 1228 2736 
Q 959 2375 959 1747 
Q 959 1119 1226 758 
Q 1494 397 1959 397 
Q 2419 397 2687 759 
Q 2956 1122 2956 1747 
Q 2956 2369 2687 2733 
Q 2419 3097 1959 3097 
z
M 1959 3584 
Q 2709 3584 3137 3096 
Q 3566 2609 3566 1747 
Q 3566 888 3137 398 
Q 2709 -91 1959 -91 
Q 1206 -91 779 398 
Q 353 888 353 1747 
Q 353 2609 779 3096 
Q 1206 3584 1959 3584 
z
" transform="scale(0.015625)"/>
       <path id="DejaVuSans-72" d="M 2631 2963 
Q 2534 3019 2420 3045 
Q 2306 3072 2169 3072 
Q 1681 3072 1420 2755 
Q 1159 2438 1159 1844 
L 1159 0 
L 581 0 
L 581 3500 
L 1159 3500 
L 1159 2956 
Q 1341 3275 1631 3429 
Q 1922 3584 2338 3584 
Q 2397 3584 2469 3576 
Q 2541 3569 2628 3553 
L 2631 2963 
z
" transform="scale(0.015625)"/>
       <path id="DejaVuSans-43" d="M 4122 4306 
L 4122 3641 
Q 3803 3938 3442 4084 
Q 3081 4231 2675 4231 
Q 1875 4231 1450 3742 
Q 1025 3253 1025 2328 
Q 1025 1406 1450 917 
Q 1875 428 2675 428 
Q 3081 428 3442 575 
Q 3803 722 4122 1019 
L 4122 359 
Q 3791 134 3420 21 
Q 3050 -91 2638 -91 
Q 1578 -91 968 557 
Q 359 1206 359 2328 
Q 359 3453 968 4101 
Q 1578 4750 2638 4750 
Q 3056 4750 3426 4639 
Q 3797 4528 4122 4306 
z
" transform="scale(0.015625)"/>
      </defs>
      <use xlink:href="#DejaVuSans-57"/>
      <use xlink:href="#DejaVuSans-6f" x="93.001953"/>
      <use xlink:href="#DejaVuSans-72" x="154.183594"/>
      <use xlink:href="#DejaVuSans-73" x="195.296875"/>
      <use xlink:href="#DejaVuSans-74" x="247.396484"/>
      <use xlink:href="#DejaVuSans-20" x="286.605469"/>
      <use xlink:href="#DejaVuSans-43" x="318.392578"/>
      <use xlink:href="#DejaVuSans-61" x="388.216797"/>
      <use xlink:href="#DejaVuSans-73" x="449.496094"/>
      <use xlink:href="#DejaVuSans-65" x="501.595703"/>
     </g>
    </g>
    <g id="line2d_28">
     <path d="M 508.667969 144.489609 
L 519.667969 144.489609 
L 530.667969 144.489609 
" style="fill: none; stroke: #357ba3; stroke-width: 1.5; stroke-linecap: round"/>
     <g>
      <use xlink:href="#mefd1a279e1" x="519.667969" y="144.489609" style="fill: #357ba3; stroke: #ffffff; stroke-width: 0.75; stroke-linejoin: miter"/>
     </g>
    </g>
    <g id="text_25">
     <!-- Hybrid -->
     <g style="fill: #262626" transform="translate(539.467969 148.339609) scale(0.11 -0.11)">
      <defs>
       <path id="DejaVuSans-48" d="M 628 4666 
L 1259 4666 
L 1259 2753 
L 3553 2753 
L 3553 4666 
L 4184 4666 
L 4184 0 
L 3553 0 
L 3553 2222 
L 1259 2222 
L 1259 0 
L 628 0 
L 628 4666 
z
" transform="scale(0.015625)"/>
       <path id="DejaVuSans-62" d="M 3116 1747 
Q 3116 2381 2855 2742 
Q 2594 3103 2138 3103 
Q 1681 3103 1420 2742 
Q 1159 2381 1159 1747 
Q 1159 1113 1420 752 
Q 1681 391 2138 391 
Q 2594 391 2855 752 
Q 3116 1113 3116 1747 
z
M 1159 2969 
Q 1341 3281 1617 3432 
Q 1894 3584 2278 3584 
Q 2916 3584 3314 3078 
Q 3713 2572 3713 1747 
Q 3713 922 3314 415 
Q 2916 -91 2278 -91 
Q 1894 -91 1617 61 
Q 1341 213 1159 525 
L 1159 0 
L 581 0 
L 581 4863 
L 1159 4863 
L 1159 2969 
z
" transform="scale(0.015625)"/>
       <path id="DejaVuSans-69" d="M 603 3500 
L 1178 3500 
L 1178 0 
L 603 0 
L 603 3500 
z
M 603 4863 
L 1178 4863 
L 1178 4134 
L 603 4134 
L 603 4863 
z
" transform="scale(0.015625)"/>
       <path id="DejaVuSans-64" d="M 2906 2969 
L 2906 4863 
L 3481 4863 
L 3481 0 
L 2906 0 
L 2906 525 
Q 2725 213 2448 61 
Q 2172 -91 1784 -91 
Q 1150 -91 751 415 
Q 353 922 353 1747 
Q 353 2572 751 3078 
Q 1150 3584 1784 3584 
Q 2172 3584 2448 3432 
Q 2725 3281 2906 2969 
z
M 947 1747 
Q 947 1113 1208 752 
Q 1469 391 1925 391 
Q 2381 391 2643 752 
Q 2906 1113 2906 1747 
Q 2906 2381 2643 2742 
Q 2381 3103 1925 3103 
Q 1469 3103 1208 2742 
Q 947 2381 947 1747 
z
" transform="scale(0.015625)"/>
      </defs>
      <use xlink:href="#DejaVuSans-48"/>
      <use xlink:href="#DejaVuSans-79" x="75.195312"/>
      <use xlink:href="#DejaVuSans-62" x="134.375"/>
      <use xlink:href="#DejaVuSans-72" x="197.851562"/>
      <use xlink:href="#DejaVuSans-69" x="238.964844"/>
      <use xlink:href="#DejaVuSans-64" x="266.748047"/>
     </g>
    </g>
    <g id="line2d_29">
     <path d="M 508.667969 160.635547 
L 519.667969 160.635547 
L 530.667969 160.635547 
" style="fill: none; stroke: #4bc2ad; stroke-width: 1.5; stroke-linecap: round"/>
     <g>
      <use xlink:href="#m141993a900" x="519.667969" y="160.635547" style="fill: #4bc2ad; stroke: #ffffff; stroke-width: 0.75; stroke-linejoin: miter"/>
     </g>
    </g>
    <g id="text_26">
     <!-- Best Case -->
     <g style="fill: #262626" transform="translate(539.467969 164.485547) scale(0.11 -0.11)">
      <defs>
       <path id="DejaVuSans-42" d="M 1259 2228 
L 1259 519 
L 2272 519 
Q 2781 519 3026 730 
Q 3272 941 3272 1375 
Q 3272 1813 3026 2020 
Q 2781 2228 2272 2228 
L 1259 2228 
z
M 1259 4147 
L 1259 2741 
L 2194 2741 
Q 2656 2741 2882 2914 
Q 3109 3088 3109 3444 
Q 3109 3797 2882 3972 
Q 2656 4147 2194 4147 
L 1259 4147 
z
M 628 4666 
L 2241 4666 
Q 2963 4666 3353 4366 
Q 3744 4066 3744 3513 
Q 3744 3084 3544 2831 
Q 3344 2578 2956 2516 
Q 3422 2416 3680 2098 
Q 3938 1781 3938 1306 
Q 3938 681 3513 340 
Q 3088 0 2303 0 
L 628 0 
L 628 4666 
z
" transform="scale(0.015625)"/>
      </defs>
      <use xlink:href="#DejaVuSans-42"/>
      <use xlink:href="#DejaVuSans-65" x="68.603516"/>
      <use xlink:href="#DejaVuSans-73" x="130.126953"/>
      <use xlink:href="#DejaVuSans-74" x="182.226562"/>
      <use xlink:href="#DejaVuSans-20" x="221.435547"/>
      <use xlink:href="#DejaVuSans-43" x="253.222656"/>
      <use xlink:href="#DejaVuSans-61" x="323.046875"/>
      <use xlink:href="#DejaVuSans-73" x="384.326172"/>
      <use xlink:href="#DejaVuSans-65" x="436.425781"/>
     </g>
    </g>
    <g id="line2d_30">
     <path d="M 508.667969 176.781484 
L 519.667969 176.781484 
L 530.667969 176.781484 
" style="fill: none; stroke: #aaaaaa; stroke-width: 1.5; stroke-linecap: round"/>
     <g>
      <use xlink:href="#m88a4a855b2" x="519.667969" y="176.781484" style="fill: #aaaaaa; stroke: #ffffff; stroke-width: 0.75; stroke-linejoin: miter"/>
     </g>
    </g>
    <g id="text_27">
     <!-- Raw Read -->
     <g style="fill: #262626" transform="translate(539.467969 180.631484) scale(0.11 -0.11)">
      <defs>
       <path id="DejaVuSans-52" d="M 2841 2188 
Q 3044 2119 3236 1894 
Q 3428 1669 3622 1275 
L 4263 0 
L 3584 0 
L 2988 1197 
Q 2756 1666 2539 1819 
Q 2322 1972 1947 1972 
L 1259 1972 
L 1259 0 
L 628 0 
L 628 4666 
L 2053 4666 
Q 2853 4666 3247 4331 
Q 3641 3997 3641 3322 
Q 3641 2881 3436 2590 
Q 3231 2300 2841 2188 
z
M 1259 4147 
L 1259 2491 
L 2053 2491 
Q 2509 2491 2742 2702 
Q 2975 2913 2975 3322 
Q 2975 3731 2742 3939 
Q 2509 4147 2053 4147 
L 1259 4147 
z
" transform="scale(0.015625)"/>
       <path id="DejaVuSans-77" d="M 269 3500 
L 844 3500 
L 1563 769 
L 2278 3500 
L 2956 3500 
L 3675 769 
L 4391 3500 
L 4966 3500 
L 4050 0 
L 3372 0 
L 2619 2869 
L 1863 0 
L 1184 0 
L 269 3500 
z
" transform="scale(0.015625)"/>
      </defs>
      <use xlink:href="#DejaVuSans-52"/>
      <use xlink:href="#DejaVuSans-61" x="67.232422"/>
      <use xlink:href="#DejaVuSans-77" x="128.511719"/>
      <use xlink:href="#DejaVuSans-20" x="210.298828"/>
      <use xlink:href="#DejaVuSans-52" x="242.085938"/>
      <use xlink:href="#DejaVuSans-65" x="307.068359"/>
      <use xlink:href="#DejaVuSans-61" x="368.591797"/>
      <use xlink:href="#DejaVuSans-64" x="429.871094"/>
     </g>
    </g>
   </g>
  </g>
  <g id="axes_2">
   <g id="patch_8">
    <path d="M 53.31 344.019141 
L 611.31 344.019141 
L 611.31 223.059141 
L 53.31 223.059141 
z
" style="fill: #eaeaf2"/>
   </g>
   <g id="matplotlib.axis_3">
    <g id="xtick_33">
     <g id="line2d_31">
      <path d="M 78.243744 344.019141 
L 78.243744 223.059141 
" clip-path="url(#pf8d223597e)" style="fill: none; stroke: #ffffff; stroke-linecap: round"/>
     </g>
     <g id="text_28">
      <!-- 0 -->
      <g style="fill: #262626" transform="translate(74.744369 361.877422) scale(0.11 -0.11)">
       <use xlink:href="#DejaVuSans-30"/>
      </g>
     </g>
    </g>
    <g id="xtick_34">
     <g id="line2d_32">
      <path d="M 112.635116 344.019141 
L 112.635116 223.059141 
" clip-path="url(#pf8d223597e)" style="fill: none; stroke: #ffffff; stroke-linecap: round"/>
     </g>
     <g id="text_29">
      <!-- 64 -->
      <g style="fill: #262626" transform="translate(105.636366 361.877422) scale(0.11 -0.11)">
       <use xlink:href="#DejaVuSans-36"/>
       <use xlink:href="#DejaVuSans-34" x="63.623047"/>
      </g>
     </g>
    </g>
    <g id="xtick_35">
     <g id="line2d_33">
      <path d="M 147.026487 344.019141 
L 147.026487 223.059141 
" clip-path="url(#pf8d223597e)" style="fill: none; stroke: #ffffff; stroke-linecap: round"/>
     </g>
     <g id="text_30">
      <!-- 128 -->
      <g style="fill: #262626" transform="translate(136.528362 361.877422) scale(0.11 -0.11)">
       <use xlink:href="#DejaVuSans-31"/>
       <use xlink:href="#DejaVuSans-32" x="63.623047"/>
       <use xlink:href="#DejaVuSans-38" x="127.246094"/>
      </g>
     </g>
    </g>
    <g id="xtick_36">
     <g id="line2d_34">
      <path d="M 181.417858 344.019141 
L 181.417858 223.059141 
" clip-path="url(#pf8d223597e)" style="fill: none; stroke: #ffffff; stroke-linecap: round"/>
     </g>
     <g id="text_31">
      <!-- 192 -->
      <g style="fill: #262626" transform="translate(170.919733 361.877422) scale(0.11 -0.11)">
       <use xlink:href="#DejaVuSans-31"/>
       <use xlink:href="#DejaVuSans-39" x="63.623047"/>
       <use xlink:href="#DejaVuSans-32" x="127.246094"/>
      </g>
     </g>
    </g>
    <g id="xtick_37">
     <g id="line2d_35">
      <path d="M 215.80923 344.019141 
L 215.80923 223.059141 
" clip-path="url(#pf8d223597e)" style="fill: none; stroke: #ffffff; stroke-linecap: round"/>
     </g>
     <g id="text_32">
      <!-- 256 -->
      <g style="fill: #262626" transform="translate(205.311105 361.877422) scale(0.11 -0.11)">
       <use xlink:href="#DejaVuSans-32"/>
       <use xlink:href="#DejaVuSans-35" x="63.623047"/>
       <use xlink:href="#DejaVuSans-36" x="127.246094"/>
      </g>
     </g>
    </g>
    <g id="xtick_38">
     <g id="line2d_36">
      <path d="M 250.200601 344.019141 
L 250.200601 223.059141 
" clip-path="url(#pf8d223597e)" style="fill: none; stroke: #ffffff; stroke-linecap: round"/>
     </g>
     <g id="text_33">
      <!-- 320 -->
      <g style="fill: #262626" transform="translate(239.702476 361.877422) scale(0.11 -0.11)">
       <use xlink:href="#DejaVuSans-33"/>
       <use xlink:href="#DejaVuSans-32" x="63.623047"/>
       <use xlink:href="#DejaVuSans-30" x="127.246094"/>
      </g>
     </g>
    </g>
    <g id="xtick_39">
     <g id="line2d_37">
      <path d="M 284.591972 344.019141 
L 284.591972 223.059141 
" clip-path="url(#pf8d223597e)" style="fill: none; stroke: #ffffff; stroke-linecap: round"/>
     </g>
     <g id="text_34">
      <!-- 384 -->
      <g style="fill: #262626" transform="translate(274.093847 361.877422) scale(0.11 -0.11)">
       <use xlink:href="#DejaVuSans-33"/>
       <use xlink:href="#DejaVuSans-38" x="63.623047"/>
       <use xlink:href="#DejaVuSans-34" x="127.246094"/>
      </g>
     </g>
    </g>
    <g id="xtick_40">
     <g id="line2d_38">
      <path d="M 318.983344 344.019141 
L 318.983344 223.059141 
" clip-path="url(#pf8d223597e)" style="fill: none; stroke: #ffffff; stroke-linecap: round"/>
     </g>
     <g id="text_35">
      <!-- 448 -->
      <g style="fill: #262626" transform="translate(308.485219 361.877422) scale(0.11 -0.11)">
       <use xlink:href="#DejaVuSans-34"/>
       <use xlink:href="#DejaVuSans-34" x="63.623047"/>
       <use xlink:href="#DejaVuSans-38" x="127.246094"/>
      </g>
     </g>
    </g>
    <g id="xtick_41">
     <g id="line2d_39">
      <path d="M 353.374715 344.019141 
L 353.374715 223.059141 
" clip-path="url(#pf8d223597e)" style="fill: none; stroke: #ffffff; stroke-linecap: round"/>
     </g>
     <g id="text_36">
      <!-- 512 -->
      <g style="fill: #262626" transform="translate(342.87659 361.877422) scale(0.11 -0.11)">
       <use xlink:href="#DejaVuSans-35"/>
       <use xlink:href="#DejaVuSans-31" x="63.623047"/>
       <use xlink:href="#DejaVuSans-32" x="127.246094"/>
      </g>
     </g>
    </g>
    <g id="xtick_42">
     <g id="line2d_40">
      <path d="M 387.766086 344.019141 
L 387.766086 223.059141 
" clip-path="url(#pf8d223597e)" style="fill: none; stroke: #ffffff; stroke-linecap: round"/>
     </g>
     <g id="text_37">
      <!-- 576 -->
      <g style="fill: #262626" transform="translate(377.267961 361.877422) scale(0.11 -0.11)">
       <use xlink:href="#DejaVuSans-35"/>
       <use xlink:href="#DejaVuSans-37" x="63.623047"/>
       <use xlink:href="#DejaVuSans-36" x="127.246094"/>
      </g>
     </g>
    </g>
    <g id="xtick_43">
     <g id="line2d_41">
      <path d="M 422.157458 344.019141 
L 422.157458 223.059141 
" clip-path="url(#pf8d223597e)" style="fill: none; stroke: #ffffff; stroke-linecap: round"/>
     </g>
     <g id="text_38">
      <!-- 640 -->
      <g style="fill: #262626" transform="translate(411.659333 361.877422) scale(0.11 -0.11)">
       <use xlink:href="#DejaVuSans-36"/>
       <use xlink:href="#DejaVuSans-34" x="63.623047"/>
       <use xlink:href="#DejaVuSans-30" x="127.246094"/>
      </g>
     </g>
    </g>
    <g id="xtick_44">
     <g id="line2d_42">
      <path d="M 456.548829 344.019141 
L 456.548829 223.059141 
" clip-path="url(#pf8d223597e)" style="fill: none; stroke: #ffffff; stroke-linecap: round"/>
     </g>
     <g id="text_39">
      <!-- 704 -->
      <g style="fill: #262626" transform="translate(446.050704 361.877422) scale(0.11 -0.11)">
       <use xlink:href="#DejaVuSans-37"/>
       <use xlink:href="#DejaVuSans-30" x="63.623047"/>
       <use xlink:href="#DejaVuSans-34" x="127.246094"/>
      </g>
     </g>
    </g>
    <g id="xtick_45">
     <g id="line2d_43">
      <path d="M 490.9402 344.019141 
L 490.9402 223.059141 
" clip-path="url(#pf8d223597e)" style="fill: none; stroke: #ffffff; stroke-linecap: round"/>
     </g>
     <g id="text_40">
      <!-- 768 -->
      <g style="fill: #262626" transform="translate(480.442075 361.877422) scale(0.11 -0.11)">
       <use xlink:href="#DejaVuSans-37"/>
       <use xlink:href="#DejaVuSans-36" x="63.623047"/>
       <use xlink:href="#DejaVuSans-38" x="127.246094"/>
      </g>
     </g>
    </g>
    <g id="xtick_46">
     <g id="line2d_44">
      <path d="M 525.331572 344.019141 
L 525.331572 223.059141 
" clip-path="url(#pf8d223597e)" style="fill: none; stroke: #ffffff; stroke-linecap: round"/>
     </g>
     <g id="text_41">
      <!-- 832 -->
      <g style="fill: #262626" transform="translate(514.833447 361.877422) scale(0.11 -0.11)">
       <use xlink:href="#DejaVuSans-38"/>
       <use xlink:href="#DejaVuSans-33" x="63.623047"/>
       <use xlink:href="#DejaVuSans-32" x="127.246094"/>
      </g>
     </g>
    </g>
    <g id="xtick_47">
     <g id="line2d_45">
      <path d="M 559.722943 344.019141 
L 559.722943 223.059141 
" clip-path="url(#pf8d223597e)" style="fill: none; stroke: #ffffff; stroke-linecap: round"/>
     </g>
     <g id="text_42">
      <!-- 896 -->
      <g style="fill: #262626" transform="translate(549.224818 361.877422) scale(0.11 -0.11)">
       <use xlink:href="#DejaVuSans-38"/>
       <use xlink:href="#DejaVuSans-39" x="63.623047"/>
       <use xlink:href="#DejaVuSans-36" x="127.246094"/>
      </g>
     </g>
    </g>
    <g id="xtick_48">
     <g id="line2d_46">
      <path d="M 594.114314 344.019141 
L 594.114314 223.059141 
" clip-path="url(#pf8d223597e)" style="fill: none; stroke: #ffffff; stroke-linecap: round"/>
     </g>
     <g id="text_43">
      <!-- 960 -->
      <g style="fill: #262626" transform="translate(583.616189 361.877422) scale(0.11 -0.11)">
       <use xlink:href="#DejaVuSans-39"/>
       <use xlink:href="#DejaVuSans-36" x="63.623047"/>
       <use xlink:href="#DejaVuSans-30" x="127.246094"/>
      </g>
     </g>
    </g>
    <g id="xtick_49"/>
    <g id="xtick_50"/>
    <g id="xtick_51"/>
    <g id="xtick_52"/>
    <g id="xtick_53"/>
    <g id="xtick_54"/>
    <g id="xtick_55"/>
    <g id="xtick_56"/>
    <g id="xtick_57"/>
    <g id="xtick_58"/>
    <g id="xtick_59"/>
    <g id="xtick_60"/>
    <g id="xtick_61"/>
    <g id="xtick_62"/>
    <g id="xtick_63"/>
    <g id="xtick_64"/>
    <g id="text_44">
     <!-- Object Size [Bytes] -->
     <g style="fill: #262626" transform="translate(275.117813 377.283203) scale(0.12 -0.12)">
      <defs>
       <path id="DejaVuSans-4f" d="M 2522 4238 
Q 1834 4238 1429 3725 
Q 1025 3213 1025 2328 
Q 1025 1447 1429 934 
Q 1834 422 2522 422 
Q 3209 422 3611 934 
Q 4013 1447 4013 2328 
Q 4013 3213 3611 3725 
Q 3209 4238 2522 4238 
z
M 2522 4750 
Q 3503 4750 4090 4092 
Q 4678 3434 4678 2328 
Q 4678 1225 4090 567 
Q 3503 -91 2522 -91 
Q 1538 -91 948 565 
Q 359 1222 359 2328 
Q 359 3434 948 4092 
Q 1538 4750 2522 4750 
z
" transform="scale(0.015625)"/>
       <path id="DejaVuSans-6a" d="M 603 3500 
L 1178 3500 
L 1178 -63 
Q 1178 -731 923 -1031 
Q 669 -1331 103 -1331 
L -116 -1331 
L -116 -844 
L 38 -844 
Q 366 -844 484 -692 
Q 603 -541 603 -63 
L 603 3500 
z
M 603 4863 
L 1178 4863 
L 1178 4134 
L 603 4134 
L 603 4863 
z
" transform="scale(0.015625)"/>
       <path id="DejaVuSans-53" d="M 3425 4513 
L 3425 3897 
Q 3066 4069 2747 4153 
Q 2428 4238 2131 4238 
Q 1616 4238 1336 4038 
Q 1056 3838 1056 3469 
Q 1056 3159 1242 3001 
Q 1428 2844 1947 2747 
L 2328 2669 
Q 3034 2534 3370 2195 
Q 3706 1856 3706 1288 
Q 3706 609 3251 259 
Q 2797 -91 1919 -91 
Q 1588 -91 1214 -16 
Q 841 59 441 206 
L 441 856 
Q 825 641 1194 531 
Q 1563 422 1919 422 
Q 2459 422 2753 634 
Q 3047 847 3047 1241 
Q 3047 1584 2836 1778 
Q 2625 1972 2144 2069 
L 1759 2144 
Q 1053 2284 737 2584 
Q 422 2884 422 3419 
Q 422 4038 858 4394 
Q 1294 4750 2059 4750 
Q 2388 4750 2728 4690 
Q 3069 4631 3425 4513 
z
" transform="scale(0.015625)"/>
       <path id="DejaVuSans-7a" d="M 353 3500 
L 3084 3500 
L 3084 2975 
L 922 459 
L 3084 459 
L 3084 0 
L 275 0 
L 275 525 
L 2438 3041 
L 353 3041 
L 353 3500 
z
" transform="scale(0.015625)"/>
      </defs>
      <use xlink:href="#DejaVuSans-4f"/>
      <use xlink:href="#DejaVuSans-62" x="78.710938"/>
      <use xlink:href="#DejaVuSans-6a" x="142.1875"/>
      <use xlink:href="#DejaVuSans-65" x="169.970703"/>
      <use xlink:href="#DejaVuSans-63" x="231.494141"/>
      <use xlink:href="#DejaVuSans-74" x="286.474609"/>
      <use xlink:href="#DejaVuSans-20" x="325.683594"/>
      <use xlink:href="#DejaVuSans-53" x="357.470703"/>
      <use xlink:href="#DejaVuSans-69" x="420.947266"/>
      <use xlink:href="#DejaVuSans-7a" x="448.730469"/>
      <use xlink:href="#DejaVuSans-65" x="501.220703"/>
      <use xlink:href="#DejaVuSans-20" x="562.744141"/>
      <use xlink:href="#DejaVuSans-5b" x="594.53125"/>
      <use xlink:href="#DejaVuSans-42" x="633.544922"/>
      <use xlink:href="#DejaVuSans-79" x="702.148438"/>
      <use xlink:href="#DejaVuSans-74" x="761.328125"/>
      <use xlink:href="#DejaVuSans-65" x="800.537109"/>
      <use xlink:href="#DejaVuSans-73" x="862.060547"/>
      <use xlink:href="#DejaVuSans-5d" x="914.160156"/>
     </g>
    </g>
   </g>
   <g id="matplotlib.axis_4">
    <g id="ytick_7">
     <g id="line2d_47">
      <path d="M 53.31 344.019141 
L 611.31 344.019141 
" clip-path="url(#pf8d223597e)" style="fill: none; stroke: #ffffff; stroke-linecap: round"/>
     </g>
     <g id="text_45">
      <!-- 130 -->
      <g style="fill: #262626" transform="translate(22.81375 348.198281) scale(0.11 -0.11)">
       <use xlink:href="#DejaVuSans-31"/>
       <use xlink:href="#DejaVuSans-33" x="63.623047"/>
       <use xlink:href="#DejaVuSans-30" x="127.246094"/>
      </g>
     </g>
    </g>
    <g id="ytick_8">
     <g id="line2d_48">
      <path d="M 53.31 313.779141 
L 611.31 313.779141 
" clip-path="url(#pf8d223597e)" style="fill: none; stroke: #ffffff; stroke-linecap: round"/>
     </g>
     <g id="text_46">
      <!-- 131 -->
      <g style="fill: #262626" transform="translate(22.81375 317.958281) scale(0.11 -0.11)">
       <use xlink:href="#DejaVuSans-31"/>
       <use xlink:href="#DejaVuSans-33" x="63.623047"/>
       <use xlink:href="#DejaVuSans-31" x="127.246094"/>
      </g>
     </g>
    </g>
    <g id="ytick_9">
     <g id="line2d_49">
      <path d="M 53.31 283.539141 
L 611.31 283.539141 
" clip-path="url(#pf8d223597e)" style="fill: none; stroke: #ffffff; stroke-linecap: round"/>
     </g>
     <g id="text_47">
      <!-- 132 -->
      <g style="fill: #262626" transform="translate(22.81375 287.718281) scale(0.11 -0.11)">
       <use xlink:href="#DejaVuSans-31"/>
       <use xlink:href="#DejaVuSans-33" x="63.623047"/>
       <use xlink:href="#DejaVuSans-32" x="127.246094"/>
      </g>
     </g>
    </g>
    <g id="ytick_10">
     <g id="line2d_50">
      <path d="M 53.31 253.299141 
L 611.31 253.299141 
" clip-path="url(#pf8d223597e)" style="fill: none; stroke: #ffffff; stroke-linecap: round"/>
     </g>
     <g id="text_48">
      <!-- 133 -->
      <g style="fill: #262626" transform="translate(22.81375 257.478281) scale(0.11 -0.11)">
       <use xlink:href="#DejaVuSans-31"/>
       <use xlink:href="#DejaVuSans-33" x="63.623047"/>
       <use xlink:href="#DejaVuSans-33" x="127.246094"/>
      </g>
     </g>
    </g>
    <g id="ytick_11">
     <g id="line2d_51">
      <path d="M 53.31 223.059141 
L 611.31 223.059141 
" clip-path="url(#pf8d223597e)" style="fill: none; stroke: #ffffff; stroke-linecap: round"/>
     </g>
     <g id="text_49">
      <!-- 134 -->
      <g style="fill: #262626" transform="translate(22.81375 227.238281) scale(0.11 -0.11)">
       <use xlink:href="#DejaVuSans-31"/>
       <use xlink:href="#DejaVuSans-33" x="63.623047"/>
       <use xlink:href="#DejaVuSans-34" x="127.246094"/>
      </g>
     </g>
    </g>
    <g id="text_50">
     <!-- Latency [s] -->
     <g style="fill: #262626" transform="translate(16.318125 320.787891) rotate(-90) scale(0.12 -0.12)">
      <defs>
       <path id="DejaVuSans-b5" d="M 544 -1331 
L 544 3500 
L 1119 3500 
L 1119 1325 
Q 1119 872 1334 640 
Q 1550 409 1972 409 
Q 2434 409 2667 671 
Q 2900 934 2900 1459 
L 2900 3500 
L 3475 3500 
L 3475 806 
Q 3475 619 3529 530 
Q 3584 441 3700 441 
Q 3728 441 3778 458 
Q 3828 475 3916 513 
L 3916 50 
Q 3788 -22 3673 -56 
Q 3559 -91 3450 -91 
Q 3234 -91 3106 31 
Q 2978 153 2931 403 
Q 2775 156 2548 32 
Q 2322 -91 2016 -91 
Q 1697 -91 1473 31 
Q 1250 153 1119 397 
L 1119 -1331 
L 544 -1331 
z
" transform="scale(0.015625)"/>
      </defs>
      <use xlink:href="#DejaVuSans-4c"/>
      <use xlink:href="#DejaVuSans-61" x="55.712891"/>
      <use xlink:href="#DejaVuSans-74" x="116.992188"/>
      <use xlink:href="#DejaVuSans-65" x="156.201172"/>
      <use xlink:href="#DejaVuSans-6e" x="217.724609"/>
      <use xlink:href="#DejaVuSans-63" x="281.103516"/>
      <use xlink:href="#DejaVuSans-79" x="336.083984"/>
      <use xlink:href="#DejaVuSans-20" x="395.263672"/>
      <use xlink:href="#DejaVuSans-5b" x="427.050781"/>
      <use xlink:href="#DejaVuSans-b5" x="466.064453"/>
      <use xlink:href="#DejaVuSans-73" x="529.6875"/>
      <use xlink:href="#DejaVuSans-5d" x="581.787109"/>
     </g>
    </g>
   </g>
   <g id="PolyCollection_8"/>
   <g id="PolyCollection_9">
    <defs>
     <path id="m33eb454669" d="M 78.243744 -95.879688 
L 78.243744 -95.879688 
L 95.43943 -101.549688 
L 112.635116 -101.549688 
L 129.830801 -101.549688 
L 147.026487 -101.549688 
L 164.222173 -101.549688 
L 181.417858 -101.549688 
L 198.613544 -101.549688 
L 215.80923 -101.549688 
L 233.004915 -101.549688 
L 250.200601 -101.549688 
L 267.396287 -101.549688 
L 284.591972 -101.549688 
L 301.787658 -101.549688 
L 318.983344 -101.549688 
L 336.179029 -101.549688 
L 353.374715 -101.549688 
L 370.570401 -101.549688 
L 387.766086 -101.549688 
L 404.961772 -101.549688 
L 422.157458 -101.549688 
L 439.353143 -101.549688 
L 456.548829 -101.549688 
L 473.744515 -101.549688 
L 490.9402 -101.549688 
L 508.135886 -101.549688 
L 525.331572 -101.549688 
L 542.527257 -101.549688 
L 559.722943 -101.549688 
L 576.918629 -101.549688 
L 576.918629 -101.549688 
L 576.918629 -101.549688 
L 559.722943 -101.549688 
L 542.527257 -101.549688 
L 525.331572 -101.549688 
L 508.135886 -101.549688 
L 490.9402 -101.549688 
L 473.744515 -101.549688 
L 456.548829 -101.549688 
L 439.353143 -101.549688 
L 422.157458 -101.549688 
L 404.961772 -101.549688 
L 387.766086 -101.549688 
L 370.570401 -101.549688 
L 353.374715 -101.549688 
L 336.179029 -101.549688 
L 318.983344 -101.549688 
L 301.787658 -101.549688 
L 284.591972 -101.549688 
L 267.396287 -101.549688 
L 250.200601 -101.549688 
L 233.004915 -101.549688 
L 215.80923 -101.549688 
L 198.613544 -101.549688 
L 181.417858 -101.549688 
L 164.222173 -101.549688 
L 147.026487 -101.549688 
L 129.830801 -101.549688 
L 112.635116 -101.549688 
L 95.43943 -101.549688 
L 78.243744 -95.879688 
z
" style="stroke: #ffffff; stroke-opacity: 0.2"/>
    </defs>
    <g clip-path="url(#pf8d223597e)">
     <use xlink:href="#m33eb454669" x="0" y="386.978828" style="fill: #4bc2ad; fill-opacity: 0.2; stroke: #ffffff; stroke-opacity: 0.2"/>
    </g>
   </g>
   <g id="line2d_52">
    <path d="M 78.243744 291.099141 
L 95.43943 285.429141 
L 112.635116 285.429141 
L 129.830801 285.429141 
L 147.026487 285.429141 
L 164.222173 285.429141 
L 181.417858 285.429141 
L 198.613544 285.429141 
L 215.80923 285.429141 
L 233.004915 285.429141 
L 250.200601 285.429141 
L 267.396287 285.429141 
L 284.591972 285.429141 
L 301.787658 285.429141 
L 318.983344 285.429141 
L 336.179029 285.429141 
L 353.374715 285.429141 
L 370.570401 285.429141 
L 387.766086 285.429141 
L 404.961772 285.429141 
L 422.157458 285.429141 
L 439.353143 285.429141 
L 456.548829 285.429141 
L 473.744515 285.429141 
L 490.9402 285.429141 
L 508.135886 285.429141 
L 525.331572 285.429141 
L 542.527257 285.429141 
L 559.722943 285.429141 
L 576.918629 285.429141 
" clip-path="url(#pf8d223597e)" style="fill: none; stroke: #4bc2ad; stroke-width: 1.5; stroke-linecap: round"/>
    <g clip-path="url(#pf8d223597e)">
     <use xlink:href="#m141993a900" x="78.243744" y="291.099141" style="fill: #4bc2ad; stroke: #ffffff; stroke-width: 0.75; stroke-linejoin: miter"/>
     <use xlink:href="#m141993a900" x="95.43943" y="285.429141" style="fill: #4bc2ad; stroke: #ffffff; stroke-width: 0.75; stroke-linejoin: miter"/>
     <use xlink:href="#m141993a900" x="112.635116" y="285.429141" style="fill: #4bc2ad; stroke: #ffffff; stroke-width: 0.75; stroke-linejoin: miter"/>
     <use xlink:href="#m141993a900" x="129.830801" y="285.429141" style="fill: #4bc2ad; stroke: #ffffff; stroke-width: 0.75; stroke-linejoin: miter"/>
     <use xlink:href="#m141993a900" x="147.026487" y="285.429141" style="fill: #4bc2ad; stroke: #ffffff; stroke-width: 0.75; stroke-linejoin: miter"/>
     <use xlink:href="#m141993a900" x="164.222173" y="285.429141" style="fill: #4bc2ad; stroke: #ffffff; stroke-width: 0.75; stroke-linejoin: miter"/>
     <use xlink:href="#m141993a900" x="181.417858" y="285.429141" style="fill: #4bc2ad; stroke: #ffffff; stroke-width: 0.75; stroke-linejoin: miter"/>
     <use xlink:href="#m141993a900" x="198.613544" y="285.429141" style="fill: #4bc2ad; stroke: #ffffff; stroke-width: 0.75; stroke-linejoin: miter"/>
     <use xlink:href="#m141993a900" x="215.80923" y="285.429141" style="fill: #4bc2ad; stroke: #ffffff; stroke-width: 0.75; stroke-linejoin: miter"/>
     <use xlink:href="#m141993a900" x="233.004915" y="285.429141" style="fill: #4bc2ad; stroke: #ffffff; stroke-width: 0.75; stroke-linejoin: miter"/>
     <use xlink:href="#m141993a900" x="250.200601" y="285.429141" style="fill: #4bc2ad; stroke: #ffffff; stroke-width: 0.75; stroke-linejoin: miter"/>
     <use xlink:href="#m141993a900" x="267.396287" y="285.429141" style="fill: #4bc2ad; stroke: #ffffff; stroke-width: 0.75; stroke-linejoin: miter"/>
     <use xlink:href="#m141993a900" x="284.591972" y="285.429141" style="fill: #4bc2ad; stroke: #ffffff; stroke-width: 0.75; stroke-linejoin: miter"/>
     <use xlink:href="#m141993a900" x="301.787658" y="285.429141" style="fill: #4bc2ad; stroke: #ffffff; stroke-width: 0.75; stroke-linejoin: miter"/>
     <use xlink:href="#m141993a900" x="318.983344" y="285.429141" style="fill: #4bc2ad; stroke: #ffffff; stroke-width: 0.75; stroke-linejoin: miter"/>
     <use xlink:href="#m141993a900" x="336.179029" y="285.429141" style="fill: #4bc2ad; stroke: #ffffff; stroke-width: 0.75; stroke-linejoin: miter"/>
     <use xlink:href="#m141993a900" x="353.374715" y="285.429141" style="fill: #4bc2ad; stroke: #ffffff; stroke-width: 0.75; stroke-linejoin: miter"/>
     <use xlink:href="#m141993a900" x="370.570401" y="285.429141" style="fill: #4bc2ad; stroke: #ffffff; stroke-width: 0.75; stroke-linejoin: miter"/>
     <use xlink:href="#m141993a900" x="387.766086" y="285.429141" style="fill: #4bc2ad; stroke: #ffffff; stroke-width: 0.75; stroke-linejoin: miter"/>
     <use xlink:href="#m141993a900" x="404.961772" y="285.429141" style="fill: #4bc2ad; stroke: #ffffff; stroke-width: 0.75; stroke-linejoin: miter"/>
     <use xlink:href="#m141993a900" x="422.157458" y="285.429141" style="fill: #4bc2ad; stroke: #ffffff; stroke-width: 0.75; stroke-linejoin: miter"/>
     <use xlink:href="#m141993a900" x="439.353143" y="285.429141" style="fill: #4bc2ad; stroke: #ffffff; stroke-width: 0.75; stroke-linejoin: miter"/>
     <use xlink:href="#m141993a900" x="456.548829" y="285.429141" style="fill: #4bc2ad; stroke: #ffffff; stroke-width: 0.75; stroke-linejoin: miter"/>
     <use xlink:href="#m141993a900" x="473.744515" y="285.429141" style="fill: #4bc2ad; stroke: #ffffff; stroke-width: 0.75; stroke-linejoin: miter"/>
     <use xlink:href="#m141993a900" x="490.9402" y="285.429141" style="fill: #4bc2ad; stroke: #ffffff; stroke-width: 0.75; stroke-linejoin: miter"/>
     <use xlink:href="#m141993a900" x="508.135886" y="285.429141" style="fill: #4bc2ad; stroke: #ffffff; stroke-width: 0.75; stroke-linejoin: miter"/>
     <use xlink:href="#m141993a900" x="525.331572" y="285.429141" style="fill: #4bc2ad; stroke: #ffffff; stroke-width: 0.75; stroke-linejoin: miter"/>
     <use xlink:href="#m141993a900" x="542.527257" y="285.429141" style="fill: #4bc2ad; stroke: #ffffff; stroke-width: 0.75; stroke-linejoin: miter"/>
     <use xlink:href="#m141993a900" x="559.722943" y="285.429141" style="fill: #4bc2ad; stroke: #ffffff; stroke-width: 0.75; stroke-linejoin: miter"/>
     <use xlink:href="#m141993a900" x="576.918629" y="285.429141" style="fill: #4bc2ad; stroke: #ffffff; stroke-width: 0.75; stroke-linejoin: miter"/>
    </g>
   </g>
   <g id="patch_9">
    <path d="M 53.31 344.019141 
L 53.31 223.059141 
" style="fill: none; stroke: #ffffff; stroke-width: 1.25; stroke-linejoin: miter; stroke-linecap: square"/>
   </g>
   <g id="patch_10">
    <path d="M 611.31 344.019141 
L 611.31 223.059141 
" style="fill: none; stroke: #ffffff; stroke-width: 1.25; stroke-linejoin: miter; stroke-linecap: square"/>
   </g>
   <g id="patch_11">
    <path d="M 53.31 344.019141 
L 611.31 344.019141 
" style="fill: none; stroke: #ffffff; stroke-width: 1.25; stroke-linejoin: miter; stroke-linecap: square"/>
   </g>
   <g id="patch_12">
    <path d="M 53.31 223.059141 
L 611.31 223.059141 
" style="fill: none; stroke: #ffffff; stroke-width: 1.25; stroke-linejoin: miter; stroke-linecap: square"/>
   </g>
   <g id="legend_2">
    <g id="patch_13">
     <path d="M 513.635156 248.005078 
L 603.61 248.005078 
Q 605.81 248.005078 605.81 245.805078 
L 605.81 230.759141 
Q 605.81 228.559141 603.61 228.559141 
L 513.635156 228.559141 
Q 511.435156 228.559141 511.435156 230.759141 
L 511.435156 245.805078 
Q 511.435156 248.005078 513.635156 248.005078 
z
" style="fill: #eaeaf2; opacity: 0.8; stroke: #cccccc; stroke-linejoin: miter"/>
    </g>
    <g id="line2d_53">
     <path d="M 515.835156 237.467422 
L 526.835156 237.467422 
L 537.835156 237.467422 
" style="fill: none; stroke: #4bc2ad; stroke-width: 1.5; stroke-linecap: round"/>
     <g>
      <use xlink:href="#m141993a900" x="526.835156" y="237.467422" style="fill: #4bc2ad; stroke: #ffffff; stroke-width: 0.75; stroke-linejoin: miter"/>
     </g>
    </g>
    <g id="text_51">
     <!-- Best Case -->
     <g style="fill: #262626" transform="translate(546.635156 241.317422) scale(0.11 -0.11)">
      <use xlink:href="#DejaVuSans-42"/>
      <use xlink:href="#DejaVuSans-65" x="68.603516"/>
      <use xlink:href="#DejaVuSans-73" x="130.126953"/>
      <use xlink:href="#DejaVuSans-74" x="182.226562"/>
      <use xlink:href="#DejaVuSans-20" x="221.435547"/>
      <use xlink:href="#DejaVuSans-43" x="253.222656"/>
      <use xlink:href="#DejaVuSans-61" x="323.046875"/>
      <use xlink:href="#DejaVuSans-73" x="384.326172"/>
      <use xlink:href="#DejaVuSans-65" x="436.425781"/>
     </g>
    </g>
   </g>
  </g>
 </g>
 <defs>
  <clipPath id="ped7ea5b3b5">
   <rect x="53.31" y="11.379141" width="558" height="181.44"/>
  </clipPath>
  <clipPath id="pf8d223597e">
   <rect x="53.31" y="223.059141" width="558" height="120.96"/>
  </clipPath>
 </defs>
</svg>
