<?xml version="1.0" encoding="utf-8" standalone="no"?>
<!DOCTYPE svg PUBLIC "-//W3C//DTD SVG 1.1//EN"
  "http://www.w3.org/Graphics/SVG/1.1/DTD/svg11.dtd">
<svg xmlns:xlink="http://www.w3.org/1999/xlink" width="615.007187pt" height="382.799687pt" viewBox="0 0 615.007187 382.799687" xmlns="http://www.w3.org/2000/svg" version="1.1">
 <metadata>
  <rdf:RDF xmlns:dc="http://purl.org/dc/elements/1.1/" xmlns:cc="http://creativecommons.org/ns#" xmlns:rdf="http://www.w3.org/1999/02/22-rdf-syntax-ns#">
   <cc:Work>
    <dc:type rdf:resource="http://purl.org/dc/dcmitype/StillImage"/>
    <dc:date>2024-08-27T12:45:53.071988</dc:date>
    <dc:format>image/svg+xml</dc:format>
    <dc:creator>
     <cc:Agent>
      <dc:title>Matplotlib v3.7.2, https://matplotlib.org/</dc:title>
     </cc:Agent>
    </dc:creator>
   </cc:Work>
  </rdf:RDF>
 </metadata>
 <defs>
  <style type="text/css">*{stroke-linejoin: round; stroke-linecap: butt}</style>
 </defs>
 <g id="figure_1">
  <g id="patch_1">
   <path d="M 0 382.799687 
L 615.007187 382.799687 
L 615.007187 0 
L 0 0 
z
" style="fill: #ffffff"/>
  </g>
  <g id="axes_1">
   <g id="patch_2">
    <path d="M 49.807188 188.64 
L 607.807188 188.64 
L 607.807188 7.2 
L 49.807188 7.2 
z
" style="fill: #eaeaf2"/>
   </g>
   <g id="matplotlib.axis_1">
    <g id="xtick_1">
     <g id="line2d_1">
      <path d="M 74.740932 188.64 
L 74.740932 7.2 
" clip-path="url(#p11f4792738)" style="fill: none; stroke: #ffffff; stroke-linecap: round"/>
     </g>
     <g id="text_1">
      <!-- 0 -->
      <g style="fill: #262626" transform="translate(71.241557 206.498281) scale(0.11 -0.11)">
       <defs>
        <path id="DejaVuSans-30" d="M 2034 4250 
Q 1547 4250 1301 3770 
Q 1056 3291 1056 2328 
Q 1056 1369 1301 889 
Q 1547 409 2034 409 
Q 2525 409 2770 889 
Q 3016 1369 3016 2328 
Q 3016 3291 2770 3770 
Q 2525 4250 2034 4250 
z
M 2034 4750 
Q 2819 4750 3233 4129 
Q 3647 3509 3647 2328 
Q 3647 1150 3233 529 
Q 2819 -91 2034 -91 
Q 1250 -91 836 529 
Q 422 1150 422 2328 
Q 422 3509 836 4129 
Q 1250 4750 2034 4750 
z
" transform="scale(0.015625)"/>
       </defs>
       <use xlink:href="#DejaVuSans-30"/>
      </g>
     </g>
    </g>
    <g id="xtick_2">
     <g id="line2d_2">
      <path d="M 109.132303 188.64 
L 109.132303 7.2 
" clip-path="url(#p11f4792738)" style="fill: none; stroke: #ffffff; stroke-linecap: round"/>
     </g>
     <g id="text_2">
      <!-- 64 -->
      <g style="fill: #262626" transform="translate(102.133553 206.498281) scale(0.11 -0.11)">
       <defs>
        <path id="DejaVuSans-36" d="M 2113 2584 
Q 1688 2584 1439 2293 
Q 1191 2003 1191 1497 
Q 1191 994 1439 701 
Q 1688 409 2113 409 
Q 2538 409 2786 701 
Q 3034 994 3034 1497 
Q 3034 2003 2786 2293 
Q 2538 2584 2113 2584 
z
M 3366 4563 
L 3366 3988 
Q 3128 4100 2886 4159 
Q 2644 4219 2406 4219 
Q 1781 4219 1451 3797 
Q 1122 3375 1075 2522 
Q 1259 2794 1537 2939 
Q 1816 3084 2150 3084 
Q 2853 3084 3261 2657 
Q 3669 2231 3669 1497 
Q 3669 778 3244 343 
Q 2819 -91 2113 -91 
Q 1303 -91 875 529 
Q 447 1150 447 2328 
Q 447 3434 972 4092 
Q 1497 4750 2381 4750 
Q 2619 4750 2861 4703 
Q 3103 4656 3366 4563 
z
" transform="scale(0.015625)"/>
        <path id="DejaVuSans-34" d="M 2419 4116 
L 825 1625 
L 2419 1625 
L 2419 4116 
z
M 2253 4666 
L 3047 4666 
L 3047 1625 
L 3713 1625 
L 3713 1100 
L 3047 1100 
L 3047 0 
L 2419 0 
L 2419 1100 
L 313 1100 
L 313 1709 
L 2253 4666 
z
" transform="scale(0.015625)"/>
       </defs>
       <use xlink:href="#DejaVuSans-36"/>
       <use xlink:href="#DejaVuSans-34" x="63.623047"/>
      </g>
     </g>
    </g>
    <g id="xtick_3">
     <g id="line2d_3">
      <path d="M 143.523674 188.64 
L 143.523674 7.2 
" clip-path="url(#p11f4792738)" style="fill: none; stroke: #ffffff; stroke-linecap: round"/>
     </g>
     <g id="text_3">
      <!-- 128 -->
      <g style="fill: #262626" transform="translate(133.025549 206.498281) scale(0.11 -0.11)">
       <defs>
        <path id="DejaVuSans-31" d="M 794 531 
L 1825 531 
L 1825 4091 
L 703 3866 
L 703 4441 
L 1819 4666 
L 2450 4666 
L 2450 531 
L 3481 531 
L 3481 0 
L 794 0 
L 794 531 
z
" transform="scale(0.015625)"/>
        <path id="DejaVuSans-32" d="M 1228 531 
L 3431 531 
L 3431 0 
L 469 0 
L 469 531 
Q 828 903 1448 1529 
Q 2069 2156 2228 2338 
Q 2531 2678 2651 2914 
Q 2772 3150 2772 3378 
Q 2772 3750 2511 3984 
Q 2250 4219 1831 4219 
Q 1534 4219 1204 4116 
Q 875 4013 500 3803 
L 500 4441 
Q 881 4594 1212 4672 
Q 1544 4750 1819 4750 
Q 2544 4750 2975 4387 
Q 3406 4025 3406 3419 
Q 3406 3131 3298 2873 
Q 3191 2616 2906 2266 
Q 2828 2175 2409 1742 
Q 1991 1309 1228 531 
z
" transform="scale(0.015625)"/>
        <path id="DejaVuSans-38" d="M 2034 2216 
Q 1584 2216 1326 1975 
Q 1069 1734 1069 1313 
Q 1069 891 1326 650 
Q 1584 409 2034 409 
Q 2484 409 2743 651 
Q 3003 894 3003 1313 
Q 3003 1734 2745 1975 
Q 2488 2216 2034 2216 
z
M 1403 2484 
Q 997 2584 770 2862 
Q 544 3141 544 3541 
Q 544 4100 942 4425 
Q 1341 4750 2034 4750 
Q 2731 4750 3128 4425 
Q 3525 4100 3525 3541 
Q 3525 3141 3298 2862 
Q 3072 2584 2669 2484 
Q 3125 2378 3379 2068 
Q 3634 1759 3634 1313 
Q 3634 634 3220 271 
Q 2806 -91 2034 -91 
Q 1263 -91 848 271 
Q 434 634 434 1313 
Q 434 1759 690 2068 
Q 947 2378 1403 2484 
z
M 1172 3481 
Q 1172 3119 1398 2916 
Q 1625 2713 2034 2713 
Q 2441 2713 2670 2916 
Q 2900 3119 2900 3481 
Q 2900 3844 2670 4047 
Q 2441 4250 2034 4250 
Q 1625 4250 1398 4047 
Q 1172 3844 1172 3481 
z
" transform="scale(0.015625)"/>
       </defs>
       <use xlink:href="#DejaVuSans-31"/>
       <use xlink:href="#DejaVuSans-32" x="63.623047"/>
       <use xlink:href="#DejaVuSans-38" x="127.246094"/>
      </g>
     </g>
    </g>
    <g id="xtick_4">
     <g id="line2d_4">
      <path d="M 177.915046 188.64 
L 177.915046 7.2 
" clip-path="url(#p11f4792738)" style="fill: none; stroke: #ffffff; stroke-linecap: round"/>
     </g>
     <g id="text_4">
      <!-- 192 -->
      <g style="fill: #262626" transform="translate(167.416921 206.498281) scale(0.11 -0.11)">
       <defs>
        <path id="DejaVuSans-39" d="M 703 97 
L 703 672 
Q 941 559 1184 500 
Q 1428 441 1663 441 
Q 2288 441 2617 861 
Q 2947 1281 2994 2138 
Q 2813 1869 2534 1725 
Q 2256 1581 1919 1581 
Q 1219 1581 811 2004 
Q 403 2428 403 3163 
Q 403 3881 828 4315 
Q 1253 4750 1959 4750 
Q 2769 4750 3195 4129 
Q 3622 3509 3622 2328 
Q 3622 1225 3098 567 
Q 2575 -91 1691 -91 
Q 1453 -91 1209 -44 
Q 966 3 703 97 
z
M 1959 2075 
Q 2384 2075 2632 2365 
Q 2881 2656 2881 3163 
Q 2881 3666 2632 3958 
Q 2384 4250 1959 4250 
Q 1534 4250 1286 3958 
Q 1038 3666 1038 3163 
Q 1038 2656 1286 2365 
Q 1534 2075 1959 2075 
z
" transform="scale(0.015625)"/>
       </defs>
       <use xlink:href="#DejaVuSans-31"/>
       <use xlink:href="#DejaVuSans-39" x="63.623047"/>
       <use xlink:href="#DejaVuSans-32" x="127.246094"/>
      </g>
     </g>
    </g>
    <g id="xtick_5">
     <g id="line2d_5">
      <path d="M 212.306417 188.64 
L 212.306417 7.2 
" clip-path="url(#p11f4792738)" style="fill: none; stroke: #ffffff; stroke-linecap: round"/>
     </g>
     <g id="text_5">
      <!-- 256 -->
      <g style="fill: #262626" transform="translate(201.808292 206.498281) scale(0.11 -0.11)">
       <defs>
        <path id="DejaVuSans-35" d="M 691 4666 
L 3169 4666 
L 3169 4134 
L 1269 4134 
L 1269 2991 
Q 1406 3038 1543 3061 
Q 1681 3084 1819 3084 
Q 2600 3084 3056 2656 
Q 3513 2228 3513 1497 
Q 3513 744 3044 326 
Q 2575 -91 1722 -91 
Q 1428 -91 1123 -41 
Q 819 9 494 109 
L 494 744 
Q 775 591 1075 516 
Q 1375 441 1709 441 
Q 2250 441 2565 725 
Q 2881 1009 2881 1497 
Q 2881 1984 2565 2268 
Q 2250 2553 1709 2553 
Q 1456 2553 1204 2497 
Q 953 2441 691 2322 
L 691 4666 
z
" transform="scale(0.015625)"/>
       </defs>
       <use xlink:href="#DejaVuSans-32"/>
       <use xlink:href="#DejaVuSans-35" x="63.623047"/>
       <use xlink:href="#DejaVuSans-36" x="127.246094"/>
      </g>
     </g>
    </g>
    <g id="xtick_6">
     <g id="line2d_6">
      <path d="M 246.697788 188.64 
L 246.697788 7.2 
" clip-path="url(#p11f4792738)" style="fill: none; stroke: #ffffff; stroke-linecap: round"/>
     </g>
     <g id="text_6">
      <!-- 320 -->
      <g style="fill: #262626" transform="translate(236.199663 206.498281) scale(0.11 -0.11)">
       <defs>
        <path id="DejaVuSans-33" d="M 2597 2516 
Q 3050 2419 3304 2112 
Q 3559 1806 3559 1356 
Q 3559 666 3084 287 
Q 2609 -91 1734 -91 
Q 1441 -91 1130 -33 
Q 819 25 488 141 
L 488 750 
Q 750 597 1062 519 
Q 1375 441 1716 441 
Q 2309 441 2620 675 
Q 2931 909 2931 1356 
Q 2931 1769 2642 2001 
Q 2353 2234 1838 2234 
L 1294 2234 
L 1294 2753 
L 1863 2753 
Q 2328 2753 2575 2939 
Q 2822 3125 2822 3475 
Q 2822 3834 2567 4026 
Q 2313 4219 1838 4219 
Q 1578 4219 1281 4162 
Q 984 4106 628 3988 
L 628 4550 
Q 988 4650 1302 4700 
Q 1616 4750 1894 4750 
Q 2613 4750 3031 4423 
Q 3450 4097 3450 3541 
Q 3450 3153 3228 2886 
Q 3006 2619 2597 2516 
z
" transform="scale(0.015625)"/>
       </defs>
       <use xlink:href="#DejaVuSans-33"/>
       <use xlink:href="#DejaVuSans-32" x="63.623047"/>
       <use xlink:href="#DejaVuSans-30" x="127.246094"/>
      </g>
     </g>
    </g>
    <g id="xtick_7">
     <g id="line2d_7">
      <path d="M 281.08916 188.64 
L 281.08916 7.2 
" clip-path="url(#p11f4792738)" style="fill: none; stroke: #ffffff; stroke-linecap: round"/>
     </g>
     <g id="text_7">
      <!-- 384 -->
      <g style="fill: #262626" transform="translate(270.591035 206.498281) scale(0.11 -0.11)">
       <use xlink:href="#DejaVuSans-33"/>
       <use xlink:href="#DejaVuSans-38" x="63.623047"/>
       <use xlink:href="#DejaVuSans-34" x="127.246094"/>
      </g>
     </g>
    </g>
    <g id="xtick_8">
     <g id="line2d_8">
      <path d="M 315.480531 188.64 
L 315.480531 7.2 
" clip-path="url(#p11f4792738)" style="fill: none; stroke: #ffffff; stroke-linecap: round"/>
     </g>
     <g id="text_8">
      <!-- 448 -->
      <g style="fill: #262626" transform="translate(304.982406 206.498281) scale(0.11 -0.11)">
       <use xlink:href="#DejaVuSans-34"/>
       <use xlink:href="#DejaVuSans-34" x="63.623047"/>
       <use xlink:href="#DejaVuSans-38" x="127.246094"/>
      </g>
     </g>
    </g>
    <g id="xtick_9">
     <g id="line2d_9">
      <path d="M 349.871902 188.64 
L 349.871902 7.2 
" clip-path="url(#p11f4792738)" style="fill: none; stroke: #ffffff; stroke-linecap: round"/>
     </g>
     <g id="text_9">
      <!-- 512 -->
      <g style="fill: #262626" transform="translate(339.373777 206.498281) scale(0.11 -0.11)">
       <use xlink:href="#DejaVuSans-35"/>
       <use xlink:href="#DejaVuSans-31" x="63.623047"/>
       <use xlink:href="#DejaVuSans-32" x="127.246094"/>
      </g>
     </g>
    </g>
    <g id="xtick_10">
     <g id="line2d_10">
      <path d="M 384.263274 188.64 
L 384.263274 7.2 
" clip-path="url(#p11f4792738)" style="fill: none; stroke: #ffffff; stroke-linecap: round"/>
     </g>
     <g id="text_10">
      <!-- 576 -->
      <g style="fill: #262626" transform="translate(373.765149 206.498281) scale(0.11 -0.11)">
       <defs>
        <path id="DejaVuSans-37" d="M 525 4666 
L 3525 4666 
L 3525 4397 
L 1831 0 
L 1172 0 
L 2766 4134 
L 525 4134 
L 525 4666 
z
" transform="scale(0.015625)"/>
       </defs>
       <use xlink:href="#DejaVuSans-35"/>
       <use xlink:href="#DejaVuSans-37" x="63.623047"/>
       <use xlink:href="#DejaVuSans-36" x="127.246094"/>
      </g>
     </g>
    </g>
    <g id="xtick_11">
     <g id="line2d_11">
      <path d="M 418.654645 188.64 
L 418.654645 7.2 
" clip-path="url(#p11f4792738)" style="fill: none; stroke: #ffffff; stroke-linecap: round"/>
     </g>
     <g id="text_11">
      <!-- 640 -->
      <g style="fill: #262626" transform="translate(408.15652 206.498281) scale(0.11 -0.11)">
       <use xlink:href="#DejaVuSans-36"/>
       <use xlink:href="#DejaVuSans-34" x="63.623047"/>
       <use xlink:href="#DejaVuSans-30" x="127.246094"/>
      </g>
     </g>
    </g>
    <g id="xtick_12">
     <g id="line2d_12">
      <path d="M 453.046016 188.64 
L 453.046016 7.2 
" clip-path="url(#p11f4792738)" style="fill: none; stroke: #ffffff; stroke-linecap: round"/>
     </g>
     <g id="text_12">
      <!-- 704 -->
      <g style="fill: #262626" transform="translate(442.547891 206.498281) scale(0.11 -0.11)">
       <use xlink:href="#DejaVuSans-37"/>
       <use xlink:href="#DejaVuSans-30" x="63.623047"/>
       <use xlink:href="#DejaVuSans-34" x="127.246094"/>
      </g>
     </g>
    </g>
    <g id="xtick_13">
     <g id="line2d_13">
      <path d="M 487.437388 188.64 
L 487.437388 7.2 
" clip-path="url(#p11f4792738)" style="fill: none; stroke: #ffffff; stroke-linecap: round"/>
     </g>
     <g id="text_13">
      <!-- 768 -->
      <g style="fill: #262626" transform="translate(476.939263 206.498281) scale(0.11 -0.11)">
       <use xlink:href="#DejaVuSans-37"/>
       <use xlink:href="#DejaVuSans-36" x="63.623047"/>
       <use xlink:href="#DejaVuSans-38" x="127.246094"/>
      </g>
     </g>
    </g>
    <g id="xtick_14">
     <g id="line2d_14">
      <path d="M 521.828759 188.64 
L 521.828759 7.2 
" clip-path="url(#p11f4792738)" style="fill: none; stroke: #ffffff; stroke-linecap: round"/>
     </g>
     <g id="text_14">
      <!-- 832 -->
      <g style="fill: #262626" transform="translate(511.330634 206.498281) scale(0.11 -0.11)">
       <use xlink:href="#DejaVuSans-38"/>
       <use xlink:href="#DejaVuSans-33" x="63.623047"/>
       <use xlink:href="#DejaVuSans-32" x="127.246094"/>
      </g>
     </g>
    </g>
    <g id="xtick_15">
     <g id="line2d_15">
      <path d="M 556.22013 188.64 
L 556.22013 7.2 
" clip-path="url(#p11f4792738)" style="fill: none; stroke: #ffffff; stroke-linecap: round"/>
     </g>
     <g id="text_15">
      <!-- 896 -->
      <g style="fill: #262626" transform="translate(545.722005 206.498281) scale(0.11 -0.11)">
       <use xlink:href="#DejaVuSans-38"/>
       <use xlink:href="#DejaVuSans-39" x="63.623047"/>
       <use xlink:href="#DejaVuSans-36" x="127.246094"/>
      </g>
     </g>
    </g>
    <g id="xtick_16">
     <g id="line2d_16">
      <path d="M 590.611502 188.64 
L 590.611502 7.2 
" clip-path="url(#p11f4792738)" style="fill: none; stroke: #ffffff; stroke-linecap: round"/>
     </g>
     <g id="text_16">
      <!-- 960 -->
      <g style="fill: #262626" transform="translate(580.113377 206.498281) scale(0.11 -0.11)">
       <use xlink:href="#DejaVuSans-39"/>
       <use xlink:href="#DejaVuSans-36" x="63.623047"/>
       <use xlink:href="#DejaVuSans-30" x="127.246094"/>
      </g>
     </g>
    </g>
    <g id="xtick_17"/>
    <g id="xtick_18"/>
    <g id="xtick_19"/>
    <g id="xtick_20"/>
    <g id="xtick_21"/>
    <g id="xtick_22"/>
    <g id="xtick_23"/>
    <g id="xtick_24"/>
    <g id="xtick_25"/>
    <g id="xtick_26"/>
    <g id="xtick_27"/>
    <g id="xtick_28"/>
    <g id="xtick_29"/>
    <g id="xtick_30"/>
    <g id="xtick_31"/>
    <g id="xtick_32"/>
   </g>
   <g id="matplotlib.axis_2">
    <g id="ytick_1">
     <g id="line2d_17">
      <path d="M 49.807188 180.487245 
L 607.807188 180.487245 
" clip-path="url(#p11f4792738)" style="fill: none; stroke: #ffffff; stroke-linecap: round"/>
     </g>
     <g id="text_17">
      <!-- 0.0 -->
      <g style="fill: #262626" transform="translate(22.81375 184.666385) scale(0.11 -0.11)">
       <defs>
        <path id="DejaVuSans-2e" d="M 684 794 
L 1344 794 
L 1344 0 
L 684 0 
L 684 794 
z
" transform="scale(0.015625)"/>
       </defs>
       <use xlink:href="#DejaVuSans-30"/>
       <use xlink:href="#DejaVuSans-2e" x="63.623047"/>
       <use xlink:href="#DejaVuSans-30" x="95.410156"/>
      </g>
     </g>
    </g>
    <g id="ytick_2">
     <g id="line2d_18">
      <path d="M 49.807188 147.611575 
L 607.807188 147.611575 
" clip-path="url(#p11f4792738)" style="fill: none; stroke: #ffffff; stroke-linecap: round"/>
     </g>
     <g id="text_18">
      <!-- 0.5 -->
      <g style="fill: #262626" transform="translate(22.81375 151.790716) scale(0.11 -0.11)">
       <use xlink:href="#DejaVuSans-30"/>
       <use xlink:href="#DejaVuSans-2e" x="63.623047"/>
       <use xlink:href="#DejaVuSans-35" x="95.410156"/>
      </g>
     </g>
    </g>
    <g id="ytick_3">
     <g id="line2d_19">
      <path d="M 49.807188 114.735905 
L 607.807188 114.735905 
" clip-path="url(#p11f4792738)" style="fill: none; stroke: #ffffff; stroke-linecap: round"/>
     </g>
     <g id="text_19">
      <!-- 1.0 -->
      <g style="fill: #262626" transform="translate(22.81375 118.915046) scale(0.11 -0.11)">
       <use xlink:href="#DejaVuSans-31"/>
       <use xlink:href="#DejaVuSans-2e" x="63.623047"/>
       <use xlink:href="#DejaVuSans-30" x="95.410156"/>
      </g>
     </g>
    </g>
    <g id="ytick_4">
     <g id="line2d_20">
      <path d="M 49.807188 81.860235 
L 607.807188 81.860235 
" clip-path="url(#p11f4792738)" style="fill: none; stroke: #ffffff; stroke-linecap: round"/>
     </g>
     <g id="text_20">
      <!-- 1.5 -->
      <g style="fill: #262626" transform="translate(22.81375 86.039376) scale(0.11 -0.11)">
       <use xlink:href="#DejaVuSans-31"/>
       <use xlink:href="#DejaVuSans-2e" x="63.623047"/>
       <use xlink:href="#DejaVuSans-35" x="95.410156"/>
      </g>
     </g>
    </g>
    <g id="ytick_5">
     <g id="line2d_21">
      <path d="M 49.807188 48.984565 
L 607.807188 48.984565 
" clip-path="url(#p11f4792738)" style="fill: none; stroke: #ffffff; stroke-linecap: round"/>
     </g>
     <g id="text_21">
      <!-- 2.0 -->
      <g style="fill: #262626" transform="translate(22.81375 53.163706) scale(0.11 -0.11)">
       <use xlink:href="#DejaVuSans-32"/>
       <use xlink:href="#DejaVuSans-2e" x="63.623047"/>
       <use xlink:href="#DejaVuSans-30" x="95.410156"/>
      </g>
     </g>
    </g>
    <g id="ytick_6">
     <g id="line2d_22">
      <path d="M 49.807188 16.108896 
L 607.807188 16.108896 
" clip-path="url(#p11f4792738)" style="fill: none; stroke: #ffffff; stroke-linecap: round"/>
     </g>
     <g id="text_22">
      <!-- 2.5 -->
      <g style="fill: #262626" transform="translate(22.81375 20.288036) scale(0.11 -0.11)">
       <use xlink:href="#DejaVuSans-32"/>
       <use xlink:href="#DejaVuSans-2e" x="63.623047"/>
       <use xlink:href="#DejaVuSans-35" x="95.410156"/>
      </g>
     </g>
    </g>
    <g id="text_23">
     <!-- Latency [ms] -->
     <g style="fill: #262626" transform="translate(16.318125 137.195625) rotate(-90) scale(0.12 -0.12)">
      <defs>
       <path id="DejaVuSans-4c" d="M 628 4666 
L 1259 4666 
L 1259 531 
L 3531 531 
L 3531 0 
L 628 0 
L 628 4666 
z
" transform="scale(0.015625)"/>
       <path id="DejaVuSans-61" d="M 2194 1759 
Q 1497 1759 1228 1600 
Q 959 1441 959 1056 
Q 959 750 1161 570 
Q 1363 391 1709 391 
Q 2188 391 2477 730 
Q 2766 1069 2766 1631 
L 2766 1759 
L 2194 1759 
z
M 3341 1997 
L 3341 0 
L 2766 0 
L 2766 531 
Q 2569 213 2275 61 
Q 1981 -91 1556 -91 
Q 1019 -91 701 211 
Q 384 513 384 1019 
Q 384 1609 779 1909 
Q 1175 2209 1959 2209 
L 2766 2209 
L 2766 2266 
Q 2766 2663 2505 2880 
Q 2244 3097 1772 3097 
Q 1472 3097 1187 3025 
Q 903 2953 641 2809 
L 641 3341 
Q 956 3463 1253 3523 
Q 1550 3584 1831 3584 
Q 2591 3584 2966 3190 
Q 3341 2797 3341 1997 
z
" transform="scale(0.015625)"/>
       <path id="DejaVuSans-74" d="M 1172 4494 
L 1172 3500 
L 2356 3500 
L 2356 3053 
L 1172 3053 
L 1172 1153 
Q 1172 725 1289 603 
Q 1406 481 1766 481 
L 2356 481 
L 2356 0 
L 1766 0 
Q 1100 0 847 248 
Q 594 497 594 1153 
L 594 3053 
L 172 3053 
L 172 3500 
L 594 3500 
L 594 4494 
L 1172 4494 
z
" transform="scale(0.015625)"/>
       <path id="DejaVuSans-65" d="M 3597 1894 
L 3597 1613 
L 953 1613 
Q 991 1019 1311 708 
Q 1631 397 2203 397 
Q 2534 397 2845 478 
Q 3156 559 3463 722 
L 3463 178 
Q 3153 47 2828 -22 
Q 2503 -91 2169 -91 
Q 1331 -91 842 396 
Q 353 884 353 1716 
Q 353 2575 817 3079 
Q 1281 3584 2069 3584 
Q 2775 3584 3186 3129 
Q 3597 2675 3597 1894 
z
M 3022 2063 
Q 3016 2534 2758 2815 
Q 2500 3097 2075 3097 
Q 1594 3097 1305 2825 
Q 1016 2553 972 2059 
L 3022 2063 
z
" transform="scale(0.015625)"/>
       <path id="DejaVuSans-6e" d="M 3513 2113 
L 3513 0 
L 2938 0 
L 2938 2094 
Q 2938 2591 2744 2837 
Q 2550 3084 2163 3084 
Q 1697 3084 1428 2787 
Q 1159 2491 1159 1978 
L 1159 0 
L 581 0 
L 581 3500 
L 1159 3500 
L 1159 2956 
Q 1366 3272 1645 3428 
Q 1925 3584 2291 3584 
Q 2894 3584 3203 3211 
Q 3513 2838 3513 2113 
z
" transform="scale(0.015625)"/>
       <path id="DejaVuSans-63" d="M 3122 3366 
L 3122 2828 
Q 2878 2963 2633 3030 
Q 2388 3097 2138 3097 
Q 1578 3097 1268 2742 
Q 959 2388 959 1747 
Q 959 1106 1268 751 
Q 1578 397 2138 397 
Q 2388 397 2633 464 
Q 2878 531 3122 666 
L 3122 134 
Q 2881 22 2623 -34 
Q 2366 -91 2075 -91 
Q 1284 -91 818 406 
Q 353 903 353 1747 
Q 353 2603 823 3093 
Q 1294 3584 2113 3584 
Q 2378 3584 2631 3529 
Q 2884 3475 3122 3366 
z
" transform="scale(0.015625)"/>
       <path id="DejaVuSans-79" d="M 2059 -325 
Q 1816 -950 1584 -1140 
Q 1353 -1331 966 -1331 
L 506 -1331 
L 506 -850 
L 844 -850 
Q 1081 -850 1212 -737 
Q 1344 -625 1503 -206 
L 1606 56 
L 191 3500 
L 800 3500 
L 1894 763 
L 2988 3500 
L 3597 3500 
L 2059 -325 
z
" transform="scale(0.015625)"/>
       <path id="DejaVuSans-20" transform="scale(0.015625)"/>
       <path id="DejaVuSans-5b" d="M 550 4863 
L 1875 4863 
L 1875 4416 
L 1125 4416 
L 1125 -397 
L 1875 -397 
L 1875 -844 
L 550 -844 
L 550 4863 
z
" transform="scale(0.015625)"/>
       <path id="DejaVuSans-6d" d="M 3328 2828 
Q 3544 3216 3844 3400 
Q 4144 3584 4550 3584 
Q 5097 3584 5394 3201 
Q 5691 2819 5691 2113 
L 5691 0 
L 5113 0 
L 5113 2094 
Q 5113 2597 4934 2840 
Q 4756 3084 4391 3084 
Q 3944 3084 3684 2787 
Q 3425 2491 3425 1978 
L 3425 0 
L 2847 0 
L 2847 2094 
Q 2847 2600 2669 2842 
Q 2491 3084 2119 3084 
Q 1678 3084 1418 2786 
Q 1159 2488 1159 1978 
L 1159 0 
L 581 0 
L 581 3500 
L 1159 3500 
L 1159 2956 
Q 1356 3278 1631 3431 
Q 1906 3584 2284 3584 
Q 2666 3584 2933 3390 
Q 3200 3197 3328 2828 
z
" transform="scale(0.015625)"/>
       <path id="DejaVuSans-73" d="M 2834 3397 
L 2834 2853 
Q 2591 2978 2328 3040 
Q 2066 3103 1784 3103 
Q 1356 3103 1142 2972 
Q 928 2841 928 2578 
Q 928 2378 1081 2264 
Q 1234 2150 1697 2047 
L 1894 2003 
Q 2506 1872 2764 1633 
Q 3022 1394 3022 966 
Q 3022 478 2636 193 
Q 2250 -91 1575 -91 
Q 1294 -91 989 -36 
Q 684 19 347 128 
L 347 722 
Q 666 556 975 473 
Q 1284 391 1588 391 
Q 1994 391 2212 530 
Q 2431 669 2431 922 
Q 2431 1156 2273 1281 
Q 2116 1406 1581 1522 
L 1381 1569 
Q 847 1681 609 1914 
Q 372 2147 372 2553 
Q 372 3047 722 3315 
Q 1072 3584 1716 3584 
Q 2034 3584 2315 3537 
Q 2597 3491 2834 3397 
z
" transform="scale(0.015625)"/>
       <path id="DejaVuSans-5d" d="M 1947 4863 
L 1947 -844 
L 622 -844 
L 622 -397 
L 1369 -397 
L 1369 4416 
L 622 4416 
L 622 4863 
L 1947 4863 
z
" transform="scale(0.015625)"/>
      </defs>
      <use xlink:href="#DejaVuSans-4c"/>
      <use xlink:href="#DejaVuSans-61" x="55.712891"/>
      <use xlink:href="#DejaVuSans-74" x="116.992188"/>
      <use xlink:href="#DejaVuSans-65" x="156.201172"/>
      <use xlink:href="#DejaVuSans-6e" x="217.724609"/>
      <use xlink:href="#DejaVuSans-63" x="281.103516"/>
      <use xlink:href="#DejaVuSans-79" x="336.083984"/>
      <use xlink:href="#DejaVuSans-20" x="395.263672"/>
      <use xlink:href="#DejaVuSans-5b" x="427.050781"/>
      <use xlink:href="#DejaVuSans-6d" x="466.064453"/>
      <use xlink:href="#DejaVuSans-73" x="563.476562"/>
      <use xlink:href="#DejaVuSans-5d" x="615.576172"/>
     </g>
    </g>
   </g>
   <g id="PolyCollection_1"/>
   <g id="PolyCollection_2">
    <defs>
     <path id="mac85d6682a" d="M 74.740932 -289.515157 
L 74.740932 -289.515157 
L 91.936617 -291.479478 
L 109.132303 -293.373939 
L 126.327989 -296.982043 
L 143.523674 -296.221794 
L 160.71936 -299.797023 
L 177.915046 -299.571002 
L 195.110731 -333.811013 
L 212.306417 -333.82745 
L 229.502103 -337.184878 
L 246.697788 -338.651955 
L 263.893474 -337.193097 
L 281.08916 -338.582094 
L 298.284845 -343.891515 
L 315.480531 -345.276402 
L 332.676217 -345.666801 
L 349.871902 -345.284621 
L 367.067588 -347.244833 
L 384.263274 -348.625611 
L 401.458959 -350.589933 
L 418.654645 -354.715829 
L 435.850331 -353.94736 
L 453.046016 -358.685566 
L 470.241702 -357.300679 
L 487.437388 -358.685566 
L 504.633073 -360.645778 
L 521.828759 -364.574421 
L 539.024445 -364.512779 
L 556.22013 -365.388093 
L 573.415816 -367.344196 
L 573.415816 -367.352415 
L 573.415816 -367.352415 
L 556.22013 -365.388093 
L 539.024445 -366.012731 
L 521.828759 -364.820988 
L 504.633073 -363.990878 
L 487.437388 -358.685566 
L 470.241702 -357.300679 
L 453.046016 -358.685566 
L 435.850331 -355.69799 
L 418.654645 -355.397999 
L 401.458959 -353.010404 
L 384.263274 -351.029645 
L 367.067588 -347.244833 
L 349.871902 -345.284621 
L 332.676217 -347.236614 
L 315.480531 -345.276402 
L 298.284845 -343.891515 
L 281.08916 -338.582094 
L 263.893474 -337.193097 
L 246.697788 -341.175163 
L 229.502103 -337.188988 
L 212.306417 -335.232885 
L 195.110731 -334.715094 
L 177.915046 -299.571002 
L 160.71936 -300.064138 
L 143.523674 -296.731366 
L 126.327989 -297.46285 
L 109.132303 -293.382158 
L 91.936617 -291.479478 
L 74.740932 -289.515157 
z
" style="stroke: #ffffff; stroke-opacity: 0.2"/>
    </defs>
    <g clip-path="url(#p11f4792738)">
     <use xlink:href="#mac85d6682a" x="0" y="382.799687" style="fill: #3e356b; fill-opacity: 0.2; stroke: #ffffff; stroke-opacity: 0.2"/>
    </g>
   </g>
   <g id="PolyCollection_3"/>
   <g id="PolyCollection_4">
    <defs>
     <path id="mdb5336ffdc" d="M 74.740932 -205.037014 
L 74.740932 -205.037014 
L 91.936617 -206.997226 
L 109.132303 -208.382113 
L 126.327989 -210.346434 
L 143.523674 -211.735432 
L 160.71936 -213.699753 
L 177.915046 -215.08875 
L 195.110731 -217.048962 
L 212.306417 -218.437959 
L 229.502103 -220.398171 
L 246.697788 -221.787168 
L 263.893474 -223.751489 
L 281.08916 -225.140486 
L 298.284845 -227.100698 
L 315.480531 -228.489695 
L 332.676217 -230.449907 
L 349.871902 -231.843013 
L 367.067588 -233.803225 
L 384.263274 -235.192222 
L 401.458959 -237.152434 
L 418.654645 -269.000739 
L 435.850331 -270.96506 
L 453.046016 -272.349948 
L 470.241702 -274.314269 
L 487.437388 -275.703266 
L 504.633073 -277.667587 
L 521.828759 -279.052475 
L 539.024445 -281.012687 
L 556.22013 -282.401684 
L 573.415816 -284.366005 
L 573.415816 -284.366005 
L 573.415816 -284.366005 
L 556.22013 -282.401684 
L 539.024445 -281.012687 
L 521.828759 -279.052475 
L 504.633073 -277.667587 
L 487.437388 -275.703266 
L 470.241702 -274.314269 
L 453.046016 -272.349948 
L 435.850331 -270.96506 
L 418.654645 -269.000739 
L 401.458959 -237.152434 
L 384.263274 -235.192222 
L 367.067588 -234.045683 
L 349.871902 -231.843013 
L 332.676217 -230.449907 
L 315.480531 -228.489695 
L 298.284845 -227.178777 
L 281.08916 -225.140486 
L 263.893474 -223.751489 
L 246.697788 -221.787168 
L 229.502103 -220.398171 
L 212.306417 -218.639322 
L 195.110731 -217.303748 
L 177.915046 -215.08875 
L 160.71936 -213.699753 
L 143.523674 -211.735432 
L 126.327989 -210.346434 
L 109.132303 -208.382113 
L 91.936617 -206.997226 
L 74.740932 -205.037014 
z
" style="stroke: #ffffff; stroke-opacity: 0.2"/>
    </defs>
    <g clip-path="url(#p11f4792738)">
     <use xlink:href="#mdb5336ffdc" x="0" y="382.799687" style="fill: #357ba3; fill-opacity: 0.2; stroke: #ffffff; stroke-opacity: 0.2"/>
    </g>
   </g>
   <g id="PolyCollection_5"/>
   <g id="PolyCollection_6">
    <defs>
     <path id="mf39dcd964e" d="M 74.740932 -202.653528 
L 74.740932 -202.419289 
L 91.936617 -202.40696 
L 109.132303 -202.40696 
L 126.327989 -202.40696 
L 143.523674 -202.40696 
L 160.71936 -202.40696 
L 177.915046 -202.40696 
L 195.110731 -202.40696 
L 212.306417 -202.40696 
L 229.502103 -202.40696 
L 246.697788 -202.40696 
L 263.893474 -202.40696 
L 281.08916 -202.40696 
L 298.284845 -202.40696 
L 315.480531 -202.40696 
L 332.676217 -202.40696 
L 349.871902 -202.40696 
L 367.067588 -202.40696 
L 384.263274 -202.40696 
L 401.458959 -202.40696 
L 418.654645 -202.40696 
L 435.850331 -202.40696 
L 453.046016 -202.40696 
L 470.241702 -202.40696 
L 487.437388 -202.40696 
L 504.633073 -202.40696 
L 521.828759 -202.40696 
L 539.024445 -202.40696 
L 556.22013 -202.40696 
L 573.415816 -202.40696 
L 573.415816 -202.620652 
L 573.415816 -202.620652 
L 556.22013 -202.595995 
L 539.024445 -202.698732 
L 521.828759 -202.653528 
L 504.633073 -202.608324 
L 487.437388 -202.608324 
L 470.241702 -202.698732 
L 453.046016 -202.748045 
L 435.850331 -202.653528 
L 418.654645 -202.653528 
L 401.458959 -202.583667 
L 384.263274 -202.583667 
L 367.067588 -202.595995 
L 349.871902 -202.608324 
L 332.676217 -203.101459 
L 315.480531 -202.723389 
L 298.284845 -202.608324 
L 281.08916 -202.723389 
L 263.893474 -202.748045 
L 246.697788 -202.748045 
L 229.502103 -202.653528 
L 212.306417 -202.748045 
L 195.110731 -202.620652 
L 177.915046 -202.748045 
L 160.71936 -202.595995 
L 143.523674 -202.620652 
L 126.327989 -202.608324 
L 109.132303 -202.694622 
L 91.936617 -202.698732 
L 74.740932 -202.653528 
z
" style="stroke: #ffffff; stroke-opacity: 0.2"/>
    </defs>
    <g clip-path="url(#p11f4792738)">
     <use xlink:href="#mf39dcd964e" x="0" y="382.799687" style="fill: #4bc2ad; fill-opacity: 0.2; stroke: #ffffff; stroke-opacity: 0.2"/>
    </g>
   </g>
   <g id="line2d_23">
    <path d="M 74.740932 93.284531 
L 91.936617 91.320209 
L 109.132303 89.421639 
L 126.327989 85.616124 
L 143.523674 86.28948 
L 160.71936 82.869107 
L 177.915046 83.228685 
L 195.110731 48.536634 
L 212.306417 48.26952 
L 229.502103 45.612755 
L 246.697788 42.886129 
L 263.893474 45.60659 
L 281.08916 44.217593 
L 298.284845 38.908173 
L 315.480531 37.523285 
L 332.676217 36.34798 
L 349.871902 37.515066 
L 367.067588 35.554854 
L 384.263274 32.972059 
L 401.458959 30.999519 
L 418.654645 27.742773 
L 435.850331 27.977012 
L 453.046016 24.114121 
L 470.241702 25.499009 
L 487.437388 24.114121 
L 504.633073 20.48136 
L 521.828759 18.101983 
L 539.024445 17.536932 
L 556.22013 17.411594 
L 573.415816 15.451382 
" clip-path="url(#p11f4792738)" style="fill: none; stroke: #3e356b; stroke-width: 1.5; stroke-linecap: round"/>
    <defs>
     <path id="m03d196f293" d="M 0 3 
C 0.795609 3 1.55874 2.683901 2.12132 2.12132 
C 2.683901 1.55874 3 0.795609 3 0 
C 3 -0.795609 2.683901 -1.55874 2.12132 -2.12132 
C 1.55874 -2.683901 0.795609 -3 0 -3 
C -0.795609 -3 -1.55874 -2.683901 -2.12132 -2.12132 
C -2.683901 -1.55874 -3 -0.795609 -3 0 
C -3 0.795609 -2.683901 1.55874 -2.12132 2.12132 
C -1.55874 2.683901 -0.795609 3 0 3 
z
" style="stroke: #ffffff; stroke-width: 0.75"/>
    </defs>
    <g clip-path="url(#p11f4792738)">
     <use xlink:href="#m03d196f293" x="74.740932" y="93.284531" style="fill: #3e356b; stroke: #ffffff; stroke-width: 0.75"/>
     <use xlink:href="#m03d196f293" x="91.936617" y="91.320209" style="fill: #3e356b; stroke: #ffffff; stroke-width: 0.75"/>
     <use xlink:href="#m03d196f293" x="109.132303" y="89.421639" style="fill: #3e356b; stroke: #ffffff; stroke-width: 0.75"/>
     <use xlink:href="#m03d196f293" x="126.327989" y="85.616124" style="fill: #3e356b; stroke: #ffffff; stroke-width: 0.75"/>
     <use xlink:href="#m03d196f293" x="143.523674" y="86.28948" style="fill: #3e356b; stroke: #ffffff; stroke-width: 0.75"/>
     <use xlink:href="#m03d196f293" x="160.71936" y="82.869107" style="fill: #3e356b; stroke: #ffffff; stroke-width: 0.75"/>
     <use xlink:href="#m03d196f293" x="177.915046" y="83.228685" style="fill: #3e356b; stroke: #ffffff; stroke-width: 0.75"/>
     <use xlink:href="#m03d196f293" x="195.110731" y="48.536634" style="fill: #3e356b; stroke: #ffffff; stroke-width: 0.75"/>
     <use xlink:href="#m03d196f293" x="212.306417" y="48.26952" style="fill: #3e356b; stroke: #ffffff; stroke-width: 0.75"/>
     <use xlink:href="#m03d196f293" x="229.502103" y="45.612755" style="fill: #3e356b; stroke: #ffffff; stroke-width: 0.75"/>
     <use xlink:href="#m03d196f293" x="246.697788" y="42.886129" style="fill: #3e356b; stroke: #ffffff; stroke-width: 0.75"/>
     <use xlink:href="#m03d196f293" x="263.893474" y="45.60659" style="fill: #3e356b; stroke: #ffffff; stroke-width: 0.75"/>
     <use xlink:href="#m03d196f293" x="281.08916" y="44.217593" style="fill: #3e356b; stroke: #ffffff; stroke-width: 0.75"/>
     <use xlink:href="#m03d196f293" x="298.284845" y="38.908173" style="fill: #3e356b; stroke: #ffffff; stroke-width: 0.75"/>
     <use xlink:href="#m03d196f293" x="315.480531" y="37.523285" style="fill: #3e356b; stroke: #ffffff; stroke-width: 0.75"/>
     <use xlink:href="#m03d196f293" x="332.676217" y="36.34798" style="fill: #3e356b; stroke: #ffffff; stroke-width: 0.75"/>
     <use xlink:href="#m03d196f293" x="349.871902" y="37.515066" style="fill: #3e356b; stroke: #ffffff; stroke-width: 0.75"/>
     <use xlink:href="#m03d196f293" x="367.067588" y="35.554854" style="fill: #3e356b; stroke: #ffffff; stroke-width: 0.75"/>
     <use xlink:href="#m03d196f293" x="384.263274" y="32.972059" style="fill: #3e356b; stroke: #ffffff; stroke-width: 0.75"/>
     <use xlink:href="#m03d196f293" x="401.458959" y="30.999519" style="fill: #3e356b; stroke: #ffffff; stroke-width: 0.75"/>
     <use xlink:href="#m03d196f293" x="418.654645" y="27.742773" style="fill: #3e356b; stroke: #ffffff; stroke-width: 0.75"/>
     <use xlink:href="#m03d196f293" x="435.850331" y="27.977012" style="fill: #3e356b; stroke: #ffffff; stroke-width: 0.75"/>
     <use xlink:href="#m03d196f293" x="453.046016" y="24.114121" style="fill: #3e356b; stroke: #ffffff; stroke-width: 0.75"/>
     <use xlink:href="#m03d196f293" x="470.241702" y="25.499009" style="fill: #3e356b; stroke: #ffffff; stroke-width: 0.75"/>
     <use xlink:href="#m03d196f293" x="487.437388" y="24.114121" style="fill: #3e356b; stroke: #ffffff; stroke-width: 0.75"/>
     <use xlink:href="#m03d196f293" x="504.633073" y="20.48136" style="fill: #3e356b; stroke: #ffffff; stroke-width: 0.75"/>
     <use xlink:href="#m03d196f293" x="521.828759" y="18.101983" style="fill: #3e356b; stroke: #ffffff; stroke-width: 0.75"/>
     <use xlink:href="#m03d196f293" x="539.024445" y="17.536932" style="fill: #3e356b; stroke: #ffffff; stroke-width: 0.75"/>
     <use xlink:href="#m03d196f293" x="556.22013" y="17.411594" style="fill: #3e356b; stroke: #ffffff; stroke-width: 0.75"/>
     <use xlink:href="#m03d196f293" x="573.415816" y="15.451382" style="fill: #3e356b; stroke: #ffffff; stroke-width: 0.75"/>
    </g>
   </g>
   <g id="line2d_24">
    <path d="M 74.740932 177.762674 
L 91.936617 175.802462 
L 109.132303 174.417574 
L 126.327989 172.453253 
L 143.523674 171.064256 
L 160.71936 169.099935 
L 177.915046 167.710938 
L 195.110731 165.750471 
L 212.306417 164.361453 
L 229.502103 162.401517 
L 246.697788 161.01252 
L 263.893474 159.048199 
L 281.08916 157.659202 
L 298.284845 155.698912 
L 315.480531 154.309993 
L 332.676217 152.349781 
L 349.871902 150.956674 
L 367.067588 148.996097 
L 384.263274 147.607466 
L 401.458959 145.647254 
L 418.654645 113.798949 
L 435.850331 111.834627 
L 453.046016 110.44974 
L 470.241702 108.485418 
L 487.437388 107.096421 
L 504.633073 105.1321 
L 521.828759 103.747212 
L 539.024445 101.787001 
L 556.22013 100.398004 
L 573.415816 98.433682 
" clip-path="url(#p11f4792738)" style="fill: none; stroke: #357ba3; stroke-width: 1.5; stroke-linecap: round"/>
    <defs>
     <path id="md871e7891c" d="M -3 3 
L 3 3 
L 3 -3 
L -3 -3 
z
" style="stroke: #ffffff; stroke-width: 0.75; stroke-linejoin: miter"/>
    </defs>
    <g clip-path="url(#p11f4792738)">
     <use xlink:href="#md871e7891c" x="74.740932" y="177.762674" style="fill: #357ba3; stroke: #ffffff; stroke-width: 0.75; stroke-linejoin: miter"/>
     <use xlink:href="#md871e7891c" x="91.936617" y="175.802462" style="fill: #357ba3; stroke: #ffffff; stroke-width: 0.75; stroke-linejoin: miter"/>
     <use xlink:href="#md871e7891c" x="109.132303" y="174.417574" style="fill: #357ba3; stroke: #ffffff; stroke-width: 0.75; stroke-linejoin: miter"/>
     <use xlink:href="#md871e7891c" x="126.327989" y="172.453253" style="fill: #357ba3; stroke: #ffffff; stroke-width: 0.75; stroke-linejoin: miter"/>
     <use xlink:href="#md871e7891c" x="143.523674" y="171.064256" style="fill: #357ba3; stroke: #ffffff; stroke-width: 0.75; stroke-linejoin: miter"/>
     <use xlink:href="#md871e7891c" x="160.71936" y="169.099935" style="fill: #357ba3; stroke: #ffffff; stroke-width: 0.75; stroke-linejoin: miter"/>
     <use xlink:href="#md871e7891c" x="177.915046" y="167.710938" style="fill: #357ba3; stroke: #ffffff; stroke-width: 0.75; stroke-linejoin: miter"/>
     <use xlink:href="#md871e7891c" x="195.110731" y="165.750471" style="fill: #357ba3; stroke: #ffffff; stroke-width: 0.75; stroke-linejoin: miter"/>
     <use xlink:href="#md871e7891c" x="212.306417" y="164.361453" style="fill: #357ba3; stroke: #ffffff; stroke-width: 0.75; stroke-linejoin: miter"/>
     <use xlink:href="#md871e7891c" x="229.502103" y="162.401517" style="fill: #357ba3; stroke: #ffffff; stroke-width: 0.75; stroke-linejoin: miter"/>
     <use xlink:href="#md871e7891c" x="246.697788" y="161.01252" style="fill: #357ba3; stroke: #ffffff; stroke-width: 0.75; stroke-linejoin: miter"/>
     <use xlink:href="#md871e7891c" x="263.893474" y="159.048199" style="fill: #357ba3; stroke: #ffffff; stroke-width: 0.75; stroke-linejoin: miter"/>
     <use xlink:href="#md871e7891c" x="281.08916" y="157.659202" style="fill: #357ba3; stroke: #ffffff; stroke-width: 0.75; stroke-linejoin: miter"/>
     <use xlink:href="#md871e7891c" x="298.284845" y="155.698912" style="fill: #357ba3; stroke: #ffffff; stroke-width: 0.75; stroke-linejoin: miter"/>
     <use xlink:href="#md871e7891c" x="315.480531" y="154.309993" style="fill: #357ba3; stroke: #ffffff; stroke-width: 0.75; stroke-linejoin: miter"/>
     <use xlink:href="#md871e7891c" x="332.676217" y="152.349781" style="fill: #357ba3; stroke: #ffffff; stroke-width: 0.75; stroke-linejoin: miter"/>
     <use xlink:href="#md871e7891c" x="349.871902" y="150.956674" style="fill: #357ba3; stroke: #ffffff; stroke-width: 0.75; stroke-linejoin: miter"/>
     <use xlink:href="#md871e7891c" x="367.067588" y="148.996097" style="fill: #357ba3; stroke: #ffffff; stroke-width: 0.75; stroke-linejoin: miter"/>
     <use xlink:href="#md871e7891c" x="384.263274" y="147.607466" style="fill: #357ba3; stroke: #ffffff; stroke-width: 0.75; stroke-linejoin: miter"/>
     <use xlink:href="#md871e7891c" x="401.458959" y="145.647254" style="fill: #357ba3; stroke: #ffffff; stroke-width: 0.75; stroke-linejoin: miter"/>
     <use xlink:href="#md871e7891c" x="418.654645" y="113.798949" style="fill: #357ba3; stroke: #ffffff; stroke-width: 0.75; stroke-linejoin: miter"/>
     <use xlink:href="#md871e7891c" x="435.850331" y="111.834627" style="fill: #357ba3; stroke: #ffffff; stroke-width: 0.75; stroke-linejoin: miter"/>
     <use xlink:href="#md871e7891c" x="453.046016" y="110.44974" style="fill: #357ba3; stroke: #ffffff; stroke-width: 0.75; stroke-linejoin: miter"/>
     <use xlink:href="#md871e7891c" x="470.241702" y="108.485418" style="fill: #357ba3; stroke: #ffffff; stroke-width: 0.75; stroke-linejoin: miter"/>
     <use xlink:href="#md871e7891c" x="487.437388" y="107.096421" style="fill: #357ba3; stroke: #ffffff; stroke-width: 0.75; stroke-linejoin: miter"/>
     <use xlink:href="#md871e7891c" x="504.633073" y="105.1321" style="fill: #357ba3; stroke: #ffffff; stroke-width: 0.75; stroke-linejoin: miter"/>
     <use xlink:href="#md871e7891c" x="521.828759" y="103.747212" style="fill: #357ba3; stroke: #ffffff; stroke-width: 0.75; stroke-linejoin: miter"/>
     <use xlink:href="#md871e7891c" x="539.024445" y="101.787001" style="fill: #357ba3; stroke: #ffffff; stroke-width: 0.75; stroke-linejoin: miter"/>
     <use xlink:href="#md871e7891c" x="556.22013" y="100.398004" style="fill: #357ba3; stroke: #ffffff; stroke-width: 0.75; stroke-linejoin: miter"/>
     <use xlink:href="#md871e7891c" x="573.415816" y="98.433682" style="fill: #357ba3; stroke: #ffffff; stroke-width: 0.75; stroke-linejoin: miter"/>
    </g>
   </g>
   <g id="line2d_25">
    <path d="M 74.740932 180.380165 
L 91.936617 180.392436 
L 109.132303 180.39244 
L 126.327989 180.392526 
L 143.523674 180.392514 
L 160.71936 180.392538 
L 177.915046 180.392386 
L 195.110731 180.392514 
L 212.306417 180.392386 
L 229.502103 180.392481 
L 246.697788 180.392386 
L 263.893474 180.392386 
L 281.08916 180.392411 
L 298.284845 180.392526 
L 315.480531 180.392411 
L 332.676217 180.392033 
L 349.871902 180.392526 
L 367.067588 180.392538 
L 384.263274 180.392551 
L 401.458959 180.392551 
L 418.654645 180.392481 
L 435.850331 180.392481 
L 453.046016 180.392386 
L 470.241702 180.392436 
L 487.437388 180.392526 
L 504.633073 180.392526 
L 521.828759 180.392481 
L 539.024445 180.392436 
L 556.22013 180.392538 
L 573.415816 180.392514 
" clip-path="url(#p11f4792738)" style="fill: none; stroke: #4bc2ad; stroke-width: 1.5; stroke-linecap: round"/>
    <defs>
     <path id="m2c37036876" d="M -0 3 
L 3 -3 
L -3 -3 
z
" style="stroke: #ffffff; stroke-width: 0.75; stroke-linejoin: miter"/>
    </defs>
    <g clip-path="url(#p11f4792738)">
     <use xlink:href="#m2c37036876" x="74.740932" y="180.380165" style="fill: #4bc2ad; stroke: #ffffff; stroke-width: 0.75; stroke-linejoin: miter"/>
     <use xlink:href="#m2c37036876" x="91.936617" y="180.392436" style="fill: #4bc2ad; stroke: #ffffff; stroke-width: 0.75; stroke-linejoin: miter"/>
     <use xlink:href="#m2c37036876" x="109.132303" y="180.39244" style="fill: #4bc2ad; stroke: #ffffff; stroke-width: 0.75; stroke-linejoin: miter"/>
     <use xlink:href="#m2c37036876" x="126.327989" y="180.392526" style="fill: #4bc2ad; stroke: #ffffff; stroke-width: 0.75; stroke-linejoin: miter"/>
     <use xlink:href="#m2c37036876" x="143.523674" y="180.392514" style="fill: #4bc2ad; stroke: #ffffff; stroke-width: 0.75; stroke-linejoin: miter"/>
     <use xlink:href="#m2c37036876" x="160.71936" y="180.392538" style="fill: #4bc2ad; stroke: #ffffff; stroke-width: 0.75; stroke-linejoin: miter"/>
     <use xlink:href="#m2c37036876" x="177.915046" y="180.392386" style="fill: #4bc2ad; stroke: #ffffff; stroke-width: 0.75; stroke-linejoin: miter"/>
     <use xlink:href="#m2c37036876" x="195.110731" y="180.392514" style="fill: #4bc2ad; stroke: #ffffff; stroke-width: 0.75; stroke-linejoin: miter"/>
     <use xlink:href="#m2c37036876" x="212.306417" y="180.392386" style="fill: #4bc2ad; stroke: #ffffff; stroke-width: 0.75; stroke-linejoin: miter"/>
     <use xlink:href="#m2c37036876" x="229.502103" y="180.392481" style="fill: #4bc2ad; stroke: #ffffff; stroke-width: 0.75; stroke-linejoin: miter"/>
     <use xlink:href="#m2c37036876" x="246.697788" y="180.392386" style="fill: #4bc2ad; stroke: #ffffff; stroke-width: 0.75; stroke-linejoin: miter"/>
     <use xlink:href="#m2c37036876" x="263.893474" y="180.392386" style="fill: #4bc2ad; stroke: #ffffff; stroke-width: 0.75; stroke-linejoin: miter"/>
     <use xlink:href="#m2c37036876" x="281.08916" y="180.392411" style="fill: #4bc2ad; stroke: #ffffff; stroke-width: 0.75; stroke-linejoin: miter"/>
     <use xlink:href="#m2c37036876" x="298.284845" y="180.392526" style="fill: #4bc2ad; stroke: #ffffff; stroke-width: 0.75; stroke-linejoin: miter"/>
     <use xlink:href="#m2c37036876" x="315.480531" y="180.392411" style="fill: #4bc2ad; stroke: #ffffff; stroke-width: 0.75; stroke-linejoin: miter"/>
     <use xlink:href="#m2c37036876" x="332.676217" y="180.392033" style="fill: #4bc2ad; stroke: #ffffff; stroke-width: 0.75; stroke-linejoin: miter"/>
     <use xlink:href="#m2c37036876" x="349.871902" y="180.392526" style="fill: #4bc2ad; stroke: #ffffff; stroke-width: 0.75; stroke-linejoin: miter"/>
     <use xlink:href="#m2c37036876" x="367.067588" y="180.392538" style="fill: #4bc2ad; stroke: #ffffff; stroke-width: 0.75; stroke-linejoin: miter"/>
     <use xlink:href="#m2c37036876" x="384.263274" y="180.392551" style="fill: #4bc2ad; stroke: #ffffff; stroke-width: 0.75; stroke-linejoin: miter"/>
     <use xlink:href="#m2c37036876" x="401.458959" y="180.392551" style="fill: #4bc2ad; stroke: #ffffff; stroke-width: 0.75; stroke-linejoin: miter"/>
     <use xlink:href="#m2c37036876" x="418.654645" y="180.392481" style="fill: #4bc2ad; stroke: #ffffff; stroke-width: 0.75; stroke-linejoin: miter"/>
     <use xlink:href="#m2c37036876" x="435.850331" y="180.392481" style="fill: #4bc2ad; stroke: #ffffff; stroke-width: 0.75; stroke-linejoin: miter"/>
     <use xlink:href="#m2c37036876" x="453.046016" y="180.392386" style="fill: #4bc2ad; stroke: #ffffff; stroke-width: 0.75; stroke-linejoin: miter"/>
     <use xlink:href="#m2c37036876" x="470.241702" y="180.392436" style="fill: #4bc2ad; stroke: #ffffff; stroke-width: 0.75; stroke-linejoin: miter"/>
     <use xlink:href="#m2c37036876" x="487.437388" y="180.392526" style="fill: #4bc2ad; stroke: #ffffff; stroke-width: 0.75; stroke-linejoin: miter"/>
     <use xlink:href="#m2c37036876" x="504.633073" y="180.392526" style="fill: #4bc2ad; stroke: #ffffff; stroke-width: 0.75; stroke-linejoin: miter"/>
     <use xlink:href="#m2c37036876" x="521.828759" y="180.392481" style="fill: #4bc2ad; stroke: #ffffff; stroke-width: 0.75; stroke-linejoin: miter"/>
     <use xlink:href="#m2c37036876" x="539.024445" y="180.392436" style="fill: #4bc2ad; stroke: #ffffff; stroke-width: 0.75; stroke-linejoin: miter"/>
     <use xlink:href="#m2c37036876" x="556.22013" y="180.392538" style="fill: #4bc2ad; stroke: #ffffff; stroke-width: 0.75; stroke-linejoin: miter"/>
     <use xlink:href="#m2c37036876" x="573.415816" y="180.392514" style="fill: #4bc2ad; stroke: #ffffff; stroke-width: 0.75; stroke-linejoin: miter"/>
    </g>
   </g>
   <g id="patch_3">
    <path d="M 49.807188 188.64 
L 49.807188 7.2 
" style="fill: none; stroke: #ffffff; stroke-width: 1.25; stroke-linejoin: miter; stroke-linecap: square"/>
   </g>
   <g id="patch_4">
    <path d="M 607.807188 188.64 
L 607.807188 7.2 
" style="fill: none; stroke: #ffffff; stroke-width: 1.25; stroke-linejoin: miter; stroke-linecap: square"/>
   </g>
   <g id="patch_5">
    <path d="M 49.807187 188.64 
L 607.807188 188.64 
" style="fill: none; stroke: #ffffff; stroke-width: 1.25; stroke-linejoin: miter; stroke-linecap: square"/>
   </g>
   <g id="patch_6">
    <path d="M 49.807187 7.2 
L 607.807188 7.2 
" style="fill: none; stroke: #ffffff; stroke-width: 1.25; stroke-linejoin: miter; stroke-linecap: square"/>
   </g>
   <g id="legend_1">
    <g id="patch_7">
     <path d="M 57.507188 64.437812 
L 154.649219 64.437812 
Q 156.849219 64.437812 156.849219 62.237812 
L 156.849219 14.9 
Q 156.849219 12.7 154.649219 12.7 
L 57.507188 12.7 
Q 55.307188 12.7 55.307188 14.9 
L 55.307188 62.237812 
Q 55.307188 64.437812 57.507188 64.437812 
z
" style="fill: #eaeaf2; opacity: 0.8; stroke: #cccccc; stroke-linejoin: miter"/>
    </g>
    <g id="line2d_26">
     <path d="M 59.707188 21.608281 
L 70.707188 21.608281 
L 81.707188 21.608281 
" style="fill: none; stroke: #3e356b; stroke-width: 1.5; stroke-linecap: round"/>
     <g>
      <use xlink:href="#m03d196f293" x="70.707188" y="21.608281" style="fill: #3e356b; stroke: #ffffff; stroke-width: 0.75"/>
     </g>
    </g>
    <g id="text_24">
     <!-- Worst Case -->
     <g style="fill: #262626" transform="translate(90.507188 25.458281) scale(0.11 -0.11)">
      <defs>
       <path id="DejaVuSans-57" d="M 213 4666 
L 850 4666 
L 1831 722 
L 2809 4666 
L 3519 4666 
L 4500 722 
L 5478 4666 
L 6119 4666 
L 4947 0 
L 4153 0 
L 3169 4050 
L 2175 0 
L 1381 0 
L 213 4666 
z
" transform="scale(0.015625)"/>
       <path id="DejaVuSans-6f" d="M 1959 3097 
Q 1497 3097 1228 2736 
Q 959 2375 959 1747 
Q 959 1119 1226 758 
Q 1494 397 1959 397 
Q 2419 397 2687 759 
Q 2956 1122 2956 1747 
Q 2956 2369 2687 2733 
Q 2419 3097 1959 3097 
z
M 1959 3584 
Q 2709 3584 3137 3096 
Q 3566 2609 3566 1747 
Q 3566 888 3137 398 
Q 2709 -91 1959 -91 
Q 1206 -91 779 398 
Q 353 888 353 1747 
Q 353 2609 779 3096 
Q 1206 3584 1959 3584 
z
" transform="scale(0.015625)"/>
       <path id="DejaVuSans-72" d="M 2631 2963 
Q 2534 3019 2420 3045 
Q 2306 3072 2169 3072 
Q 1681 3072 1420 2755 
Q 1159 2438 1159 1844 
L 1159 0 
L 581 0 
L 581 3500 
L 1159 3500 
L 1159 2956 
Q 1341 3275 1631 3429 
Q 1922 3584 2338 3584 
Q 2397 3584 2469 3576 
Q 2541 3569 2628 3553 
L 2631 2963 
z
" transform="scale(0.015625)"/>
       <path id="DejaVuSans-43" d="M 4122 4306 
L 4122 3641 
Q 3803 3938 3442 4084 
Q 3081 4231 2675 4231 
Q 1875 4231 1450 3742 
Q 1025 3253 1025 2328 
Q 1025 1406 1450 917 
Q 1875 428 2675 428 
Q 3081 428 3442 575 
Q 3803 722 4122 1019 
L 4122 359 
Q 3791 134 3420 21 
Q 3050 -91 2638 -91 
Q 1578 -91 968 557 
Q 359 1206 359 2328 
Q 359 3453 968 4101 
Q 1578 4750 2638 4750 
Q 3056 4750 3426 4639 
Q 3797 4528 4122 4306 
z
" transform="scale(0.015625)"/>
      </defs>
      <use xlink:href="#DejaVuSans-57"/>
      <use xlink:href="#DejaVuSans-6f" x="93.001953"/>
      <use xlink:href="#DejaVuSans-72" x="154.183594"/>
      <use xlink:href="#DejaVuSans-73" x="195.296875"/>
      <use xlink:href="#DejaVuSans-74" x="247.396484"/>
      <use xlink:href="#DejaVuSans-20" x="286.605469"/>
      <use xlink:href="#DejaVuSans-43" x="318.392578"/>
      <use xlink:href="#DejaVuSans-61" x="388.216797"/>
      <use xlink:href="#DejaVuSans-73" x="449.496094"/>
      <use xlink:href="#DejaVuSans-65" x="501.595703"/>
     </g>
    </g>
    <g id="line2d_27">
     <path d="M 59.707188 37.754219 
L 70.707188 37.754219 
L 81.707188 37.754219 
" style="fill: none; stroke: #357ba3; stroke-width: 1.5; stroke-linecap: round"/>
     <g>
      <use xlink:href="#md871e7891c" x="70.707188" y="37.754219" style="fill: #357ba3; stroke: #ffffff; stroke-width: 0.75; stroke-linejoin: miter"/>
     </g>
    </g>
    <g id="text_25">
     <!-- Hybrid -->
     <g style="fill: #262626" transform="translate(90.507188 41.604219) scale(0.11 -0.11)">
      <defs>
       <path id="DejaVuSans-48" d="M 628 4666 
L 1259 4666 
L 1259 2753 
L 3553 2753 
L 3553 4666 
L 4184 4666 
L 4184 0 
L 3553 0 
L 3553 2222 
L 1259 2222 
L 1259 0 
L 628 0 
L 628 4666 
z
" transform="scale(0.015625)"/>
       <path id="DejaVuSans-62" d="M 3116 1747 
Q 3116 2381 2855 2742 
Q 2594 3103 2138 3103 
Q 1681 3103 1420 2742 
Q 1159 2381 1159 1747 
Q 1159 1113 1420 752 
Q 1681 391 2138 391 
Q 2594 391 2855 752 
Q 3116 1113 3116 1747 
z
M 1159 2969 
Q 1341 3281 1617 3432 
Q 1894 3584 2278 3584 
Q 2916 3584 3314 3078 
Q 3713 2572 3713 1747 
Q 3713 922 3314 415 
Q 2916 -91 2278 -91 
Q 1894 -91 1617 61 
Q 1341 213 1159 525 
L 1159 0 
L 581 0 
L 581 4863 
L 1159 4863 
L 1159 2969 
z
" transform="scale(0.015625)"/>
       <path id="DejaVuSans-69" d="M 603 3500 
L 1178 3500 
L 1178 0 
L 603 0 
L 603 3500 
z
M 603 4863 
L 1178 4863 
L 1178 4134 
L 603 4134 
L 603 4863 
z
" transform="scale(0.015625)"/>
       <path id="DejaVuSans-64" d="M 2906 2969 
L 2906 4863 
L 3481 4863 
L 3481 0 
L 2906 0 
L 2906 525 
Q 2725 213 2448 61 
Q 2172 -91 1784 -91 
Q 1150 -91 751 415 
Q 353 922 353 1747 
Q 353 2572 751 3078 
Q 1150 3584 1784 3584 
Q 2172 3584 2448 3432 
Q 2725 3281 2906 2969 
z
M 947 1747 
Q 947 1113 1208 752 
Q 1469 391 1925 391 
Q 2381 391 2643 752 
Q 2906 1113 2906 1747 
Q 2906 2381 2643 2742 
Q 2381 3103 1925 3103 
Q 1469 3103 1208 2742 
Q 947 2381 947 1747 
z
" transform="scale(0.015625)"/>
      </defs>
      <use xlink:href="#DejaVuSans-48"/>
      <use xlink:href="#DejaVuSans-79" x="75.195312"/>
      <use xlink:href="#DejaVuSans-62" x="134.375"/>
      <use xlink:href="#DejaVuSans-72" x="197.851562"/>
      <use xlink:href="#DejaVuSans-69" x="238.964844"/>
      <use xlink:href="#DejaVuSans-64" x="266.748047"/>
     </g>
    </g>
    <g id="line2d_28">
     <path d="M 59.707188 53.900156 
L 70.707188 53.900156 
L 81.707188 53.900156 
" style="fill: none; stroke: #4bc2ad; stroke-width: 1.5; stroke-linecap: round"/>
     <g>
      <use xlink:href="#m2c37036876" x="70.707188" y="53.900156" style="fill: #4bc2ad; stroke: #ffffff; stroke-width: 0.75; stroke-linejoin: miter"/>
     </g>
    </g>
    <g id="text_26">
     <!-- Best Case -->
     <g style="fill: #262626" transform="translate(90.507188 57.750156) scale(0.11 -0.11)">
      <defs>
       <path id="DejaVuSans-42" d="M 1259 2228 
L 1259 519 
L 2272 519 
Q 2781 519 3026 730 
Q 3272 941 3272 1375 
Q 3272 1813 3026 2020 
Q 2781 2228 2272 2228 
L 1259 2228 
z
M 1259 4147 
L 1259 2741 
L 2194 2741 
Q 2656 2741 2882 2914 
Q 3109 3088 3109 3444 
Q 3109 3797 2882 3972 
Q 2656 4147 2194 4147 
L 1259 4147 
z
M 628 4666 
L 2241 4666 
Q 2963 4666 3353 4366 
Q 3744 4066 3744 3513 
Q 3744 3084 3544 2831 
Q 3344 2578 2956 2516 
Q 3422 2416 3680 2098 
Q 3938 1781 3938 1306 
Q 3938 681 3513 340 
Q 3088 0 2303 0 
L 628 0 
L 628 4666 
z
" transform="scale(0.015625)"/>
      </defs>
      <use xlink:href="#DejaVuSans-42"/>
      <use xlink:href="#DejaVuSans-65" x="68.603516"/>
      <use xlink:href="#DejaVuSans-73" x="130.126953"/>
      <use xlink:href="#DejaVuSans-74" x="182.226562"/>
      <use xlink:href="#DejaVuSans-20" x="221.435547"/>
      <use xlink:href="#DejaVuSans-43" x="253.222656"/>
      <use xlink:href="#DejaVuSans-61" x="323.046875"/>
      <use xlink:href="#DejaVuSans-73" x="384.326172"/>
      <use xlink:href="#DejaVuSans-65" x="436.425781"/>
     </g>
    </g>
   </g>
  </g>
  <g id="axes_2">
   <g id="patch_8">
    <path d="M 49.807188 339.84 
L 607.807188 339.84 
L 607.807188 218.88 
L 49.807188 218.88 
z
" style="fill: #eaeaf2"/>
   </g>
   <g id="matplotlib.axis_3">
    <g id="xtick_33">
     <g id="line2d_29">
      <path d="M 74.740932 339.84 
L 74.740932 218.88 
" clip-path="url(#p1003bbff4c)" style="fill: none; stroke: #ffffff; stroke-linecap: round"/>
     </g>
     <g id="text_27">
      <!-- 0 -->
      <g style="fill: #262626" transform="translate(71.241557 357.698281) scale(0.11 -0.11)">
       <use xlink:href="#DejaVuSans-30"/>
      </g>
     </g>
    </g>
    <g id="xtick_34">
     <g id="line2d_30">
      <path d="M 109.132303 339.84 
L 109.132303 218.88 
" clip-path="url(#p1003bbff4c)" style="fill: none; stroke: #ffffff; stroke-linecap: round"/>
     </g>
     <g id="text_28">
      <!-- 64 -->
      <g style="fill: #262626" transform="translate(102.133553 357.698281) scale(0.11 -0.11)">
       <use xlink:href="#DejaVuSans-36"/>
       <use xlink:href="#DejaVuSans-34" x="63.623047"/>
      </g>
     </g>
    </g>
    <g id="xtick_35">
     <g id="line2d_31">
      <path d="M 143.523674 339.84 
L 143.523674 218.88 
" clip-path="url(#p1003bbff4c)" style="fill: none; stroke: #ffffff; stroke-linecap: round"/>
     </g>
     <g id="text_29">
      <!-- 128 -->
      <g style="fill: #262626" transform="translate(133.025549 357.698281) scale(0.11 -0.11)">
       <use xlink:href="#DejaVuSans-31"/>
       <use xlink:href="#DejaVuSans-32" x="63.623047"/>
       <use xlink:href="#DejaVuSans-38" x="127.246094"/>
      </g>
     </g>
    </g>
    <g id="xtick_36">
     <g id="line2d_32">
      <path d="M 177.915046 339.84 
L 177.915046 218.88 
" clip-path="url(#p1003bbff4c)" style="fill: none; stroke: #ffffff; stroke-linecap: round"/>
     </g>
     <g id="text_30">
      <!-- 192 -->
      <g style="fill: #262626" transform="translate(167.416921 357.698281) scale(0.11 -0.11)">
       <use xlink:href="#DejaVuSans-31"/>
       <use xlink:href="#DejaVuSans-39" x="63.623047"/>
       <use xlink:href="#DejaVuSans-32" x="127.246094"/>
      </g>
     </g>
    </g>
    <g id="xtick_37">
     <g id="line2d_33">
      <path d="M 212.306417 339.84 
L 212.306417 218.88 
" clip-path="url(#p1003bbff4c)" style="fill: none; stroke: #ffffff; stroke-linecap: round"/>
     </g>
     <g id="text_31">
      <!-- 256 -->
      <g style="fill: #262626" transform="translate(201.808292 357.698281) scale(0.11 -0.11)">
       <use xlink:href="#DejaVuSans-32"/>
       <use xlink:href="#DejaVuSans-35" x="63.623047"/>
       <use xlink:href="#DejaVuSans-36" x="127.246094"/>
      </g>
     </g>
    </g>
    <g id="xtick_38">
     <g id="line2d_34">
      <path d="M 246.697788 339.84 
L 246.697788 218.88 
" clip-path="url(#p1003bbff4c)" style="fill: none; stroke: #ffffff; stroke-linecap: round"/>
     </g>
     <g id="text_32">
      <!-- 320 -->
      <g style="fill: #262626" transform="translate(236.199663 357.698281) scale(0.11 -0.11)">
       <use xlink:href="#DejaVuSans-33"/>
       <use xlink:href="#DejaVuSans-32" x="63.623047"/>
       <use xlink:href="#DejaVuSans-30" x="127.246094"/>
      </g>
     </g>
    </g>
    <g id="xtick_39">
     <g id="line2d_35">
      <path d="M 281.08916 339.84 
L 281.08916 218.88 
" clip-path="url(#p1003bbff4c)" style="fill: none; stroke: #ffffff; stroke-linecap: round"/>
     </g>
     <g id="text_33">
      <!-- 384 -->
      <g style="fill: #262626" transform="translate(270.591035 357.698281) scale(0.11 -0.11)">
       <use xlink:href="#DejaVuSans-33"/>
       <use xlink:href="#DejaVuSans-38" x="63.623047"/>
       <use xlink:href="#DejaVuSans-34" x="127.246094"/>
      </g>
     </g>
    </g>
    <g id="xtick_40">
     <g id="line2d_36">
      <path d="M 315.480531 339.84 
L 315.480531 218.88 
" clip-path="url(#p1003bbff4c)" style="fill: none; stroke: #ffffff; stroke-linecap: round"/>
     </g>
     <g id="text_34">
      <!-- 448 -->
      <g style="fill: #262626" transform="translate(304.982406 357.698281) scale(0.11 -0.11)">
       <use xlink:href="#DejaVuSans-34"/>
       <use xlink:href="#DejaVuSans-34" x="63.623047"/>
       <use xlink:href="#DejaVuSans-38" x="127.246094"/>
      </g>
     </g>
    </g>
    <g id="xtick_41">
     <g id="line2d_37">
      <path d="M 349.871902 339.84 
L 349.871902 218.88 
" clip-path="url(#p1003bbff4c)" style="fill: none; stroke: #ffffff; stroke-linecap: round"/>
     </g>
     <g id="text_35">
      <!-- 512 -->
      <g style="fill: #262626" transform="translate(339.373777 357.698281) scale(0.11 -0.11)">
       <use xlink:href="#DejaVuSans-35"/>
       <use xlink:href="#DejaVuSans-31" x="63.623047"/>
       <use xlink:href="#DejaVuSans-32" x="127.246094"/>
      </g>
     </g>
    </g>
    <g id="xtick_42">
     <g id="line2d_38">
      <path d="M 384.263274 339.84 
L 384.263274 218.88 
" clip-path="url(#p1003bbff4c)" style="fill: none; stroke: #ffffff; stroke-linecap: round"/>
     </g>
     <g id="text_36">
      <!-- 576 -->
      <g style="fill: #262626" transform="translate(373.765149 357.698281) scale(0.11 -0.11)">
       <use xlink:href="#DejaVuSans-35"/>
       <use xlink:href="#DejaVuSans-37" x="63.623047"/>
       <use xlink:href="#DejaVuSans-36" x="127.246094"/>
      </g>
     </g>
    </g>
    <g id="xtick_43">
     <g id="line2d_39">
      <path d="M 418.654645 339.84 
L 418.654645 218.88 
" clip-path="url(#p1003bbff4c)" style="fill: none; stroke: #ffffff; stroke-linecap: round"/>
     </g>
     <g id="text_37">
      <!-- 640 -->
      <g style="fill: #262626" transform="translate(408.15652 357.698281) scale(0.11 -0.11)">
       <use xlink:href="#DejaVuSans-36"/>
       <use xlink:href="#DejaVuSans-34" x="63.623047"/>
       <use xlink:href="#DejaVuSans-30" x="127.246094"/>
      </g>
     </g>
    </g>
    <g id="xtick_44">
     <g id="line2d_40">
      <path d="M 453.046016 339.84 
L 453.046016 218.88 
" clip-path="url(#p1003bbff4c)" style="fill: none; stroke: #ffffff; stroke-linecap: round"/>
     </g>
     <g id="text_38">
      <!-- 704 -->
      <g style="fill: #262626" transform="translate(442.547891 357.698281) scale(0.11 -0.11)">
       <use xlink:href="#DejaVuSans-37"/>
       <use xlink:href="#DejaVuSans-30" x="63.623047"/>
       <use xlink:href="#DejaVuSans-34" x="127.246094"/>
      </g>
     </g>
    </g>
    <g id="xtick_45">
     <g id="line2d_41">
      <path d="M 487.437388 339.84 
L 487.437388 218.88 
" clip-path="url(#p1003bbff4c)" style="fill: none; stroke: #ffffff; stroke-linecap: round"/>
     </g>
     <g id="text_39">
      <!-- 768 -->
      <g style="fill: #262626" transform="translate(476.939263 357.698281) scale(0.11 -0.11)">
       <use xlink:href="#DejaVuSans-37"/>
       <use xlink:href="#DejaVuSans-36" x="63.623047"/>
       <use xlink:href="#DejaVuSans-38" x="127.246094"/>
      </g>
     </g>
    </g>
    <g id="xtick_46">
     <g id="line2d_42">
      <path d="M 521.828759 339.84 
L 521.828759 218.88 
" clip-path="url(#p1003bbff4c)" style="fill: none; stroke: #ffffff; stroke-linecap: round"/>
     </g>
     <g id="text_40">
      <!-- 832 -->
      <g style="fill: #262626" transform="translate(511.330634 357.698281) scale(0.11 -0.11)">
       <use xlink:href="#DejaVuSans-38"/>
       <use xlink:href="#DejaVuSans-33" x="63.623047"/>
       <use xlink:href="#DejaVuSans-32" x="127.246094"/>
      </g>
     </g>
    </g>
    <g id="xtick_47">
     <g id="line2d_43">
      <path d="M 556.22013 339.84 
L 556.22013 218.88 
" clip-path="url(#p1003bbff4c)" style="fill: none; stroke: #ffffff; stroke-linecap: round"/>
     </g>
     <g id="text_41">
      <!-- 896 -->
      <g style="fill: #262626" transform="translate(545.722005 357.698281) scale(0.11 -0.11)">
       <use xlink:href="#DejaVuSans-38"/>
       <use xlink:href="#DejaVuSans-39" x="63.623047"/>
       <use xlink:href="#DejaVuSans-36" x="127.246094"/>
      </g>
     </g>
    </g>
    <g id="xtick_48">
     <g id="line2d_44">
      <path d="M 590.611502 339.84 
L 590.611502 218.88 
" clip-path="url(#p1003bbff4c)" style="fill: none; stroke: #ffffff; stroke-linecap: round"/>
     </g>
     <g id="text_42">
      <!-- 960 -->
      <g style="fill: #262626" transform="translate(580.113377 357.698281) scale(0.11 -0.11)">
       <use xlink:href="#DejaVuSans-39"/>
       <use xlink:href="#DejaVuSans-36" x="63.623047"/>
       <use xlink:href="#DejaVuSans-30" x="127.246094"/>
      </g>
     </g>
    </g>
    <g id="xtick_49"/>
    <g id="xtick_50"/>
    <g id="xtick_51"/>
    <g id="xtick_52"/>
    <g id="xtick_53"/>
    <g id="xtick_54"/>
    <g id="xtick_55"/>
    <g id="xtick_56"/>
    <g id="xtick_57"/>
    <g id="xtick_58"/>
    <g id="xtick_59"/>
    <g id="xtick_60"/>
    <g id="xtick_61"/>
    <g id="xtick_62"/>
    <g id="xtick_63"/>
    <g id="xtick_64"/>
    <g id="text_43">
     <!-- Object Size [Bytes] -->
     <g style="fill: #262626" transform="translate(271.615 373.104062) scale(0.12 -0.12)">
      <defs>
       <path id="DejaVuSans-4f" d="M 2522 4238 
Q 1834 4238 1429 3725 
Q 1025 3213 1025 2328 
Q 1025 1447 1429 934 
Q 1834 422 2522 422 
Q 3209 422 3611 934 
Q 4013 1447 4013 2328 
Q 4013 3213 3611 3725 
Q 3209 4238 2522 4238 
z
M 2522 4750 
Q 3503 4750 4090 4092 
Q 4678 3434 4678 2328 
Q 4678 1225 4090 567 
Q 3503 -91 2522 -91 
Q 1538 -91 948 565 
Q 359 1222 359 2328 
Q 359 3434 948 4092 
Q 1538 4750 2522 4750 
z
" transform="scale(0.015625)"/>
       <path id="DejaVuSans-6a" d="M 603 3500 
L 1178 3500 
L 1178 -63 
Q 1178 -731 923 -1031 
Q 669 -1331 103 -1331 
L -116 -1331 
L -116 -844 
L 38 -844 
Q 366 -844 484 -692 
Q 603 -541 603 -63 
L 603 3500 
z
M 603 4863 
L 1178 4863 
L 1178 4134 
L 603 4134 
L 603 4863 
z
" transform="scale(0.015625)"/>
       <path id="DejaVuSans-53" d="M 3425 4513 
L 3425 3897 
Q 3066 4069 2747 4153 
Q 2428 4238 2131 4238 
Q 1616 4238 1336 4038 
Q 1056 3838 1056 3469 
Q 1056 3159 1242 3001 
Q 1428 2844 1947 2747 
L 2328 2669 
Q 3034 2534 3370 2195 
Q 3706 1856 3706 1288 
Q 3706 609 3251 259 
Q 2797 -91 1919 -91 
Q 1588 -91 1214 -16 
Q 841 59 441 206 
L 441 856 
Q 825 641 1194 531 
Q 1563 422 1919 422 
Q 2459 422 2753 634 
Q 3047 847 3047 1241 
Q 3047 1584 2836 1778 
Q 2625 1972 2144 2069 
L 1759 2144 
Q 1053 2284 737 2584 
Q 422 2884 422 3419 
Q 422 4038 858 4394 
Q 1294 4750 2059 4750 
Q 2388 4750 2728 4690 
Q 3069 4631 3425 4513 
z
" transform="scale(0.015625)"/>
       <path id="DejaVuSans-7a" d="M 353 3500 
L 3084 3500 
L 3084 2975 
L 922 459 
L 3084 459 
L 3084 0 
L 275 0 
L 275 525 
L 2438 3041 
L 353 3041 
L 353 3500 
z
" transform="scale(0.015625)"/>
      </defs>
      <use xlink:href="#DejaVuSans-4f"/>
      <use xlink:href="#DejaVuSans-62" x="78.710938"/>
      <use xlink:href="#DejaVuSans-6a" x="142.1875"/>
      <use xlink:href="#DejaVuSans-65" x="169.970703"/>
      <use xlink:href="#DejaVuSans-63" x="231.494141"/>
      <use xlink:href="#DejaVuSans-74" x="286.474609"/>
      <use xlink:href="#DejaVuSans-20" x="325.683594"/>
      <use xlink:href="#DejaVuSans-53" x="357.470703"/>
      <use xlink:href="#DejaVuSans-69" x="420.947266"/>
      <use xlink:href="#DejaVuSans-7a" x="448.730469"/>
      <use xlink:href="#DejaVuSans-65" x="501.220703"/>
      <use xlink:href="#DejaVuSans-20" x="562.744141"/>
      <use xlink:href="#DejaVuSans-5b" x="594.53125"/>
      <use xlink:href="#DejaVuSans-42" x="633.544922"/>
      <use xlink:href="#DejaVuSans-79" x="702.148438"/>
      <use xlink:href="#DejaVuSans-74" x="761.328125"/>
      <use xlink:href="#DejaVuSans-65" x="800.537109"/>
      <use xlink:href="#DejaVuSans-73" x="862.060547"/>
      <use xlink:href="#DejaVuSans-5d" x="914.160156"/>
     </g>
    </g>
   </g>
   <g id="matplotlib.axis_4">
    <g id="ytick_7">
     <g id="line2d_45">
      <path d="M 49.807188 325.609412 
L 607.807188 325.609412 
" clip-path="url(#p1003bbff4c)" style="fill: none; stroke: #ffffff; stroke-linecap: round"/>
     </g>
     <g id="text_44">
      <!-- 0 -->
      <g style="fill: #262626" transform="translate(33.308438 329.788552) scale(0.11 -0.11)">
       <use xlink:href="#DejaVuSans-30"/>
      </g>
     </g>
    </g>
    <g id="ytick_8">
     <g id="line2d_46">
      <path d="M 49.807188 290.032941 
L 607.807188 290.032941 
" clip-path="url(#p1003bbff4c)" style="fill: none; stroke: #ffffff; stroke-linecap: round"/>
     </g>
     <g id="text_45">
      <!-- 5 -->
      <g style="fill: #262626" transform="translate(33.308438 294.212082) scale(0.11 -0.11)">
       <use xlink:href="#DejaVuSans-35"/>
      </g>
     </g>
    </g>
    <g id="ytick_9">
     <g id="line2d_47">
      <path d="M 49.807188 254.456471 
L 607.807188 254.456471 
" clip-path="url(#p1003bbff4c)" style="fill: none; stroke: #ffffff; stroke-linecap: round"/>
     </g>
     <g id="text_46">
      <!-- 10 -->
      <g style="fill: #262626" transform="translate(26.309688 258.635611) scale(0.11 -0.11)">
       <use xlink:href="#DejaVuSans-31"/>
       <use xlink:href="#DejaVuSans-30" x="63.623047"/>
      </g>
     </g>
    </g>
    <g id="ytick_10">
     <g id="line2d_48">
      <path d="M 49.807188 218.88 
L 607.807188 218.88 
" clip-path="url(#p1003bbff4c)" style="fill: none; stroke: #ffffff; stroke-linecap: round"/>
     </g>
     <g id="text_47">
      <!-- 15 -->
      <g style="fill: #262626" transform="translate(26.309688 223.059141) scale(0.11 -0.11)">
       <use xlink:href="#DejaVuSans-31"/>
       <use xlink:href="#DejaVuSans-35" x="63.623047"/>
      </g>
     </g>
    </g>
    <g id="text_48">
     <!-- Latency [s] -->
     <g style="fill: #262626" transform="translate(19.814062 316.60875) rotate(-90) scale(0.12 -0.12)">
      <defs>
       <path id="DejaVuSans-b5" d="M 544 -1331 
L 544 3500 
L 1119 3500 
L 1119 1325 
Q 1119 872 1334 640 
Q 1550 409 1972 409 
Q 2434 409 2667 671 
Q 2900 934 2900 1459 
L 2900 3500 
L 3475 3500 
L 3475 806 
Q 3475 619 3529 530 
Q 3584 441 3700 441 
Q 3728 441 3778 458 
Q 3828 475 3916 513 
L 3916 50 
Q 3788 -22 3673 -56 
Q 3559 -91 3450 -91 
Q 3234 -91 3106 31 
Q 2978 153 2931 403 
Q 2775 156 2548 32 
Q 2322 -91 2016 -91 
Q 1697 -91 1473 31 
Q 1250 153 1119 397 
L 1119 -1331 
L 544 -1331 
z
" transform="scale(0.015625)"/>
      </defs>
      <use xlink:href="#DejaVuSans-4c"/>
      <use xlink:href="#DejaVuSans-61" x="55.712891"/>
      <use xlink:href="#DejaVuSans-74" x="116.992188"/>
      <use xlink:href="#DejaVuSans-65" x="156.201172"/>
      <use xlink:href="#DejaVuSans-6e" x="217.724609"/>
      <use xlink:href="#DejaVuSans-63" x="281.103516"/>
      <use xlink:href="#DejaVuSans-79" x="336.083984"/>
      <use xlink:href="#DejaVuSans-20" x="395.263672"/>
      <use xlink:href="#DejaVuSans-5b" x="427.050781"/>
      <use xlink:href="#DejaVuSans-b5" x="466.064453"/>
      <use xlink:href="#DejaVuSans-73" x="529.6875"/>
      <use xlink:href="#DejaVuSans-5d" x="581.787109"/>
     </g>
    </g>
   </g>
   <g id="PolyCollection_7"/>
   <g id="PolyCollection_8">
    <defs>
     <path id="m8e8292d2b3" d="M 74.740932 -94.100864 
L 74.740932 -68.752629 
L 91.936617 -67.418511 
L 109.132303 -67.418511 
L 126.327989 -67.418511 
L 143.523674 -67.418511 
L 160.71936 -67.418511 
L 177.915046 -67.418511 
L 195.110731 -67.418511 
L 212.306417 -67.418511 
L 229.502103 -67.418511 
L 246.697788 -67.418511 
L 263.893474 -67.418511 
L 281.08916 -67.418511 
L 298.284845 -67.418511 
L 315.480531 -67.418511 
L 332.676217 -67.418511 
L 349.871902 -67.418511 
L 367.067588 -67.418511 
L 384.263274 -67.418511 
L 401.458959 -67.418511 
L 418.654645 -67.418511 
L 435.850331 -67.418511 
L 453.046016 -67.418511 
L 470.241702 -67.418511 
L 487.437388 -67.418511 
L 504.633073 -67.418511 
L 521.828759 -67.418511 
L 539.024445 -67.418511 
L 556.22013 -67.418511 
L 573.415816 -67.418511 
L 573.415816 -90.543217 
L 573.415816 -90.543217 
L 556.22013 -87.874982 
L 539.024445 -98.992629 
L 521.828759 -94.100864 
L 504.633073 -89.209099 
L 487.437388 -89.209099 
L 470.241702 -98.992629 
L 453.046016 -104.329099 
L 435.850331 -94.100864 
L 418.654645 -94.100864 
L 401.458959 -86.540864 
L 384.263274 -86.540864 
L 367.067588 -87.874982 
L 349.871902 -89.209099 
L 332.676217 -142.573805 
L 315.480531 -101.660864 
L 298.284845 -89.209099 
L 281.08916 -101.660864 
L 263.893474 -104.329099 
L 246.697788 -104.329099 
L 229.502103 -94.100864 
L 212.306417 -104.329099 
L 195.110731 -90.543217 
L 177.915046 -104.329099 
L 160.71936 -87.874982 
L 143.523674 -90.543217 
L 126.327989 -89.209099 
L 109.132303 -98.547923 
L 91.936617 -98.992629 
L 74.740932 -94.100864 
z
" style="stroke: #ffffff; stroke-opacity: 0.2"/>
    </defs>
    <g clip-path="url(#p1003bbff4c)">
     <use xlink:href="#m8e8292d2b3" x="0" y="382.799687" style="fill: #4bc2ad; fill-opacity: 0.2; stroke: #ffffff; stroke-opacity: 0.2"/>
    </g>
   </g>
   <g id="line2d_49">
    <path d="M 74.740932 314.021711 
L 91.936617 315.349602 
L 109.132303 315.350047 
L 126.327989 315.359386 
L 143.523674 315.358052 
L 160.71936 315.36072 
L 177.915046 315.344266 
L 195.110731 315.358052 
L 212.306417 315.344266 
L 229.502103 315.354494 
L 246.697788 315.344266 
L 263.893474 315.344266 
L 281.08916 315.346934 
L 298.284845 315.359386 
L 315.480531 315.346934 
L 332.676217 315.306021 
L 349.871902 315.359386 
L 367.067588 315.36072 
L 384.263274 315.362054 
L 401.458959 315.362054 
L 418.654645 315.354494 
L 435.850331 315.354494 
L 453.046016 315.344266 
L 470.241702 315.349602 
L 487.437388 315.359386 
L 504.633073 315.359386 
L 521.828759 315.354494 
L 539.024445 315.349602 
L 556.22013 315.36072 
L 573.415816 315.358052 
" clip-path="url(#p1003bbff4c)" style="fill: none; stroke: #4bc2ad; stroke-width: 1.5; stroke-linecap: round"/>
    <g clip-path="url(#p1003bbff4c)">
     <use xlink:href="#m2c37036876" x="74.740932" y="314.021711" style="fill: #4bc2ad; stroke: #ffffff; stroke-width: 0.75; stroke-linejoin: miter"/>
     <use xlink:href="#m2c37036876" x="91.936617" y="315.349602" style="fill: #4bc2ad; stroke: #ffffff; stroke-width: 0.75; stroke-linejoin: miter"/>
     <use xlink:href="#m2c37036876" x="109.132303" y="315.350047" style="fill: #4bc2ad; stroke: #ffffff; stroke-width: 0.75; stroke-linejoin: miter"/>
     <use xlink:href="#m2c37036876" x="126.327989" y="315.359386" style="fill: #4bc2ad; stroke: #ffffff; stroke-width: 0.75; stroke-linejoin: miter"/>
     <use xlink:href="#m2c37036876" x="143.523674" y="315.358052" style="fill: #4bc2ad; stroke: #ffffff; stroke-width: 0.75; stroke-linejoin: miter"/>
     <use xlink:href="#m2c37036876" x="160.71936" y="315.36072" style="fill: #4bc2ad; stroke: #ffffff; stroke-width: 0.75; stroke-linejoin: miter"/>
     <use xlink:href="#m2c37036876" x="177.915046" y="315.344266" style="fill: #4bc2ad; stroke: #ffffff; stroke-width: 0.75; stroke-linejoin: miter"/>
     <use xlink:href="#m2c37036876" x="195.110731" y="315.358052" style="fill: #4bc2ad; stroke: #ffffff; stroke-width: 0.75; stroke-linejoin: miter"/>
     <use xlink:href="#m2c37036876" x="212.306417" y="315.344266" style="fill: #4bc2ad; stroke: #ffffff; stroke-width: 0.75; stroke-linejoin: miter"/>
     <use xlink:href="#m2c37036876" x="229.502103" y="315.354494" style="fill: #4bc2ad; stroke: #ffffff; stroke-width: 0.75; stroke-linejoin: miter"/>
     <use xlink:href="#m2c37036876" x="246.697788" y="315.344266" style="fill: #4bc2ad; stroke: #ffffff; stroke-width: 0.75; stroke-linejoin: miter"/>
     <use xlink:href="#m2c37036876" x="263.893474" y="315.344266" style="fill: #4bc2ad; stroke: #ffffff; stroke-width: 0.75; stroke-linejoin: miter"/>
     <use xlink:href="#m2c37036876" x="281.08916" y="315.346934" style="fill: #4bc2ad; stroke: #ffffff; stroke-width: 0.75; stroke-linejoin: miter"/>
     <use xlink:href="#m2c37036876" x="298.284845" y="315.359386" style="fill: #4bc2ad; stroke: #ffffff; stroke-width: 0.75; stroke-linejoin: miter"/>
     <use xlink:href="#m2c37036876" x="315.480531" y="315.346934" style="fill: #4bc2ad; stroke: #ffffff; stroke-width: 0.75; stroke-linejoin: miter"/>
     <use xlink:href="#m2c37036876" x="332.676217" y="315.306021" style="fill: #4bc2ad; stroke: #ffffff; stroke-width: 0.75; stroke-linejoin: miter"/>
     <use xlink:href="#m2c37036876" x="349.871902" y="315.359386" style="fill: #4bc2ad; stroke: #ffffff; stroke-width: 0.75; stroke-linejoin: miter"/>
     <use xlink:href="#m2c37036876" x="367.067588" y="315.36072" style="fill: #4bc2ad; stroke: #ffffff; stroke-width: 0.75; stroke-linejoin: miter"/>
     <use xlink:href="#m2c37036876" x="384.263274" y="315.362054" style="fill: #4bc2ad; stroke: #ffffff; stroke-width: 0.75; stroke-linejoin: miter"/>
     <use xlink:href="#m2c37036876" x="401.458959" y="315.362054" style="fill: #4bc2ad; stroke: #ffffff; stroke-width: 0.75; stroke-linejoin: miter"/>
     <use xlink:href="#m2c37036876" x="418.654645" y="315.354494" style="fill: #4bc2ad; stroke: #ffffff; stroke-width: 0.75; stroke-linejoin: miter"/>
     <use xlink:href="#m2c37036876" x="435.850331" y="315.354494" style="fill: #4bc2ad; stroke: #ffffff; stroke-width: 0.75; stroke-linejoin: miter"/>
     <use xlink:href="#m2c37036876" x="453.046016" y="315.344266" style="fill: #4bc2ad; stroke: #ffffff; stroke-width: 0.75; stroke-linejoin: miter"/>
     <use xlink:href="#m2c37036876" x="470.241702" y="315.349602" style="fill: #4bc2ad; stroke: #ffffff; stroke-width: 0.75; stroke-linejoin: miter"/>
     <use xlink:href="#m2c37036876" x="487.437388" y="315.359386" style="fill: #4bc2ad; stroke: #ffffff; stroke-width: 0.75; stroke-linejoin: miter"/>
     <use xlink:href="#m2c37036876" x="504.633073" y="315.359386" style="fill: #4bc2ad; stroke: #ffffff; stroke-width: 0.75; stroke-linejoin: miter"/>
     <use xlink:href="#m2c37036876" x="521.828759" y="315.354494" style="fill: #4bc2ad; stroke: #ffffff; stroke-width: 0.75; stroke-linejoin: miter"/>
     <use xlink:href="#m2c37036876" x="539.024445" y="315.349602" style="fill: #4bc2ad; stroke: #ffffff; stroke-width: 0.75; stroke-linejoin: miter"/>
     <use xlink:href="#m2c37036876" x="556.22013" y="315.36072" style="fill: #4bc2ad; stroke: #ffffff; stroke-width: 0.75; stroke-linejoin: miter"/>
     <use xlink:href="#m2c37036876" x="573.415816" y="315.358052" style="fill: #4bc2ad; stroke: #ffffff; stroke-width: 0.75; stroke-linejoin: miter"/>
    </g>
   </g>
   <g id="patch_9">
    <path d="M 49.807188 339.84 
L 49.807188 218.88 
" style="fill: none; stroke: #ffffff; stroke-width: 1.25; stroke-linejoin: miter; stroke-linecap: square"/>
   </g>
   <g id="patch_10">
    <path d="M 607.807188 339.84 
L 607.807188 218.88 
" style="fill: none; stroke: #ffffff; stroke-width: 1.25; stroke-linejoin: miter; stroke-linecap: square"/>
   </g>
   <g id="patch_11">
    <path d="M 49.807187 339.84 
L 607.807188 339.84 
" style="fill: none; stroke: #ffffff; stroke-width: 1.25; stroke-linejoin: miter; stroke-linecap: square"/>
   </g>
   <g id="patch_12">
    <path d="M 49.807187 218.88 
L 607.807188 218.88 
" style="fill: none; stroke: #ffffff; stroke-width: 1.25; stroke-linejoin: miter; stroke-linecap: square"/>
   </g>
   <g id="legend_2">
    <g id="patch_13">
     <path d="M 510.132344 243.825937 
L 600.107187 243.825937 
Q 602.307187 243.825937 602.307187 241.625937 
L 602.307187 226.58 
Q 602.307187 224.38 600.107187 224.38 
L 510.132344 224.38 
Q 507.932344 224.38 507.932344 226.58 
L 507.932344 241.625937 
Q 507.932344 243.825937 510.132344 243.825937 
z
" style="fill: #eaeaf2; opacity: 0.8; stroke: #cccccc; stroke-linejoin: miter"/>
    </g>
    <g id="line2d_50">
     <path d="M 512.332344 233.288281 
L 523.332344 233.288281 
L 534.332344 233.288281 
" style="fill: none; stroke: #4bc2ad; stroke-width: 1.5; stroke-linecap: round"/>
     <g>
      <use xlink:href="#m2c37036876" x="523.332344" y="233.288281" style="fill: #4bc2ad; stroke: #ffffff; stroke-width: 0.75; stroke-linejoin: miter"/>
     </g>
    </g>
    <g id="text_49">
     <!-- Best Case -->
     <g style="fill: #262626" transform="translate(543.132344 237.138281) scale(0.11 -0.11)">
      <use xlink:href="#DejaVuSans-42"/>
      <use xlink:href="#DejaVuSans-65" x="68.603516"/>
      <use xlink:href="#DejaVuSans-73" x="130.126953"/>
      <use xlink:href="#DejaVuSans-74" x="182.226562"/>
      <use xlink:href="#DejaVuSans-20" x="221.435547"/>
      <use xlink:href="#DejaVuSans-43" x="253.222656"/>
      <use xlink:href="#DejaVuSans-61" x="323.046875"/>
      <use xlink:href="#DejaVuSans-73" x="384.326172"/>
      <use xlink:href="#DejaVuSans-65" x="436.425781"/>
     </g>
    </g>
   </g>
  </g>
 </g>
 <defs>
  <clipPath id="p11f4792738">
   <rect x="49.807188" y="7.2" width="558" height="181.44"/>
  </clipPath>
  <clipPath id="p1003bbff4c">
   <rect x="49.807188" y="218.88" width="558" height="120.96"/>
  </clipPath>
 </defs>
</svg>
