<?xml version="1.0" encoding="utf-8" standalone="no"?>
<!DOCTYPE svg PUBLIC "-//W3C//DTD SVG 1.1//EN"
  "http://www.w3.org/Graphics/SVG/1.1/DTD/svg11.dtd">
<svg xmlns:xlink="http://www.w3.org/1999/xlink" width="615.007187pt" height="407.745625pt" viewBox="0 0 615.007187 407.745625" xmlns="http://www.w3.org/2000/svg" version="1.1">
 <metadata>
  <rdf:RDF xmlns:dc="http://purl.org/dc/elements/1.1/" xmlns:cc="http://creativecommons.org/ns#" xmlns:rdf="http://www.w3.org/1999/02/22-rdf-syntax-ns#">
   <cc:Work>
    <dc:type rdf:resource="http://purl.org/dc/dcmitype/StillImage"/>
    <dc:date>2024-09-27T12:02:28.335446</dc:date>
    <dc:format>image/svg+xml</dc:format>
    <dc:creator>
     <cc:Agent>
      <dc:title>Matplotlib v3.7.2, https://matplotlib.org/</dc:title>
     </cc:Agent>
    </dc:creator>
   </cc:Work>
  </rdf:RDF>
 </metadata>
 <defs>
  <style type="text/css">*{stroke-linejoin: round; stroke-linecap: butt}</style>
 </defs>
 <g id="figure_1">
  <g id="patch_1">
   <path d="M 0 407.745625 
L 615.007187 407.745625 
L 615.007187 0 
L 0 0 
z
" style="fill: #ffffff"/>
  </g>
  <g id="axes_1">
   <g id="patch_2">
    <path d="M 49.807188 213.585937 
L 607.807188 213.585937 
L 607.807188 32.145937 
L 49.807188 32.145937 
z
" style="fill: #eaeaf2"/>
   </g>
   <g id="matplotlib.axis_1">
    <g id="xtick_1">
     <g id="line2d_1">
      <path d="M 74.740932 213.585937 
L 74.740932 32.145937 
" clip-path="url(#p69c32376b0)" style="fill: none; stroke: #ffffff; stroke-linecap: round"/>
     </g>
     <g id="text_1">
      <!-- 0 -->
      <g style="fill: #262626" transform="translate(71.241557 231.444219) scale(0.11 -0.11)">
       <defs>
        <path id="DejaVuSans-30" d="M 2034 4250 
Q 1547 4250 1301 3770 
Q 1056 3291 1056 2328 
Q 1056 1369 1301 889 
Q 1547 409 2034 409 
Q 2525 409 2770 889 
Q 3016 1369 3016 2328 
Q 3016 3291 2770 3770 
Q 2525 4250 2034 4250 
z
M 2034 4750 
Q 2819 4750 3233 4129 
Q 3647 3509 3647 2328 
Q 3647 1150 3233 529 
Q 2819 -91 2034 -91 
Q 1250 -91 836 529 
Q 422 1150 422 2328 
Q 422 3509 836 4129 
Q 1250 4750 2034 4750 
z
" transform="scale(0.015625)"/>
       </defs>
       <use xlink:href="#DejaVuSans-30"/>
      </g>
     </g>
    </g>
    <g id="xtick_2">
     <g id="line2d_2">
      <path d="M 109.132303 213.585937 
L 109.132303 32.145937 
" clip-path="url(#p69c32376b0)" style="fill: none; stroke: #ffffff; stroke-linecap: round"/>
     </g>
     <g id="text_2">
      <!-- 64 -->
      <g style="fill: #262626" transform="translate(102.133553 231.444219) scale(0.11 -0.11)">
       <defs>
        <path id="DejaVuSans-36" d="M 2113 2584 
Q 1688 2584 1439 2293 
Q 1191 2003 1191 1497 
Q 1191 994 1439 701 
Q 1688 409 2113 409 
Q 2538 409 2786 701 
Q 3034 994 3034 1497 
Q 3034 2003 2786 2293 
Q 2538 2584 2113 2584 
z
M 3366 4563 
L 3366 3988 
Q 3128 4100 2886 4159 
Q 2644 4219 2406 4219 
Q 1781 4219 1451 3797 
Q 1122 3375 1075 2522 
Q 1259 2794 1537 2939 
Q 1816 3084 2150 3084 
Q 2853 3084 3261 2657 
Q 3669 2231 3669 1497 
Q 3669 778 3244 343 
Q 2819 -91 2113 -91 
Q 1303 -91 875 529 
Q 447 1150 447 2328 
Q 447 3434 972 4092 
Q 1497 4750 2381 4750 
Q 2619 4750 2861 4703 
Q 3103 4656 3366 4563 
z
" transform="scale(0.015625)"/>
        <path id="DejaVuSans-34" d="M 2419 4116 
L 825 1625 
L 2419 1625 
L 2419 4116 
z
M 2253 4666 
L 3047 4666 
L 3047 1625 
L 3713 1625 
L 3713 1100 
L 3047 1100 
L 3047 0 
L 2419 0 
L 2419 1100 
L 313 1100 
L 313 1709 
L 2253 4666 
z
" transform="scale(0.015625)"/>
       </defs>
       <use xlink:href="#DejaVuSans-36"/>
       <use xlink:href="#DejaVuSans-34" x="63.623047"/>
      </g>
     </g>
    </g>
    <g id="xtick_3">
     <g id="line2d_3">
      <path d="M 143.523674 213.585937 
L 143.523674 32.145937 
" clip-path="url(#p69c32376b0)" style="fill: none; stroke: #ffffff; stroke-linecap: round"/>
     </g>
     <g id="text_3">
      <!-- 128 -->
      <g style="fill: #262626" transform="translate(133.025549 231.444219) scale(0.11 -0.11)">
       <defs>
        <path id="DejaVuSans-31" d="M 794 531 
L 1825 531 
L 1825 4091 
L 703 3866 
L 703 4441 
L 1819 4666 
L 2450 4666 
L 2450 531 
L 3481 531 
L 3481 0 
L 794 0 
L 794 531 
z
" transform="scale(0.015625)"/>
        <path id="DejaVuSans-32" d="M 1228 531 
L 3431 531 
L 3431 0 
L 469 0 
L 469 531 
Q 828 903 1448 1529 
Q 2069 2156 2228 2338 
Q 2531 2678 2651 2914 
Q 2772 3150 2772 3378 
Q 2772 3750 2511 3984 
Q 2250 4219 1831 4219 
Q 1534 4219 1204 4116 
Q 875 4013 500 3803 
L 500 4441 
Q 881 4594 1212 4672 
Q 1544 4750 1819 4750 
Q 2544 4750 2975 4387 
Q 3406 4025 3406 3419 
Q 3406 3131 3298 2873 
Q 3191 2616 2906 2266 
Q 2828 2175 2409 1742 
Q 1991 1309 1228 531 
z
" transform="scale(0.015625)"/>
        <path id="DejaVuSans-38" d="M 2034 2216 
Q 1584 2216 1326 1975 
Q 1069 1734 1069 1313 
Q 1069 891 1326 650 
Q 1584 409 2034 409 
Q 2484 409 2743 651 
Q 3003 894 3003 1313 
Q 3003 1734 2745 1975 
Q 2488 2216 2034 2216 
z
M 1403 2484 
Q 997 2584 770 2862 
Q 544 3141 544 3541 
Q 544 4100 942 4425 
Q 1341 4750 2034 4750 
Q 2731 4750 3128 4425 
Q 3525 4100 3525 3541 
Q 3525 3141 3298 2862 
Q 3072 2584 2669 2484 
Q 3125 2378 3379 2068 
Q 3634 1759 3634 1313 
Q 3634 634 3220 271 
Q 2806 -91 2034 -91 
Q 1263 -91 848 271 
Q 434 634 434 1313 
Q 434 1759 690 2068 
Q 947 2378 1403 2484 
z
M 1172 3481 
Q 1172 3119 1398 2916 
Q 1625 2713 2034 2713 
Q 2441 2713 2670 2916 
Q 2900 3119 2900 3481 
Q 2900 3844 2670 4047 
Q 2441 4250 2034 4250 
Q 1625 4250 1398 4047 
Q 1172 3844 1172 3481 
z
" transform="scale(0.015625)"/>
       </defs>
       <use xlink:href="#DejaVuSans-31"/>
       <use xlink:href="#DejaVuSans-32" x="63.623047"/>
       <use xlink:href="#DejaVuSans-38" x="127.246094"/>
      </g>
     </g>
    </g>
    <g id="xtick_4">
     <g id="line2d_4">
      <path d="M 177.915046 213.585937 
L 177.915046 32.145937 
" clip-path="url(#p69c32376b0)" style="fill: none; stroke: #ffffff; stroke-linecap: round"/>
     </g>
     <g id="text_4">
      <!-- 192 -->
      <g style="fill: #262626" transform="translate(167.416921 231.444219) scale(0.11 -0.11)">
       <defs>
        <path id="DejaVuSans-39" d="M 703 97 
L 703 672 
Q 941 559 1184 500 
Q 1428 441 1663 441 
Q 2288 441 2617 861 
Q 2947 1281 2994 2138 
Q 2813 1869 2534 1725 
Q 2256 1581 1919 1581 
Q 1219 1581 811 2004 
Q 403 2428 403 3163 
Q 403 3881 828 4315 
Q 1253 4750 1959 4750 
Q 2769 4750 3195 4129 
Q 3622 3509 3622 2328 
Q 3622 1225 3098 567 
Q 2575 -91 1691 -91 
Q 1453 -91 1209 -44 
Q 966 3 703 97 
z
M 1959 2075 
Q 2384 2075 2632 2365 
Q 2881 2656 2881 3163 
Q 2881 3666 2632 3958 
Q 2384 4250 1959 4250 
Q 1534 4250 1286 3958 
Q 1038 3666 1038 3163 
Q 1038 2656 1286 2365 
Q 1534 2075 1959 2075 
z
" transform="scale(0.015625)"/>
       </defs>
       <use xlink:href="#DejaVuSans-31"/>
       <use xlink:href="#DejaVuSans-39" x="63.623047"/>
       <use xlink:href="#DejaVuSans-32" x="127.246094"/>
      </g>
     </g>
    </g>
    <g id="xtick_5">
     <g id="line2d_5">
      <path d="M 212.306417 213.585937 
L 212.306417 32.145937 
" clip-path="url(#p69c32376b0)" style="fill: none; stroke: #ffffff; stroke-linecap: round"/>
     </g>
     <g id="text_5">
      <!-- 256 -->
      <g style="fill: #262626" transform="translate(201.808292 231.444219) scale(0.11 -0.11)">
       <defs>
        <path id="DejaVuSans-35" d="M 691 4666 
L 3169 4666 
L 3169 4134 
L 1269 4134 
L 1269 2991 
Q 1406 3038 1543 3061 
Q 1681 3084 1819 3084 
Q 2600 3084 3056 2656 
Q 3513 2228 3513 1497 
Q 3513 744 3044 326 
Q 2575 -91 1722 -91 
Q 1428 -91 1123 -41 
Q 819 9 494 109 
L 494 744 
Q 775 591 1075 516 
Q 1375 441 1709 441 
Q 2250 441 2565 725 
Q 2881 1009 2881 1497 
Q 2881 1984 2565 2268 
Q 2250 2553 1709 2553 
Q 1456 2553 1204 2497 
Q 953 2441 691 2322 
L 691 4666 
z
" transform="scale(0.015625)"/>
       </defs>
       <use xlink:href="#DejaVuSans-32"/>
       <use xlink:href="#DejaVuSans-35" x="63.623047"/>
       <use xlink:href="#DejaVuSans-36" x="127.246094"/>
      </g>
     </g>
    </g>
    <g id="xtick_6">
     <g id="line2d_6">
      <path d="M 246.697788 213.585937 
L 246.697788 32.145937 
" clip-path="url(#p69c32376b0)" style="fill: none; stroke: #ffffff; stroke-linecap: round"/>
     </g>
     <g id="text_6">
      <!-- 320 -->
      <g style="fill: #262626" transform="translate(236.199663 231.444219) scale(0.11 -0.11)">
       <defs>
        <path id="DejaVuSans-33" d="M 2597 2516 
Q 3050 2419 3304 2112 
Q 3559 1806 3559 1356 
Q 3559 666 3084 287 
Q 2609 -91 1734 -91 
Q 1441 -91 1130 -33 
Q 819 25 488 141 
L 488 750 
Q 750 597 1062 519 
Q 1375 441 1716 441 
Q 2309 441 2620 675 
Q 2931 909 2931 1356 
Q 2931 1769 2642 2001 
Q 2353 2234 1838 2234 
L 1294 2234 
L 1294 2753 
L 1863 2753 
Q 2328 2753 2575 2939 
Q 2822 3125 2822 3475 
Q 2822 3834 2567 4026 
Q 2313 4219 1838 4219 
Q 1578 4219 1281 4162 
Q 984 4106 628 3988 
L 628 4550 
Q 988 4650 1302 4700 
Q 1616 4750 1894 4750 
Q 2613 4750 3031 4423 
Q 3450 4097 3450 3541 
Q 3450 3153 3228 2886 
Q 3006 2619 2597 2516 
z
" transform="scale(0.015625)"/>
       </defs>
       <use xlink:href="#DejaVuSans-33"/>
       <use xlink:href="#DejaVuSans-32" x="63.623047"/>
       <use xlink:href="#DejaVuSans-30" x="127.246094"/>
      </g>
     </g>
    </g>
    <g id="xtick_7">
     <g id="line2d_7">
      <path d="M 281.08916 213.585937 
L 281.08916 32.145937 
" clip-path="url(#p69c32376b0)" style="fill: none; stroke: #ffffff; stroke-linecap: round"/>
     </g>
     <g id="text_7">
      <!-- 384 -->
      <g style="fill: #262626" transform="translate(270.591035 231.444219) scale(0.11 -0.11)">
       <use xlink:href="#DejaVuSans-33"/>
       <use xlink:href="#DejaVuSans-38" x="63.623047"/>
       <use xlink:href="#DejaVuSans-34" x="127.246094"/>
      </g>
     </g>
    </g>
    <g id="xtick_8">
     <g id="line2d_8">
      <path d="M 315.480531 213.585937 
L 315.480531 32.145937 
" clip-path="url(#p69c32376b0)" style="fill: none; stroke: #ffffff; stroke-linecap: round"/>
     </g>
     <g id="text_8">
      <!-- 448 -->
      <g style="fill: #262626" transform="translate(304.982406 231.444219) scale(0.11 -0.11)">
       <use xlink:href="#DejaVuSans-34"/>
       <use xlink:href="#DejaVuSans-34" x="63.623047"/>
       <use xlink:href="#DejaVuSans-38" x="127.246094"/>
      </g>
     </g>
    </g>
    <g id="xtick_9">
     <g id="line2d_9">
      <path d="M 349.871902 213.585937 
L 349.871902 32.145937 
" clip-path="url(#p69c32376b0)" style="fill: none; stroke: #ffffff; stroke-linecap: round"/>
     </g>
     <g id="text_9">
      <!-- 512 -->
      <g style="fill: #262626" transform="translate(339.373777 231.444219) scale(0.11 -0.11)">
       <use xlink:href="#DejaVuSans-35"/>
       <use xlink:href="#DejaVuSans-31" x="63.623047"/>
       <use xlink:href="#DejaVuSans-32" x="127.246094"/>
      </g>
     </g>
    </g>
    <g id="xtick_10">
     <g id="line2d_10">
      <path d="M 384.263274 213.585937 
L 384.263274 32.145937 
" clip-path="url(#p69c32376b0)" style="fill: none; stroke: #ffffff; stroke-linecap: round"/>
     </g>
     <g id="text_10">
      <!-- 576 -->
      <g style="fill: #262626" transform="translate(373.765149 231.444219) scale(0.11 -0.11)">
       <defs>
        <path id="DejaVuSans-37" d="M 525 4666 
L 3525 4666 
L 3525 4397 
L 1831 0 
L 1172 0 
L 2766 4134 
L 525 4134 
L 525 4666 
z
" transform="scale(0.015625)"/>
       </defs>
       <use xlink:href="#DejaVuSans-35"/>
       <use xlink:href="#DejaVuSans-37" x="63.623047"/>
       <use xlink:href="#DejaVuSans-36" x="127.246094"/>
      </g>
     </g>
    </g>
    <g id="xtick_11">
     <g id="line2d_11">
      <path d="M 418.654645 213.585937 
L 418.654645 32.145937 
" clip-path="url(#p69c32376b0)" style="fill: none; stroke: #ffffff; stroke-linecap: round"/>
     </g>
     <g id="text_11">
      <!-- 640 -->
      <g style="fill: #262626" transform="translate(408.15652 231.444219) scale(0.11 -0.11)">
       <use xlink:href="#DejaVuSans-36"/>
       <use xlink:href="#DejaVuSans-34" x="63.623047"/>
       <use xlink:href="#DejaVuSans-30" x="127.246094"/>
      </g>
     </g>
    </g>
    <g id="xtick_12">
     <g id="line2d_12">
      <path d="M 453.046016 213.585937 
L 453.046016 32.145937 
" clip-path="url(#p69c32376b0)" style="fill: none; stroke: #ffffff; stroke-linecap: round"/>
     </g>
     <g id="text_12">
      <!-- 704 -->
      <g style="fill: #262626" transform="translate(442.547891 231.444219) scale(0.11 -0.11)">
       <use xlink:href="#DejaVuSans-37"/>
       <use xlink:href="#DejaVuSans-30" x="63.623047"/>
       <use xlink:href="#DejaVuSans-34" x="127.246094"/>
      </g>
     </g>
    </g>
    <g id="xtick_13">
     <g id="line2d_13">
      <path d="M 487.437388 213.585937 
L 487.437388 32.145937 
" clip-path="url(#p69c32376b0)" style="fill: none; stroke: #ffffff; stroke-linecap: round"/>
     </g>
     <g id="text_13">
      <!-- 768 -->
      <g style="fill: #262626" transform="translate(476.939263 231.444219) scale(0.11 -0.11)">
       <use xlink:href="#DejaVuSans-37"/>
       <use xlink:href="#DejaVuSans-36" x="63.623047"/>
       <use xlink:href="#DejaVuSans-38" x="127.246094"/>
      </g>
     </g>
    </g>
    <g id="xtick_14">
     <g id="line2d_14">
      <path d="M 521.828759 213.585937 
L 521.828759 32.145937 
" clip-path="url(#p69c32376b0)" style="fill: none; stroke: #ffffff; stroke-linecap: round"/>
     </g>
     <g id="text_14">
      <!-- 832 -->
      <g style="fill: #262626" transform="translate(511.330634 231.444219) scale(0.11 -0.11)">
       <use xlink:href="#DejaVuSans-38"/>
       <use xlink:href="#DejaVuSans-33" x="63.623047"/>
       <use xlink:href="#DejaVuSans-32" x="127.246094"/>
      </g>
     </g>
    </g>
    <g id="xtick_15">
     <g id="line2d_15">
      <path d="M 556.22013 213.585937 
L 556.22013 32.145937 
" clip-path="url(#p69c32376b0)" style="fill: none; stroke: #ffffff; stroke-linecap: round"/>
     </g>
     <g id="text_15">
      <!-- 896 -->
      <g style="fill: #262626" transform="translate(545.722005 231.444219) scale(0.11 -0.11)">
       <use xlink:href="#DejaVuSans-38"/>
       <use xlink:href="#DejaVuSans-39" x="63.623047"/>
       <use xlink:href="#DejaVuSans-36" x="127.246094"/>
      </g>
     </g>
    </g>
    <g id="xtick_16">
     <g id="line2d_16">
      <path d="M 590.611502 213.585937 
L 590.611502 32.145937 
" clip-path="url(#p69c32376b0)" style="fill: none; stroke: #ffffff; stroke-linecap: round"/>
     </g>
     <g id="text_16">
      <!-- 960 -->
      <g style="fill: #262626" transform="translate(580.113377 231.444219) scale(0.11 -0.11)">
       <use xlink:href="#DejaVuSans-39"/>
       <use xlink:href="#DejaVuSans-36" x="63.623047"/>
       <use xlink:href="#DejaVuSans-30" x="127.246094"/>
      </g>
     </g>
    </g>
    <g id="xtick_17"/>
    <g id="xtick_18"/>
    <g id="xtick_19"/>
    <g id="xtick_20"/>
    <g id="xtick_21"/>
    <g id="xtick_22"/>
    <g id="xtick_23"/>
    <g id="xtick_24"/>
    <g id="xtick_25"/>
    <g id="xtick_26"/>
    <g id="xtick_27"/>
    <g id="xtick_28"/>
    <g id="xtick_29"/>
    <g id="xtick_30"/>
    <g id="xtick_31"/>
    <g id="xtick_32"/>
   </g>
   <g id="matplotlib.axis_2">
    <g id="ytick_1">
     <g id="line2d_17">
      <path d="M 49.807188 205.441404 
L 607.807188 205.441404 
" clip-path="url(#p69c32376b0)" style="fill: none; stroke: #ffffff; stroke-linecap: round"/>
     </g>
     <g id="text_17">
      <!-- 0.0 -->
      <g style="fill: #262626" transform="translate(22.81375 209.620544) scale(0.11 -0.11)">
       <defs>
        <path id="DejaVuSans-2e" d="M 684 794 
L 1344 794 
L 1344 0 
L 684 0 
L 684 794 
z
" transform="scale(0.015625)"/>
       </defs>
       <use xlink:href="#DejaVuSans-30"/>
       <use xlink:href="#DejaVuSans-2e" x="63.623047"/>
       <use xlink:href="#DejaVuSans-30" x="95.410156"/>
      </g>
     </g>
    </g>
    <g id="ytick_2">
     <g id="line2d_18">
      <path d="M 49.807188 172.564915 
L 607.807188 172.564915 
" clip-path="url(#p69c32376b0)" style="fill: none; stroke: #ffffff; stroke-linecap: round"/>
     </g>
     <g id="text_18">
      <!-- 0.5 -->
      <g style="fill: #262626" transform="translate(22.81375 176.744055) scale(0.11 -0.11)">
       <use xlink:href="#DejaVuSans-30"/>
       <use xlink:href="#DejaVuSans-2e" x="63.623047"/>
       <use xlink:href="#DejaVuSans-35" x="95.410156"/>
      </g>
     </g>
    </g>
    <g id="ytick_3">
     <g id="line2d_19">
      <path d="M 49.807188 139.688426 
L 607.807188 139.688426 
" clip-path="url(#p69c32376b0)" style="fill: none; stroke: #ffffff; stroke-linecap: round"/>
     </g>
     <g id="text_19">
      <!-- 1.0 -->
      <g style="fill: #262626" transform="translate(22.81375 143.867567) scale(0.11 -0.11)">
       <use xlink:href="#DejaVuSans-31"/>
       <use xlink:href="#DejaVuSans-2e" x="63.623047"/>
       <use xlink:href="#DejaVuSans-30" x="95.410156"/>
      </g>
     </g>
    </g>
    <g id="ytick_4">
     <g id="line2d_20">
      <path d="M 49.807188 106.811937 
L 607.807188 106.811937 
" clip-path="url(#p69c32376b0)" style="fill: none; stroke: #ffffff; stroke-linecap: round"/>
     </g>
     <g id="text_20">
      <!-- 1.5 -->
      <g style="fill: #262626" transform="translate(22.81375 110.991078) scale(0.11 -0.11)">
       <use xlink:href="#DejaVuSans-31"/>
       <use xlink:href="#DejaVuSans-2e" x="63.623047"/>
       <use xlink:href="#DejaVuSans-35" x="95.410156"/>
      </g>
     </g>
    </g>
    <g id="ytick_5">
     <g id="line2d_21">
      <path d="M 49.807188 73.935448 
L 607.807188 73.935448 
" clip-path="url(#p69c32376b0)" style="fill: none; stroke: #ffffff; stroke-linecap: round"/>
     </g>
     <g id="text_21">
      <!-- 2.0 -->
      <g style="fill: #262626" transform="translate(22.81375 78.114589) scale(0.11 -0.11)">
       <use xlink:href="#DejaVuSans-32"/>
       <use xlink:href="#DejaVuSans-2e" x="63.623047"/>
       <use xlink:href="#DejaVuSans-30" x="95.410156"/>
      </g>
     </g>
    </g>
    <g id="ytick_6">
     <g id="line2d_22">
      <path d="M 49.807188 41.058959 
L 607.807188 41.058959 
" clip-path="url(#p69c32376b0)" style="fill: none; stroke: #ffffff; stroke-linecap: round"/>
     </g>
     <g id="text_22">
      <!-- 2.5 -->
      <g style="fill: #262626" transform="translate(22.81375 45.2381) scale(0.11 -0.11)">
       <use xlink:href="#DejaVuSans-32"/>
       <use xlink:href="#DejaVuSans-2e" x="63.623047"/>
       <use xlink:href="#DejaVuSans-35" x="95.410156"/>
      </g>
     </g>
    </g>
    <g id="text_23">
     <!-- Latency [ms] -->
     <g style="fill: #262626" transform="translate(16.318125 162.141562) rotate(-90) scale(0.12 -0.12)">
      <defs>
       <path id="DejaVuSans-4c" d="M 628 4666 
L 1259 4666 
L 1259 531 
L 3531 531 
L 3531 0 
L 628 0 
L 628 4666 
z
" transform="scale(0.015625)"/>
       <path id="DejaVuSans-61" d="M 2194 1759 
Q 1497 1759 1228 1600 
Q 959 1441 959 1056 
Q 959 750 1161 570 
Q 1363 391 1709 391 
Q 2188 391 2477 730 
Q 2766 1069 2766 1631 
L 2766 1759 
L 2194 1759 
z
M 3341 1997 
L 3341 0 
L 2766 0 
L 2766 531 
Q 2569 213 2275 61 
Q 1981 -91 1556 -91 
Q 1019 -91 701 211 
Q 384 513 384 1019 
Q 384 1609 779 1909 
Q 1175 2209 1959 2209 
L 2766 2209 
L 2766 2266 
Q 2766 2663 2505 2880 
Q 2244 3097 1772 3097 
Q 1472 3097 1187 3025 
Q 903 2953 641 2809 
L 641 3341 
Q 956 3463 1253 3523 
Q 1550 3584 1831 3584 
Q 2591 3584 2966 3190 
Q 3341 2797 3341 1997 
z
" transform="scale(0.015625)"/>
       <path id="DejaVuSans-74" d="M 1172 4494 
L 1172 3500 
L 2356 3500 
L 2356 3053 
L 1172 3053 
L 1172 1153 
Q 1172 725 1289 603 
Q 1406 481 1766 481 
L 2356 481 
L 2356 0 
L 1766 0 
Q 1100 0 847 248 
Q 594 497 594 1153 
L 594 3053 
L 172 3053 
L 172 3500 
L 594 3500 
L 594 4494 
L 1172 4494 
z
" transform="scale(0.015625)"/>
       <path id="DejaVuSans-65" d="M 3597 1894 
L 3597 1613 
L 953 1613 
Q 991 1019 1311 708 
Q 1631 397 2203 397 
Q 2534 397 2845 478 
Q 3156 559 3463 722 
L 3463 178 
Q 3153 47 2828 -22 
Q 2503 -91 2169 -91 
Q 1331 -91 842 396 
Q 353 884 353 1716 
Q 353 2575 817 3079 
Q 1281 3584 2069 3584 
Q 2775 3584 3186 3129 
Q 3597 2675 3597 1894 
z
M 3022 2063 
Q 3016 2534 2758 2815 
Q 2500 3097 2075 3097 
Q 1594 3097 1305 2825 
Q 1016 2553 972 2059 
L 3022 2063 
z
" transform="scale(0.015625)"/>
       <path id="DejaVuSans-6e" d="M 3513 2113 
L 3513 0 
L 2938 0 
L 2938 2094 
Q 2938 2591 2744 2837 
Q 2550 3084 2163 3084 
Q 1697 3084 1428 2787 
Q 1159 2491 1159 1978 
L 1159 0 
L 581 0 
L 581 3500 
L 1159 3500 
L 1159 2956 
Q 1366 3272 1645 3428 
Q 1925 3584 2291 3584 
Q 2894 3584 3203 3211 
Q 3513 2838 3513 2113 
z
" transform="scale(0.015625)"/>
       <path id="DejaVuSans-63" d="M 3122 3366 
L 3122 2828 
Q 2878 2963 2633 3030 
Q 2388 3097 2138 3097 
Q 1578 3097 1268 2742 
Q 959 2388 959 1747 
Q 959 1106 1268 751 
Q 1578 397 2138 397 
Q 2388 397 2633 464 
Q 2878 531 3122 666 
L 3122 134 
Q 2881 22 2623 -34 
Q 2366 -91 2075 -91 
Q 1284 -91 818 406 
Q 353 903 353 1747 
Q 353 2603 823 3093 
Q 1294 3584 2113 3584 
Q 2378 3584 2631 3529 
Q 2884 3475 3122 3366 
z
" transform="scale(0.015625)"/>
       <path id="DejaVuSans-79" d="M 2059 -325 
Q 1816 -950 1584 -1140 
Q 1353 -1331 966 -1331 
L 506 -1331 
L 506 -850 
L 844 -850 
Q 1081 -850 1212 -737 
Q 1344 -625 1503 -206 
L 1606 56 
L 191 3500 
L 800 3500 
L 1894 763 
L 2988 3500 
L 3597 3500 
L 2059 -325 
z
" transform="scale(0.015625)"/>
       <path id="DejaVuSans-20" transform="scale(0.015625)"/>
       <path id="DejaVuSans-5b" d="M 550 4863 
L 1875 4863 
L 1875 4416 
L 1125 4416 
L 1125 -397 
L 1875 -397 
L 1875 -844 
L 550 -844 
L 550 4863 
z
" transform="scale(0.015625)"/>
       <path id="DejaVuSans-6d" d="M 3328 2828 
Q 3544 3216 3844 3400 
Q 4144 3584 4550 3584 
Q 5097 3584 5394 3201 
Q 5691 2819 5691 2113 
L 5691 0 
L 5113 0 
L 5113 2094 
Q 5113 2597 4934 2840 
Q 4756 3084 4391 3084 
Q 3944 3084 3684 2787 
Q 3425 2491 3425 1978 
L 3425 0 
L 2847 0 
L 2847 2094 
Q 2847 2600 2669 2842 
Q 2491 3084 2119 3084 
Q 1678 3084 1418 2786 
Q 1159 2488 1159 1978 
L 1159 0 
L 581 0 
L 581 3500 
L 1159 3500 
L 1159 2956 
Q 1356 3278 1631 3431 
Q 1906 3584 2284 3584 
Q 2666 3584 2933 3390 
Q 3200 3197 3328 2828 
z
" transform="scale(0.015625)"/>
       <path id="DejaVuSans-73" d="M 2834 3397 
L 2834 2853 
Q 2591 2978 2328 3040 
Q 2066 3103 1784 3103 
Q 1356 3103 1142 2972 
Q 928 2841 928 2578 
Q 928 2378 1081 2264 
Q 1234 2150 1697 2047 
L 1894 2003 
Q 2506 1872 2764 1633 
Q 3022 1394 3022 966 
Q 3022 478 2636 193 
Q 2250 -91 1575 -91 
Q 1294 -91 989 -36 
Q 684 19 347 128 
L 347 722 
Q 666 556 975 473 
Q 1284 391 1588 391 
Q 1994 391 2212 530 
Q 2431 669 2431 922 
Q 2431 1156 2273 1281 
Q 2116 1406 1581 1522 
L 1381 1569 
Q 847 1681 609 1914 
Q 372 2147 372 2553 
Q 372 3047 722 3315 
Q 1072 3584 1716 3584 
Q 2034 3584 2315 3537 
Q 2597 3491 2834 3397 
z
" transform="scale(0.015625)"/>
       <path id="DejaVuSans-5d" d="M 1947 4863 
L 1947 -844 
L 622 -844 
L 622 -397 
L 1369 -397 
L 1369 4416 
L 622 4416 
L 622 4863 
L 1947 4863 
z
" transform="scale(0.015625)"/>
      </defs>
      <use xlink:href="#DejaVuSans-4c"/>
      <use xlink:href="#DejaVuSans-61" x="55.712891"/>
      <use xlink:href="#DejaVuSans-74" x="116.992188"/>
      <use xlink:href="#DejaVuSans-65" x="156.201172"/>
      <use xlink:href="#DejaVuSans-6e" x="217.724609"/>
      <use xlink:href="#DejaVuSans-63" x="281.103516"/>
      <use xlink:href="#DejaVuSans-79" x="336.083984"/>
      <use xlink:href="#DejaVuSans-20" x="395.263672"/>
      <use xlink:href="#DejaVuSans-5b" x="427.050781"/>
      <use xlink:href="#DejaVuSans-6d" x="466.064453"/>
      <use xlink:href="#DejaVuSans-73" x="563.476562"/>
      <use xlink:href="#DejaVuSans-5d" x="615.576172"/>
     </g>
    </g>
   </g>
   <g id="PolyCollection_1"/>
   <g id="PolyCollection_2">
    <defs>
     <path id="m422ee3d34b" d="M 74.740932 -289.500889 
L 74.740932 -289.500889 
L 91.936617 -291.469369 
L 109.132303 -292.86251 
L 126.327989 -294.822771 
L 143.523674 -296.211802 
L 160.71936 -298.636443 
L 177.915046 -299.561095 
L 195.110731 -301.525465 
L 212.306417 -302.914496 
L 229.502103 -334.90332 
L 246.697788 -335.232085 
L 263.893474 -337.184127 
L 281.08916 -338.573158 
L 298.284845 -340.537528 
L 315.480531 -341.934779 
L 332.676217 -343.886821 
L 349.871902 -345.275852 
L 367.067588 -347.244332 
L 384.263274 -348.625145 
L 401.458959 -350.597734 
L 418.654645 -351.978547 
L 435.850331 -353.942917 
L 453.046016 -355.327839 
L 470.241702 -357.300428 
L 487.437388 -358.681241 
L 504.633073 -360.649721 
L 521.828759 -362.038752 
L 539.024445 -364.003122 
L 556.22013 -365.388045 
L 573.415816 -367.352415 
L 573.415816 -367.352415 
L 573.415816 -367.352415 
L 556.22013 -365.388045 
L 539.024445 -364.003122 
L 521.828759 -362.038752 
L 504.633073 -360.649721 
L 487.437388 -358.681241 
L 470.241702 -357.300428 
L 453.046016 -355.327839 
L 435.850331 -353.942917 
L 418.654645 -351.978547 
L 401.458959 -350.597734 
L 384.263274 -348.625145 
L 367.067588 -347.244332 
L 349.871902 -345.275852 
L 332.676217 -343.886821 
L 315.480531 -341.934779 
L 298.284845 -340.537528 
L 281.08916 -338.573158 
L 263.893474 -337.184127 
L 246.697788 -335.232085 
L 229.502103 -334.90332 
L 212.306417 -302.914496 
L 195.110731 -301.525465 
L 177.915046 -299.561095 
L 160.71936 -298.85836 
L 143.523674 -296.211802 
L 126.327989 -294.822771 
L 109.132303 -293.32689 
L 91.936617 -291.469369 
L 74.740932 -289.500889 
z
" style="stroke: #ffffff; stroke-opacity: 0.2"/>
    </defs>
    <g clip-path="url(#p69c32376b0)">
     <use xlink:href="#m422ee3d34b" x="0" y="407.745625" style="fill: #3e356b; fill-opacity: 0.2; stroke: #ffffff; stroke-opacity: 0.2"/>
    </g>
   </g>
   <g id="PolyCollection_3"/>
   <g id="PolyCollection_4">
    <defs>
     <path id="m6fd51d1f2a" d="M 74.740932 -205.02886 
L 74.740932 -205.02886 
L 91.936617 -206.99734 
L 109.132303 -208.386372 
L 126.327989 -210.350742 
L 143.523674 -211.735664 
L 160.71936 -213.700034 
L 177.915046 -215.089066 
L 195.110731 -217.053436 
L 212.306417 -218.438358 
L 229.502103 -220.402728 
L 246.697788 -221.79176 
L 263.893474 -223.752021 
L 281.08916 -225.141052 
L 298.284845 -227.105423 
L 315.480531 -228.494454 
L 332.676217 -230.454715 
L 349.871902 -231.843747 
L 367.067588 -233.804007 
L 384.263274 -235.193039 
L 401.458959 -237.157409 
L 418.654645 -269.002398 
L 435.850331 -270.966768 
L 453.046016 -272.3558 
L 470.241702 -274.316061 
L 487.437388 -275.705092 
L 504.633073 -277.669463 
L 521.828759 -279.058494 
L 539.024445 -281.018755 
L 556.22013 -282.407786 
L 573.415816 -284.372157 
L 573.415816 -284.372157 
L 573.415816 -284.372157 
L 556.22013 -282.407786 
L 539.024445 -281.018755 
L 521.828759 -279.058494 
L 504.633073 -277.669463 
L 487.437388 -275.705092 
L 470.241702 -274.316061 
L 453.046016 -272.3558 
L 435.850331 -270.966768 
L 418.654645 -269.002398 
L 401.458959 -237.157409 
L 384.263274 -235.193039 
L 367.067588 -233.804007 
L 349.871902 -231.843747 
L 332.676217 -230.454715 
L 315.480531 -228.494454 
L 298.284845 -227.105423 
L 281.08916 -225.141052 
L 263.893474 -223.752021 
L 246.697788 -221.79176 
L 229.502103 -220.402728 
L 212.306417 -218.438358 
L 195.110731 -217.053436 
L 177.915046 -215.089066 
L 160.71936 -213.700034 
L 143.523674 -211.735664 
L 126.327989 -210.350742 
L 109.132303 -208.386372 
L 91.936617 -206.99734 
L 74.740932 -205.02886 
z
" style="stroke: #ffffff; stroke-opacity: 0.2"/>
    </defs>
    <g clip-path="url(#p69c32376b0)">
     <use xlink:href="#m6fd51d1f2a" x="0" y="407.745625" style="fill: #357ba3; fill-opacity: 0.2; stroke: #ffffff; stroke-opacity: 0.2"/>
    </g>
   </g>
   <g id="PolyCollection_5"/>
   <g id="PolyCollection_6">
    <defs>
     <path id="m8cb6fbeebb" d="M 74.740932 -202.583671 
L 74.740932 -202.40696 
L 91.936617 -202.40696 
L 109.132303 -202.41107 
L 126.327989 -202.41107 
L 143.523674 -202.41107 
L 160.71936 -202.40696 
L 177.915046 -202.40696 
L 195.110731 -202.41107 
L 212.306417 -202.41107 
L 229.502103 -202.40696 
L 246.697788 -202.41107 
L 263.893474 -202.40696 
L 281.08916 -202.41107 
L 298.284845 -202.40696 
L 315.480531 -202.40696 
L 332.676217 -202.41107 
L 349.871902 -202.41107 
L 367.067588 -202.40696 
L 384.263274 -202.41107 
L 401.458959 -202.41107 
L 418.654645 -202.41107 
L 435.850331 -202.40696 
L 453.046016 -202.41107 
L 470.241702 -202.40696 
L 487.437388 -202.40696 
L 504.633073 -202.41107 
L 521.828759 -202.40696 
L 539.024445 -202.40696 
L 556.22013 -202.41107 
L 573.415816 -202.40696 
L 573.415816 -202.612438 
L 573.415816 -202.612438 
L 556.22013 -202.612438 
L 539.024445 -202.68641 
L 521.828759 -202.645315 
L 504.633073 -202.587781 
L 487.437388 -202.612438 
L 470.241702 -202.68641 
L 453.046016 -202.645315 
L 435.850331 -202.645315 
L 418.654645 -202.645315 
L 401.458959 -202.612438 
L 384.263274 -202.612438 
L 367.067588 -202.587781 
L 349.871902 -202.587781 
L 332.676217 -202.715177 
L 315.480531 -202.715177 
L 298.284845 -202.612438 
L 281.08916 -202.739835 
L 263.893474 -202.739835 
L 246.697788 -202.645315 
L 229.502103 -202.583671 
L 212.306417 -202.645315 
L 195.110731 -202.69052 
L 177.915046 -202.739835 
L 160.71936 -202.587781 
L 143.523674 -202.69052 
L 126.327989 -202.587781 
L 109.132303 -202.715177 
L 91.936617 -202.68641 
L 74.740932 -202.583671 
z
" style="stroke: #ffffff; stroke-opacity: 0.2"/>
    </defs>
    <g clip-path="url(#p69c32376b0)">
     <use xlink:href="#m8cb6fbeebb" x="0" y="407.745625" style="fill: #4bc2ad; fill-opacity: 0.2; stroke: #ffffff; stroke-opacity: 0.2"/>
    </g>
   </g>
   <g id="line2d_23">
    <path d="M 74.740932 118.244736 
L 91.936617 116.276256 
L 109.132303 114.650925 
L 126.327989 112.922854 
L 143.523674 111.533823 
L 160.71936 108.998224 
L 177.915046 108.18453 
L 195.110731 106.22016 
L 212.306417 104.831129 
L 229.502103 72.842305 
L 246.697788 72.51354 
L 263.893474 70.561498 
L 281.08916 69.172467 
L 298.284845 67.208097 
L 315.480531 65.810846 
L 332.676217 63.858804 
L 349.871902 62.469773 
L 367.067588 60.501293 
L 384.263274 59.12048 
L 401.458959 57.147891 
L 418.654645 55.767078 
L 435.850331 53.802708 
L 453.046016 52.417786 
L 470.241702 50.445197 
L 487.437388 49.064384 
L 504.633073 47.095904 
L 521.828759 45.706873 
L 539.024445 43.742503 
L 556.22013 42.35758 
L 573.415816 40.39321 
" clip-path="url(#p69c32376b0)" style="fill: none; stroke: #3e356b; stroke-width: 1.5; stroke-linecap: round"/>
    <defs>
     <path id="m383ed4bcde" d="M 0 3 
C 0.795609 3 1.55874 2.683901 2.12132 2.12132 
C 2.683901 1.55874 3 0.795609 3 0 
C 3 -0.795609 2.683901 -1.55874 2.12132 -2.12132 
C 1.55874 -2.683901 0.795609 -3 0 -3 
C -0.795609 -3 -1.55874 -2.683901 -2.12132 -2.12132 
C -2.683901 -1.55874 -3 -0.795609 -3 0 
C -3 0.795609 -2.683901 1.55874 -2.12132 2.12132 
C -1.55874 2.683901 -0.795609 3 0 3 
z
" style="stroke: #ffffff; stroke-width: 0.75"/>
    </defs>
    <g clip-path="url(#p69c32376b0)">
     <use xlink:href="#m383ed4bcde" x="74.740932" y="118.244736" style="fill: #3e356b; stroke: #ffffff; stroke-width: 0.75"/>
     <use xlink:href="#m383ed4bcde" x="91.936617" y="116.276256" style="fill: #3e356b; stroke: #ffffff; stroke-width: 0.75"/>
     <use xlink:href="#m383ed4bcde" x="109.132303" y="114.650925" style="fill: #3e356b; stroke: #ffffff; stroke-width: 0.75"/>
     <use xlink:href="#m383ed4bcde" x="126.327989" y="112.922854" style="fill: #3e356b; stroke: #ffffff; stroke-width: 0.75"/>
     <use xlink:href="#m383ed4bcde" x="143.523674" y="111.533823" style="fill: #3e356b; stroke: #ffffff; stroke-width: 0.75"/>
     <use xlink:href="#m383ed4bcde" x="160.71936" y="108.998224" style="fill: #3e356b; stroke: #ffffff; stroke-width: 0.75"/>
     <use xlink:href="#m383ed4bcde" x="177.915046" y="108.18453" style="fill: #3e356b; stroke: #ffffff; stroke-width: 0.75"/>
     <use xlink:href="#m383ed4bcde" x="195.110731" y="106.22016" style="fill: #3e356b; stroke: #ffffff; stroke-width: 0.75"/>
     <use xlink:href="#m383ed4bcde" x="212.306417" y="104.831129" style="fill: #3e356b; stroke: #ffffff; stroke-width: 0.75"/>
     <use xlink:href="#m383ed4bcde" x="229.502103" y="72.842305" style="fill: #3e356b; stroke: #ffffff; stroke-width: 0.75"/>
     <use xlink:href="#m383ed4bcde" x="246.697788" y="72.51354" style="fill: #3e356b; stroke: #ffffff; stroke-width: 0.75"/>
     <use xlink:href="#m383ed4bcde" x="263.893474" y="70.561498" style="fill: #3e356b; stroke: #ffffff; stroke-width: 0.75"/>
     <use xlink:href="#m383ed4bcde" x="281.08916" y="69.172467" style="fill: #3e356b; stroke: #ffffff; stroke-width: 0.75"/>
     <use xlink:href="#m383ed4bcde" x="298.284845" y="67.208097" style="fill: #3e356b; stroke: #ffffff; stroke-width: 0.75"/>
     <use xlink:href="#m383ed4bcde" x="315.480531" y="65.810846" style="fill: #3e356b; stroke: #ffffff; stroke-width: 0.75"/>
     <use xlink:href="#m383ed4bcde" x="332.676217" y="63.858804" style="fill: #3e356b; stroke: #ffffff; stroke-width: 0.75"/>
     <use xlink:href="#m383ed4bcde" x="349.871902" y="62.469773" style="fill: #3e356b; stroke: #ffffff; stroke-width: 0.75"/>
     <use xlink:href="#m383ed4bcde" x="367.067588" y="60.501293" style="fill: #3e356b; stroke: #ffffff; stroke-width: 0.75"/>
     <use xlink:href="#m383ed4bcde" x="384.263274" y="59.12048" style="fill: #3e356b; stroke: #ffffff; stroke-width: 0.75"/>
     <use xlink:href="#m383ed4bcde" x="401.458959" y="57.147891" style="fill: #3e356b; stroke: #ffffff; stroke-width: 0.75"/>
     <use xlink:href="#m383ed4bcde" x="418.654645" y="55.767078" style="fill: #3e356b; stroke: #ffffff; stroke-width: 0.75"/>
     <use xlink:href="#m383ed4bcde" x="435.850331" y="53.802708" style="fill: #3e356b; stroke: #ffffff; stroke-width: 0.75"/>
     <use xlink:href="#m383ed4bcde" x="453.046016" y="52.417786" style="fill: #3e356b; stroke: #ffffff; stroke-width: 0.75"/>
     <use xlink:href="#m383ed4bcde" x="470.241702" y="50.445197" style="fill: #3e356b; stroke: #ffffff; stroke-width: 0.75"/>
     <use xlink:href="#m383ed4bcde" x="487.437388" y="49.064384" style="fill: #3e356b; stroke: #ffffff; stroke-width: 0.75"/>
     <use xlink:href="#m383ed4bcde" x="504.633073" y="47.095904" style="fill: #3e356b; stroke: #ffffff; stroke-width: 0.75"/>
     <use xlink:href="#m383ed4bcde" x="521.828759" y="45.706873" style="fill: #3e356b; stroke: #ffffff; stroke-width: 0.75"/>
     <use xlink:href="#m383ed4bcde" x="539.024445" y="43.742503" style="fill: #3e356b; stroke: #ffffff; stroke-width: 0.75"/>
     <use xlink:href="#m383ed4bcde" x="556.22013" y="42.35758" style="fill: #3e356b; stroke: #ffffff; stroke-width: 0.75"/>
     <use xlink:href="#m383ed4bcde" x="573.415816" y="40.39321" style="fill: #3e356b; stroke: #ffffff; stroke-width: 0.75"/>
    </g>
   </g>
   <g id="line2d_24">
    <path d="M 74.740932 202.716765 
L 91.936617 200.748285 
L 109.132303 199.359253 
L 126.327989 197.394883 
L 143.523674 196.009961 
L 160.71936 194.045591 
L 177.915046 192.656559 
L 195.110731 190.692189 
L 212.306417 189.307267 
L 229.502103 187.342897 
L 246.697788 185.953865 
L 263.893474 183.993604 
L 281.08916 182.604573 
L 298.284845 180.640202 
L 315.480531 179.251171 
L 332.676217 177.29091 
L 349.871902 175.901878 
L 367.067588 173.941618 
L 384.263274 172.552586 
L 401.458959 170.588216 
L 418.654645 138.743227 
L 435.850331 136.778857 
L 453.046016 135.389825 
L 470.241702 133.429564 
L 487.437388 132.040533 
L 504.633073 130.076162 
L 521.828759 128.687131 
L 539.024445 126.72687 
L 556.22013 125.337839 
L 573.415816 123.373468 
" clip-path="url(#p69c32376b0)" style="fill: none; stroke: #357ba3; stroke-width: 1.5; stroke-linecap: round"/>
    <defs>
     <path id="m966d060949" d="M -3 3 
L 3 3 
L 3 -3 
L -3 -3 
z
" style="stroke: #ffffff; stroke-width: 0.75; stroke-linejoin: miter"/>
    </defs>
    <g clip-path="url(#p69c32376b0)">
     <use xlink:href="#m966d060949" x="74.740932" y="202.716765" style="fill: #357ba3; stroke: #ffffff; stroke-width: 0.75; stroke-linejoin: miter"/>
     <use xlink:href="#m966d060949" x="91.936617" y="200.748285" style="fill: #357ba3; stroke: #ffffff; stroke-width: 0.75; stroke-linejoin: miter"/>
     <use xlink:href="#m966d060949" x="109.132303" y="199.359253" style="fill: #357ba3; stroke: #ffffff; stroke-width: 0.75; stroke-linejoin: miter"/>
     <use xlink:href="#m966d060949" x="126.327989" y="197.394883" style="fill: #357ba3; stroke: #ffffff; stroke-width: 0.75; stroke-linejoin: miter"/>
     <use xlink:href="#m966d060949" x="143.523674" y="196.009961" style="fill: #357ba3; stroke: #ffffff; stroke-width: 0.75; stroke-linejoin: miter"/>
     <use xlink:href="#m966d060949" x="160.71936" y="194.045591" style="fill: #357ba3; stroke: #ffffff; stroke-width: 0.75; stroke-linejoin: miter"/>
     <use xlink:href="#m966d060949" x="177.915046" y="192.656559" style="fill: #357ba3; stroke: #ffffff; stroke-width: 0.75; stroke-linejoin: miter"/>
     <use xlink:href="#m966d060949" x="195.110731" y="190.692189" style="fill: #357ba3; stroke: #ffffff; stroke-width: 0.75; stroke-linejoin: miter"/>
     <use xlink:href="#m966d060949" x="212.306417" y="189.307267" style="fill: #357ba3; stroke: #ffffff; stroke-width: 0.75; stroke-linejoin: miter"/>
     <use xlink:href="#m966d060949" x="229.502103" y="187.342897" style="fill: #357ba3; stroke: #ffffff; stroke-width: 0.75; stroke-linejoin: miter"/>
     <use xlink:href="#m966d060949" x="246.697788" y="185.953865" style="fill: #357ba3; stroke: #ffffff; stroke-width: 0.75; stroke-linejoin: miter"/>
     <use xlink:href="#m966d060949" x="263.893474" y="183.993604" style="fill: #357ba3; stroke: #ffffff; stroke-width: 0.75; stroke-linejoin: miter"/>
     <use xlink:href="#m966d060949" x="281.08916" y="182.604573" style="fill: #357ba3; stroke: #ffffff; stroke-width: 0.75; stroke-linejoin: miter"/>
     <use xlink:href="#m966d060949" x="298.284845" y="180.640202" style="fill: #357ba3; stroke: #ffffff; stroke-width: 0.75; stroke-linejoin: miter"/>
     <use xlink:href="#m966d060949" x="315.480531" y="179.251171" style="fill: #357ba3; stroke: #ffffff; stroke-width: 0.75; stroke-linejoin: miter"/>
     <use xlink:href="#m966d060949" x="332.676217" y="177.29091" style="fill: #357ba3; stroke: #ffffff; stroke-width: 0.75; stroke-linejoin: miter"/>
     <use xlink:href="#m966d060949" x="349.871902" y="175.901878" style="fill: #357ba3; stroke: #ffffff; stroke-width: 0.75; stroke-linejoin: miter"/>
     <use xlink:href="#m966d060949" x="367.067588" y="173.941618" style="fill: #357ba3; stroke: #ffffff; stroke-width: 0.75; stroke-linejoin: miter"/>
     <use xlink:href="#m966d060949" x="384.263274" y="172.552586" style="fill: #357ba3; stroke: #ffffff; stroke-width: 0.75; stroke-linejoin: miter"/>
     <use xlink:href="#m966d060949" x="401.458959" y="170.588216" style="fill: #357ba3; stroke: #ffffff; stroke-width: 0.75; stroke-linejoin: miter"/>
     <use xlink:href="#m966d060949" x="418.654645" y="138.743227" style="fill: #357ba3; stroke: #ffffff; stroke-width: 0.75; stroke-linejoin: miter"/>
     <use xlink:href="#m966d060949" x="435.850331" y="136.778857" style="fill: #357ba3; stroke: #ffffff; stroke-width: 0.75; stroke-linejoin: miter"/>
     <use xlink:href="#m966d060949" x="453.046016" y="135.389825" style="fill: #357ba3; stroke: #ffffff; stroke-width: 0.75; stroke-linejoin: miter"/>
     <use xlink:href="#m966d060949" x="470.241702" y="133.429564" style="fill: #357ba3; stroke: #ffffff; stroke-width: 0.75; stroke-linejoin: miter"/>
     <use xlink:href="#m966d060949" x="487.437388" y="132.040533" style="fill: #357ba3; stroke: #ffffff; stroke-width: 0.75; stroke-linejoin: miter"/>
     <use xlink:href="#m966d060949" x="504.633073" y="130.076162" style="fill: #357ba3; stroke: #ffffff; stroke-width: 0.75; stroke-linejoin: miter"/>
     <use xlink:href="#m966d060949" x="521.828759" y="128.687131" style="fill: #357ba3; stroke: #ffffff; stroke-width: 0.75; stroke-linejoin: miter"/>
     <use xlink:href="#m966d060949" x="539.024445" y="126.72687" style="fill: #357ba3; stroke: #ffffff; stroke-width: 0.75; stroke-linejoin: miter"/>
     <use xlink:href="#m966d060949" x="556.22013" y="125.337839" style="fill: #357ba3; stroke: #ffffff; stroke-width: 0.75; stroke-linejoin: miter"/>
     <use xlink:href="#m966d060949" x="573.415816" y="123.373468" style="fill: #357ba3; stroke: #ffffff; stroke-width: 0.75; stroke-linejoin: miter"/>
    </g>
   </g>
   <g id="line2d_25">
    <path d="M 74.740932 205.338488 
L 91.936617 205.338385 
L 109.132303 205.334251 
L 126.327989 205.334379 
L 143.523674 205.334276 
L 160.71936 205.338484 
L 177.915046 205.338332 
L 195.110731 205.334276 
L 212.306417 205.334321 
L 229.502103 205.338488 
L 246.697788 205.334321 
L 263.893474 205.338332 
L 281.08916 205.334226 
L 298.284845 205.338459 
L 315.480531 205.338357 
L 332.676217 205.334251 
L 349.871902 205.334379 
L 367.067588 205.338484 
L 384.263274 205.334354 
L 401.458959 205.334354 
L 418.654645 205.334321 
L 435.850331 205.338426 
L 453.046016 205.334321 
L 470.241702 205.338385 
L 487.437388 205.338459 
L 504.633073 205.334379 
L 521.828759 205.338426 
L 539.024445 205.338385 
L 556.22013 205.334354 
L 573.415816 205.338459 
" clip-path="url(#p69c32376b0)" style="fill: none; stroke: #4bc2ad; stroke-width: 1.5; stroke-linecap: round"/>
    <defs>
     <path id="m0b2524e4bc" d="M -0 3 
L 3 -3 
L -3 -3 
z
" style="stroke: #ffffff; stroke-width: 0.75; stroke-linejoin: miter"/>
    </defs>
    <g clip-path="url(#p69c32376b0)">
     <use xlink:href="#m0b2524e4bc" x="74.740932" y="205.338488" style="fill: #4bc2ad; stroke: #ffffff; stroke-width: 0.75; stroke-linejoin: miter"/>
     <use xlink:href="#m0b2524e4bc" x="91.936617" y="205.338385" style="fill: #4bc2ad; stroke: #ffffff; stroke-width: 0.75; stroke-linejoin: miter"/>
     <use xlink:href="#m0b2524e4bc" x="109.132303" y="205.334251" style="fill: #4bc2ad; stroke: #ffffff; stroke-width: 0.75; stroke-linejoin: miter"/>
     <use xlink:href="#m0b2524e4bc" x="126.327989" y="205.334379" style="fill: #4bc2ad; stroke: #ffffff; stroke-width: 0.75; stroke-linejoin: miter"/>
     <use xlink:href="#m0b2524e4bc" x="143.523674" y="205.334276" style="fill: #4bc2ad; stroke: #ffffff; stroke-width: 0.75; stroke-linejoin: miter"/>
     <use xlink:href="#m0b2524e4bc" x="160.71936" y="205.338484" style="fill: #4bc2ad; stroke: #ffffff; stroke-width: 0.75; stroke-linejoin: miter"/>
     <use xlink:href="#m0b2524e4bc" x="177.915046" y="205.338332" style="fill: #4bc2ad; stroke: #ffffff; stroke-width: 0.75; stroke-linejoin: miter"/>
     <use xlink:href="#m0b2524e4bc" x="195.110731" y="205.334276" style="fill: #4bc2ad; stroke: #ffffff; stroke-width: 0.75; stroke-linejoin: miter"/>
     <use xlink:href="#m0b2524e4bc" x="212.306417" y="205.334321" style="fill: #4bc2ad; stroke: #ffffff; stroke-width: 0.75; stroke-linejoin: miter"/>
     <use xlink:href="#m0b2524e4bc" x="229.502103" y="205.338488" style="fill: #4bc2ad; stroke: #ffffff; stroke-width: 0.75; stroke-linejoin: miter"/>
     <use xlink:href="#m0b2524e4bc" x="246.697788" y="205.334321" style="fill: #4bc2ad; stroke: #ffffff; stroke-width: 0.75; stroke-linejoin: miter"/>
     <use xlink:href="#m0b2524e4bc" x="263.893474" y="205.338332" style="fill: #4bc2ad; stroke: #ffffff; stroke-width: 0.75; stroke-linejoin: miter"/>
     <use xlink:href="#m0b2524e4bc" x="281.08916" y="205.334226" style="fill: #4bc2ad; stroke: #ffffff; stroke-width: 0.75; stroke-linejoin: miter"/>
     <use xlink:href="#m0b2524e4bc" x="298.284845" y="205.338459" style="fill: #4bc2ad; stroke: #ffffff; stroke-width: 0.75; stroke-linejoin: miter"/>
     <use xlink:href="#m0b2524e4bc" x="315.480531" y="205.338357" style="fill: #4bc2ad; stroke: #ffffff; stroke-width: 0.75; stroke-linejoin: miter"/>
     <use xlink:href="#m0b2524e4bc" x="332.676217" y="205.334251" style="fill: #4bc2ad; stroke: #ffffff; stroke-width: 0.75; stroke-linejoin: miter"/>
     <use xlink:href="#m0b2524e4bc" x="349.871902" y="205.334379" style="fill: #4bc2ad; stroke: #ffffff; stroke-width: 0.75; stroke-linejoin: miter"/>
     <use xlink:href="#m0b2524e4bc" x="367.067588" y="205.338484" style="fill: #4bc2ad; stroke: #ffffff; stroke-width: 0.75; stroke-linejoin: miter"/>
     <use xlink:href="#m0b2524e4bc" x="384.263274" y="205.334354" style="fill: #4bc2ad; stroke: #ffffff; stroke-width: 0.75; stroke-linejoin: miter"/>
     <use xlink:href="#m0b2524e4bc" x="401.458959" y="205.334354" style="fill: #4bc2ad; stroke: #ffffff; stroke-width: 0.75; stroke-linejoin: miter"/>
     <use xlink:href="#m0b2524e4bc" x="418.654645" y="205.334321" style="fill: #4bc2ad; stroke: #ffffff; stroke-width: 0.75; stroke-linejoin: miter"/>
     <use xlink:href="#m0b2524e4bc" x="435.850331" y="205.338426" style="fill: #4bc2ad; stroke: #ffffff; stroke-width: 0.75; stroke-linejoin: miter"/>
     <use xlink:href="#m0b2524e4bc" x="453.046016" y="205.334321" style="fill: #4bc2ad; stroke: #ffffff; stroke-width: 0.75; stroke-linejoin: miter"/>
     <use xlink:href="#m0b2524e4bc" x="470.241702" y="205.338385" style="fill: #4bc2ad; stroke: #ffffff; stroke-width: 0.75; stroke-linejoin: miter"/>
     <use xlink:href="#m0b2524e4bc" x="487.437388" y="205.338459" style="fill: #4bc2ad; stroke: #ffffff; stroke-width: 0.75; stroke-linejoin: miter"/>
     <use xlink:href="#m0b2524e4bc" x="504.633073" y="205.334379" style="fill: #4bc2ad; stroke: #ffffff; stroke-width: 0.75; stroke-linejoin: miter"/>
     <use xlink:href="#m0b2524e4bc" x="521.828759" y="205.338426" style="fill: #4bc2ad; stroke: #ffffff; stroke-width: 0.75; stroke-linejoin: miter"/>
     <use xlink:href="#m0b2524e4bc" x="539.024445" y="205.338385" style="fill: #4bc2ad; stroke: #ffffff; stroke-width: 0.75; stroke-linejoin: miter"/>
     <use xlink:href="#m0b2524e4bc" x="556.22013" y="205.334354" style="fill: #4bc2ad; stroke: #ffffff; stroke-width: 0.75; stroke-linejoin: miter"/>
     <use xlink:href="#m0b2524e4bc" x="573.415816" y="205.338459" style="fill: #4bc2ad; stroke: #ffffff; stroke-width: 0.75; stroke-linejoin: miter"/>
    </g>
   </g>
   <g id="patch_3">
    <path d="M 49.807188 213.585937 
L 49.807188 32.145937 
" style="fill: none; stroke: #ffffff; stroke-width: 1.25; stroke-linejoin: miter; stroke-linecap: square"/>
   </g>
   <g id="patch_4">
    <path d="M 607.807188 213.585937 
L 607.807188 32.145937 
" style="fill: none; stroke: #ffffff; stroke-width: 1.25; stroke-linejoin: miter; stroke-linecap: square"/>
   </g>
   <g id="patch_5">
    <path d="M 49.807187 213.585937 
L 607.807188 213.585937 
" style="fill: none; stroke: #ffffff; stroke-width: 1.25; stroke-linejoin: miter; stroke-linecap: square"/>
   </g>
   <g id="patch_6">
    <path d="M 49.807187 32.145937 
L 607.807188 32.145937 
" style="fill: none; stroke: #ffffff; stroke-width: 1.25; stroke-linejoin: miter; stroke-linecap: square"/>
   </g>
   <g id="legend_1">
    <g id="line2d_26">
     <path d="M 184.085 16.108281 
L 195.085 16.108281 
L 206.085 16.108281 
" style="fill: none; stroke: #3e356b; stroke-width: 1.5; stroke-linecap: round"/>
     <g>
      <use xlink:href="#m383ed4bcde" x="195.085" y="16.108281" style="fill: #3e356b; stroke: #ffffff; stroke-width: 0.75"/>
     </g>
    </g>
    <g id="text_24">
     <!-- Worst Case -->
     <g style="fill: #262626" transform="translate(214.885 19.958281) scale(0.11 -0.11)">
      <defs>
       <path id="DejaVuSans-57" d="M 213 4666 
L 850 4666 
L 1831 722 
L 2809 4666 
L 3519 4666 
L 4500 722 
L 5478 4666 
L 6119 4666 
L 4947 0 
L 4153 0 
L 3169 4050 
L 2175 0 
L 1381 0 
L 213 4666 
z
" transform="scale(0.015625)"/>
       <path id="DejaVuSans-6f" d="M 1959 3097 
Q 1497 3097 1228 2736 
Q 959 2375 959 1747 
Q 959 1119 1226 758 
Q 1494 397 1959 397 
Q 2419 397 2687 759 
Q 2956 1122 2956 1747 
Q 2956 2369 2687 2733 
Q 2419 3097 1959 3097 
z
M 1959 3584 
Q 2709 3584 3137 3096 
Q 3566 2609 3566 1747 
Q 3566 888 3137 398 
Q 2709 -91 1959 -91 
Q 1206 -91 779 398 
Q 353 888 353 1747 
Q 353 2609 779 3096 
Q 1206 3584 1959 3584 
z
" transform="scale(0.015625)"/>
       <path id="DejaVuSans-72" d="M 2631 2963 
Q 2534 3019 2420 3045 
Q 2306 3072 2169 3072 
Q 1681 3072 1420 2755 
Q 1159 2438 1159 1844 
L 1159 0 
L 581 0 
L 581 3500 
L 1159 3500 
L 1159 2956 
Q 1341 3275 1631 3429 
Q 1922 3584 2338 3584 
Q 2397 3584 2469 3576 
Q 2541 3569 2628 3553 
L 2631 2963 
z
" transform="scale(0.015625)"/>
       <path id="DejaVuSans-43" d="M 4122 4306 
L 4122 3641 
Q 3803 3938 3442 4084 
Q 3081 4231 2675 4231 
Q 1875 4231 1450 3742 
Q 1025 3253 1025 2328 
Q 1025 1406 1450 917 
Q 1875 428 2675 428 
Q 3081 428 3442 575 
Q 3803 722 4122 1019 
L 4122 359 
Q 3791 134 3420 21 
Q 3050 -91 2638 -91 
Q 1578 -91 968 557 
Q 359 1206 359 2328 
Q 359 3453 968 4101 
Q 1578 4750 2638 4750 
Q 3056 4750 3426 4639 
Q 3797 4528 4122 4306 
z
" transform="scale(0.015625)"/>
      </defs>
      <use xlink:href="#DejaVuSans-57"/>
      <use xlink:href="#DejaVuSans-6f" x="93.001953"/>
      <use xlink:href="#DejaVuSans-72" x="154.183594"/>
      <use xlink:href="#DejaVuSans-73" x="195.296875"/>
      <use xlink:href="#DejaVuSans-74" x="247.396484"/>
      <use xlink:href="#DejaVuSans-20" x="286.605469"/>
      <use xlink:href="#DejaVuSans-43" x="318.392578"/>
      <use xlink:href="#DejaVuSans-61" x="388.216797"/>
      <use xlink:href="#DejaVuSans-73" x="449.496094"/>
      <use xlink:href="#DejaVuSans-65" x="501.595703"/>
     </g>
    </g>
    <g id="line2d_27">
     <path d="M 298.827031 16.108281 
L 309.827031 16.108281 
L 320.827031 16.108281 
" style="fill: none; stroke: #357ba3; stroke-width: 1.5; stroke-linecap: round"/>
     <g>
      <use xlink:href="#m966d060949" x="309.827031" y="16.108281" style="fill: #357ba3; stroke: #ffffff; stroke-width: 0.75; stroke-linejoin: miter"/>
     </g>
    </g>
    <g id="text_25">
     <!-- Hybrid -->
     <g style="fill: #262626" transform="translate(329.627031 19.958281) scale(0.11 -0.11)">
      <defs>
       <path id="DejaVuSans-48" d="M 628 4666 
L 1259 4666 
L 1259 2753 
L 3553 2753 
L 3553 4666 
L 4184 4666 
L 4184 0 
L 3553 0 
L 3553 2222 
L 1259 2222 
L 1259 0 
L 628 0 
L 628 4666 
z
" transform="scale(0.015625)"/>
       <path id="DejaVuSans-62" d="M 3116 1747 
Q 3116 2381 2855 2742 
Q 2594 3103 2138 3103 
Q 1681 3103 1420 2742 
Q 1159 2381 1159 1747 
Q 1159 1113 1420 752 
Q 1681 391 2138 391 
Q 2594 391 2855 752 
Q 3116 1113 3116 1747 
z
M 1159 2969 
Q 1341 3281 1617 3432 
Q 1894 3584 2278 3584 
Q 2916 3584 3314 3078 
Q 3713 2572 3713 1747 
Q 3713 922 3314 415 
Q 2916 -91 2278 -91 
Q 1894 -91 1617 61 
Q 1341 213 1159 525 
L 1159 0 
L 581 0 
L 581 4863 
L 1159 4863 
L 1159 2969 
z
" transform="scale(0.015625)"/>
       <path id="DejaVuSans-69" d="M 603 3500 
L 1178 3500 
L 1178 0 
L 603 0 
L 603 3500 
z
M 603 4863 
L 1178 4863 
L 1178 4134 
L 603 4134 
L 603 4863 
z
" transform="scale(0.015625)"/>
       <path id="DejaVuSans-64" d="M 2906 2969 
L 2906 4863 
L 3481 4863 
L 3481 0 
L 2906 0 
L 2906 525 
Q 2725 213 2448 61 
Q 2172 -91 1784 -91 
Q 1150 -91 751 415 
Q 353 922 353 1747 
Q 353 2572 751 3078 
Q 1150 3584 1784 3584 
Q 2172 3584 2448 3432 
Q 2725 3281 2906 2969 
z
M 947 1747 
Q 947 1113 1208 752 
Q 1469 391 1925 391 
Q 2381 391 2643 752 
Q 2906 1113 2906 1747 
Q 2906 2381 2643 2742 
Q 2381 3103 1925 3103 
Q 1469 3103 1208 2742 
Q 947 2381 947 1747 
z
" transform="scale(0.015625)"/>
      </defs>
      <use xlink:href="#DejaVuSans-48"/>
      <use xlink:href="#DejaVuSans-79" x="75.195312"/>
      <use xlink:href="#DejaVuSans-62" x="134.375"/>
      <use xlink:href="#DejaVuSans-72" x="197.851562"/>
      <use xlink:href="#DejaVuSans-69" x="238.964844"/>
      <use xlink:href="#DejaVuSans-64" x="266.748047"/>
     </g>
    </g>
    <g id="line2d_28">
     <path d="M 387.954531 16.108281 
L 398.954531 16.108281 
L 409.954531 16.108281 
" style="fill: none; stroke: #4bc2ad; stroke-width: 1.5; stroke-linecap: round"/>
     <g>
      <use xlink:href="#m0b2524e4bc" x="398.954531" y="16.108281" style="fill: #4bc2ad; stroke: #ffffff; stroke-width: 0.75; stroke-linejoin: miter"/>
     </g>
    </g>
    <g id="text_26">
     <!-- Best Case -->
     <g style="fill: #262626" transform="translate(418.754531 19.958281) scale(0.11 -0.11)">
      <defs>
       <path id="DejaVuSans-42" d="M 1259 2228 
L 1259 519 
L 2272 519 
Q 2781 519 3026 730 
Q 3272 941 3272 1375 
Q 3272 1813 3026 2020 
Q 2781 2228 2272 2228 
L 1259 2228 
z
M 1259 4147 
L 1259 2741 
L 2194 2741 
Q 2656 2741 2882 2914 
Q 3109 3088 3109 3444 
Q 3109 3797 2882 3972 
Q 2656 4147 2194 4147 
L 1259 4147 
z
M 628 4666 
L 2241 4666 
Q 2963 4666 3353 4366 
Q 3744 4066 3744 3513 
Q 3744 3084 3544 2831 
Q 3344 2578 2956 2516 
Q 3422 2416 3680 2098 
Q 3938 1781 3938 1306 
Q 3938 681 3513 340 
Q 3088 0 2303 0 
L 628 0 
L 628 4666 
z
" transform="scale(0.015625)"/>
      </defs>
      <use xlink:href="#DejaVuSans-42"/>
      <use xlink:href="#DejaVuSans-65" x="68.603516"/>
      <use xlink:href="#DejaVuSans-73" x="130.126953"/>
      <use xlink:href="#DejaVuSans-74" x="182.226562"/>
      <use xlink:href="#DejaVuSans-20" x="221.435547"/>
      <use xlink:href="#DejaVuSans-43" x="253.222656"/>
      <use xlink:href="#DejaVuSans-61" x="323.046875"/>
      <use xlink:href="#DejaVuSans-73" x="384.326172"/>
      <use xlink:href="#DejaVuSans-65" x="436.425781"/>
     </g>
    </g>
   </g>
  </g>
  <g id="axes_2">
   <g id="patch_7">
    <path d="M 49.807188 364.785937 
L 607.807188 364.785937 
L 607.807188 243.825937 
L 49.807188 243.825937 
z
" style="fill: #eaeaf2"/>
   </g>
   <g id="matplotlib.axis_3">
    <g id="xtick_33">
     <g id="line2d_29">
      <path d="M 74.740932 364.785937 
L 74.740932 243.825937 
" clip-path="url(#pbdda732bde)" style="fill: none; stroke: #ffffff; stroke-linecap: round"/>
     </g>
     <g id="text_27">
      <!-- 0 -->
      <g style="fill: #262626" transform="translate(71.241557 382.644219) scale(0.11 -0.11)">
       <use xlink:href="#DejaVuSans-30"/>
      </g>
     </g>
    </g>
    <g id="xtick_34">
     <g id="line2d_30">
      <path d="M 109.132303 364.785937 
L 109.132303 243.825937 
" clip-path="url(#pbdda732bde)" style="fill: none; stroke: #ffffff; stroke-linecap: round"/>
     </g>
     <g id="text_28">
      <!-- 64 -->
      <g style="fill: #262626" transform="translate(102.133553 382.644219) scale(0.11 -0.11)">
       <use xlink:href="#DejaVuSans-36"/>
       <use xlink:href="#DejaVuSans-34" x="63.623047"/>
      </g>
     </g>
    </g>
    <g id="xtick_35">
     <g id="line2d_31">
      <path d="M 143.523674 364.785937 
L 143.523674 243.825937 
" clip-path="url(#pbdda732bde)" style="fill: none; stroke: #ffffff; stroke-linecap: round"/>
     </g>
     <g id="text_29">
      <!-- 128 -->
      <g style="fill: #262626" transform="translate(133.025549 382.644219) scale(0.11 -0.11)">
       <use xlink:href="#DejaVuSans-31"/>
       <use xlink:href="#DejaVuSans-32" x="63.623047"/>
       <use xlink:href="#DejaVuSans-38" x="127.246094"/>
      </g>
     </g>
    </g>
    <g id="xtick_36">
     <g id="line2d_32">
      <path d="M 177.915046 364.785937 
L 177.915046 243.825937 
" clip-path="url(#pbdda732bde)" style="fill: none; stroke: #ffffff; stroke-linecap: round"/>
     </g>
     <g id="text_30">
      <!-- 192 -->
      <g style="fill: #262626" transform="translate(167.416921 382.644219) scale(0.11 -0.11)">
       <use xlink:href="#DejaVuSans-31"/>
       <use xlink:href="#DejaVuSans-39" x="63.623047"/>
       <use xlink:href="#DejaVuSans-32" x="127.246094"/>
      </g>
     </g>
    </g>
    <g id="xtick_37">
     <g id="line2d_33">
      <path d="M 212.306417 364.785937 
L 212.306417 243.825937 
" clip-path="url(#pbdda732bde)" style="fill: none; stroke: #ffffff; stroke-linecap: round"/>
     </g>
     <g id="text_31">
      <!-- 256 -->
      <g style="fill: #262626" transform="translate(201.808292 382.644219) scale(0.11 -0.11)">
       <use xlink:href="#DejaVuSans-32"/>
       <use xlink:href="#DejaVuSans-35" x="63.623047"/>
       <use xlink:href="#DejaVuSans-36" x="127.246094"/>
      </g>
     </g>
    </g>
    <g id="xtick_38">
     <g id="line2d_34">
      <path d="M 246.697788 364.785937 
L 246.697788 243.825937 
" clip-path="url(#pbdda732bde)" style="fill: none; stroke: #ffffff; stroke-linecap: round"/>
     </g>
     <g id="text_32">
      <!-- 320 -->
      <g style="fill: #262626" transform="translate(236.199663 382.644219) scale(0.11 -0.11)">
       <use xlink:href="#DejaVuSans-33"/>
       <use xlink:href="#DejaVuSans-32" x="63.623047"/>
       <use xlink:href="#DejaVuSans-30" x="127.246094"/>
      </g>
     </g>
    </g>
    <g id="xtick_39">
     <g id="line2d_35">
      <path d="M 281.08916 364.785937 
L 281.08916 243.825937 
" clip-path="url(#pbdda732bde)" style="fill: none; stroke: #ffffff; stroke-linecap: round"/>
     </g>
     <g id="text_33">
      <!-- 384 -->
      <g style="fill: #262626" transform="translate(270.591035 382.644219) scale(0.11 -0.11)">
       <use xlink:href="#DejaVuSans-33"/>
       <use xlink:href="#DejaVuSans-38" x="63.623047"/>
       <use xlink:href="#DejaVuSans-34" x="127.246094"/>
      </g>
     </g>
    </g>
    <g id="xtick_40">
     <g id="line2d_36">
      <path d="M 315.480531 364.785937 
L 315.480531 243.825937 
" clip-path="url(#pbdda732bde)" style="fill: none; stroke: #ffffff; stroke-linecap: round"/>
     </g>
     <g id="text_34">
      <!-- 448 -->
      <g style="fill: #262626" transform="translate(304.982406 382.644219) scale(0.11 -0.11)">
       <use xlink:href="#DejaVuSans-34"/>
       <use xlink:href="#DejaVuSans-34" x="63.623047"/>
       <use xlink:href="#DejaVuSans-38" x="127.246094"/>
      </g>
     </g>
    </g>
    <g id="xtick_41">
     <g id="line2d_37">
      <path d="M 349.871902 364.785937 
L 349.871902 243.825937 
" clip-path="url(#pbdda732bde)" style="fill: none; stroke: #ffffff; stroke-linecap: round"/>
     </g>
     <g id="text_35">
      <!-- 512 -->
      <g style="fill: #262626" transform="translate(339.373777 382.644219) scale(0.11 -0.11)">
       <use xlink:href="#DejaVuSans-35"/>
       <use xlink:href="#DejaVuSans-31" x="63.623047"/>
       <use xlink:href="#DejaVuSans-32" x="127.246094"/>
      </g>
     </g>
    </g>
    <g id="xtick_42">
     <g id="line2d_38">
      <path d="M 384.263274 364.785937 
L 384.263274 243.825937 
" clip-path="url(#pbdda732bde)" style="fill: none; stroke: #ffffff; stroke-linecap: round"/>
     </g>
     <g id="text_36">
      <!-- 576 -->
      <g style="fill: #262626" transform="translate(373.765149 382.644219) scale(0.11 -0.11)">
       <use xlink:href="#DejaVuSans-35"/>
       <use xlink:href="#DejaVuSans-37" x="63.623047"/>
       <use xlink:href="#DejaVuSans-36" x="127.246094"/>
      </g>
     </g>
    </g>
    <g id="xtick_43">
     <g id="line2d_39">
      <path d="M 418.654645 364.785937 
L 418.654645 243.825937 
" clip-path="url(#pbdda732bde)" style="fill: none; stroke: #ffffff; stroke-linecap: round"/>
     </g>
     <g id="text_37">
      <!-- 640 -->
      <g style="fill: #262626" transform="translate(408.15652 382.644219) scale(0.11 -0.11)">
       <use xlink:href="#DejaVuSans-36"/>
       <use xlink:href="#DejaVuSans-34" x="63.623047"/>
       <use xlink:href="#DejaVuSans-30" x="127.246094"/>
      </g>
     </g>
    </g>
    <g id="xtick_44">
     <g id="line2d_40">
      <path d="M 453.046016 364.785937 
L 453.046016 243.825937 
" clip-path="url(#pbdda732bde)" style="fill: none; stroke: #ffffff; stroke-linecap: round"/>
     </g>
     <g id="text_38">
      <!-- 704 -->
      <g style="fill: #262626" transform="translate(442.547891 382.644219) scale(0.11 -0.11)">
       <use xlink:href="#DejaVuSans-37"/>
       <use xlink:href="#DejaVuSans-30" x="63.623047"/>
       <use xlink:href="#DejaVuSans-34" x="127.246094"/>
      </g>
     </g>
    </g>
    <g id="xtick_45">
     <g id="line2d_41">
      <path d="M 487.437388 364.785937 
L 487.437388 243.825937 
" clip-path="url(#pbdda732bde)" style="fill: none; stroke: #ffffff; stroke-linecap: round"/>
     </g>
     <g id="text_39">
      <!-- 768 -->
      <g style="fill: #262626" transform="translate(476.939263 382.644219) scale(0.11 -0.11)">
       <use xlink:href="#DejaVuSans-37"/>
       <use xlink:href="#DejaVuSans-36" x="63.623047"/>
       <use xlink:href="#DejaVuSans-38" x="127.246094"/>
      </g>
     </g>
    </g>
    <g id="xtick_46">
     <g id="line2d_42">
      <path d="M 521.828759 364.785937 
L 521.828759 243.825937 
" clip-path="url(#pbdda732bde)" style="fill: none; stroke: #ffffff; stroke-linecap: round"/>
     </g>
     <g id="text_40">
      <!-- 832 -->
      <g style="fill: #262626" transform="translate(511.330634 382.644219) scale(0.11 -0.11)">
       <use xlink:href="#DejaVuSans-38"/>
       <use xlink:href="#DejaVuSans-33" x="63.623047"/>
       <use xlink:href="#DejaVuSans-32" x="127.246094"/>
      </g>
     </g>
    </g>
    <g id="xtick_47">
     <g id="line2d_43">
      <path d="M 556.22013 364.785937 
L 556.22013 243.825937 
" clip-path="url(#pbdda732bde)" style="fill: none; stroke: #ffffff; stroke-linecap: round"/>
     </g>
     <g id="text_41">
      <!-- 896 -->
      <g style="fill: #262626" transform="translate(545.722005 382.644219) scale(0.11 -0.11)">
       <use xlink:href="#DejaVuSans-38"/>
       <use xlink:href="#DejaVuSans-39" x="63.623047"/>
       <use xlink:href="#DejaVuSans-36" x="127.246094"/>
      </g>
     </g>
    </g>
    <g id="xtick_48">
     <g id="line2d_44">
      <path d="M 590.611502 364.785937 
L 590.611502 243.825937 
" clip-path="url(#pbdda732bde)" style="fill: none; stroke: #ffffff; stroke-linecap: round"/>
     </g>
     <g id="text_42">
      <!-- 960 -->
      <g style="fill: #262626" transform="translate(580.113377 382.644219) scale(0.11 -0.11)">
       <use xlink:href="#DejaVuSans-39"/>
       <use xlink:href="#DejaVuSans-36" x="63.623047"/>
       <use xlink:href="#DejaVuSans-30" x="127.246094"/>
      </g>
     </g>
    </g>
    <g id="xtick_49"/>
    <g id="xtick_50"/>
    <g id="xtick_51"/>
    <g id="xtick_52"/>
    <g id="xtick_53"/>
    <g id="xtick_54"/>
    <g id="xtick_55"/>
    <g id="xtick_56"/>
    <g id="xtick_57"/>
    <g id="xtick_58"/>
    <g id="xtick_59"/>
    <g id="xtick_60"/>
    <g id="xtick_61"/>
    <g id="xtick_62"/>
    <g id="xtick_63"/>
    <g id="xtick_64"/>
    <g id="text_43">
     <!-- Object Size [Bytes] -->
     <g style="fill: #262626" transform="translate(271.615 398.05) scale(0.12 -0.12)">
      <defs>
       <path id="DejaVuSans-4f" d="M 2522 4238 
Q 1834 4238 1429 3725 
Q 1025 3213 1025 2328 
Q 1025 1447 1429 934 
Q 1834 422 2522 422 
Q 3209 422 3611 934 
Q 4013 1447 4013 2328 
Q 4013 3213 3611 3725 
Q 3209 4238 2522 4238 
z
M 2522 4750 
Q 3503 4750 4090 4092 
Q 4678 3434 4678 2328 
Q 4678 1225 4090 567 
Q 3503 -91 2522 -91 
Q 1538 -91 948 565 
Q 359 1222 359 2328 
Q 359 3434 948 4092 
Q 1538 4750 2522 4750 
z
" transform="scale(0.015625)"/>
       <path id="DejaVuSans-6a" d="M 603 3500 
L 1178 3500 
L 1178 -63 
Q 1178 -731 923 -1031 
Q 669 -1331 103 -1331 
L -116 -1331 
L -116 -844 
L 38 -844 
Q 366 -844 484 -692 
Q 603 -541 603 -63 
L 603 3500 
z
M 603 4863 
L 1178 4863 
L 1178 4134 
L 603 4134 
L 603 4863 
z
" transform="scale(0.015625)"/>
       <path id="DejaVuSans-53" d="M 3425 4513 
L 3425 3897 
Q 3066 4069 2747 4153 
Q 2428 4238 2131 4238 
Q 1616 4238 1336 4038 
Q 1056 3838 1056 3469 
Q 1056 3159 1242 3001 
Q 1428 2844 1947 2747 
L 2328 2669 
Q 3034 2534 3370 2195 
Q 3706 1856 3706 1288 
Q 3706 609 3251 259 
Q 2797 -91 1919 -91 
Q 1588 -91 1214 -16 
Q 841 59 441 206 
L 441 856 
Q 825 641 1194 531 
Q 1563 422 1919 422 
Q 2459 422 2753 634 
Q 3047 847 3047 1241 
Q 3047 1584 2836 1778 
Q 2625 1972 2144 2069 
L 1759 2144 
Q 1053 2284 737 2584 
Q 422 2884 422 3419 
Q 422 4038 858 4394 
Q 1294 4750 2059 4750 
Q 2388 4750 2728 4690 
Q 3069 4631 3425 4513 
z
" transform="scale(0.015625)"/>
       <path id="DejaVuSans-7a" d="M 353 3500 
L 3084 3500 
L 3084 2975 
L 922 459 
L 3084 459 
L 3084 0 
L 275 0 
L 275 525 
L 2438 3041 
L 353 3041 
L 353 3500 
z
" transform="scale(0.015625)"/>
      </defs>
      <use xlink:href="#DejaVuSans-4f"/>
      <use xlink:href="#DejaVuSans-62" x="78.710938"/>
      <use xlink:href="#DejaVuSans-6a" x="142.1875"/>
      <use xlink:href="#DejaVuSans-65" x="169.970703"/>
      <use xlink:href="#DejaVuSans-63" x="231.494141"/>
      <use xlink:href="#DejaVuSans-74" x="286.474609"/>
      <use xlink:href="#DejaVuSans-20" x="325.683594"/>
      <use xlink:href="#DejaVuSans-53" x="357.470703"/>
      <use xlink:href="#DejaVuSans-69" x="420.947266"/>
      <use xlink:href="#DejaVuSans-7a" x="448.730469"/>
      <use xlink:href="#DejaVuSans-65" x="501.220703"/>
      <use xlink:href="#DejaVuSans-20" x="562.744141"/>
      <use xlink:href="#DejaVuSans-5b" x="594.53125"/>
      <use xlink:href="#DejaVuSans-42" x="633.544922"/>
      <use xlink:href="#DejaVuSans-79" x="702.148438"/>
      <use xlink:href="#DejaVuSans-74" x="761.328125"/>
      <use xlink:href="#DejaVuSans-65" x="800.537109"/>
      <use xlink:href="#DejaVuSans-73" x="862.060547"/>
      <use xlink:href="#DejaVuSans-5d" x="914.160156"/>
     </g>
    </g>
   </g>
   <g id="matplotlib.axis_4">
    <g id="ytick_7">
     <g id="line2d_45">
      <path d="M 49.807188 364.785937 
L 607.807188 364.785937 
" clip-path="url(#pbdda732bde)" style="fill: none; stroke: #ffffff; stroke-linecap: round"/>
     </g>
     <g id="text_44">
      <!-- 0 -->
      <g style="fill: #262626" transform="translate(33.308438 368.965078) scale(0.11 -0.11)">
       <use xlink:href="#DejaVuSans-30"/>
      </g>
     </g>
    </g>
    <g id="ytick_8">
     <g id="line2d_46">
      <path d="M 49.807188 334.545937 
L 607.807188 334.545937 
" clip-path="url(#pbdda732bde)" style="fill: none; stroke: #ffffff; stroke-linecap: round"/>
     </g>
     <g id="text_45">
      <!-- 2 -->
      <g style="fill: #262626" transform="translate(33.308438 338.725078) scale(0.11 -0.11)">
       <use xlink:href="#DejaVuSans-32"/>
      </g>
     </g>
    </g>
    <g id="ytick_9">
     <g id="line2d_47">
      <path d="M 49.807188 304.305937 
L 607.807188 304.305937 
" clip-path="url(#pbdda732bde)" style="fill: none; stroke: #ffffff; stroke-linecap: round"/>
     </g>
     <g id="text_46">
      <!-- 4 -->
      <g style="fill: #262626" transform="translate(33.308438 308.485078) scale(0.11 -0.11)">
       <use xlink:href="#DejaVuSans-34"/>
      </g>
     </g>
    </g>
    <g id="ytick_10">
     <g id="line2d_48">
      <path d="M 49.807188 274.065937 
L 607.807188 274.065937 
" clip-path="url(#pbdda732bde)" style="fill: none; stroke: #ffffff; stroke-linecap: round"/>
     </g>
     <g id="text_47">
      <!-- 6 -->
      <g style="fill: #262626" transform="translate(33.308438 278.245078) scale(0.11 -0.11)">
       <use xlink:href="#DejaVuSans-36"/>
      </g>
     </g>
    </g>
    <g id="ytick_11">
     <g id="line2d_49">
      <path d="M 49.807188 243.825937 
L 607.807188 243.825937 
" clip-path="url(#pbdda732bde)" style="fill: none; stroke: #ffffff; stroke-linecap: round"/>
     </g>
     <g id="text_48">
      <!-- 8 -->
      <g style="fill: #262626" transform="translate(33.308438 248.005078) scale(0.11 -0.11)">
       <use xlink:href="#DejaVuSans-38"/>
      </g>
     </g>
    </g>
    <g id="text_49">
     <!-- Latency [s] -->
     <g style="fill: #262626" transform="translate(26.812812 341.554687) rotate(-90) scale(0.12 -0.12)">
      <defs>
       <path id="DejaVuSans-b5" d="M 544 -1331 
L 544 3500 
L 1119 3500 
L 1119 1325 
Q 1119 872 1334 640 
Q 1550 409 1972 409 
Q 2434 409 2667 671 
Q 2900 934 2900 1459 
L 2900 3500 
L 3475 3500 
L 3475 806 
Q 3475 619 3529 530 
Q 3584 441 3700 441 
Q 3728 441 3778 458 
Q 3828 475 3916 513 
L 3916 50 
Q 3788 -22 3673 -56 
Q 3559 -91 3450 -91 
Q 3234 -91 3106 31 
Q 2978 153 2931 403 
Q 2775 156 2548 32 
Q 2322 -91 2016 -91 
Q 1697 -91 1473 31 
Q 1250 153 1119 397 
L 1119 -1331 
L 544 -1331 
z
" transform="scale(0.015625)"/>
      </defs>
      <use xlink:href="#DejaVuSans-4c"/>
      <use xlink:href="#DejaVuSans-61" x="55.712891"/>
      <use xlink:href="#DejaVuSans-74" x="116.992188"/>
      <use xlink:href="#DejaVuSans-65" x="156.201172"/>
      <use xlink:href="#DejaVuSans-6e" x="217.724609"/>
      <use xlink:href="#DejaVuSans-63" x="281.103516"/>
      <use xlink:href="#DejaVuSans-79" x="336.083984"/>
      <use xlink:href="#DejaVuSans-20" x="395.263672"/>
      <use xlink:href="#DejaVuSans-5b" x="427.050781"/>
      <use xlink:href="#DejaVuSans-b5" x="466.064453"/>
      <use xlink:href="#DejaVuSans-73" x="529.6875"/>
      <use xlink:href="#DejaVuSans-5d" x="581.787109"/>
     </g>
    </g>
   </g>
   <g id="PolyCollection_7"/>
   <g id="PolyCollection_8">
    <path d="M 74.740932 -261.749062 
L 74.740932 -261.749062 
L 91.936617 -714.404062 
L 109.132303 -1033.814062 
L 126.327989 -1485.524062 
L 143.523674 -1803.989062 
L 160.71936 -2255.699062 
L 177.915046 -2575.109062 
L 195.110731 -3026.819062 
L 212.306417 -3345.284062 
L 229.502103 -3796.994062 
L 246.697788 -4116.404062 
L 263.893474 -4567.169062 
L 281.08916 -4886.579062 
L 298.284845 -5338.289062 
L 315.480531 -5657.699062 
L 332.676217 -6108.464062 
L 349.871902 -6427.874062 
L 367.067588 -6878.639062 
L 384.263274 -7198.049062 
L 401.458959 -7649.759062 
L 418.654645 -14972.564062 
L 435.850331 -15424.274062 
L 453.046016 -15743.684062 
L 470.241702 -16194.449062 
L 487.437388 -16513.859062 
L 504.633073 -16965.569062 
L 521.828759 -17284.979062 
L 539.024445 -17735.744062 
L 556.22013 -18055.154062 
L 573.415816 -18506.864062 
L 573.415816 -18506.864062 
L 573.415816 -18506.864062 
L 556.22013 -18055.154062 
L 539.024445 -17735.744062 
L 521.828759 -17284.979062 
L 504.633073 -16965.569062 
L 487.437388 -16513.859062 
L 470.241702 -16194.449062 
L 453.046016 -15743.684062 
L 435.850331 -15424.274062 
L 418.654645 -14972.564062 
L 401.458959 -7649.759062 
L 384.263274 -7198.049062 
L 367.067588 -6878.639062 
L 349.871902 -6427.874062 
L 332.676217 -6108.464062 
L 315.480531 -5657.699062 
L 298.284845 -5338.289062 
L 281.08916 -4886.579062 
L 263.893474 -4567.169062 
L 246.697788 -4116.404062 
L 229.502103 -3796.994062 
L 212.306417 -3345.284062 
L 195.110731 -3026.819062 
L 177.915046 -2575.109062 
L 160.71936 -2255.699062 
L 143.523674 -1803.989062 
L 126.327989 -1485.524062 
L 109.132303 -1033.814062 
L 91.936617 -714.404062 
L 74.740932 -261.749062 
z
" clip-path="url(#pbdda732bde)" style="fill: #4bc2ad; fill-opacity: 0.2; stroke: #ffffff; stroke-opacity: 0.2"/>
   </g>
   <g id="PolyCollection_9"/>
   <g id="PolyCollection_10">
    <defs>
     <path id="mfffeb82b29" d="M 74.740932 -107.219687 
L 74.740932 -66.584688 
L 91.936617 -66.584688 
L 109.132303 -67.529687 
L 126.327989 -67.529687 
L 143.523674 -67.529687 
L 160.71936 -66.584688 
L 177.915046 -66.584688 
L 195.110731 -67.529687 
L 212.306417 -67.529687 
L 229.502103 -66.584688 
L 246.697788 -67.529687 
L 263.893474 -66.584688 
L 281.08916 -67.529687 
L 298.284845 -66.584688 
L 315.480531 -66.584688 
L 332.676217 -67.529687 
L 349.871902 -67.529687 
L 367.067588 -66.584688 
L 384.263274 -67.529687 
L 401.458959 -67.529687 
L 418.654645 -67.529687 
L 435.850331 -66.584688 
L 453.046016 -67.529687 
L 470.241702 -66.584688 
L 487.437388 -66.584688 
L 504.633073 -67.529687 
L 521.828759 -66.584688 
L 539.024445 -66.584688 
L 556.22013 -67.529687 
L 573.415816 -66.584688 
L 573.415816 -113.834687 
L 573.415816 -113.834687 
L 556.22013 -113.834687 
L 539.024445 -130.844687 
L 521.828759 -121.394687 
L 504.633073 -108.164687 
L 487.437388 -113.834687 
L 470.241702 -130.844687 
L 453.046016 -121.394687 
L 435.850331 -121.394687 
L 418.654645 -121.394687 
L 401.458959 -113.834687 
L 384.263274 -113.834687 
L 367.067588 -108.164687 
L 349.871902 -108.164687 
L 332.676217 -137.459687 
L 315.480531 -137.459687 
L 298.284845 -113.834687 
L 281.08916 -143.129687 
L 263.893474 -143.129687 
L 246.697788 -121.394687 
L 229.502103 -107.219687 
L 212.306417 -121.394687 
L 195.110731 -131.789687 
L 177.915046 -143.129687 
L 160.71936 -108.164687 
L 143.523674 -131.789687 
L 126.327989 -108.164687 
L 109.132303 -137.459687 
L 91.936617 -130.844687 
L 74.740932 -107.219687 
z
" style="stroke: #ffffff; stroke-opacity: 0.2"/>
    </defs>
    <g clip-path="url(#pbdda732bde)">
     <use xlink:href="#mfffeb82b29" x="0" y="407.745625" style="fill: #4bc2ad; fill-opacity: 0.2; stroke: #ffffff; stroke-opacity: 0.2"/>
    </g>
   </g>
   <g id="line2d_50">
    <path clip-path="url(#pbdda732bde)" style="fill: none; stroke: #4bc2ad; stroke-width: 1.5; stroke-linecap: round"/>
    <defs>
     <path id="m5e414ab9cd" d="M -3 3 
L 3 3 
L 3 -3 
L -3 -3 
z
" style="stroke: #ffffff; stroke-width: 0.75; stroke-linejoin: miter"/>
    </defs>
    <g clip-path="url(#pbdda732bde)"/>
   </g>
   <g id="line2d_51">
    <path d="M 74.740932 341.120302 
L 91.936617 341.096677 
L 109.132303 340.146007 
L 126.327989 340.175302 
L 143.523674 340.151677 
L 160.71936 341.119357 
L 177.915046 341.084392 
L 195.110731 340.151677 
L 212.306417 340.162072 
L 229.502103 341.120302 
L 246.697788 340.162072 
L 263.893474 341.084392 
L 281.08916 340.140337 
L 298.284845 341.113687 
L 315.480531 341.090062 
L 332.676217 340.146007 
L 349.871902 340.175302 
L 367.067588 341.119357 
L 384.263274 340.169632 
L 401.458959 340.169632 
L 418.654645 340.162072 
L 435.850331 341.106127 
L 453.046016 340.162072 
L 470.241702 341.096677 
L 487.437388 341.113687 
L 504.633073 340.175302 
L 521.828759 341.106127 
L 539.024445 341.096677 
L 556.22013 340.169632 
L 573.415816 341.113687 
" clip-path="url(#pbdda732bde)" style="fill: none; stroke: #4bc2ad; stroke-width: 1.5; stroke-linecap: round"/>
    <g clip-path="url(#pbdda732bde)">
     <use xlink:href="#m0b2524e4bc" x="74.740932" y="341.120302" style="fill: #4bc2ad; stroke: #ffffff; stroke-width: 0.75; stroke-linejoin: miter"/>
     <use xlink:href="#m0b2524e4bc" x="91.936617" y="341.096677" style="fill: #4bc2ad; stroke: #ffffff; stroke-width: 0.75; stroke-linejoin: miter"/>
     <use xlink:href="#m0b2524e4bc" x="109.132303" y="340.146007" style="fill: #4bc2ad; stroke: #ffffff; stroke-width: 0.75; stroke-linejoin: miter"/>
     <use xlink:href="#m0b2524e4bc" x="126.327989" y="340.175302" style="fill: #4bc2ad; stroke: #ffffff; stroke-width: 0.75; stroke-linejoin: miter"/>
     <use xlink:href="#m0b2524e4bc" x="143.523674" y="340.151677" style="fill: #4bc2ad; stroke: #ffffff; stroke-width: 0.75; stroke-linejoin: miter"/>
     <use xlink:href="#m0b2524e4bc" x="160.71936" y="341.119357" style="fill: #4bc2ad; stroke: #ffffff; stroke-width: 0.75; stroke-linejoin: miter"/>
     <use xlink:href="#m0b2524e4bc" x="177.915046" y="341.084392" style="fill: #4bc2ad; stroke: #ffffff; stroke-width: 0.75; stroke-linejoin: miter"/>
     <use xlink:href="#m0b2524e4bc" x="195.110731" y="340.151677" style="fill: #4bc2ad; stroke: #ffffff; stroke-width: 0.75; stroke-linejoin: miter"/>
     <use xlink:href="#m0b2524e4bc" x="212.306417" y="340.162072" style="fill: #4bc2ad; stroke: #ffffff; stroke-width: 0.75; stroke-linejoin: miter"/>
     <use xlink:href="#m0b2524e4bc" x="229.502103" y="341.120302" style="fill: #4bc2ad; stroke: #ffffff; stroke-width: 0.75; stroke-linejoin: miter"/>
     <use xlink:href="#m0b2524e4bc" x="246.697788" y="340.162072" style="fill: #4bc2ad; stroke: #ffffff; stroke-width: 0.75; stroke-linejoin: miter"/>
     <use xlink:href="#m0b2524e4bc" x="263.893474" y="341.084392" style="fill: #4bc2ad; stroke: #ffffff; stroke-width: 0.75; stroke-linejoin: miter"/>
     <use xlink:href="#m0b2524e4bc" x="281.08916" y="340.140337" style="fill: #4bc2ad; stroke: #ffffff; stroke-width: 0.75; stroke-linejoin: miter"/>
     <use xlink:href="#m0b2524e4bc" x="298.284845" y="341.113687" style="fill: #4bc2ad; stroke: #ffffff; stroke-width: 0.75; stroke-linejoin: miter"/>
     <use xlink:href="#m0b2524e4bc" x="315.480531" y="341.090062" style="fill: #4bc2ad; stroke: #ffffff; stroke-width: 0.75; stroke-linejoin: miter"/>
     <use xlink:href="#m0b2524e4bc" x="332.676217" y="340.146007" style="fill: #4bc2ad; stroke: #ffffff; stroke-width: 0.75; stroke-linejoin: miter"/>
     <use xlink:href="#m0b2524e4bc" x="349.871902" y="340.175302" style="fill: #4bc2ad; stroke: #ffffff; stroke-width: 0.75; stroke-linejoin: miter"/>
     <use xlink:href="#m0b2524e4bc" x="367.067588" y="341.119357" style="fill: #4bc2ad; stroke: #ffffff; stroke-width: 0.75; stroke-linejoin: miter"/>
     <use xlink:href="#m0b2524e4bc" x="384.263274" y="340.169632" style="fill: #4bc2ad; stroke: #ffffff; stroke-width: 0.75; stroke-linejoin: miter"/>
     <use xlink:href="#m0b2524e4bc" x="401.458959" y="340.169632" style="fill: #4bc2ad; stroke: #ffffff; stroke-width: 0.75; stroke-linejoin: miter"/>
     <use xlink:href="#m0b2524e4bc" x="418.654645" y="340.162072" style="fill: #4bc2ad; stroke: #ffffff; stroke-width: 0.75; stroke-linejoin: miter"/>
     <use xlink:href="#m0b2524e4bc" x="435.850331" y="341.106127" style="fill: #4bc2ad; stroke: #ffffff; stroke-width: 0.75; stroke-linejoin: miter"/>
     <use xlink:href="#m0b2524e4bc" x="453.046016" y="340.162072" style="fill: #4bc2ad; stroke: #ffffff; stroke-width: 0.75; stroke-linejoin: miter"/>
     <use xlink:href="#m0b2524e4bc" x="470.241702" y="341.096677" style="fill: #4bc2ad; stroke: #ffffff; stroke-width: 0.75; stroke-linejoin: miter"/>
     <use xlink:href="#m0b2524e4bc" x="487.437388" y="341.113687" style="fill: #4bc2ad; stroke: #ffffff; stroke-width: 0.75; stroke-linejoin: miter"/>
     <use xlink:href="#m0b2524e4bc" x="504.633073" y="340.175302" style="fill: #4bc2ad; stroke: #ffffff; stroke-width: 0.75; stroke-linejoin: miter"/>
     <use xlink:href="#m0b2524e4bc" x="521.828759" y="341.106127" style="fill: #4bc2ad; stroke: #ffffff; stroke-width: 0.75; stroke-linejoin: miter"/>
     <use xlink:href="#m0b2524e4bc" x="539.024445" y="341.096677" style="fill: #4bc2ad; stroke: #ffffff; stroke-width: 0.75; stroke-linejoin: miter"/>
     <use xlink:href="#m0b2524e4bc" x="556.22013" y="340.169632" style="fill: #4bc2ad; stroke: #ffffff; stroke-width: 0.75; stroke-linejoin: miter"/>
     <use xlink:href="#m0b2524e4bc" x="573.415816" y="341.113687" style="fill: #4bc2ad; stroke: #ffffff; stroke-width: 0.75; stroke-linejoin: miter"/>
    </g>
   </g>
   <g id="patch_8">
    <path d="M 49.807188 364.785937 
L 49.807188 243.825937 
" style="fill: none; stroke: #ffffff; stroke-width: 1.25; stroke-linejoin: miter; stroke-linecap: square"/>
   </g>
   <g id="patch_9">
    <path d="M 607.807188 364.785937 
L 607.807188 243.825937 
" style="fill: none; stroke: #ffffff; stroke-width: 1.25; stroke-linejoin: miter; stroke-linecap: square"/>
   </g>
   <g id="patch_10">
    <path d="M 49.807187 364.785937 
L 607.807188 364.785937 
" style="fill: none; stroke: #ffffff; stroke-width: 1.25; stroke-linejoin: miter; stroke-linecap: square"/>
   </g>
   <g id="patch_11">
    <path d="M 49.807187 243.825937 
L 607.807188 243.825937 
" style="fill: none; stroke: #ffffff; stroke-width: 1.25; stroke-linejoin: miter; stroke-linecap: square"/>
   </g>
  </g>
 </g>
 <defs>
  <clipPath id="p69c32376b0">
   <rect x="49.807188" y="32.145937" width="558" height="181.44"/>
  </clipPath>
  <clipPath id="pbdda732bde">
   <rect x="49.807188" y="243.825937" width="558" height="120.96"/>
  </clipPath>
 </defs>
</svg>
