<?xml version="1.0" encoding="utf-8" standalone="no"?>
<!DOCTYPE svg PUBLIC "-//W3C//DTD SVG 1.1//EN"
  "http://www.w3.org/Graphics/SVG/1.1/DTD/svg11.dtd">
<svg xmlns:xlink="http://www.w3.org/1999/xlink" width="615.007187pt" height="407.745625pt" viewBox="0 0 615.007187 407.745625" xmlns="http://www.w3.org/2000/svg" version="1.1">
 <metadata>
  <rdf:RDF xmlns:dc="http://purl.org/dc/elements/1.1/" xmlns:cc="http://creativecommons.org/ns#" xmlns:rdf="http://www.w3.org/1999/02/22-rdf-syntax-ns#">
   <cc:Work>
    <dc:type rdf:resource="http://purl.org/dc/dcmitype/StillImage"/>
    <dc:date>2024-11-12T21:50:06.911015</dc:date>
    <dc:format>image/svg+xml</dc:format>
    <dc:creator>
     <cc:Agent>
      <dc:title>Matplotlib v3.9.2, https://matplotlib.org/</dc:title>
     </cc:Agent>
    </dc:creator>
   </cc:Work>
  </rdf:RDF>
 </metadata>
 <defs>
  <style type="text/css">*{stroke-linejoin: round; stroke-linecap: butt}</style>
 </defs>
 <g id="figure_1">
  <g id="patch_1">
   <path d="M 0 407.745625 
L 615.007187 407.745625 
L 615.007187 0 
L 0 0 
z
" style="fill: #ffffff"/>
  </g>
  <g id="axes_1">
   <g id="patch_2">
    <path d="M 49.807188 213.585937 
L 607.807188 213.585937 
L 607.807188 32.145937 
L 49.807188 32.145937 
z
" style="fill: #eaeaf2"/>
   </g>
   <g id="matplotlib.axis_1">
    <g id="xtick_1">
     <g id="line2d_1">
      <path d="M 74.740932 213.585937 
L 74.740932 32.145937 
" clip-path="url(#p11807b15f2)" style="fill: none; stroke: #ffffff; stroke-linecap: round"/>
     </g>
     <g id="text_1">
      <!-- 0 -->
      <g style="fill: #262626" transform="translate(71.241557 231.444219) scale(0.11 -0.11)">
       <defs>
        <path id="DejaVuSans-30" d="M 2034 4250 
Q 1547 4250 1301 3770 
Q 1056 3291 1056 2328 
Q 1056 1369 1301 889 
Q 1547 409 2034 409 
Q 2525 409 2770 889 
Q 3016 1369 3016 2328 
Q 3016 3291 2770 3770 
Q 2525 4250 2034 4250 
z
M 2034 4750 
Q 2819 4750 3233 4129 
Q 3647 3509 3647 2328 
Q 3647 1150 3233 529 
Q 2819 -91 2034 -91 
Q 1250 -91 836 529 
Q 422 1150 422 2328 
Q 422 3509 836 4129 
Q 1250 4750 2034 4750 
z
" transform="scale(0.015625)"/>
       </defs>
       <use xlink:href="#DejaVuSans-30"/>
      </g>
     </g>
    </g>
    <g id="xtick_2">
     <g id="line2d_2">
      <path d="M 109.132303 213.585937 
L 109.132303 32.145937 
" clip-path="url(#p11807b15f2)" style="fill: none; stroke: #ffffff; stroke-linecap: round"/>
     </g>
     <g id="text_2">
      <!-- 64 -->
      <g style="fill: #262626" transform="translate(102.133553 231.444219) scale(0.11 -0.11)">
       <defs>
        <path id="DejaVuSans-36" d="M 2113 2584 
Q 1688 2584 1439 2293 
Q 1191 2003 1191 1497 
Q 1191 994 1439 701 
Q 1688 409 2113 409 
Q 2538 409 2786 701 
Q 3034 994 3034 1497 
Q 3034 2003 2786 2293 
Q 2538 2584 2113 2584 
z
M 3366 4563 
L 3366 3988 
Q 3128 4100 2886 4159 
Q 2644 4219 2406 4219 
Q 1781 4219 1451 3797 
Q 1122 3375 1075 2522 
Q 1259 2794 1537 2939 
Q 1816 3084 2150 3084 
Q 2853 3084 3261 2657 
Q 3669 2231 3669 1497 
Q 3669 778 3244 343 
Q 2819 -91 2113 -91 
Q 1303 -91 875 529 
Q 447 1150 447 2328 
Q 447 3434 972 4092 
Q 1497 4750 2381 4750 
Q 2619 4750 2861 4703 
Q 3103 4656 3366 4563 
z
" transform="scale(0.015625)"/>
        <path id="DejaVuSans-34" d="M 2419 4116 
L 825 1625 
L 2419 1625 
L 2419 4116 
z
M 2253 4666 
L 3047 4666 
L 3047 1625 
L 3713 1625 
L 3713 1100 
L 3047 1100 
L 3047 0 
L 2419 0 
L 2419 1100 
L 313 1100 
L 313 1709 
L 2253 4666 
z
" transform="scale(0.015625)"/>
       </defs>
       <use xlink:href="#DejaVuSans-36"/>
       <use xlink:href="#DejaVuSans-34" x="63.623047"/>
      </g>
     </g>
    </g>
    <g id="xtick_3">
     <g id="line2d_3">
      <path d="M 143.523674 213.585937 
L 143.523674 32.145937 
" clip-path="url(#p11807b15f2)" style="fill: none; stroke: #ffffff; stroke-linecap: round"/>
     </g>
     <g id="text_3">
      <!-- 128 -->
      <g style="fill: #262626" transform="translate(133.025549 231.444219) scale(0.11 -0.11)">
       <defs>
        <path id="DejaVuSans-31" d="M 794 531 
L 1825 531 
L 1825 4091 
L 703 3866 
L 703 4441 
L 1819 4666 
L 2450 4666 
L 2450 531 
L 3481 531 
L 3481 0 
L 794 0 
L 794 531 
z
" transform="scale(0.015625)"/>
        <path id="DejaVuSans-32" d="M 1228 531 
L 3431 531 
L 3431 0 
L 469 0 
L 469 531 
Q 828 903 1448 1529 
Q 2069 2156 2228 2338 
Q 2531 2678 2651 2914 
Q 2772 3150 2772 3378 
Q 2772 3750 2511 3984 
Q 2250 4219 1831 4219 
Q 1534 4219 1204 4116 
Q 875 4013 500 3803 
L 500 4441 
Q 881 4594 1212 4672 
Q 1544 4750 1819 4750 
Q 2544 4750 2975 4387 
Q 3406 4025 3406 3419 
Q 3406 3131 3298 2873 
Q 3191 2616 2906 2266 
Q 2828 2175 2409 1742 
Q 1991 1309 1228 531 
z
" transform="scale(0.015625)"/>
        <path id="DejaVuSans-38" d="M 2034 2216 
Q 1584 2216 1326 1975 
Q 1069 1734 1069 1313 
Q 1069 891 1326 650 
Q 1584 409 2034 409 
Q 2484 409 2743 651 
Q 3003 894 3003 1313 
Q 3003 1734 2745 1975 
Q 2488 2216 2034 2216 
z
M 1403 2484 
Q 997 2584 770 2862 
Q 544 3141 544 3541 
Q 544 4100 942 4425 
Q 1341 4750 2034 4750 
Q 2731 4750 3128 4425 
Q 3525 4100 3525 3541 
Q 3525 3141 3298 2862 
Q 3072 2584 2669 2484 
Q 3125 2378 3379 2068 
Q 3634 1759 3634 1313 
Q 3634 634 3220 271 
Q 2806 -91 2034 -91 
Q 1263 -91 848 271 
Q 434 634 434 1313 
Q 434 1759 690 2068 
Q 947 2378 1403 2484 
z
M 1172 3481 
Q 1172 3119 1398 2916 
Q 1625 2713 2034 2713 
Q 2441 2713 2670 2916 
Q 2900 3119 2900 3481 
Q 2900 3844 2670 4047 
Q 2441 4250 2034 4250 
Q 1625 4250 1398 4047 
Q 1172 3844 1172 3481 
z
" transform="scale(0.015625)"/>
       </defs>
       <use xlink:href="#DejaVuSans-31"/>
       <use xlink:href="#DejaVuSans-32" x="63.623047"/>
       <use xlink:href="#DejaVuSans-38" x="127.246094"/>
      </g>
     </g>
    </g>
    <g id="xtick_4">
     <g id="line2d_4">
      <path d="M 177.915046 213.585937 
L 177.915046 32.145937 
" clip-path="url(#p11807b15f2)" style="fill: none; stroke: #ffffff; stroke-linecap: round"/>
     </g>
     <g id="text_4">
      <!-- 192 -->
      <g style="fill: #262626" transform="translate(167.416921 231.444219) scale(0.11 -0.11)">
       <defs>
        <path id="DejaVuSans-39" d="M 703 97 
L 703 672 
Q 941 559 1184 500 
Q 1428 441 1663 441 
Q 2288 441 2617 861 
Q 2947 1281 2994 2138 
Q 2813 1869 2534 1725 
Q 2256 1581 1919 1581 
Q 1219 1581 811 2004 
Q 403 2428 403 3163 
Q 403 3881 828 4315 
Q 1253 4750 1959 4750 
Q 2769 4750 3195 4129 
Q 3622 3509 3622 2328 
Q 3622 1225 3098 567 
Q 2575 -91 1691 -91 
Q 1453 -91 1209 -44 
Q 966 3 703 97 
z
M 1959 2075 
Q 2384 2075 2632 2365 
Q 2881 2656 2881 3163 
Q 2881 3666 2632 3958 
Q 2384 4250 1959 4250 
Q 1534 4250 1286 3958 
Q 1038 3666 1038 3163 
Q 1038 2656 1286 2365 
Q 1534 2075 1959 2075 
z
" transform="scale(0.015625)"/>
       </defs>
       <use xlink:href="#DejaVuSans-31"/>
       <use xlink:href="#DejaVuSans-39" x="63.623047"/>
       <use xlink:href="#DejaVuSans-32" x="127.246094"/>
      </g>
     </g>
    </g>
    <g id="xtick_5">
     <g id="line2d_5">
      <path d="M 212.306417 213.585937 
L 212.306417 32.145937 
" clip-path="url(#p11807b15f2)" style="fill: none; stroke: #ffffff; stroke-linecap: round"/>
     </g>
     <g id="text_5">
      <!-- 256 -->
      <g style="fill: #262626" transform="translate(201.808292 231.444219) scale(0.11 -0.11)">
       <defs>
        <path id="DejaVuSans-35" d="M 691 4666 
L 3169 4666 
L 3169 4134 
L 1269 4134 
L 1269 2991 
Q 1406 3038 1543 3061 
Q 1681 3084 1819 3084 
Q 2600 3084 3056 2656 
Q 3513 2228 3513 1497 
Q 3513 744 3044 326 
Q 2575 -91 1722 -91 
Q 1428 -91 1123 -41 
Q 819 9 494 109 
L 494 744 
Q 775 591 1075 516 
Q 1375 441 1709 441 
Q 2250 441 2565 725 
Q 2881 1009 2881 1497 
Q 2881 1984 2565 2268 
Q 2250 2553 1709 2553 
Q 1456 2553 1204 2497 
Q 953 2441 691 2322 
L 691 4666 
z
" transform="scale(0.015625)"/>
       </defs>
       <use xlink:href="#DejaVuSans-32"/>
       <use xlink:href="#DejaVuSans-35" x="63.623047"/>
       <use xlink:href="#DejaVuSans-36" x="127.246094"/>
      </g>
     </g>
    </g>
    <g id="xtick_6">
     <g id="line2d_6">
      <path d="M 246.697788 213.585937 
L 246.697788 32.145937 
" clip-path="url(#p11807b15f2)" style="fill: none; stroke: #ffffff; stroke-linecap: round"/>
     </g>
     <g id="text_6">
      <!-- 320 -->
      <g style="fill: #262626" transform="translate(236.199663 231.444219) scale(0.11 -0.11)">
       <defs>
        <path id="DejaVuSans-33" d="M 2597 2516 
Q 3050 2419 3304 2112 
Q 3559 1806 3559 1356 
Q 3559 666 3084 287 
Q 2609 -91 1734 -91 
Q 1441 -91 1130 -33 
Q 819 25 488 141 
L 488 750 
Q 750 597 1062 519 
Q 1375 441 1716 441 
Q 2309 441 2620 675 
Q 2931 909 2931 1356 
Q 2931 1769 2642 2001 
Q 2353 2234 1838 2234 
L 1294 2234 
L 1294 2753 
L 1863 2753 
Q 2328 2753 2575 2939 
Q 2822 3125 2822 3475 
Q 2822 3834 2567 4026 
Q 2313 4219 1838 4219 
Q 1578 4219 1281 4162 
Q 984 4106 628 3988 
L 628 4550 
Q 988 4650 1302 4700 
Q 1616 4750 1894 4750 
Q 2613 4750 3031 4423 
Q 3450 4097 3450 3541 
Q 3450 3153 3228 2886 
Q 3006 2619 2597 2516 
z
" transform="scale(0.015625)"/>
       </defs>
       <use xlink:href="#DejaVuSans-33"/>
       <use xlink:href="#DejaVuSans-32" x="63.623047"/>
       <use xlink:href="#DejaVuSans-30" x="127.246094"/>
      </g>
     </g>
    </g>
    <g id="xtick_7">
     <g id="line2d_7">
      <path d="M 281.08916 213.585937 
L 281.08916 32.145937 
" clip-path="url(#p11807b15f2)" style="fill: none; stroke: #ffffff; stroke-linecap: round"/>
     </g>
     <g id="text_7">
      <!-- 384 -->
      <g style="fill: #262626" transform="translate(270.591035 231.444219) scale(0.11 -0.11)">
       <use xlink:href="#DejaVuSans-33"/>
       <use xlink:href="#DejaVuSans-38" x="63.623047"/>
       <use xlink:href="#DejaVuSans-34" x="127.246094"/>
      </g>
     </g>
    </g>
    <g id="xtick_8">
     <g id="line2d_8">
      <path d="M 315.480531 213.585937 
L 315.480531 32.145937 
" clip-path="url(#p11807b15f2)" style="fill: none; stroke: #ffffff; stroke-linecap: round"/>
     </g>
     <g id="text_8">
      <!-- 448 -->
      <g style="fill: #262626" transform="translate(304.982406 231.444219) scale(0.11 -0.11)">
       <use xlink:href="#DejaVuSans-34"/>
       <use xlink:href="#DejaVuSans-34" x="63.623047"/>
       <use xlink:href="#DejaVuSans-38" x="127.246094"/>
      </g>
     </g>
    </g>
    <g id="xtick_9">
     <g id="line2d_9">
      <path d="M 349.871902 213.585937 
L 349.871902 32.145937 
" clip-path="url(#p11807b15f2)" style="fill: none; stroke: #ffffff; stroke-linecap: round"/>
     </g>
     <g id="text_9">
      <!-- 512 -->
      <g style="fill: #262626" transform="translate(339.373777 231.444219) scale(0.11 -0.11)">
       <use xlink:href="#DejaVuSans-35"/>
       <use xlink:href="#DejaVuSans-31" x="63.623047"/>
       <use xlink:href="#DejaVuSans-32" x="127.246094"/>
      </g>
     </g>
    </g>
    <g id="xtick_10">
     <g id="line2d_10">
      <path d="M 384.263274 213.585937 
L 384.263274 32.145937 
" clip-path="url(#p11807b15f2)" style="fill: none; stroke: #ffffff; stroke-linecap: round"/>
     </g>
     <g id="text_10">
      <!-- 576 -->
      <g style="fill: #262626" transform="translate(373.765149 231.444219) scale(0.11 -0.11)">
       <defs>
        <path id="DejaVuSans-37" d="M 525 4666 
L 3525 4666 
L 3525 4397 
L 1831 0 
L 1172 0 
L 2766 4134 
L 525 4134 
L 525 4666 
z
" transform="scale(0.015625)"/>
       </defs>
       <use xlink:href="#DejaVuSans-35"/>
       <use xlink:href="#DejaVuSans-37" x="63.623047"/>
       <use xlink:href="#DejaVuSans-36" x="127.246094"/>
      </g>
     </g>
    </g>
    <g id="xtick_11">
     <g id="line2d_11">
      <path d="M 418.654645 213.585937 
L 418.654645 32.145937 
" clip-path="url(#p11807b15f2)" style="fill: none; stroke: #ffffff; stroke-linecap: round"/>
     </g>
     <g id="text_11">
      <!-- 640 -->
      <g style="fill: #262626" transform="translate(408.15652 231.444219) scale(0.11 -0.11)">
       <use xlink:href="#DejaVuSans-36"/>
       <use xlink:href="#DejaVuSans-34" x="63.623047"/>
       <use xlink:href="#DejaVuSans-30" x="127.246094"/>
      </g>
     </g>
    </g>
    <g id="xtick_12">
     <g id="line2d_12">
      <path d="M 453.046016 213.585937 
L 453.046016 32.145937 
" clip-path="url(#p11807b15f2)" style="fill: none; stroke: #ffffff; stroke-linecap: round"/>
     </g>
     <g id="text_12">
      <!-- 704 -->
      <g style="fill: #262626" transform="translate(442.547891 231.444219) scale(0.11 -0.11)">
       <use xlink:href="#DejaVuSans-37"/>
       <use xlink:href="#DejaVuSans-30" x="63.623047"/>
       <use xlink:href="#DejaVuSans-34" x="127.246094"/>
      </g>
     </g>
    </g>
    <g id="xtick_13">
     <g id="line2d_13">
      <path d="M 487.437388 213.585937 
L 487.437388 32.145937 
" clip-path="url(#p11807b15f2)" style="fill: none; stroke: #ffffff; stroke-linecap: round"/>
     </g>
     <g id="text_13">
      <!-- 768 -->
      <g style="fill: #262626" transform="translate(476.939263 231.444219) scale(0.11 -0.11)">
       <use xlink:href="#DejaVuSans-37"/>
       <use xlink:href="#DejaVuSans-36" x="63.623047"/>
       <use xlink:href="#DejaVuSans-38" x="127.246094"/>
      </g>
     </g>
    </g>
    <g id="xtick_14">
     <g id="line2d_14">
      <path d="M 521.828759 213.585937 
L 521.828759 32.145937 
" clip-path="url(#p11807b15f2)" style="fill: none; stroke: #ffffff; stroke-linecap: round"/>
     </g>
     <g id="text_14">
      <!-- 832 -->
      <g style="fill: #262626" transform="translate(511.330634 231.444219) scale(0.11 -0.11)">
       <use xlink:href="#DejaVuSans-38"/>
       <use xlink:href="#DejaVuSans-33" x="63.623047"/>
       <use xlink:href="#DejaVuSans-32" x="127.246094"/>
      </g>
     </g>
    </g>
    <g id="xtick_15">
     <g id="line2d_15">
      <path d="M 556.22013 213.585937 
L 556.22013 32.145937 
" clip-path="url(#p11807b15f2)" style="fill: none; stroke: #ffffff; stroke-linecap: round"/>
     </g>
     <g id="text_15">
      <!-- 896 -->
      <g style="fill: #262626" transform="translate(545.722005 231.444219) scale(0.11 -0.11)">
       <use xlink:href="#DejaVuSans-38"/>
       <use xlink:href="#DejaVuSans-39" x="63.623047"/>
       <use xlink:href="#DejaVuSans-36" x="127.246094"/>
      </g>
     </g>
    </g>
    <g id="xtick_16">
     <g id="line2d_16">
      <path d="M 590.611502 213.585937 
L 590.611502 32.145937 
" clip-path="url(#p11807b15f2)" style="fill: none; stroke: #ffffff; stroke-linecap: round"/>
     </g>
     <g id="text_16">
      <!-- 960 -->
      <g style="fill: #262626" transform="translate(580.113377 231.444219) scale(0.11 -0.11)">
       <use xlink:href="#DejaVuSans-39"/>
       <use xlink:href="#DejaVuSans-36" x="63.623047"/>
       <use xlink:href="#DejaVuSans-30" x="127.246094"/>
      </g>
     </g>
    </g>
    <g id="xtick_17"/>
    <g id="xtick_18"/>
    <g id="xtick_19"/>
    <g id="xtick_20"/>
    <g id="xtick_21"/>
    <g id="xtick_22"/>
    <g id="xtick_23"/>
    <g id="xtick_24"/>
    <g id="xtick_25"/>
    <g id="xtick_26"/>
    <g id="xtick_27"/>
    <g id="xtick_28"/>
    <g id="xtick_29"/>
    <g id="xtick_30"/>
    <g id="xtick_31"/>
    <g id="xtick_32"/>
   </g>
   <g id="matplotlib.axis_2">
    <g id="ytick_1">
     <g id="line2d_17">
      <path d="M 49.807188 208.54058 
L 607.807188 208.54058 
" clip-path="url(#p11807b15f2)" style="fill: none; stroke: #ffffff; stroke-linecap: round"/>
     </g>
     <g id="text_17">
      <!-- 0.0 -->
      <g style="fill: #262626" transform="translate(22.81375 212.719721) scale(0.11 -0.11)">
       <defs>
        <path id="DejaVuSans-2e" d="M 684 794 
L 1344 794 
L 1344 0 
L 684 0 
L 684 794 
z
" transform="scale(0.015625)"/>
       </defs>
       <use xlink:href="#DejaVuSans-30"/>
       <use xlink:href="#DejaVuSans-2e" x="63.623047"/>
       <use xlink:href="#DejaVuSans-30" x="95.410156"/>
      </g>
     </g>
    </g>
    <g id="ytick_2">
     <g id="line2d_18">
      <path d="M 49.807188 171.091277 
L 607.807188 171.091277 
" clip-path="url(#p11807b15f2)" style="fill: none; stroke: #ffffff; stroke-linecap: round"/>
     </g>
     <g id="text_18">
      <!-- 0.5 -->
      <g style="fill: #262626" transform="translate(22.81375 175.270418) scale(0.11 -0.11)">
       <use xlink:href="#DejaVuSans-30"/>
       <use xlink:href="#DejaVuSans-2e" x="63.623047"/>
       <use xlink:href="#DejaVuSans-35" x="95.410156"/>
      </g>
     </g>
    </g>
    <g id="ytick_3">
     <g id="line2d_19">
      <path d="M 49.807188 133.641974 
L 607.807188 133.641974 
" clip-path="url(#p11807b15f2)" style="fill: none; stroke: #ffffff; stroke-linecap: round"/>
     </g>
     <g id="text_19">
      <!-- 1.0 -->
      <g style="fill: #262626" transform="translate(22.81375 137.821115) scale(0.11 -0.11)">
       <use xlink:href="#DejaVuSans-31"/>
       <use xlink:href="#DejaVuSans-2e" x="63.623047"/>
       <use xlink:href="#DejaVuSans-30" x="95.410156"/>
      </g>
     </g>
    </g>
    <g id="ytick_4">
     <g id="line2d_20">
      <path d="M 49.807188 96.192672 
L 607.807188 96.192672 
" clip-path="url(#p11807b15f2)" style="fill: none; stroke: #ffffff; stroke-linecap: round"/>
     </g>
     <g id="text_20">
      <!-- 1.5 -->
      <g style="fill: #262626" transform="translate(22.81375 100.371812) scale(0.11 -0.11)">
       <use xlink:href="#DejaVuSans-31"/>
       <use xlink:href="#DejaVuSans-2e" x="63.623047"/>
       <use xlink:href="#DejaVuSans-35" x="95.410156"/>
      </g>
     </g>
    </g>
    <g id="ytick_5">
     <g id="line2d_21">
      <path d="M 49.807188 58.743369 
L 607.807188 58.743369 
" clip-path="url(#p11807b15f2)" style="fill: none; stroke: #ffffff; stroke-linecap: round"/>
     </g>
     <g id="text_21">
      <!-- 2.0 -->
      <g style="fill: #262626" transform="translate(22.81375 62.922509) scale(0.11 -0.11)">
       <use xlink:href="#DejaVuSans-32"/>
       <use xlink:href="#DejaVuSans-2e" x="63.623047"/>
       <use xlink:href="#DejaVuSans-30" x="95.410156"/>
      </g>
     </g>
    </g>
    <g id="text_22">
     <!-- Latency [ms] -->
     <g style="fill: #262626" transform="translate(16.318125 162.141562) rotate(-90) scale(0.12 -0.12)">
      <defs>
       <path id="DejaVuSans-4c" d="M 628 4666 
L 1259 4666 
L 1259 531 
L 3531 531 
L 3531 0 
L 628 0 
L 628 4666 
z
" transform="scale(0.015625)"/>
       <path id="DejaVuSans-61" d="M 2194 1759 
Q 1497 1759 1228 1600 
Q 959 1441 959 1056 
Q 959 750 1161 570 
Q 1363 391 1709 391 
Q 2188 391 2477 730 
Q 2766 1069 2766 1631 
L 2766 1759 
L 2194 1759 
z
M 3341 1997 
L 3341 0 
L 2766 0 
L 2766 531 
Q 2569 213 2275 61 
Q 1981 -91 1556 -91 
Q 1019 -91 701 211 
Q 384 513 384 1019 
Q 384 1609 779 1909 
Q 1175 2209 1959 2209 
L 2766 2209 
L 2766 2266 
Q 2766 2663 2505 2880 
Q 2244 3097 1772 3097 
Q 1472 3097 1187 3025 
Q 903 2953 641 2809 
L 641 3341 
Q 956 3463 1253 3523 
Q 1550 3584 1831 3584 
Q 2591 3584 2966 3190 
Q 3341 2797 3341 1997 
z
" transform="scale(0.015625)"/>
       <path id="DejaVuSans-74" d="M 1172 4494 
L 1172 3500 
L 2356 3500 
L 2356 3053 
L 1172 3053 
L 1172 1153 
Q 1172 725 1289 603 
Q 1406 481 1766 481 
L 2356 481 
L 2356 0 
L 1766 0 
Q 1100 0 847 248 
Q 594 497 594 1153 
L 594 3053 
L 172 3053 
L 172 3500 
L 594 3500 
L 594 4494 
L 1172 4494 
z
" transform="scale(0.015625)"/>
       <path id="DejaVuSans-65" d="M 3597 1894 
L 3597 1613 
L 953 1613 
Q 991 1019 1311 708 
Q 1631 397 2203 397 
Q 2534 397 2845 478 
Q 3156 559 3463 722 
L 3463 178 
Q 3153 47 2828 -22 
Q 2503 -91 2169 -91 
Q 1331 -91 842 396 
Q 353 884 353 1716 
Q 353 2575 817 3079 
Q 1281 3584 2069 3584 
Q 2775 3584 3186 3129 
Q 3597 2675 3597 1894 
z
M 3022 2063 
Q 3016 2534 2758 2815 
Q 2500 3097 2075 3097 
Q 1594 3097 1305 2825 
Q 1016 2553 972 2059 
L 3022 2063 
z
" transform="scale(0.015625)"/>
       <path id="DejaVuSans-6e" d="M 3513 2113 
L 3513 0 
L 2938 0 
L 2938 2094 
Q 2938 2591 2744 2837 
Q 2550 3084 2163 3084 
Q 1697 3084 1428 2787 
Q 1159 2491 1159 1978 
L 1159 0 
L 581 0 
L 581 3500 
L 1159 3500 
L 1159 2956 
Q 1366 3272 1645 3428 
Q 1925 3584 2291 3584 
Q 2894 3584 3203 3211 
Q 3513 2838 3513 2113 
z
" transform="scale(0.015625)"/>
       <path id="DejaVuSans-63" d="M 3122 3366 
L 3122 2828 
Q 2878 2963 2633 3030 
Q 2388 3097 2138 3097 
Q 1578 3097 1268 2742 
Q 959 2388 959 1747 
Q 959 1106 1268 751 
Q 1578 397 2138 397 
Q 2388 397 2633 464 
Q 2878 531 3122 666 
L 3122 134 
Q 2881 22 2623 -34 
Q 2366 -91 2075 -91 
Q 1284 -91 818 406 
Q 353 903 353 1747 
Q 353 2603 823 3093 
Q 1294 3584 2113 3584 
Q 2378 3584 2631 3529 
Q 2884 3475 3122 3366 
z
" transform="scale(0.015625)"/>
       <path id="DejaVuSans-79" d="M 2059 -325 
Q 1816 -950 1584 -1140 
Q 1353 -1331 966 -1331 
L 506 -1331 
L 506 -850 
L 844 -850 
Q 1081 -850 1212 -737 
Q 1344 -625 1503 -206 
L 1606 56 
L 191 3500 
L 800 3500 
L 1894 763 
L 2988 3500 
L 3597 3500 
L 2059 -325 
z
" transform="scale(0.015625)"/>
       <path id="DejaVuSans-20" transform="scale(0.015625)"/>
       <path id="DejaVuSans-5b" d="M 550 4863 
L 1875 4863 
L 1875 4416 
L 1125 4416 
L 1125 -397 
L 1875 -397 
L 1875 -844 
L 550 -844 
L 550 4863 
z
" transform="scale(0.015625)"/>
       <path id="DejaVuSans-6d" d="M 3328 2828 
Q 3544 3216 3844 3400 
Q 4144 3584 4550 3584 
Q 5097 3584 5394 3201 
Q 5691 2819 5691 2113 
L 5691 0 
L 5113 0 
L 5113 2094 
Q 5113 2597 4934 2840 
Q 4756 3084 4391 3084 
Q 3944 3084 3684 2787 
Q 3425 2491 3425 1978 
L 3425 0 
L 2847 0 
L 2847 2094 
Q 2847 2600 2669 2842 
Q 2491 3084 2119 3084 
Q 1678 3084 1418 2786 
Q 1159 2488 1159 1978 
L 1159 0 
L 581 0 
L 581 3500 
L 1159 3500 
L 1159 2956 
Q 1356 3278 1631 3431 
Q 1906 3584 2284 3584 
Q 2666 3584 2933 3390 
Q 3200 3197 3328 2828 
z
" transform="scale(0.015625)"/>
       <path id="DejaVuSans-73" d="M 2834 3397 
L 2834 2853 
Q 2591 2978 2328 3040 
Q 2066 3103 1784 3103 
Q 1356 3103 1142 2972 
Q 928 2841 928 2578 
Q 928 2378 1081 2264 
Q 1234 2150 1697 2047 
L 1894 2003 
Q 2506 1872 2764 1633 
Q 3022 1394 3022 966 
Q 3022 478 2636 193 
Q 2250 -91 1575 -91 
Q 1294 -91 989 -36 
Q 684 19 347 128 
L 347 722 
Q 666 556 975 473 
Q 1284 391 1588 391 
Q 1994 391 2212 530 
Q 2431 669 2431 922 
Q 2431 1156 2273 1281 
Q 2116 1406 1581 1522 
L 1381 1569 
Q 847 1681 609 1914 
Q 372 2147 372 2553 
Q 372 3047 722 3315 
Q 1072 3584 1716 3584 
Q 2034 3584 2315 3537 
Q 2597 3491 2834 3397 
z
" transform="scale(0.015625)"/>
       <path id="DejaVuSans-5d" d="M 1947 4863 
L 1947 -844 
L 622 -844 
L 622 -397 
L 1369 -397 
L 1369 4416 
L 622 4416 
L 622 4863 
L 1947 4863 
z
" transform="scale(0.015625)"/>
      </defs>
      <use xlink:href="#DejaVuSans-4c"/>
      <use xlink:href="#DejaVuSans-61" x="55.712891"/>
      <use xlink:href="#DejaVuSans-74" x="116.992188"/>
      <use xlink:href="#DejaVuSans-65" x="156.201172"/>
      <use xlink:href="#DejaVuSans-6e" x="217.724609"/>
      <use xlink:href="#DejaVuSans-63" x="281.103516"/>
      <use xlink:href="#DejaVuSans-79" x="336.083984"/>
      <use xlink:href="#DejaVuSans-20" x="395.263672"/>
      <use xlink:href="#DejaVuSans-5b" x="427.050781"/>
      <use xlink:href="#DejaVuSans-6d" x="466.064453"/>
      <use xlink:href="#DejaVuSans-73" x="563.476562"/>
      <use xlink:href="#DejaVuSans-5d" x="615.576172"/>
     </g>
    </g>
   </g>
   <g id="PolyCollection_1"/>
   <g id="PolyCollection_2">
    <defs>
     <path id="me7aee1986f" d="M 74.740932 -313.266259 
L 74.740932 -312.971346 
L 91.936617 -315.508536 
L 109.132303 -316.543073 
L 126.327989 -318.626191 
L 143.523674 -320.147568 
L 160.71936 -322.319628 
L 177.915046 -323.723977 
L 195.110731 -326.013066 
L 212.306417 -327.646791 
L 229.502103 -329.800126 
L 246.697788 -331.433852 
L 263.893474 -334.434478 
L 281.08916 -334.677898 
L 298.284845 -337.748741 
L 315.480531 -339.082872 
L 332.676217 -341.025555 
L 349.871902 -342.865252 
L 367.067588 -344.742398 
L 384.263274 -346.202921 
L 401.458959 -348.669894 
L 418.654645 -350.10233 
L 435.850331 -353.046781 
L 453.046016 -354.568159 
L 470.241702 -356.089537 
L 487.437388 -357.695176 
L 504.633073 -359.834467 
L 521.828759 -361.950353 
L 539.024445 -364.187949 
L 556.22013 -365.348877 
L 573.415816 -367.347734 
L 573.415816 -367.352415 
L 573.415816 -367.352415 
L 556.22013 -365.353558 
L 539.024445 -364.187949 
L 521.828759 -361.955034 
L 504.633073 -360.134062 
L 487.437388 -357.99477 
L 470.241702 -356.089537 
L 453.046016 -354.57284 
L 435.850331 -353.051462 
L 418.654645 -350.107011 
L 401.458959 -348.974169 
L 384.263274 -346.497834 
L 367.067588 -344.747079 
L 349.871902 -342.869933 
L 332.676217 -341.030236 
L 315.480531 -339.377786 
L 298.284845 -337.753422 
L 281.08916 -334.682579 
L 263.893474 -334.439159 
L 246.697788 -331.438533 
L 229.502103 -329.800126 
L 212.306417 -327.656154 
L 195.110731 -326.017747 
L 177.915046 -323.728658 
L 160.71936 -322.619222 
L 143.523674 -320.447163 
L 126.327989 -318.630872 
L 109.132303 -316.547754 
L 91.936617 -315.508536 
L 74.740932 -313.266259 
z
" style="stroke: #ffffff; stroke-opacity: 0.2"/>
    </defs>
    <g clip-path="url(#p11807b15f2)">
     <use xlink:href="#me7aee1986f" x="0" y="407.745625" style="fill: #3e356b; fill-opacity: 0.2; stroke: #ffffff; stroke-opacity: 0.2"/>
    </g>
   </g>
   <g id="PolyCollection_3"/>
   <g id="PolyCollection_4">
    <defs>
     <path id="m0f7b94c30c" d="M 74.740932 -235.320216 
L 74.740932 -235.315535 
L 91.936617 -237.908899 
L 109.132303 -239.126002 
L 126.327989 -241.298061 
L 143.523674 -242.543251 
L 160.71936 -244.808933 
L 177.915046 -246.386485 
L 195.110731 -248.235545 
L 212.306417 -250.285894 
L 229.502103 -252.191127 
L 246.697788 -253.768679 
L 263.893474 -256.862928 
L 281.08916 -257.75703 
L 298.284845 -260.266133 
L 315.480531 -261.511323 
L 332.676217 -263.327614 
L 349.871902 -265.509036 
L 367.067588 -267.269153 
L 384.263274 -268.926284 
L 401.458959 -271.369851 
L 418.654645 -272.914635 
L 435.850331 -276.008884 
L 453.046016 -277.151088 
L 470.241702 -278.8129 
L 487.437388 -280.184481 
L 504.633073 -282.398671 
L 521.828759 -284.678397 
L 539.024445 -286.850457 
L 556.22013 -288.161183 
L 573.415816 -290.277068 
L 573.415816 -290.281749 
L 573.415816 -290.281749 
L 556.22013 -288.165864 
L 539.024445 -287.150051 
L 521.828759 -284.683079 
L 504.633073 -282.403352 
L 487.437388 -280.189162 
L 470.241702 -278.817582 
L 453.046016 -277.389827 
L 435.850331 -276.013565 
L 418.654645 -272.919316 
L 401.458959 -271.379214 
L 384.263274 -268.930966 
L 367.067588 -267.49853 
L 349.871902 -265.88821 
L 332.676217 -263.332295 
L 315.480531 -261.516004 
L 298.284845 -260.270814 
L 281.08916 -257.766392 
L 263.893474 -256.867609 
L 246.697788 -253.778041 
L 229.502103 -252.195808 
L 212.306417 -250.290575 
L 195.110731 -248.235545 
L 177.915046 -246.391166 
L 160.71936 -244.808933 
L 143.523674 -242.547932 
L 126.327989 -241.302742 
L 109.132303 -239.537944 
L 91.936617 -238.348929 
L 74.740932 -235.320216 
z
" style="stroke: #ffffff; stroke-opacity: 0.2"/>
    </defs>
    <g clip-path="url(#p11807b15f2)">
     <use xlink:href="#m0f7b94c30c" x="0" y="407.745625" style="fill: #357ba3; fill-opacity: 0.2; stroke: #ffffff; stroke-opacity: 0.2"/>
    </g>
   </g>
   <g id="PolyCollection_5"/>
   <g id="PolyCollection_6">
    <defs>
     <path id="ma61f41b566" d="M 74.740932 -202.472497 
L 74.740932 -202.467815 
L 91.936617 -202.978062 
L 109.132303 -203.235526 
L 126.327989 -202.76741 
L 143.523674 -202.6457 
L 160.71936 -202.6457 
L 177.915046 -202.706555 
L 195.110731 -202.6457 
L 212.306417 -202.940613 
L 229.502103 -202.6457 
L 246.697788 -202.828265 
L 263.893474 -203.268294 
L 281.08916 -202.734642 
L 298.284845 -202.940613 
L 315.480531 -202.673787 
L 332.676217 -202.6457 
L 349.871902 -202.706555 
L 367.067588 -202.945294 
L 384.263274 -202.940613 
L 401.458959 -202.56612 
L 418.654645 -202.6457 
L 435.850331 -203.357236 
L 453.046016 -203.062323 
L 470.241702 -202.439728 
L 487.437388 -202.40696 
L 504.633073 -202.6457 
L 521.828759 -203.034236 
L 539.024445 -203.268294 
L 556.22013 -203.268294 
L 573.415816 -202.706555 
L 573.415816 -202.711236 
L 573.415816 -202.711236 
L 556.22013 -203.272975 
L 539.024445 -203.272975 
L 521.828759 -203.034236 
L 504.633073 -202.828265 
L 487.437388 -202.411641 
L 470.241702 -202.44441 
L 453.046016 -203.067004 
L 435.850331 -203.361917 
L 418.654645 -202.650381 
L 401.458959 -202.800178 
L 384.263274 -203.123178 
L 367.067588 -203.244888 
L 349.871902 -202.711236 
L 332.676217 -202.828265 
L 315.480531 -202.678468 
L 298.284845 -203.240207 
L 281.08916 -202.739323 
L 263.893474 -203.272975 
L 246.697788 -203.09041 
L 229.502103 -202.650381 
L 212.306417 -202.945294 
L 195.110731 -202.650381 
L 177.915046 -202.711236 
L 160.71936 -202.828265 
L 143.523674 -202.650381 
L 126.327989 -202.772091 
L 109.132303 -203.240207 
L 91.936617 -203.390004 
L 74.740932 -202.472497 
z
" style="stroke: #ffffff; stroke-opacity: 0.2"/>
    </defs>
    <g clip-path="url(#p11807b15f2)">
     <use xlink:href="#ma61f41b566" x="0" y="407.745625" style="fill: #4bc2ad; fill-opacity: 0.2; stroke: #ffffff; stroke-opacity: 0.2"/>
    </g>
   </g>
   <g id="line2d_22">
    <path d="M 74.740932 94.773984 
L 91.936617 92.237089 
L 109.132303 91.201358 
L 126.327989 89.118255 
L 143.523674 87.593858 
L 160.71936 85.421489 
L 177.915046 84.019312 
L 195.110731 81.727888 
L 212.306417 80.094148 
L 229.502103 77.945499 
L 246.697788 76.310607 
L 263.893474 73.30803 
L 281.08916 73.067713 
L 298.284845 69.992212 
L 315.480531 68.65934 
L 332.676217 66.719391 
L 349.871902 64.877564 
L 367.067588 63.001359 
L 384.263274 61.5424 
L 401.458959 59.071284 
L 418.654645 57.638619 
L 435.850331 54.696035 
L 453.046016 53.174344 
L 470.241702 51.656088 
L 487.437388 50.04735 
L 504.633073 47.908981 
L 521.828759 45.791523 
L 539.024445 43.557676 
L 556.22013 42.392071 
L 573.415816 40.396328 
" clip-path="url(#p11807b15f2)" style="fill: none; stroke: #3e356b; stroke-width: 1.5; stroke-linecap: round"/>
    <defs>
     <path id="mcc336d69f7" d="M 0 3 
C 0.795609 3 1.55874 2.683901 2.12132 2.12132 
C 2.683901 1.55874 3 0.795609 3 0 
C 3 -0.795609 2.683901 -1.55874 2.12132 -2.12132 
C 1.55874 -2.683901 0.795609 -3 0 -3 
C -0.795609 -3 -1.55874 -2.683901 -2.12132 -2.12132 
C -2.683901 -1.55874 -3 -0.795609 -3 0 
C -3 0.795609 -2.683901 1.55874 -2.12132 2.12132 
C -1.55874 2.683901 -0.795609 3 0 3 
z
" style="stroke: #ffffff; stroke-width: 0.75"/>
    </defs>
    <g clip-path="url(#p11807b15f2)">
     <use xlink:href="#mcc336d69f7" x="74.740932" y="94.773984" style="fill: #3e356b; stroke: #ffffff; stroke-width: 0.75"/>
     <use xlink:href="#mcc336d69f7" x="91.936617" y="92.237089" style="fill: #3e356b; stroke: #ffffff; stroke-width: 0.75"/>
     <use xlink:href="#mcc336d69f7" x="109.132303" y="91.201358" style="fill: #3e356b; stroke: #ffffff; stroke-width: 0.75"/>
     <use xlink:href="#mcc336d69f7" x="126.327989" y="89.118255" style="fill: #3e356b; stroke: #ffffff; stroke-width: 0.75"/>
     <use xlink:href="#mcc336d69f7" x="143.523674" y="87.593858" style="fill: #3e356b; stroke: #ffffff; stroke-width: 0.75"/>
     <use xlink:href="#mcc336d69f7" x="160.71936" y="85.421489" style="fill: #3e356b; stroke: #ffffff; stroke-width: 0.75"/>
     <use xlink:href="#mcc336d69f7" x="177.915046" y="84.019312" style="fill: #3e356b; stroke: #ffffff; stroke-width: 0.75"/>
     <use xlink:href="#mcc336d69f7" x="195.110731" y="81.727888" style="fill: #3e356b; stroke: #ffffff; stroke-width: 0.75"/>
     <use xlink:href="#mcc336d69f7" x="212.306417" y="80.094148" style="fill: #3e356b; stroke: #ffffff; stroke-width: 0.75"/>
     <use xlink:href="#mcc336d69f7" x="229.502103" y="77.945499" style="fill: #3e356b; stroke: #ffffff; stroke-width: 0.75"/>
     <use xlink:href="#mcc336d69f7" x="246.697788" y="76.310607" style="fill: #3e356b; stroke: #ffffff; stroke-width: 0.75"/>
     <use xlink:href="#mcc336d69f7" x="263.893474" y="73.30803" style="fill: #3e356b; stroke: #ffffff; stroke-width: 0.75"/>
     <use xlink:href="#mcc336d69f7" x="281.08916" y="73.067713" style="fill: #3e356b; stroke: #ffffff; stroke-width: 0.75"/>
     <use xlink:href="#mcc336d69f7" x="298.284845" y="69.992212" style="fill: #3e356b; stroke: #ffffff; stroke-width: 0.75"/>
     <use xlink:href="#mcc336d69f7" x="315.480531" y="68.65934" style="fill: #3e356b; stroke: #ffffff; stroke-width: 0.75"/>
     <use xlink:href="#mcc336d69f7" x="332.676217" y="66.719391" style="fill: #3e356b; stroke: #ffffff; stroke-width: 0.75"/>
     <use xlink:href="#mcc336d69f7" x="349.871902" y="64.877564" style="fill: #3e356b; stroke: #ffffff; stroke-width: 0.75"/>
     <use xlink:href="#mcc336d69f7" x="367.067588" y="63.001359" style="fill: #3e356b; stroke: #ffffff; stroke-width: 0.75"/>
     <use xlink:href="#mcc336d69f7" x="384.263274" y="61.5424" style="fill: #3e356b; stroke: #ffffff; stroke-width: 0.75"/>
     <use xlink:href="#mcc336d69f7" x="401.458959" y="59.071284" style="fill: #3e356b; stroke: #ffffff; stroke-width: 0.75"/>
     <use xlink:href="#mcc336d69f7" x="418.654645" y="57.638619" style="fill: #3e356b; stroke: #ffffff; stroke-width: 0.75"/>
     <use xlink:href="#mcc336d69f7" x="435.850331" y="54.696035" style="fill: #3e356b; stroke: #ffffff; stroke-width: 0.75"/>
     <use xlink:href="#mcc336d69f7" x="453.046016" y="53.174344" style="fill: #3e356b; stroke: #ffffff; stroke-width: 0.75"/>
     <use xlink:href="#mcc336d69f7" x="470.241702" y="51.656088" style="fill: #3e356b; stroke: #ffffff; stroke-width: 0.75"/>
     <use xlink:href="#mcc336d69f7" x="487.437388" y="50.04735" style="fill: #3e356b; stroke: #ffffff; stroke-width: 0.75"/>
     <use xlink:href="#mcc336d69f7" x="504.633073" y="47.908981" style="fill: #3e356b; stroke: #ffffff; stroke-width: 0.75"/>
     <use xlink:href="#mcc336d69f7" x="521.828759" y="45.791523" style="fill: #3e356b; stroke: #ffffff; stroke-width: 0.75"/>
     <use xlink:href="#mcc336d69f7" x="539.024445" y="43.557676" style="fill: #3e356b; stroke: #ffffff; stroke-width: 0.75"/>
     <use xlink:href="#mcc336d69f7" x="556.22013" y="42.392071" style="fill: #3e356b; stroke: #ffffff; stroke-width: 0.75"/>
     <use xlink:href="#mcc336d69f7" x="573.415816" y="40.396328" style="fill: #3e356b; stroke: #ffffff; stroke-width: 0.75"/>
    </g>
   </g>
   <g id="line2d_23">
    <path d="M 74.740932 172.429182 
L 91.936617 169.83343 
L 109.132303 168.616393 
L 126.327989 166.445691 
L 143.523674 165.199594 
L 160.71936 162.936692 
L 177.915046 161.356331 
L 195.110731 159.51008 
L 212.306417 157.458799 
L 229.502103 155.550772 
L 246.697788 153.97226 
L 263.893474 150.879874 
L 281.08916 149.983914 
L 298.284845 147.476688 
L 315.480531 146.230647 
L 332.676217 144.41429 
L 349.871902 142.234366 
L 367.067588 140.475414 
L 384.263274 138.817005 
L 401.458959 136.37106 
L 418.654645 134.827708 
L 435.850331 131.734864 
L 453.046016 130.591462 
L 470.241702 128.931788 
L 487.437388 127.558345 
L 504.633073 125.346018 
L 521.828759 123.066291 
L 539.024445 120.892996 
L 556.22013 119.580754 
L 573.415816 117.467349 
" clip-path="url(#p11807b15f2)" style="fill: none; stroke: #357ba3; stroke-width: 1.5; stroke-linecap: round"/>
    <defs>
     <path id="mf69f3fd3ea" d="M -3 3 
L 3 3 
L 3 -3 
L -3 -3 
z
" style="stroke: #ffffff; stroke-width: 0.75; stroke-linejoin: miter"/>
    </defs>
    <g clip-path="url(#p11807b15f2)">
     <use xlink:href="#mf69f3fd3ea" x="74.740932" y="172.429182" style="fill: #357ba3; stroke: #ffffff; stroke-width: 0.75; stroke-linejoin: miter"/>
     <use xlink:href="#mf69f3fd3ea" x="91.936617" y="169.83343" style="fill: #357ba3; stroke: #ffffff; stroke-width: 0.75; stroke-linejoin: miter"/>
     <use xlink:href="#mf69f3fd3ea" x="109.132303" y="168.616393" style="fill: #357ba3; stroke: #ffffff; stroke-width: 0.75; stroke-linejoin: miter"/>
     <use xlink:href="#mf69f3fd3ea" x="126.327989" y="166.445691" style="fill: #357ba3; stroke: #ffffff; stroke-width: 0.75; stroke-linejoin: miter"/>
     <use xlink:href="#mf69f3fd3ea" x="143.523674" y="165.199594" style="fill: #357ba3; stroke: #ffffff; stroke-width: 0.75; stroke-linejoin: miter"/>
     <use xlink:href="#mf69f3fd3ea" x="160.71936" y="162.936692" style="fill: #357ba3; stroke: #ffffff; stroke-width: 0.75; stroke-linejoin: miter"/>
     <use xlink:href="#mf69f3fd3ea" x="177.915046" y="161.356331" style="fill: #357ba3; stroke: #ffffff; stroke-width: 0.75; stroke-linejoin: miter"/>
     <use xlink:href="#mf69f3fd3ea" x="195.110731" y="159.51008" style="fill: #357ba3; stroke: #ffffff; stroke-width: 0.75; stroke-linejoin: miter"/>
     <use xlink:href="#mf69f3fd3ea" x="212.306417" y="157.458799" style="fill: #357ba3; stroke: #ffffff; stroke-width: 0.75; stroke-linejoin: miter"/>
     <use xlink:href="#mf69f3fd3ea" x="229.502103" y="155.550772" style="fill: #357ba3; stroke: #ffffff; stroke-width: 0.75; stroke-linejoin: miter"/>
     <use xlink:href="#mf69f3fd3ea" x="246.697788" y="153.97226" style="fill: #357ba3; stroke: #ffffff; stroke-width: 0.75; stroke-linejoin: miter"/>
     <use xlink:href="#mf69f3fd3ea" x="263.893474" y="150.879874" style="fill: #357ba3; stroke: #ffffff; stroke-width: 0.75; stroke-linejoin: miter"/>
     <use xlink:href="#mf69f3fd3ea" x="281.08916" y="149.983914" style="fill: #357ba3; stroke: #ffffff; stroke-width: 0.75; stroke-linejoin: miter"/>
     <use xlink:href="#mf69f3fd3ea" x="298.284845" y="147.476688" style="fill: #357ba3; stroke: #ffffff; stroke-width: 0.75; stroke-linejoin: miter"/>
     <use xlink:href="#mf69f3fd3ea" x="315.480531" y="146.230647" style="fill: #357ba3; stroke: #ffffff; stroke-width: 0.75; stroke-linejoin: miter"/>
     <use xlink:href="#mf69f3fd3ea" x="332.676217" y="144.41429" style="fill: #357ba3; stroke: #ffffff; stroke-width: 0.75; stroke-linejoin: miter"/>
     <use xlink:href="#mf69f3fd3ea" x="349.871902" y="142.234366" style="fill: #357ba3; stroke: #ffffff; stroke-width: 0.75; stroke-linejoin: miter"/>
     <use xlink:href="#mf69f3fd3ea" x="367.067588" y="140.475414" style="fill: #357ba3; stroke: #ffffff; stroke-width: 0.75; stroke-linejoin: miter"/>
     <use xlink:href="#mf69f3fd3ea" x="384.263274" y="138.817005" style="fill: #357ba3; stroke: #ffffff; stroke-width: 0.75; stroke-linejoin: miter"/>
     <use xlink:href="#mf69f3fd3ea" x="401.458959" y="136.37106" style="fill: #357ba3; stroke: #ffffff; stroke-width: 0.75; stroke-linejoin: miter"/>
     <use xlink:href="#mf69f3fd3ea" x="418.654645" y="134.827708" style="fill: #357ba3; stroke: #ffffff; stroke-width: 0.75; stroke-linejoin: miter"/>
     <use xlink:href="#mf69f3fd3ea" x="435.850331" y="131.734864" style="fill: #357ba3; stroke: #ffffff; stroke-width: 0.75; stroke-linejoin: miter"/>
     <use xlink:href="#mf69f3fd3ea" x="453.046016" y="130.591462" style="fill: #357ba3; stroke: #ffffff; stroke-width: 0.75; stroke-linejoin: miter"/>
     <use xlink:href="#mf69f3fd3ea" x="470.241702" y="128.931788" style="fill: #357ba3; stroke: #ffffff; stroke-width: 0.75; stroke-linejoin: miter"/>
     <use xlink:href="#mf69f3fd3ea" x="487.437388" y="127.558345" style="fill: #357ba3; stroke: #ffffff; stroke-width: 0.75; stroke-linejoin: miter"/>
     <use xlink:href="#mf69f3fd3ea" x="504.633073" y="125.346018" style="fill: #357ba3; stroke: #ffffff; stroke-width: 0.75; stroke-linejoin: miter"/>
     <use xlink:href="#mf69f3fd3ea" x="521.828759" y="123.066291" style="fill: #357ba3; stroke: #ffffff; stroke-width: 0.75; stroke-linejoin: miter"/>
     <use xlink:href="#mf69f3fd3ea" x="539.024445" y="120.892996" style="fill: #357ba3; stroke: #ffffff; stroke-width: 0.75; stroke-linejoin: miter"/>
     <use xlink:href="#mf69f3fd3ea" x="556.22013" y="119.580754" style="fill: #357ba3; stroke: #ffffff; stroke-width: 0.75; stroke-linejoin: miter"/>
     <use xlink:href="#mf69f3fd3ea" x="573.415816" y="117.467349" style="fill: #357ba3; stroke: #ffffff; stroke-width: 0.75; stroke-linejoin: miter"/>
    </g>
   </g>
   <g id="line2d_24">
    <path d="M 74.740932 205.275029 
L 91.936617 204.764324 
L 109.132303 204.506373 
L 126.327989 204.976338 
L 143.523674 205.098994 
L 160.71936 205.098811 
L 177.915046 205.038139 
L 195.110731 205.098994 
L 212.306417 204.803158 
L 229.502103 205.097922 
L 246.697788 204.912398 
L 263.893474 204.476881 
L 281.08916 205.009116 
L 298.284845 204.802826 
L 315.480531 205.069128 
L 332.676217 205.098807 
L 349.871902 205.038134 
L 367.067588 204.797223 
L 384.263274 204.802952 
L 401.458959 205.178344 
L 418.654645 205.098985 
L 435.850331 204.385594 
L 453.046016 204.679566 
L 470.241702 205.304979 
L 487.437388 205.33492 
L 504.633073 205.097889 
L 521.828759 204.711389 
L 539.024445 204.475472 
L 556.22013 204.476376 
L 573.415816 205.038129 
" clip-path="url(#p11807b15f2)" style="fill: none; stroke: #4bc2ad; stroke-width: 1.5; stroke-linecap: round"/>
    <defs>
     <path id="m61f736d503" d="M -0 3 
L 3 -3 
L -3 -3 
z
" style="stroke: #ffffff; stroke-width: 0.75; stroke-linejoin: miter"/>
    </defs>
    <g clip-path="url(#p11807b15f2)">
     <use xlink:href="#m61f736d503" x="74.740932" y="205.275029" style="fill: #4bc2ad; stroke: #ffffff; stroke-width: 0.75; stroke-linejoin: miter"/>
     <use xlink:href="#m61f736d503" x="91.936617" y="204.764324" style="fill: #4bc2ad; stroke: #ffffff; stroke-width: 0.75; stroke-linejoin: miter"/>
     <use xlink:href="#m61f736d503" x="109.132303" y="204.506373" style="fill: #4bc2ad; stroke: #ffffff; stroke-width: 0.75; stroke-linejoin: miter"/>
     <use xlink:href="#m61f736d503" x="126.327989" y="204.976338" style="fill: #4bc2ad; stroke: #ffffff; stroke-width: 0.75; stroke-linejoin: miter"/>
     <use xlink:href="#m61f736d503" x="143.523674" y="205.098994" style="fill: #4bc2ad; stroke: #ffffff; stroke-width: 0.75; stroke-linejoin: miter"/>
     <use xlink:href="#m61f736d503" x="160.71936" y="205.098811" style="fill: #4bc2ad; stroke: #ffffff; stroke-width: 0.75; stroke-linejoin: miter"/>
     <use xlink:href="#m61f736d503" x="177.915046" y="205.038139" style="fill: #4bc2ad; stroke: #ffffff; stroke-width: 0.75; stroke-linejoin: miter"/>
     <use xlink:href="#m61f736d503" x="195.110731" y="205.098994" style="fill: #4bc2ad; stroke: #ffffff; stroke-width: 0.75; stroke-linejoin: miter"/>
     <use xlink:href="#m61f736d503" x="212.306417" y="204.803158" style="fill: #4bc2ad; stroke: #ffffff; stroke-width: 0.75; stroke-linejoin: miter"/>
     <use xlink:href="#m61f736d503" x="229.502103" y="205.097922" style="fill: #4bc2ad; stroke: #ffffff; stroke-width: 0.75; stroke-linejoin: miter"/>
     <use xlink:href="#m61f736d503" x="246.697788" y="204.912398" style="fill: #4bc2ad; stroke: #ffffff; stroke-width: 0.75; stroke-linejoin: miter"/>
     <use xlink:href="#m61f736d503" x="263.893474" y="204.476881" style="fill: #4bc2ad; stroke: #ffffff; stroke-width: 0.75; stroke-linejoin: miter"/>
     <use xlink:href="#m61f736d503" x="281.08916" y="205.009116" style="fill: #4bc2ad; stroke: #ffffff; stroke-width: 0.75; stroke-linejoin: miter"/>
     <use xlink:href="#m61f736d503" x="298.284845" y="204.802826" style="fill: #4bc2ad; stroke: #ffffff; stroke-width: 0.75; stroke-linejoin: miter"/>
     <use xlink:href="#m61f736d503" x="315.480531" y="205.069128" style="fill: #4bc2ad; stroke: #ffffff; stroke-width: 0.75; stroke-linejoin: miter"/>
     <use xlink:href="#m61f736d503" x="332.676217" y="205.098807" style="fill: #4bc2ad; stroke: #ffffff; stroke-width: 0.75; stroke-linejoin: miter"/>
     <use xlink:href="#m61f736d503" x="349.871902" y="205.038134" style="fill: #4bc2ad; stroke: #ffffff; stroke-width: 0.75; stroke-linejoin: miter"/>
     <use xlink:href="#m61f736d503" x="367.067588" y="204.797223" style="fill: #4bc2ad; stroke: #ffffff; stroke-width: 0.75; stroke-linejoin: miter"/>
     <use xlink:href="#m61f736d503" x="384.263274" y="204.802952" style="fill: #4bc2ad; stroke: #ffffff; stroke-width: 0.75; stroke-linejoin: miter"/>
     <use xlink:href="#m61f736d503" x="401.458959" y="205.178344" style="fill: #4bc2ad; stroke: #ffffff; stroke-width: 0.75; stroke-linejoin: miter"/>
     <use xlink:href="#m61f736d503" x="418.654645" y="205.098985" style="fill: #4bc2ad; stroke: #ffffff; stroke-width: 0.75; stroke-linejoin: miter"/>
     <use xlink:href="#m61f736d503" x="435.850331" y="204.385594" style="fill: #4bc2ad; stroke: #ffffff; stroke-width: 0.75; stroke-linejoin: miter"/>
     <use xlink:href="#m61f736d503" x="453.046016" y="204.679566" style="fill: #4bc2ad; stroke: #ffffff; stroke-width: 0.75; stroke-linejoin: miter"/>
     <use xlink:href="#m61f736d503" x="470.241702" y="205.304979" style="fill: #4bc2ad; stroke: #ffffff; stroke-width: 0.75; stroke-linejoin: miter"/>
     <use xlink:href="#m61f736d503" x="487.437388" y="205.33492" style="fill: #4bc2ad; stroke: #ffffff; stroke-width: 0.75; stroke-linejoin: miter"/>
     <use xlink:href="#m61f736d503" x="504.633073" y="205.097889" style="fill: #4bc2ad; stroke: #ffffff; stroke-width: 0.75; stroke-linejoin: miter"/>
     <use xlink:href="#m61f736d503" x="521.828759" y="204.711389" style="fill: #4bc2ad; stroke: #ffffff; stroke-width: 0.75; stroke-linejoin: miter"/>
     <use xlink:href="#m61f736d503" x="539.024445" y="204.475472" style="fill: #4bc2ad; stroke: #ffffff; stroke-width: 0.75; stroke-linejoin: miter"/>
     <use xlink:href="#m61f736d503" x="556.22013" y="204.476376" style="fill: #4bc2ad; stroke: #ffffff; stroke-width: 0.75; stroke-linejoin: miter"/>
     <use xlink:href="#m61f736d503" x="573.415816" y="205.038129" style="fill: #4bc2ad; stroke: #ffffff; stroke-width: 0.75; stroke-linejoin: miter"/>
    </g>
   </g>
   <g id="patch_3">
    <path d="M 49.807188 213.585937 
L 49.807188 32.145937 
" style="fill: none; stroke: #ffffff; stroke-width: 1.25; stroke-linejoin: miter; stroke-linecap: square"/>
   </g>
   <g id="patch_4">
    <path d="M 607.807188 213.585937 
L 607.807188 32.145937 
" style="fill: none; stroke: #ffffff; stroke-width: 1.25; stroke-linejoin: miter; stroke-linecap: square"/>
   </g>
   <g id="patch_5">
    <path d="M 49.807187 213.585937 
L 607.807188 213.585937 
" style="fill: none; stroke: #ffffff; stroke-width: 1.25; stroke-linejoin: miter; stroke-linecap: square"/>
   </g>
   <g id="patch_6">
    <path d="M 49.807187 32.145937 
L 607.807188 32.145937 
" style="fill: none; stroke: #ffffff; stroke-width: 1.25; stroke-linejoin: miter; stroke-linecap: square"/>
   </g>
   <g id="legend_1">
    <g id="line2d_25">
     <path d="M 184.085 16.108281 
L 195.085 16.108281 
L 206.085 16.108281 
" style="fill: none; stroke: #3e356b; stroke-width: 1.5; stroke-linecap: round"/>
     <g>
      <use xlink:href="#mcc336d69f7" x="195.085" y="16.108281" style="fill: #3e356b; stroke: #ffffff; stroke-width: 0.75"/>
     </g>
    </g>
    <g id="text_23">
     <!-- Worst Case -->
     <g style="fill: #262626" transform="translate(214.885 19.958281) scale(0.11 -0.11)">
      <defs>
       <path id="DejaVuSans-57" d="M 213 4666 
L 850 4666 
L 1831 722 
L 2809 4666 
L 3519 4666 
L 4500 722 
L 5478 4666 
L 6119 4666 
L 4947 0 
L 4153 0 
L 3169 4050 
L 2175 0 
L 1381 0 
L 213 4666 
z
" transform="scale(0.015625)"/>
       <path id="DejaVuSans-6f" d="M 1959 3097 
Q 1497 3097 1228 2736 
Q 959 2375 959 1747 
Q 959 1119 1226 758 
Q 1494 397 1959 397 
Q 2419 397 2687 759 
Q 2956 1122 2956 1747 
Q 2956 2369 2687 2733 
Q 2419 3097 1959 3097 
z
M 1959 3584 
Q 2709 3584 3137 3096 
Q 3566 2609 3566 1747 
Q 3566 888 3137 398 
Q 2709 -91 1959 -91 
Q 1206 -91 779 398 
Q 353 888 353 1747 
Q 353 2609 779 3096 
Q 1206 3584 1959 3584 
z
" transform="scale(0.015625)"/>
       <path id="DejaVuSans-72" d="M 2631 2963 
Q 2534 3019 2420 3045 
Q 2306 3072 2169 3072 
Q 1681 3072 1420 2755 
Q 1159 2438 1159 1844 
L 1159 0 
L 581 0 
L 581 3500 
L 1159 3500 
L 1159 2956 
Q 1341 3275 1631 3429 
Q 1922 3584 2338 3584 
Q 2397 3584 2469 3576 
Q 2541 3569 2628 3553 
L 2631 2963 
z
" transform="scale(0.015625)"/>
       <path id="DejaVuSans-43" d="M 4122 4306 
L 4122 3641 
Q 3803 3938 3442 4084 
Q 3081 4231 2675 4231 
Q 1875 4231 1450 3742 
Q 1025 3253 1025 2328 
Q 1025 1406 1450 917 
Q 1875 428 2675 428 
Q 3081 428 3442 575 
Q 3803 722 4122 1019 
L 4122 359 
Q 3791 134 3420 21 
Q 3050 -91 2638 -91 
Q 1578 -91 968 557 
Q 359 1206 359 2328 
Q 359 3453 968 4101 
Q 1578 4750 2638 4750 
Q 3056 4750 3426 4639 
Q 3797 4528 4122 4306 
z
" transform="scale(0.015625)"/>
      </defs>
      <use xlink:href="#DejaVuSans-57"/>
      <use xlink:href="#DejaVuSans-6f" x="93.001953"/>
      <use xlink:href="#DejaVuSans-72" x="154.183594"/>
      <use xlink:href="#DejaVuSans-73" x="195.296875"/>
      <use xlink:href="#DejaVuSans-74" x="247.396484"/>
      <use xlink:href="#DejaVuSans-20" x="286.605469"/>
      <use xlink:href="#DejaVuSans-43" x="318.392578"/>
      <use xlink:href="#DejaVuSans-61" x="388.216797"/>
      <use xlink:href="#DejaVuSans-73" x="449.496094"/>
      <use xlink:href="#DejaVuSans-65" x="501.595703"/>
     </g>
    </g>
    <g id="line2d_26">
     <path d="M 298.827031 16.108281 
L 309.827031 16.108281 
L 320.827031 16.108281 
" style="fill: none; stroke: #357ba3; stroke-width: 1.5; stroke-linecap: round"/>
     <g>
      <use xlink:href="#mf69f3fd3ea" x="309.827031" y="16.108281" style="fill: #357ba3; stroke: #ffffff; stroke-width: 0.75; stroke-linejoin: miter"/>
     </g>
    </g>
    <g id="text_24">
     <!-- Hybrid -->
     <g style="fill: #262626" transform="translate(329.627031 19.958281) scale(0.11 -0.11)">
      <defs>
       <path id="DejaVuSans-48" d="M 628 4666 
L 1259 4666 
L 1259 2753 
L 3553 2753 
L 3553 4666 
L 4184 4666 
L 4184 0 
L 3553 0 
L 3553 2222 
L 1259 2222 
L 1259 0 
L 628 0 
L 628 4666 
z
" transform="scale(0.015625)"/>
       <path id="DejaVuSans-62" d="M 3116 1747 
Q 3116 2381 2855 2742 
Q 2594 3103 2138 3103 
Q 1681 3103 1420 2742 
Q 1159 2381 1159 1747 
Q 1159 1113 1420 752 
Q 1681 391 2138 391 
Q 2594 391 2855 752 
Q 3116 1113 3116 1747 
z
M 1159 2969 
Q 1341 3281 1617 3432 
Q 1894 3584 2278 3584 
Q 2916 3584 3314 3078 
Q 3713 2572 3713 1747 
Q 3713 922 3314 415 
Q 2916 -91 2278 -91 
Q 1894 -91 1617 61 
Q 1341 213 1159 525 
L 1159 0 
L 581 0 
L 581 4863 
L 1159 4863 
L 1159 2969 
z
" transform="scale(0.015625)"/>
       <path id="DejaVuSans-69" d="M 603 3500 
L 1178 3500 
L 1178 0 
L 603 0 
L 603 3500 
z
M 603 4863 
L 1178 4863 
L 1178 4134 
L 603 4134 
L 603 4863 
z
" transform="scale(0.015625)"/>
       <path id="DejaVuSans-64" d="M 2906 2969 
L 2906 4863 
L 3481 4863 
L 3481 0 
L 2906 0 
L 2906 525 
Q 2725 213 2448 61 
Q 2172 -91 1784 -91 
Q 1150 -91 751 415 
Q 353 922 353 1747 
Q 353 2572 751 3078 
Q 1150 3584 1784 3584 
Q 2172 3584 2448 3432 
Q 2725 3281 2906 2969 
z
M 947 1747 
Q 947 1113 1208 752 
Q 1469 391 1925 391 
Q 2381 391 2643 752 
Q 2906 1113 2906 1747 
Q 2906 2381 2643 2742 
Q 2381 3103 1925 3103 
Q 1469 3103 1208 2742 
Q 947 2381 947 1747 
z
" transform="scale(0.015625)"/>
      </defs>
      <use xlink:href="#DejaVuSans-48"/>
      <use xlink:href="#DejaVuSans-79" x="75.195312"/>
      <use xlink:href="#DejaVuSans-62" x="134.375"/>
      <use xlink:href="#DejaVuSans-72" x="197.851562"/>
      <use xlink:href="#DejaVuSans-69" x="238.964844"/>
      <use xlink:href="#DejaVuSans-64" x="266.748047"/>
     </g>
    </g>
    <g id="line2d_27">
     <path d="M 387.954531 16.108281 
L 398.954531 16.108281 
L 409.954531 16.108281 
" style="fill: none; stroke: #4bc2ad; stroke-width: 1.5; stroke-linecap: round"/>
     <g>
      <use xlink:href="#m61f736d503" x="398.954531" y="16.108281" style="fill: #4bc2ad; stroke: #ffffff; stroke-width: 0.75; stroke-linejoin: miter"/>
     </g>
    </g>
    <g id="text_25">
     <!-- Best Case -->
     <g style="fill: #262626" transform="translate(418.754531 19.958281) scale(0.11 -0.11)">
      <defs>
       <path id="DejaVuSans-42" d="M 1259 2228 
L 1259 519 
L 2272 519 
Q 2781 519 3026 730 
Q 3272 941 3272 1375 
Q 3272 1813 3026 2020 
Q 2781 2228 2272 2228 
L 1259 2228 
z
M 1259 4147 
L 1259 2741 
L 2194 2741 
Q 2656 2741 2882 2914 
Q 3109 3088 3109 3444 
Q 3109 3797 2882 3972 
Q 2656 4147 2194 4147 
L 1259 4147 
z
M 628 4666 
L 2241 4666 
Q 2963 4666 3353 4366 
Q 3744 4066 3744 3513 
Q 3744 3084 3544 2831 
Q 3344 2578 2956 2516 
Q 3422 2416 3680 2098 
Q 3938 1781 3938 1306 
Q 3938 681 3513 340 
Q 3088 0 2303 0 
L 628 0 
L 628 4666 
z
" transform="scale(0.015625)"/>
      </defs>
      <use xlink:href="#DejaVuSans-42"/>
      <use xlink:href="#DejaVuSans-65" x="68.603516"/>
      <use xlink:href="#DejaVuSans-73" x="130.126953"/>
      <use xlink:href="#DejaVuSans-74" x="182.226562"/>
      <use xlink:href="#DejaVuSans-20" x="221.435547"/>
      <use xlink:href="#DejaVuSans-43" x="253.222656"/>
      <use xlink:href="#DejaVuSans-61" x="323.046875"/>
      <use xlink:href="#DejaVuSans-73" x="384.326172"/>
      <use xlink:href="#DejaVuSans-65" x="436.425781"/>
     </g>
    </g>
   </g>
  </g>
  <g id="axes_2">
   <g id="patch_7">
    <path d="M 49.807188 364.785937 
L 607.807188 364.785937 
L 607.807188 243.825937 
L 49.807188 243.825937 
z
" style="fill: #eaeaf2"/>
   </g>
   <g id="matplotlib.axis_3">
    <g id="xtick_33">
     <g id="line2d_28">
      <path d="M 74.740932 364.785937 
L 74.740932 243.825937 
" clip-path="url(#p4f7745dae8)" style="fill: none; stroke: #ffffff; stroke-linecap: round"/>
     </g>
     <g id="text_26">
      <!-- 0 -->
      <g style="fill: #262626" transform="translate(71.241557 382.644219) scale(0.11 -0.11)">
       <use xlink:href="#DejaVuSans-30"/>
      </g>
     </g>
    </g>
    <g id="xtick_34">
     <g id="line2d_29">
      <path d="M 109.132303 364.785937 
L 109.132303 243.825937 
" clip-path="url(#p4f7745dae8)" style="fill: none; stroke: #ffffff; stroke-linecap: round"/>
     </g>
     <g id="text_27">
      <!-- 64 -->
      <g style="fill: #262626" transform="translate(102.133553 382.644219) scale(0.11 -0.11)">
       <use xlink:href="#DejaVuSans-36"/>
       <use xlink:href="#DejaVuSans-34" x="63.623047"/>
      </g>
     </g>
    </g>
    <g id="xtick_35">
     <g id="line2d_30">
      <path d="M 143.523674 364.785937 
L 143.523674 243.825937 
" clip-path="url(#p4f7745dae8)" style="fill: none; stroke: #ffffff; stroke-linecap: round"/>
     </g>
     <g id="text_28">
      <!-- 128 -->
      <g style="fill: #262626" transform="translate(133.025549 382.644219) scale(0.11 -0.11)">
       <use xlink:href="#DejaVuSans-31"/>
       <use xlink:href="#DejaVuSans-32" x="63.623047"/>
       <use xlink:href="#DejaVuSans-38" x="127.246094"/>
      </g>
     </g>
    </g>
    <g id="xtick_36">
     <g id="line2d_31">
      <path d="M 177.915046 364.785937 
L 177.915046 243.825937 
" clip-path="url(#p4f7745dae8)" style="fill: none; stroke: #ffffff; stroke-linecap: round"/>
     </g>
     <g id="text_29">
      <!-- 192 -->
      <g style="fill: #262626" transform="translate(167.416921 382.644219) scale(0.11 -0.11)">
       <use xlink:href="#DejaVuSans-31"/>
       <use xlink:href="#DejaVuSans-39" x="63.623047"/>
       <use xlink:href="#DejaVuSans-32" x="127.246094"/>
      </g>
     </g>
    </g>
    <g id="xtick_37">
     <g id="line2d_32">
      <path d="M 212.306417 364.785937 
L 212.306417 243.825937 
" clip-path="url(#p4f7745dae8)" style="fill: none; stroke: #ffffff; stroke-linecap: round"/>
     </g>
     <g id="text_30">
      <!-- 256 -->
      <g style="fill: #262626" transform="translate(201.808292 382.644219) scale(0.11 -0.11)">
       <use xlink:href="#DejaVuSans-32"/>
       <use xlink:href="#DejaVuSans-35" x="63.623047"/>
       <use xlink:href="#DejaVuSans-36" x="127.246094"/>
      </g>
     </g>
    </g>
    <g id="xtick_38">
     <g id="line2d_33">
      <path d="M 246.697788 364.785937 
L 246.697788 243.825937 
" clip-path="url(#p4f7745dae8)" style="fill: none; stroke: #ffffff; stroke-linecap: round"/>
     </g>
     <g id="text_31">
      <!-- 320 -->
      <g style="fill: #262626" transform="translate(236.199663 382.644219) scale(0.11 -0.11)">
       <use xlink:href="#DejaVuSans-33"/>
       <use xlink:href="#DejaVuSans-32" x="63.623047"/>
       <use xlink:href="#DejaVuSans-30" x="127.246094"/>
      </g>
     </g>
    </g>
    <g id="xtick_39">
     <g id="line2d_34">
      <path d="M 281.08916 364.785937 
L 281.08916 243.825937 
" clip-path="url(#p4f7745dae8)" style="fill: none; stroke: #ffffff; stroke-linecap: round"/>
     </g>
     <g id="text_32">
      <!-- 384 -->
      <g style="fill: #262626" transform="translate(270.591035 382.644219) scale(0.11 -0.11)">
       <use xlink:href="#DejaVuSans-33"/>
       <use xlink:href="#DejaVuSans-38" x="63.623047"/>
       <use xlink:href="#DejaVuSans-34" x="127.246094"/>
      </g>
     </g>
    </g>
    <g id="xtick_40">
     <g id="line2d_35">
      <path d="M 315.480531 364.785937 
L 315.480531 243.825937 
" clip-path="url(#p4f7745dae8)" style="fill: none; stroke: #ffffff; stroke-linecap: round"/>
     </g>
     <g id="text_33">
      <!-- 448 -->
      <g style="fill: #262626" transform="translate(304.982406 382.644219) scale(0.11 -0.11)">
       <use xlink:href="#DejaVuSans-34"/>
       <use xlink:href="#DejaVuSans-34" x="63.623047"/>
       <use xlink:href="#DejaVuSans-38" x="127.246094"/>
      </g>
     </g>
    </g>
    <g id="xtick_41">
     <g id="line2d_36">
      <path d="M 349.871902 364.785937 
L 349.871902 243.825937 
" clip-path="url(#p4f7745dae8)" style="fill: none; stroke: #ffffff; stroke-linecap: round"/>
     </g>
     <g id="text_34">
      <!-- 512 -->
      <g style="fill: #262626" transform="translate(339.373777 382.644219) scale(0.11 -0.11)">
       <use xlink:href="#DejaVuSans-35"/>
       <use xlink:href="#DejaVuSans-31" x="63.623047"/>
       <use xlink:href="#DejaVuSans-32" x="127.246094"/>
      </g>
     </g>
    </g>
    <g id="xtick_42">
     <g id="line2d_37">
      <path d="M 384.263274 364.785937 
L 384.263274 243.825937 
" clip-path="url(#p4f7745dae8)" style="fill: none; stroke: #ffffff; stroke-linecap: round"/>
     </g>
     <g id="text_35">
      <!-- 576 -->
      <g style="fill: #262626" transform="translate(373.765149 382.644219) scale(0.11 -0.11)">
       <use xlink:href="#DejaVuSans-35"/>
       <use xlink:href="#DejaVuSans-37" x="63.623047"/>
       <use xlink:href="#DejaVuSans-36" x="127.246094"/>
      </g>
     </g>
    </g>
    <g id="xtick_43">
     <g id="line2d_38">
      <path d="M 418.654645 364.785937 
L 418.654645 243.825937 
" clip-path="url(#p4f7745dae8)" style="fill: none; stroke: #ffffff; stroke-linecap: round"/>
     </g>
     <g id="text_36">
      <!-- 640 -->
      <g style="fill: #262626" transform="translate(408.15652 382.644219) scale(0.11 -0.11)">
       <use xlink:href="#DejaVuSans-36"/>
       <use xlink:href="#DejaVuSans-34" x="63.623047"/>
       <use xlink:href="#DejaVuSans-30" x="127.246094"/>
      </g>
     </g>
    </g>
    <g id="xtick_44">
     <g id="line2d_39">
      <path d="M 453.046016 364.785937 
L 453.046016 243.825937 
" clip-path="url(#p4f7745dae8)" style="fill: none; stroke: #ffffff; stroke-linecap: round"/>
     </g>
     <g id="text_37">
      <!-- 704 -->
      <g style="fill: #262626" transform="translate(442.547891 382.644219) scale(0.11 -0.11)">
       <use xlink:href="#DejaVuSans-37"/>
       <use xlink:href="#DejaVuSans-30" x="63.623047"/>
       <use xlink:href="#DejaVuSans-34" x="127.246094"/>
      </g>
     </g>
    </g>
    <g id="xtick_45">
     <g id="line2d_40">
      <path d="M 487.437388 364.785937 
L 487.437388 243.825937 
" clip-path="url(#p4f7745dae8)" style="fill: none; stroke: #ffffff; stroke-linecap: round"/>
     </g>
     <g id="text_38">
      <!-- 768 -->
      <g style="fill: #262626" transform="translate(476.939263 382.644219) scale(0.11 -0.11)">
       <use xlink:href="#DejaVuSans-37"/>
       <use xlink:href="#DejaVuSans-36" x="63.623047"/>
       <use xlink:href="#DejaVuSans-38" x="127.246094"/>
      </g>
     </g>
    </g>
    <g id="xtick_46">
     <g id="line2d_41">
      <path d="M 521.828759 364.785937 
L 521.828759 243.825937 
" clip-path="url(#p4f7745dae8)" style="fill: none; stroke: #ffffff; stroke-linecap: round"/>
     </g>
     <g id="text_39">
      <!-- 832 -->
      <g style="fill: #262626" transform="translate(511.330634 382.644219) scale(0.11 -0.11)">
       <use xlink:href="#DejaVuSans-38"/>
       <use xlink:href="#DejaVuSans-33" x="63.623047"/>
       <use xlink:href="#DejaVuSans-32" x="127.246094"/>
      </g>
     </g>
    </g>
    <g id="xtick_47">
     <g id="line2d_42">
      <path d="M 556.22013 364.785937 
L 556.22013 243.825937 
" clip-path="url(#p4f7745dae8)" style="fill: none; stroke: #ffffff; stroke-linecap: round"/>
     </g>
     <g id="text_40">
      <!-- 896 -->
      <g style="fill: #262626" transform="translate(545.722005 382.644219) scale(0.11 -0.11)">
       <use xlink:href="#DejaVuSans-38"/>
       <use xlink:href="#DejaVuSans-39" x="63.623047"/>
       <use xlink:href="#DejaVuSans-36" x="127.246094"/>
      </g>
     </g>
    </g>
    <g id="xtick_48">
     <g id="line2d_43">
      <path d="M 590.611502 364.785937 
L 590.611502 243.825937 
" clip-path="url(#p4f7745dae8)" style="fill: none; stroke: #ffffff; stroke-linecap: round"/>
     </g>
     <g id="text_41">
      <!-- 960 -->
      <g style="fill: #262626" transform="translate(580.113377 382.644219) scale(0.11 -0.11)">
       <use xlink:href="#DejaVuSans-39"/>
       <use xlink:href="#DejaVuSans-36" x="63.623047"/>
       <use xlink:href="#DejaVuSans-30" x="127.246094"/>
      </g>
     </g>
    </g>
    <g id="xtick_49"/>
    <g id="xtick_50"/>
    <g id="xtick_51"/>
    <g id="xtick_52"/>
    <g id="xtick_53"/>
    <g id="xtick_54"/>
    <g id="xtick_55"/>
    <g id="xtick_56"/>
    <g id="xtick_57"/>
    <g id="xtick_58"/>
    <g id="xtick_59"/>
    <g id="xtick_60"/>
    <g id="xtick_61"/>
    <g id="xtick_62"/>
    <g id="xtick_63"/>
    <g id="xtick_64"/>
    <g id="text_42">
     <!-- Object Size [Bytes] -->
     <g style="fill: #262626" transform="translate(271.615 398.05) scale(0.12 -0.12)">
      <defs>
       <path id="DejaVuSans-4f" d="M 2522 4238 
Q 1834 4238 1429 3725 
Q 1025 3213 1025 2328 
Q 1025 1447 1429 934 
Q 1834 422 2522 422 
Q 3209 422 3611 934 
Q 4013 1447 4013 2328 
Q 4013 3213 3611 3725 
Q 3209 4238 2522 4238 
z
M 2522 4750 
Q 3503 4750 4090 4092 
Q 4678 3434 4678 2328 
Q 4678 1225 4090 567 
Q 3503 -91 2522 -91 
Q 1538 -91 948 565 
Q 359 1222 359 2328 
Q 359 3434 948 4092 
Q 1538 4750 2522 4750 
z
" transform="scale(0.015625)"/>
       <path id="DejaVuSans-6a" d="M 603 3500 
L 1178 3500 
L 1178 -63 
Q 1178 -731 923 -1031 
Q 669 -1331 103 -1331 
L -116 -1331 
L -116 -844 
L 38 -844 
Q 366 -844 484 -692 
Q 603 -541 603 -63 
L 603 3500 
z
M 603 4863 
L 1178 4863 
L 1178 4134 
L 603 4134 
L 603 4863 
z
" transform="scale(0.015625)"/>
       <path id="DejaVuSans-53" d="M 3425 4513 
L 3425 3897 
Q 3066 4069 2747 4153 
Q 2428 4238 2131 4238 
Q 1616 4238 1336 4038 
Q 1056 3838 1056 3469 
Q 1056 3159 1242 3001 
Q 1428 2844 1947 2747 
L 2328 2669 
Q 3034 2534 3370 2195 
Q 3706 1856 3706 1288 
Q 3706 609 3251 259 
Q 2797 -91 1919 -91 
Q 1588 -91 1214 -16 
Q 841 59 441 206 
L 441 856 
Q 825 641 1194 531 
Q 1563 422 1919 422 
Q 2459 422 2753 634 
Q 3047 847 3047 1241 
Q 3047 1584 2836 1778 
Q 2625 1972 2144 2069 
L 1759 2144 
Q 1053 2284 737 2584 
Q 422 2884 422 3419 
Q 422 4038 858 4394 
Q 1294 4750 2059 4750 
Q 2388 4750 2728 4690 
Q 3069 4631 3425 4513 
z
" transform="scale(0.015625)"/>
       <path id="DejaVuSans-7a" d="M 353 3500 
L 3084 3500 
L 3084 2975 
L 922 459 
L 3084 459 
L 3084 0 
L 275 0 
L 275 525 
L 2438 3041 
L 353 3041 
L 353 3500 
z
" transform="scale(0.015625)"/>
      </defs>
      <use xlink:href="#DejaVuSans-4f"/>
      <use xlink:href="#DejaVuSans-62" x="78.710938"/>
      <use xlink:href="#DejaVuSans-6a" x="142.1875"/>
      <use xlink:href="#DejaVuSans-65" x="169.970703"/>
      <use xlink:href="#DejaVuSans-63" x="231.494141"/>
      <use xlink:href="#DejaVuSans-74" x="286.474609"/>
      <use xlink:href="#DejaVuSans-20" x="325.683594"/>
      <use xlink:href="#DejaVuSans-53" x="357.470703"/>
      <use xlink:href="#DejaVuSans-69" x="420.947266"/>
      <use xlink:href="#DejaVuSans-7a" x="448.730469"/>
      <use xlink:href="#DejaVuSans-65" x="501.220703"/>
      <use xlink:href="#DejaVuSans-20" x="562.744141"/>
      <use xlink:href="#DejaVuSans-5b" x="594.53125"/>
      <use xlink:href="#DejaVuSans-42" x="633.544922"/>
      <use xlink:href="#DejaVuSans-79" x="702.148438"/>
      <use xlink:href="#DejaVuSans-74" x="761.328125"/>
      <use xlink:href="#DejaVuSans-65" x="800.537109"/>
      <use xlink:href="#DejaVuSans-73" x="862.060547"/>
      <use xlink:href="#DejaVuSans-5d" x="914.160156"/>
     </g>
    </g>
   </g>
   <g id="matplotlib.axis_4">
    <g id="ytick_6">
     <g id="line2d_44">
      <path d="M 49.807188 364.785937 
L 607.807188 364.785937 
" clip-path="url(#p4f7745dae8)" style="fill: none; stroke: #ffffff; stroke-linecap: round"/>
     </g>
     <g id="text_43">
      <!-- 0 -->
      <g style="fill: #262626" transform="translate(33.308438 368.965078) scale(0.11 -0.11)">
       <use xlink:href="#DejaVuSans-30"/>
      </g>
     </g>
    </g>
    <g id="ytick_7">
     <g id="line2d_45">
      <path d="M 49.807188 334.545937 
L 607.807188 334.545937 
" clip-path="url(#p4f7745dae8)" style="fill: none; stroke: #ffffff; stroke-linecap: round"/>
     </g>
     <g id="text_44">
      <!-- 2 -->
      <g style="fill: #262626" transform="translate(33.308438 338.725078) scale(0.11 -0.11)">
       <use xlink:href="#DejaVuSans-32"/>
      </g>
     </g>
    </g>
    <g id="ytick_8">
     <g id="line2d_46">
      <path d="M 49.807188 304.305937 
L 607.807188 304.305937 
" clip-path="url(#p4f7745dae8)" style="fill: none; stroke: #ffffff; stroke-linecap: round"/>
     </g>
     <g id="text_45">
      <!-- 4 -->
      <g style="fill: #262626" transform="translate(33.308438 308.485078) scale(0.11 -0.11)">
       <use xlink:href="#DejaVuSans-34"/>
      </g>
     </g>
    </g>
    <g id="ytick_9">
     <g id="line2d_47">
      <path d="M 49.807188 274.065937 
L 607.807188 274.065937 
" clip-path="url(#p4f7745dae8)" style="fill: none; stroke: #ffffff; stroke-linecap: round"/>
     </g>
     <g id="text_46">
      <!-- 6 -->
      <g style="fill: #262626" transform="translate(33.308438 278.245078) scale(0.11 -0.11)">
       <use xlink:href="#DejaVuSans-36"/>
      </g>
     </g>
    </g>
    <g id="ytick_10">
     <g id="line2d_48">
      <path d="M 49.807188 243.825937 
L 607.807188 243.825937 
" clip-path="url(#p4f7745dae8)" style="fill: none; stroke: #ffffff; stroke-linecap: round"/>
     </g>
     <g id="text_47">
      <!-- 8 -->
      <g style="fill: #262626" transform="translate(33.308438 248.005078) scale(0.11 -0.11)">
       <use xlink:href="#DejaVuSans-38"/>
      </g>
     </g>
    </g>
    <g id="text_48">
     <!-- Latency [s] -->
     <g style="fill: #262626" transform="translate(26.812812 341.554687) rotate(-90) scale(0.12 -0.12)">
      <defs>
       <path id="DejaVuSans-b5" d="M 544 -1331 
L 544 3500 
L 1119 3500 
L 1119 1325 
Q 1119 872 1334 640 
Q 1550 409 1972 409 
Q 2434 409 2667 671 
Q 2900 934 2900 1459 
L 2900 3500 
L 3475 3500 
L 3475 806 
Q 3475 619 3529 530 
Q 3584 441 3700 441 
Q 3728 441 3778 458 
Q 3828 475 3916 513 
L 3916 50 
Q 3788 -22 3673 -56 
Q 3559 -91 3450 -91 
Q 3234 -91 3106 31 
Q 2978 153 2931 403 
Q 2775 156 2548 32 
Q 2322 -91 2016 -91 
Q 1697 -91 1473 31 
Q 1250 153 1119 397 
L 1119 -1331 
L 544 -1331 
z
" transform="scale(0.015625)"/>
      </defs>
      <use xlink:href="#DejaVuSans-4c"/>
      <use xlink:href="#DejaVuSans-61" x="55.712891"/>
      <use xlink:href="#DejaVuSans-74" x="116.992188"/>
      <use xlink:href="#DejaVuSans-65" x="156.201172"/>
      <use xlink:href="#DejaVuSans-6e" x="217.724609"/>
      <use xlink:href="#DejaVuSans-63" x="281.103516"/>
      <use xlink:href="#DejaVuSans-79" x="336.083984"/>
      <use xlink:href="#DejaVuSans-20" x="395.263672"/>
      <use xlink:href="#DejaVuSans-5b" x="427.050781"/>
      <use xlink:href="#DejaVuSans-b5" x="466.064453"/>
      <use xlink:href="#DejaVuSans-73" x="529.6875"/>
      <use xlink:href="#DejaVuSans-5d" x="581.787109"/>
     </g>
    </g>
   </g>
   <g id="PolyCollection_7"/>
   <g id="PolyCollection_8">
    <path d="M 74.740932 -6925.889062 
L 74.740932 -6924.944062 
L 91.936617 -7448.474062 
L 109.132303 -7694.174062 
L 126.327989 -8132.654062 
L 143.523674 -8384.024062 
L 160.71936 -8841.404062 
L 177.915046 -9159.869062 
L 195.110731 -9533.144062 
L 212.306417 -9947.054062 
L 229.502103 -10331.669062 
L 246.697788 -10650.134062 
L 263.893474 -11274.779062 
L 281.08916 -11455.274062 
L 298.284845 -11961.794062 
L 315.480531 -12213.164062 
L 332.676217 -12579.824062 
L 349.871902 -13020.194062 
L 367.067588 -13375.514062 
L 384.263274 -13710.044062 
L 401.458959 -14203.334062 
L 418.654645 -14515.184062 
L 435.850331 -15139.829062 
L 453.046016 -15370.409062 
L 470.241702 -15705.884062 
L 487.437388 -15982.769062 
L 504.633073 -16429.754062 
L 521.828759 -16889.969062 
L 539.024445 -17328.449062 
L 556.22013 -17593.049062 
L 573.415816 -18020.189062 
L 573.415816 -18021.134062 
L 573.415816 -18021.134062 
L 556.22013 -17593.994062 
L 539.024445 -17388.929062 
L 521.828759 -16890.914062 
L 504.633073 -16430.699062 
L 487.437388 -15983.714062 
L 470.241702 -15706.829062 
L 453.046016 -15418.604062 
L 435.850331 -15140.774062 
L 418.654645 -14516.129062 
L 401.458959 -14205.224062 
L 384.263274 -13710.989062 
L 367.067588 -13421.819062 
L 349.871902 -13096.739062 
L 332.676217 -12580.769062 
L 315.480531 -12214.109062 
L 298.284845 -11962.739062 
L 281.08916 -11457.164062 
L 263.893474 -11275.724062 
L 246.697788 -10652.024062 
L 229.502103 -10332.614062 
L 212.306417 -9947.999062 
L 195.110731 -9533.144062 
L 177.915046 -9160.814062 
L 160.71936 -8841.404062 
L 143.523674 -8384.969062 
L 126.327989 -8133.599062 
L 109.132303 -7777.334062 
L 91.936617 -7537.304062 
L 74.740932 -6925.889062 
z
" clip-path="url(#p4f7745dae8)" style="fill: #4bc2ad; fill-opacity: 0.2; stroke: #ffffff; stroke-opacity: 0.2"/>
   </g>
   <g id="PolyCollection_9"/>
   <g id="PolyCollection_10">
    <defs>
     <path id="m24cc39cd93" d="M 74.740932 -702.569687 
L 74.740932 -701.624687 
L 91.936617 -804.629687 
L 109.132303 -856.604687 
L 126.327989 -762.104687 
L 143.523674 -737.534687 
L 160.71936 -737.534687 
L 177.915046 -749.819687 
L 195.110731 -737.534687 
L 212.306417 -797.069687 
L 229.502103 -737.534687 
L 246.697788 -774.389687 
L 263.893474 -863.219687 
L 281.08916 -755.489687 
L 298.284845 -797.069687 
L 315.480531 -743.204687 
L 332.676217 -737.534687 
L 349.871902 -749.819687 
L 367.067588 -798.014687 
L 384.263274 -797.069687 
L 401.458959 -721.469687 
L 418.654645 -737.534687 
L 435.850331 -881.174687 
L 453.046016 -821.639687 
L 470.241702 -695.954687 
L 487.437388 -689.339687 
L 504.633073 -737.534687 
L 521.828759 -815.969687 
L 539.024445 -863.219687 
L 556.22013 -863.219687 
L 573.415816 -749.819687 
L 573.415816 -750.764687 
L 573.415816 -750.764687 
L 556.22013 -864.164687 
L 539.024445 -864.164687 
L 521.828759 -815.969687 
L 504.633073 -774.389687 
L 487.437388 -690.284687 
L 470.241702 -696.899687 
L 453.046016 -822.584687 
L 435.850331 -882.119687 
L 418.654645 -738.479687 
L 401.458959 -768.719687 
L 384.263274 -833.924687 
L 367.067588 -858.494687 
L 349.871902 -750.764687 
L 332.676217 -774.389687 
L 315.480531 -744.149687 
L 298.284845 -857.549687 
L 281.08916 -756.434687 
L 263.893474 -864.164687 
L 246.697788 -827.309687 
L 229.502103 -738.479687 
L 212.306417 -798.014687 
L 195.110731 -738.479687 
L 177.915046 -750.764687 
L 160.71936 -774.389687 
L 143.523674 -738.479687 
L 126.327989 -763.049687 
L 109.132303 -857.549687 
L 91.936617 -887.789687 
L 74.740932 -702.569687 
z
" style="stroke: #ffffff; stroke-opacity: 0.2"/>
    </defs>
    <g clip-path="url(#p4f7745dae8)">
     <use xlink:href="#m24cc39cd93" x="0" y="407.745625" style="fill: #4bc2ad; fill-opacity: 0.2; stroke: #ffffff; stroke-opacity: 0.2"/>
    </g>
   </g>
   <g id="line2d_49">
    <path clip-path="url(#p4f7745dae8)" style="fill: none; stroke: #4bc2ad; stroke-width: 1.5; stroke-linecap: round"/>
    <defs>
     <path id="m269a93dddb" d="M -3 3 
L 3 3 
L 3 -3 
L -3 -3 
z
" style="stroke: #ffffff; stroke-width: 0.75; stroke-linejoin: miter"/>
    </defs>
    <g clip-path="url(#p4f7745dae8)"/>
   </g>
   <g id="line2d_50">
    <path clip-path="url(#p4f7745dae8)" style="fill: none; stroke: #4bc2ad; stroke-width: 1.5; stroke-linecap: round"/>
    <g clip-path="url(#p4f7745dae8)"/>
   </g>
   <g id="patch_8">
    <path d="M 49.807188 364.785937 
L 49.807188 243.825937 
" style="fill: none; stroke: #ffffff; stroke-width: 1.25; stroke-linejoin: miter; stroke-linecap: square"/>
   </g>
   <g id="patch_9">
    <path d="M 607.807188 364.785937 
L 607.807188 243.825937 
" style="fill: none; stroke: #ffffff; stroke-width: 1.25; stroke-linejoin: miter; stroke-linecap: square"/>
   </g>
   <g id="patch_10">
    <path d="M 49.807187 364.785937 
L 607.807188 364.785937 
" style="fill: none; stroke: #ffffff; stroke-width: 1.25; stroke-linejoin: miter; stroke-linecap: square"/>
   </g>
   <g id="patch_11">
    <path d="M 49.807187 243.825937 
L 607.807188 243.825937 
" style="fill: none; stroke: #ffffff; stroke-width: 1.25; stroke-linejoin: miter; stroke-linecap: square"/>
   </g>
  </g>
 </g>
 <defs>
  <clipPath id="p11807b15f2">
   <rect x="49.807188" y="32.145937" width="558" height="181.44"/>
  </clipPath>
  <clipPath id="p4f7745dae8">
   <rect x="49.807188" y="243.825937" width="558" height="120.96"/>
  </clipPath>
 </defs>
</svg>
