<?xml version="1.0" encoding="utf-8" standalone="no"?>
<!DOCTYPE svg PUBLIC "-//W3C//DTD SVG 1.1//EN"
  "http://www.w3.org/Graphics/SVG/1.1/DTD/svg11.dtd">
<svg xmlns:xlink="http://www.w3.org/1999/xlink" width="615.007187pt" height="241.425625pt" viewBox="0 0 615.007187 241.425625" xmlns="http://www.w3.org/2000/svg" version="1.1">
 <metadata>
  <rdf:RDF xmlns:dc="http://purl.org/dc/elements/1.1/" xmlns:cc="http://creativecommons.org/ns#" xmlns:rdf="http://www.w3.org/1999/02/22-rdf-syntax-ns#">
   <cc:Work>
    <dc:type rdf:resource="http://purl.org/dc/dcmitype/StillImage"/>
    <dc:date>2024-11-07T19:17:18.651860</dc:date>
    <dc:format>image/svg+xml</dc:format>
    <dc:creator>
     <cc:Agent>
      <dc:title>Matplotlib v3.9.2, https://matplotlib.org/</dc:title>
     </cc:Agent>
    </dc:creator>
   </cc:Work>
  </rdf:RDF>
 </metadata>
 <defs>
  <style type="text/css">*{stroke-linejoin: round; stroke-linecap: butt}</style>
 </defs>
 <g id="figure_1">
  <g id="patch_1">
   <path d="M 0 241.425625 
L 615.007187 241.425625 
L 615.007187 0 
L 0 0 
z
" style="fill: #ffffff"/>
  </g>
  <g id="axes_1">
   <g id="patch_2">
    <path d="M 49.807188 198.465938 
L 607.807188 198.465938 
L 607.807188 32.145938 
L 49.807188 32.145938 
z
" style="fill: #eaeaf2"/>
   </g>
   <g id="matplotlib.axis_1">
    <g id="xtick_1">
     <g id="line2d_1">
      <path d="M 74.740932 198.465938 
L 74.740932 32.145938 
" clip-path="url(#pfea864db85)" style="fill: none; stroke: #ffffff; stroke-linecap: round"/>
     </g>
     <g id="text_1">
      <!-- 0 -->
      <g style="fill: #262626" transform="translate(71.241557 216.324219) scale(0.11 -0.11)">
       <defs>
        <path id="DejaVuSans-30" d="M 2034 4250 
Q 1547 4250 1301 3770 
Q 1056 3291 1056 2328 
Q 1056 1369 1301 889 
Q 1547 409 2034 409 
Q 2525 409 2770 889 
Q 3016 1369 3016 2328 
Q 3016 3291 2770 3770 
Q 2525 4250 2034 4250 
z
M 2034 4750 
Q 2819 4750 3233 4129 
Q 3647 3509 3647 2328 
Q 3647 1150 3233 529 
Q 2819 -91 2034 -91 
Q 1250 -91 836 529 
Q 422 1150 422 2328 
Q 422 3509 836 4129 
Q 1250 4750 2034 4750 
z
" transform="scale(0.015625)"/>
       </defs>
       <use xlink:href="#DejaVuSans-30"/>
      </g>
     </g>
    </g>
    <g id="xtick_2">
     <g id="line2d_2">
      <path d="M 109.132303 198.465938 
L 109.132303 32.145938 
" clip-path="url(#pfea864db85)" style="fill: none; stroke: #ffffff; stroke-linecap: round"/>
     </g>
     <g id="text_2">
      <!-- 64 -->
      <g style="fill: #262626" transform="translate(102.133553 216.324219) scale(0.11 -0.11)">
       <defs>
        <path id="DejaVuSans-36" d="M 2113 2584 
Q 1688 2584 1439 2293 
Q 1191 2003 1191 1497 
Q 1191 994 1439 701 
Q 1688 409 2113 409 
Q 2538 409 2786 701 
Q 3034 994 3034 1497 
Q 3034 2003 2786 2293 
Q 2538 2584 2113 2584 
z
M 3366 4563 
L 3366 3988 
Q 3128 4100 2886 4159 
Q 2644 4219 2406 4219 
Q 1781 4219 1451 3797 
Q 1122 3375 1075 2522 
Q 1259 2794 1537 2939 
Q 1816 3084 2150 3084 
Q 2853 3084 3261 2657 
Q 3669 2231 3669 1497 
Q 3669 778 3244 343 
Q 2819 -91 2113 -91 
Q 1303 -91 875 529 
Q 447 1150 447 2328 
Q 447 3434 972 4092 
Q 1497 4750 2381 4750 
Q 2619 4750 2861 4703 
Q 3103 4656 3366 4563 
z
" transform="scale(0.015625)"/>
        <path id="DejaVuSans-34" d="M 2419 4116 
L 825 1625 
L 2419 1625 
L 2419 4116 
z
M 2253 4666 
L 3047 4666 
L 3047 1625 
L 3713 1625 
L 3713 1100 
L 3047 1100 
L 3047 0 
L 2419 0 
L 2419 1100 
L 313 1100 
L 313 1709 
L 2253 4666 
z
" transform="scale(0.015625)"/>
       </defs>
       <use xlink:href="#DejaVuSans-36"/>
       <use xlink:href="#DejaVuSans-34" x="63.623047"/>
      </g>
     </g>
    </g>
    <g id="xtick_3">
     <g id="line2d_3">
      <path d="M 143.523674 198.465938 
L 143.523674 32.145938 
" clip-path="url(#pfea864db85)" style="fill: none; stroke: #ffffff; stroke-linecap: round"/>
     </g>
     <g id="text_3">
      <!-- 128 -->
      <g style="fill: #262626" transform="translate(133.025549 216.324219) scale(0.11 -0.11)">
       <defs>
        <path id="DejaVuSans-31" d="M 794 531 
L 1825 531 
L 1825 4091 
L 703 3866 
L 703 4441 
L 1819 4666 
L 2450 4666 
L 2450 531 
L 3481 531 
L 3481 0 
L 794 0 
L 794 531 
z
" transform="scale(0.015625)"/>
        <path id="DejaVuSans-32" d="M 1228 531 
L 3431 531 
L 3431 0 
L 469 0 
L 469 531 
Q 828 903 1448 1529 
Q 2069 2156 2228 2338 
Q 2531 2678 2651 2914 
Q 2772 3150 2772 3378 
Q 2772 3750 2511 3984 
Q 2250 4219 1831 4219 
Q 1534 4219 1204 4116 
Q 875 4013 500 3803 
L 500 4441 
Q 881 4594 1212 4672 
Q 1544 4750 1819 4750 
Q 2544 4750 2975 4387 
Q 3406 4025 3406 3419 
Q 3406 3131 3298 2873 
Q 3191 2616 2906 2266 
Q 2828 2175 2409 1742 
Q 1991 1309 1228 531 
z
" transform="scale(0.015625)"/>
        <path id="DejaVuSans-38" d="M 2034 2216 
Q 1584 2216 1326 1975 
Q 1069 1734 1069 1313 
Q 1069 891 1326 650 
Q 1584 409 2034 409 
Q 2484 409 2743 651 
Q 3003 894 3003 1313 
Q 3003 1734 2745 1975 
Q 2488 2216 2034 2216 
z
M 1403 2484 
Q 997 2584 770 2862 
Q 544 3141 544 3541 
Q 544 4100 942 4425 
Q 1341 4750 2034 4750 
Q 2731 4750 3128 4425 
Q 3525 4100 3525 3541 
Q 3525 3141 3298 2862 
Q 3072 2584 2669 2484 
Q 3125 2378 3379 2068 
Q 3634 1759 3634 1313 
Q 3634 634 3220 271 
Q 2806 -91 2034 -91 
Q 1263 -91 848 271 
Q 434 634 434 1313 
Q 434 1759 690 2068 
Q 947 2378 1403 2484 
z
M 1172 3481 
Q 1172 3119 1398 2916 
Q 1625 2713 2034 2713 
Q 2441 2713 2670 2916 
Q 2900 3119 2900 3481 
Q 2900 3844 2670 4047 
Q 2441 4250 2034 4250 
Q 1625 4250 1398 4047 
Q 1172 3844 1172 3481 
z
" transform="scale(0.015625)"/>
       </defs>
       <use xlink:href="#DejaVuSans-31"/>
       <use xlink:href="#DejaVuSans-32" x="63.623047"/>
       <use xlink:href="#DejaVuSans-38" x="127.246094"/>
      </g>
     </g>
    </g>
    <g id="xtick_4">
     <g id="line2d_4">
      <path d="M 177.915046 198.465938 
L 177.915046 32.145938 
" clip-path="url(#pfea864db85)" style="fill: none; stroke: #ffffff; stroke-linecap: round"/>
     </g>
     <g id="text_4">
      <!-- 192 -->
      <g style="fill: #262626" transform="translate(167.416921 216.324219) scale(0.11 -0.11)">
       <defs>
        <path id="DejaVuSans-39" d="M 703 97 
L 703 672 
Q 941 559 1184 500 
Q 1428 441 1663 441 
Q 2288 441 2617 861 
Q 2947 1281 2994 2138 
Q 2813 1869 2534 1725 
Q 2256 1581 1919 1581 
Q 1219 1581 811 2004 
Q 403 2428 403 3163 
Q 403 3881 828 4315 
Q 1253 4750 1959 4750 
Q 2769 4750 3195 4129 
Q 3622 3509 3622 2328 
Q 3622 1225 3098 567 
Q 2575 -91 1691 -91 
Q 1453 -91 1209 -44 
Q 966 3 703 97 
z
M 1959 2075 
Q 2384 2075 2632 2365 
Q 2881 2656 2881 3163 
Q 2881 3666 2632 3958 
Q 2384 4250 1959 4250 
Q 1534 4250 1286 3958 
Q 1038 3666 1038 3163 
Q 1038 2656 1286 2365 
Q 1534 2075 1959 2075 
z
" transform="scale(0.015625)"/>
       </defs>
       <use xlink:href="#DejaVuSans-31"/>
       <use xlink:href="#DejaVuSans-39" x="63.623047"/>
       <use xlink:href="#DejaVuSans-32" x="127.246094"/>
      </g>
     </g>
    </g>
    <g id="xtick_5">
     <g id="line2d_5">
      <path d="M 212.306417 198.465938 
L 212.306417 32.145938 
" clip-path="url(#pfea864db85)" style="fill: none; stroke: #ffffff; stroke-linecap: round"/>
     </g>
     <g id="text_5">
      <!-- 256 -->
      <g style="fill: #262626" transform="translate(201.808292 216.324219) scale(0.11 -0.11)">
       <defs>
        <path id="DejaVuSans-35" d="M 691 4666 
L 3169 4666 
L 3169 4134 
L 1269 4134 
L 1269 2991 
Q 1406 3038 1543 3061 
Q 1681 3084 1819 3084 
Q 2600 3084 3056 2656 
Q 3513 2228 3513 1497 
Q 3513 744 3044 326 
Q 2575 -91 1722 -91 
Q 1428 -91 1123 -41 
Q 819 9 494 109 
L 494 744 
Q 775 591 1075 516 
Q 1375 441 1709 441 
Q 2250 441 2565 725 
Q 2881 1009 2881 1497 
Q 2881 1984 2565 2268 
Q 2250 2553 1709 2553 
Q 1456 2553 1204 2497 
Q 953 2441 691 2322 
L 691 4666 
z
" transform="scale(0.015625)"/>
       </defs>
       <use xlink:href="#DejaVuSans-32"/>
       <use xlink:href="#DejaVuSans-35" x="63.623047"/>
       <use xlink:href="#DejaVuSans-36" x="127.246094"/>
      </g>
     </g>
    </g>
    <g id="xtick_6">
     <g id="line2d_6">
      <path d="M 246.697788 198.465938 
L 246.697788 32.145938 
" clip-path="url(#pfea864db85)" style="fill: none; stroke: #ffffff; stroke-linecap: round"/>
     </g>
     <g id="text_6">
      <!-- 320 -->
      <g style="fill: #262626" transform="translate(236.199663 216.324219) scale(0.11 -0.11)">
       <defs>
        <path id="DejaVuSans-33" d="M 2597 2516 
Q 3050 2419 3304 2112 
Q 3559 1806 3559 1356 
Q 3559 666 3084 287 
Q 2609 -91 1734 -91 
Q 1441 -91 1130 -33 
Q 819 25 488 141 
L 488 750 
Q 750 597 1062 519 
Q 1375 441 1716 441 
Q 2309 441 2620 675 
Q 2931 909 2931 1356 
Q 2931 1769 2642 2001 
Q 2353 2234 1838 2234 
L 1294 2234 
L 1294 2753 
L 1863 2753 
Q 2328 2753 2575 2939 
Q 2822 3125 2822 3475 
Q 2822 3834 2567 4026 
Q 2313 4219 1838 4219 
Q 1578 4219 1281 4162 
Q 984 4106 628 3988 
L 628 4550 
Q 988 4650 1302 4700 
Q 1616 4750 1894 4750 
Q 2613 4750 3031 4423 
Q 3450 4097 3450 3541 
Q 3450 3153 3228 2886 
Q 3006 2619 2597 2516 
z
" transform="scale(0.015625)"/>
       </defs>
       <use xlink:href="#DejaVuSans-33"/>
       <use xlink:href="#DejaVuSans-32" x="63.623047"/>
       <use xlink:href="#DejaVuSans-30" x="127.246094"/>
      </g>
     </g>
    </g>
    <g id="xtick_7">
     <g id="line2d_7">
      <path d="M 281.08916 198.465938 
L 281.08916 32.145938 
" clip-path="url(#pfea864db85)" style="fill: none; stroke: #ffffff; stroke-linecap: round"/>
     </g>
     <g id="text_7">
      <!-- 384 -->
      <g style="fill: #262626" transform="translate(270.591035 216.324219) scale(0.11 -0.11)">
       <use xlink:href="#DejaVuSans-33"/>
       <use xlink:href="#DejaVuSans-38" x="63.623047"/>
       <use xlink:href="#DejaVuSans-34" x="127.246094"/>
      </g>
     </g>
    </g>
    <g id="xtick_8">
     <g id="line2d_8">
      <path d="M 315.480531 198.465938 
L 315.480531 32.145938 
" clip-path="url(#pfea864db85)" style="fill: none; stroke: #ffffff; stroke-linecap: round"/>
     </g>
     <g id="text_8">
      <!-- 448 -->
      <g style="fill: #262626" transform="translate(304.982406 216.324219) scale(0.11 -0.11)">
       <use xlink:href="#DejaVuSans-34"/>
       <use xlink:href="#DejaVuSans-34" x="63.623047"/>
       <use xlink:href="#DejaVuSans-38" x="127.246094"/>
      </g>
     </g>
    </g>
    <g id="xtick_9">
     <g id="line2d_9">
      <path d="M 349.871902 198.465938 
L 349.871902 32.145938 
" clip-path="url(#pfea864db85)" style="fill: none; stroke: #ffffff; stroke-linecap: round"/>
     </g>
     <g id="text_9">
      <!-- 512 -->
      <g style="fill: #262626" transform="translate(339.373777 216.324219) scale(0.11 -0.11)">
       <use xlink:href="#DejaVuSans-35"/>
       <use xlink:href="#DejaVuSans-31" x="63.623047"/>
       <use xlink:href="#DejaVuSans-32" x="127.246094"/>
      </g>
     </g>
    </g>
    <g id="xtick_10">
     <g id="line2d_10">
      <path d="M 384.263274 198.465938 
L 384.263274 32.145938 
" clip-path="url(#pfea864db85)" style="fill: none; stroke: #ffffff; stroke-linecap: round"/>
     </g>
     <g id="text_10">
      <!-- 576 -->
      <g style="fill: #262626" transform="translate(373.765149 216.324219) scale(0.11 -0.11)">
       <defs>
        <path id="DejaVuSans-37" d="M 525 4666 
L 3525 4666 
L 3525 4397 
L 1831 0 
L 1172 0 
L 2766 4134 
L 525 4134 
L 525 4666 
z
" transform="scale(0.015625)"/>
       </defs>
       <use xlink:href="#DejaVuSans-35"/>
       <use xlink:href="#DejaVuSans-37" x="63.623047"/>
       <use xlink:href="#DejaVuSans-36" x="127.246094"/>
      </g>
     </g>
    </g>
    <g id="xtick_11">
     <g id="line2d_11">
      <path d="M 418.654645 198.465938 
L 418.654645 32.145938 
" clip-path="url(#pfea864db85)" style="fill: none; stroke: #ffffff; stroke-linecap: round"/>
     </g>
     <g id="text_11">
      <!-- 640 -->
      <g style="fill: #262626" transform="translate(408.15652 216.324219) scale(0.11 -0.11)">
       <use xlink:href="#DejaVuSans-36"/>
       <use xlink:href="#DejaVuSans-34" x="63.623047"/>
       <use xlink:href="#DejaVuSans-30" x="127.246094"/>
      </g>
     </g>
    </g>
    <g id="xtick_12">
     <g id="line2d_12">
      <path d="M 453.046016 198.465938 
L 453.046016 32.145938 
" clip-path="url(#pfea864db85)" style="fill: none; stroke: #ffffff; stroke-linecap: round"/>
     </g>
     <g id="text_12">
      <!-- 704 -->
      <g style="fill: #262626" transform="translate(442.547891 216.324219) scale(0.11 -0.11)">
       <use xlink:href="#DejaVuSans-37"/>
       <use xlink:href="#DejaVuSans-30" x="63.623047"/>
       <use xlink:href="#DejaVuSans-34" x="127.246094"/>
      </g>
     </g>
    </g>
    <g id="xtick_13">
     <g id="line2d_13">
      <path d="M 487.437388 198.465938 
L 487.437388 32.145938 
" clip-path="url(#pfea864db85)" style="fill: none; stroke: #ffffff; stroke-linecap: round"/>
     </g>
     <g id="text_13">
      <!-- 768 -->
      <g style="fill: #262626" transform="translate(476.939263 216.324219) scale(0.11 -0.11)">
       <use xlink:href="#DejaVuSans-37"/>
       <use xlink:href="#DejaVuSans-36" x="63.623047"/>
       <use xlink:href="#DejaVuSans-38" x="127.246094"/>
      </g>
     </g>
    </g>
    <g id="xtick_14">
     <g id="line2d_14">
      <path d="M 521.828759 198.465938 
L 521.828759 32.145938 
" clip-path="url(#pfea864db85)" style="fill: none; stroke: #ffffff; stroke-linecap: round"/>
     </g>
     <g id="text_14">
      <!-- 832 -->
      <g style="fill: #262626" transform="translate(511.330634 216.324219) scale(0.11 -0.11)">
       <use xlink:href="#DejaVuSans-38"/>
       <use xlink:href="#DejaVuSans-33" x="63.623047"/>
       <use xlink:href="#DejaVuSans-32" x="127.246094"/>
      </g>
     </g>
    </g>
    <g id="xtick_15">
     <g id="line2d_15">
      <path d="M 556.22013 198.465938 
L 556.22013 32.145938 
" clip-path="url(#pfea864db85)" style="fill: none; stroke: #ffffff; stroke-linecap: round"/>
     </g>
     <g id="text_15">
      <!-- 896 -->
      <g style="fill: #262626" transform="translate(545.722005 216.324219) scale(0.11 -0.11)">
       <use xlink:href="#DejaVuSans-38"/>
       <use xlink:href="#DejaVuSans-39" x="63.623047"/>
       <use xlink:href="#DejaVuSans-36" x="127.246094"/>
      </g>
     </g>
    </g>
    <g id="xtick_16">
     <g id="line2d_16">
      <path d="M 590.611502 198.465938 
L 590.611502 32.145938 
" clip-path="url(#pfea864db85)" style="fill: none; stroke: #ffffff; stroke-linecap: round"/>
     </g>
     <g id="text_16">
      <!-- 960 -->
      <g style="fill: #262626" transform="translate(580.113377 216.324219) scale(0.11 -0.11)">
       <use xlink:href="#DejaVuSans-39"/>
       <use xlink:href="#DejaVuSans-36" x="63.623047"/>
       <use xlink:href="#DejaVuSans-30" x="127.246094"/>
      </g>
     </g>
    </g>
    <g id="xtick_17"/>
    <g id="xtick_18"/>
    <g id="xtick_19"/>
    <g id="xtick_20"/>
    <g id="xtick_21"/>
    <g id="xtick_22"/>
    <g id="xtick_23"/>
    <g id="xtick_24"/>
    <g id="xtick_25"/>
    <g id="xtick_26"/>
    <g id="xtick_27"/>
    <g id="xtick_28"/>
    <g id="xtick_29"/>
    <g id="xtick_30"/>
    <g id="xtick_31"/>
    <g id="xtick_32"/>
    <g id="text_17">
     <!-- Transfer Size [Bytes] -->
     <g style="fill: #262626" transform="translate(267.035313 231.73) scale(0.12 -0.12)">
      <defs>
       <path id="DejaVuSans-54" d="M -19 4666 
L 3928 4666 
L 3928 4134 
L 2272 4134 
L 2272 0 
L 1638 0 
L 1638 4134 
L -19 4134 
L -19 4666 
z
" transform="scale(0.015625)"/>
       <path id="DejaVuSans-72" d="M 2631 2963 
Q 2534 3019 2420 3045 
Q 2306 3072 2169 3072 
Q 1681 3072 1420 2755 
Q 1159 2438 1159 1844 
L 1159 0 
L 581 0 
L 581 3500 
L 1159 3500 
L 1159 2956 
Q 1341 3275 1631 3429 
Q 1922 3584 2338 3584 
Q 2397 3584 2469 3576 
Q 2541 3569 2628 3553 
L 2631 2963 
z
" transform="scale(0.015625)"/>
       <path id="DejaVuSans-61" d="M 2194 1759 
Q 1497 1759 1228 1600 
Q 959 1441 959 1056 
Q 959 750 1161 570 
Q 1363 391 1709 391 
Q 2188 391 2477 730 
Q 2766 1069 2766 1631 
L 2766 1759 
L 2194 1759 
z
M 3341 1997 
L 3341 0 
L 2766 0 
L 2766 531 
Q 2569 213 2275 61 
Q 1981 -91 1556 -91 
Q 1019 -91 701 211 
Q 384 513 384 1019 
Q 384 1609 779 1909 
Q 1175 2209 1959 2209 
L 2766 2209 
L 2766 2266 
Q 2766 2663 2505 2880 
Q 2244 3097 1772 3097 
Q 1472 3097 1187 3025 
Q 903 2953 641 2809 
L 641 3341 
Q 956 3463 1253 3523 
Q 1550 3584 1831 3584 
Q 2591 3584 2966 3190 
Q 3341 2797 3341 1997 
z
" transform="scale(0.015625)"/>
       <path id="DejaVuSans-6e" d="M 3513 2113 
L 3513 0 
L 2938 0 
L 2938 2094 
Q 2938 2591 2744 2837 
Q 2550 3084 2163 3084 
Q 1697 3084 1428 2787 
Q 1159 2491 1159 1978 
L 1159 0 
L 581 0 
L 581 3500 
L 1159 3500 
L 1159 2956 
Q 1366 3272 1645 3428 
Q 1925 3584 2291 3584 
Q 2894 3584 3203 3211 
Q 3513 2838 3513 2113 
z
" transform="scale(0.015625)"/>
       <path id="DejaVuSans-73" d="M 2834 3397 
L 2834 2853 
Q 2591 2978 2328 3040 
Q 2066 3103 1784 3103 
Q 1356 3103 1142 2972 
Q 928 2841 928 2578 
Q 928 2378 1081 2264 
Q 1234 2150 1697 2047 
L 1894 2003 
Q 2506 1872 2764 1633 
Q 3022 1394 3022 966 
Q 3022 478 2636 193 
Q 2250 -91 1575 -91 
Q 1294 -91 989 -36 
Q 684 19 347 128 
L 347 722 
Q 666 556 975 473 
Q 1284 391 1588 391 
Q 1994 391 2212 530 
Q 2431 669 2431 922 
Q 2431 1156 2273 1281 
Q 2116 1406 1581 1522 
L 1381 1569 
Q 847 1681 609 1914 
Q 372 2147 372 2553 
Q 372 3047 722 3315 
Q 1072 3584 1716 3584 
Q 2034 3584 2315 3537 
Q 2597 3491 2834 3397 
z
" transform="scale(0.015625)"/>
       <path id="DejaVuSans-66" d="M 2375 4863 
L 2375 4384 
L 1825 4384 
Q 1516 4384 1395 4259 
Q 1275 4134 1275 3809 
L 1275 3500 
L 2222 3500 
L 2222 3053 
L 1275 3053 
L 1275 0 
L 697 0 
L 697 3053 
L 147 3053 
L 147 3500 
L 697 3500 
L 697 3744 
Q 697 4328 969 4595 
Q 1241 4863 1831 4863 
L 2375 4863 
z
" transform="scale(0.015625)"/>
       <path id="DejaVuSans-65" d="M 3597 1894 
L 3597 1613 
L 953 1613 
Q 991 1019 1311 708 
Q 1631 397 2203 397 
Q 2534 397 2845 478 
Q 3156 559 3463 722 
L 3463 178 
Q 3153 47 2828 -22 
Q 2503 -91 2169 -91 
Q 1331 -91 842 396 
Q 353 884 353 1716 
Q 353 2575 817 3079 
Q 1281 3584 2069 3584 
Q 2775 3584 3186 3129 
Q 3597 2675 3597 1894 
z
M 3022 2063 
Q 3016 2534 2758 2815 
Q 2500 3097 2075 3097 
Q 1594 3097 1305 2825 
Q 1016 2553 972 2059 
L 3022 2063 
z
" transform="scale(0.015625)"/>
       <path id="DejaVuSans-20" transform="scale(0.015625)"/>
       <path id="DejaVuSans-53" d="M 3425 4513 
L 3425 3897 
Q 3066 4069 2747 4153 
Q 2428 4238 2131 4238 
Q 1616 4238 1336 4038 
Q 1056 3838 1056 3469 
Q 1056 3159 1242 3001 
Q 1428 2844 1947 2747 
L 2328 2669 
Q 3034 2534 3370 2195 
Q 3706 1856 3706 1288 
Q 3706 609 3251 259 
Q 2797 -91 1919 -91 
Q 1588 -91 1214 -16 
Q 841 59 441 206 
L 441 856 
Q 825 641 1194 531 
Q 1563 422 1919 422 
Q 2459 422 2753 634 
Q 3047 847 3047 1241 
Q 3047 1584 2836 1778 
Q 2625 1972 2144 2069 
L 1759 2144 
Q 1053 2284 737 2584 
Q 422 2884 422 3419 
Q 422 4038 858 4394 
Q 1294 4750 2059 4750 
Q 2388 4750 2728 4690 
Q 3069 4631 3425 4513 
z
" transform="scale(0.015625)"/>
       <path id="DejaVuSans-69" d="M 603 3500 
L 1178 3500 
L 1178 0 
L 603 0 
L 603 3500 
z
M 603 4863 
L 1178 4863 
L 1178 4134 
L 603 4134 
L 603 4863 
z
" transform="scale(0.015625)"/>
       <path id="DejaVuSans-7a" d="M 353 3500 
L 3084 3500 
L 3084 2975 
L 922 459 
L 3084 459 
L 3084 0 
L 275 0 
L 275 525 
L 2438 3041 
L 353 3041 
L 353 3500 
z
" transform="scale(0.015625)"/>
       <path id="DejaVuSans-5b" d="M 550 4863 
L 1875 4863 
L 1875 4416 
L 1125 4416 
L 1125 -397 
L 1875 -397 
L 1875 -844 
L 550 -844 
L 550 4863 
z
" transform="scale(0.015625)"/>
       <path id="DejaVuSans-42" d="M 1259 2228 
L 1259 519 
L 2272 519 
Q 2781 519 3026 730 
Q 3272 941 3272 1375 
Q 3272 1813 3026 2020 
Q 2781 2228 2272 2228 
L 1259 2228 
z
M 1259 4147 
L 1259 2741 
L 2194 2741 
Q 2656 2741 2882 2914 
Q 3109 3088 3109 3444 
Q 3109 3797 2882 3972 
Q 2656 4147 2194 4147 
L 1259 4147 
z
M 628 4666 
L 2241 4666 
Q 2963 4666 3353 4366 
Q 3744 4066 3744 3513 
Q 3744 3084 3544 2831 
Q 3344 2578 2956 2516 
Q 3422 2416 3680 2098 
Q 3938 1781 3938 1306 
Q 3938 681 3513 340 
Q 3088 0 2303 0 
L 628 0 
L 628 4666 
z
" transform="scale(0.015625)"/>
       <path id="DejaVuSans-79" d="M 2059 -325 
Q 1816 -950 1584 -1140 
Q 1353 -1331 966 -1331 
L 506 -1331 
L 506 -850 
L 844 -850 
Q 1081 -850 1212 -737 
Q 1344 -625 1503 -206 
L 1606 56 
L 191 3500 
L 800 3500 
L 1894 763 
L 2988 3500 
L 3597 3500 
L 2059 -325 
z
" transform="scale(0.015625)"/>
       <path id="DejaVuSans-74" d="M 1172 4494 
L 1172 3500 
L 2356 3500 
L 2356 3053 
L 1172 3053 
L 1172 1153 
Q 1172 725 1289 603 
Q 1406 481 1766 481 
L 2356 481 
L 2356 0 
L 1766 0 
Q 1100 0 847 248 
Q 594 497 594 1153 
L 594 3053 
L 172 3053 
L 172 3500 
L 594 3500 
L 594 4494 
L 1172 4494 
z
" transform="scale(0.015625)"/>
       <path id="DejaVuSans-5d" d="M 1947 4863 
L 1947 -844 
L 622 -844 
L 622 -397 
L 1369 -397 
L 1369 4416 
L 622 4416 
L 622 4863 
L 1947 4863 
z
" transform="scale(0.015625)"/>
      </defs>
      <use xlink:href="#DejaVuSans-54"/>
      <use xlink:href="#DejaVuSans-72" x="46.333984"/>
      <use xlink:href="#DejaVuSans-61" x="87.447266"/>
      <use xlink:href="#DejaVuSans-6e" x="148.726562"/>
      <use xlink:href="#DejaVuSans-73" x="212.105469"/>
      <use xlink:href="#DejaVuSans-66" x="264.205078"/>
      <use xlink:href="#DejaVuSans-65" x="299.410156"/>
      <use xlink:href="#DejaVuSans-72" x="360.933594"/>
      <use xlink:href="#DejaVuSans-20" x="402.046875"/>
      <use xlink:href="#DejaVuSans-53" x="433.833984"/>
      <use xlink:href="#DejaVuSans-69" x="497.310547"/>
      <use xlink:href="#DejaVuSans-7a" x="525.09375"/>
      <use xlink:href="#DejaVuSans-65" x="577.583984"/>
      <use xlink:href="#DejaVuSans-20" x="639.107422"/>
      <use xlink:href="#DejaVuSans-5b" x="670.894531"/>
      <use xlink:href="#DejaVuSans-42" x="709.908203"/>
      <use xlink:href="#DejaVuSans-79" x="778.511719"/>
      <use xlink:href="#DejaVuSans-74" x="837.691406"/>
      <use xlink:href="#DejaVuSans-65" x="876.900391"/>
      <use xlink:href="#DejaVuSans-73" x="938.423828"/>
      <use xlink:href="#DejaVuSans-5d" x="990.523438"/>
     </g>
    </g>
   </g>
   <g id="matplotlib.axis_2">
    <g id="ytick_1">
     <g id="line2d_17">
      <path d="M 49.807188 157.137894 
L 607.807188 157.137894 
" clip-path="url(#pfea864db85)" style="fill: none; stroke: #ffffff; stroke-linecap: round"/>
     </g>
     <g id="text_18">
      <!-- 0.2 -->
      <g style="fill: #262626" transform="translate(22.81375 161.317035) scale(0.11 -0.11)">
       <defs>
        <path id="DejaVuSans-2e" d="M 684 794 
L 1344 794 
L 1344 0 
L 684 0 
L 684 794 
z
" transform="scale(0.015625)"/>
       </defs>
       <use xlink:href="#DejaVuSans-30"/>
       <use xlink:href="#DejaVuSans-2e" x="63.623047"/>
       <use xlink:href="#DejaVuSans-32" x="95.410156"/>
      </g>
     </g>
    </g>
    <g id="ytick_2">
     <g id="line2d_18">
      <path d="M 49.807188 115.416759 
L 607.807188 115.416759 
" clip-path="url(#pfea864db85)" style="fill: none; stroke: #ffffff; stroke-linecap: round"/>
     </g>
     <g id="text_19">
      <!-- 0.4 -->
      <g style="fill: #262626" transform="translate(22.81375 119.5959) scale(0.11 -0.11)">
       <use xlink:href="#DejaVuSans-30"/>
       <use xlink:href="#DejaVuSans-2e" x="63.623047"/>
       <use xlink:href="#DejaVuSans-34" x="95.410156"/>
      </g>
     </g>
    </g>
    <g id="ytick_3">
     <g id="line2d_19">
      <path d="M 49.807188 73.695624 
L 607.807188 73.695624 
" clip-path="url(#pfea864db85)" style="fill: none; stroke: #ffffff; stroke-linecap: round"/>
     </g>
     <g id="text_20">
      <!-- 0.6 -->
      <g style="fill: #262626" transform="translate(22.81375 77.874765) scale(0.11 -0.11)">
       <use xlink:href="#DejaVuSans-30"/>
       <use xlink:href="#DejaVuSans-2e" x="63.623047"/>
       <use xlink:href="#DejaVuSans-36" x="95.410156"/>
      </g>
     </g>
    </g>
    <g id="text_21">
     <!-- Latency [ms] -->
     <g style="fill: #262626" transform="translate(16.318125 154.581563) rotate(-90) scale(0.12 -0.12)">
      <defs>
       <path id="DejaVuSans-4c" d="M 628 4666 
L 1259 4666 
L 1259 531 
L 3531 531 
L 3531 0 
L 628 0 
L 628 4666 
z
" transform="scale(0.015625)"/>
       <path id="DejaVuSans-63" d="M 3122 3366 
L 3122 2828 
Q 2878 2963 2633 3030 
Q 2388 3097 2138 3097 
Q 1578 3097 1268 2742 
Q 959 2388 959 1747 
Q 959 1106 1268 751 
Q 1578 397 2138 397 
Q 2388 397 2633 464 
Q 2878 531 3122 666 
L 3122 134 
Q 2881 22 2623 -34 
Q 2366 -91 2075 -91 
Q 1284 -91 818 406 
Q 353 903 353 1747 
Q 353 2603 823 3093 
Q 1294 3584 2113 3584 
Q 2378 3584 2631 3529 
Q 2884 3475 3122 3366 
z
" transform="scale(0.015625)"/>
       <path id="DejaVuSans-6d" d="M 3328 2828 
Q 3544 3216 3844 3400 
Q 4144 3584 4550 3584 
Q 5097 3584 5394 3201 
Q 5691 2819 5691 2113 
L 5691 0 
L 5113 0 
L 5113 2094 
Q 5113 2597 4934 2840 
Q 4756 3084 4391 3084 
Q 3944 3084 3684 2787 
Q 3425 2491 3425 1978 
L 3425 0 
L 2847 0 
L 2847 2094 
Q 2847 2600 2669 2842 
Q 2491 3084 2119 3084 
Q 1678 3084 1418 2786 
Q 1159 2488 1159 1978 
L 1159 0 
L 581 0 
L 581 3500 
L 1159 3500 
L 1159 2956 
Q 1356 3278 1631 3431 
Q 1906 3584 2284 3584 
Q 2666 3584 2933 3390 
Q 3200 3197 3328 2828 
z
" transform="scale(0.015625)"/>
      </defs>
      <use xlink:href="#DejaVuSans-4c"/>
      <use xlink:href="#DejaVuSans-61" x="55.712891"/>
      <use xlink:href="#DejaVuSans-74" x="116.992188"/>
      <use xlink:href="#DejaVuSans-65" x="156.201172"/>
      <use xlink:href="#DejaVuSans-6e" x="217.724609"/>
      <use xlink:href="#DejaVuSans-63" x="281.103516"/>
      <use xlink:href="#DejaVuSans-79" x="336.083984"/>
      <use xlink:href="#DejaVuSans-20" x="395.263672"/>
      <use xlink:href="#DejaVuSans-5b" x="427.050781"/>
      <use xlink:href="#DejaVuSans-6d" x="466.064453"/>
      <use xlink:href="#DejaVuSans-73" x="563.476562"/>
      <use xlink:href="#DejaVuSans-5d" x="615.576172"/>
     </g>
    </g>
   </g>
   <g id="PolyCollection_1"/>
   <g id="PolyCollection_2">
    <defs>
     <path id="ma55ddaf7c8" d="M 74.740932 -50.532725 
L 74.740932 -50.519688 
L 91.936617 -56.569252 
L 109.132303 -60.871744 
L 126.327989 -66.934346 
L 143.523674 -71.249876 
L 160.71936 -77.299441 
L 177.915046 -81.614971 
L 195.110731 -87.664535 
L 212.306417 -91.980065 
L 229.502103 -98.02963 
L 246.697788 -102.358197 
L 263.893474 -108.407762 
L 281.08916 -112.723292 
L 298.284845 -118.772856 
L 315.480531 -123.088386 
L 332.676217 -129.137951 
L 349.871902 -133.453481 
L 367.067588 -139.503045 
L 384.263274 -143.818575 
L 401.458959 -149.86814 
L 418.654645 -154.196707 
L 435.850331 -160.246272 
L 453.046016 -164.561802 
L 470.241702 -170.611366 
L 487.437388 -174.926896 
L 504.633073 -180.976461 
L 521.828759 -185.291991 
L 539.024445 -191.341555 
L 556.22013 -195.657085 
L 573.415816 -201.70665 
L 573.415816 -201.719687 
L 573.415816 -201.719687 
L 556.22013 -195.670123 
L 539.024445 -191.354593 
L 521.828759 -185.305029 
L 504.633073 -180.989499 
L 487.437388 -174.939934 
L 470.241702 -171.406676 
L 453.046016 -164.57484 
L 435.850331 -160.25931 
L 418.654645 -154.209745 
L 401.458959 -149.894215 
L 384.263274 -143.831613 
L 367.067588 -139.516083 
L 349.871902 -133.466519 
L 332.676217 -129.150989 
L 315.480531 -123.101424 
L 298.284845 -118.785894 
L 281.08916 -112.73633 
L 263.893474 -108.407762 
L 246.697788 -102.358197 
L 229.502103 -98.042668 
L 212.306417 -91.993103 
L 195.110731 -87.677573 
L 177.915046 -81.628009 
L 160.71936 -77.312479 
L 143.523674 -71.262914 
L 126.327989 -66.947384 
L 109.132303 -60.89782 
L 91.936617 -56.58229 
L 74.740932 -50.532725 
z
" style="stroke: #ffffff; stroke-opacity: 0.2"/>
    </defs>
    <g clip-path="url(#pfea864db85)">
     <use xlink:href="#ma55ddaf7c8" x="0" y="241.425625" style="fill: #3e356b; fill-opacity: 0.2; stroke: #ffffff; stroke-opacity: 0.2"/>
    </g>
   </g>
   <g id="PolyCollection_3"/>
   <g id="PolyCollection_4">
    <defs>
     <path id="mc02f588aed" d="M 74.740932 -57.273296 
L 74.740932 -57.273296 
L 91.936617 -62.266795 
L 109.132303 -65.57841 
L 126.327989 -70.597984 
L 143.523674 -73.909599 
L 160.71936 -78.916135 
L 177.915046 -82.240788 
L 195.110731 -87.247324 
L 212.306417 -90.571977 
L 229.502103 -95.578513 
L 246.697788 -98.890128 
L 263.893474 -103.909702 
L 281.08916 -107.221317 
L 298.284845 -112.240891 
L 315.480531 -115.552506 
L 332.676217 -120.57208 
L 349.871902 -123.883695 
L 367.067588 -128.890232 
L 384.263274 -132.214885 
L 401.458959 -137.221421 
L 418.654645 -140.533036 
L 435.850331 -145.55261 
L 453.046016 -148.864225 
L 470.241702 -153.883799 
L 487.437388 -157.195414 
L 504.633073 -162.214988 
L 521.828759 -165.526603 
L 539.024445 -170.533139 
L 556.22013 -173.857792 
L 573.415816 -178.864328 
L 573.415816 -178.877366 
L 573.415816 -178.877366 
L 556.22013 -173.857792 
L 539.024445 -170.546177 
L 521.828759 -165.539641 
L 504.633073 -163.557887 
L 487.437388 -157.651739 
L 470.241702 -153.896837 
L 453.046016 -148.877263 
L 435.850331 -145.565648 
L 418.654645 -140.546074 
L 401.458959 -137.234459 
L 384.263274 -132.227922 
L 367.067588 -128.903269 
L 349.871902 -123.896733 
L 332.676217 -120.585118 
L 315.480531 -116.725913 
L 298.284845 -112.253929 
L 281.08916 -107.234355 
L 263.893474 -103.92274 
L 246.697788 -98.916204 
L 229.502103 -95.591551 
L 212.306417 -90.571977 
L 195.110731 -87.260362 
L 177.915046 -82.253826 
L 160.71936 -78.942211 
L 143.523674 -73.922637 
L 126.327989 -70.611021 
L 109.132303 -65.591447 
L 91.936617 -62.279832 
L 74.740932 -57.273296 
z
" style="stroke: #ffffff; stroke-opacity: 0.2"/>
    </defs>
    <g clip-path="url(#pfea864db85)">
     <use xlink:href="#mc02f588aed" x="0" y="241.425625" style="fill: #357ba3; fill-opacity: 0.2; stroke: #ffffff; stroke-opacity: 0.2"/>
    </g>
   </g>
   <g id="line2d_20">
    <path d="M 74.740932 190.900735 
L 91.936617 184.853765 
L 109.132303 180.540765 
L 126.327989 174.48871 
L 143.523674 170.17052 
L 160.71936 164.118505 
L 177.915046 159.802818 
L 195.110731 153.753267 
L 212.306417 149.437724 
L 229.502103 143.385552 
L 246.697788 139.067428 
L 263.893474 133.017863 
L 281.08916 128.699726 
L 298.284845 122.650344 
L 315.480531 118.332271 
L 332.676217 112.279825 
L 349.871902 107.966929 
L 367.067588 101.914757 
L 384.263274 97.599397 
L 401.458959 91.544382 
L 418.654645 87.228905 
L 435.850331 81.176693 
L 453.046016 76.861176 
L 470.241702 70.807974 
L 487.437388 66.496121 
L 504.633073 60.44391 
L 521.828759 56.128419 
L 539.024445 50.073679 
L 556.22013 45.760717 
L 573.415816 39.707802 
" clip-path="url(#pfea864db85)" style="fill: none; stroke: #3e356b; stroke-width: 1.5; stroke-linecap: round"/>
    <defs>
     <path id="m4b19519867" d="M 0 3 
C 0.795609 3 1.55874 2.683901 2.12132 2.12132 
C 2.683901 1.55874 3 0.795609 3 0 
C 3 -0.795609 2.683901 -1.55874 2.12132 -2.12132 
C 1.55874 -2.683901 0.795609 -3 0 -3 
C -0.795609 -3 -1.55874 -2.683901 -2.12132 -2.12132 
C -2.683901 -1.55874 -3 -0.795609 -3 0 
C -3 0.795609 -2.683901 1.55874 -2.12132 2.12132 
C -1.55874 2.683901 -0.795609 3 0 3 
z
" style="stroke: #ffffff; stroke-width: 0.75"/>
    </defs>
    <g clip-path="url(#pfea864db85)">
     <use xlink:href="#m4b19519867" x="74.740932" y="190.900735" style="fill: #3e356b; stroke: #ffffff; stroke-width: 0.75"/>
     <use xlink:href="#m4b19519867" x="91.936617" y="184.853765" style="fill: #3e356b; stroke: #ffffff; stroke-width: 0.75"/>
     <use xlink:href="#m4b19519867" x="109.132303" y="180.540765" style="fill: #3e356b; stroke: #ffffff; stroke-width: 0.75"/>
     <use xlink:href="#m4b19519867" x="126.327989" y="174.48871" style="fill: #3e356b; stroke: #ffffff; stroke-width: 0.75"/>
     <use xlink:href="#m4b19519867" x="143.523674" y="170.17052" style="fill: #3e356b; stroke: #ffffff; stroke-width: 0.75"/>
     <use xlink:href="#m4b19519867" x="160.71936" y="164.118505" style="fill: #3e356b; stroke: #ffffff; stroke-width: 0.75"/>
     <use xlink:href="#m4b19519867" x="177.915046" y="159.802818" style="fill: #3e356b; stroke: #ffffff; stroke-width: 0.75"/>
     <use xlink:href="#m4b19519867" x="195.110731" y="153.753267" style="fill: #3e356b; stroke: #ffffff; stroke-width: 0.75"/>
     <use xlink:href="#m4b19519867" x="212.306417" y="149.437724" style="fill: #3e356b; stroke: #ffffff; stroke-width: 0.75"/>
     <use xlink:href="#m4b19519867" x="229.502103" y="143.385552" style="fill: #3e356b; stroke: #ffffff; stroke-width: 0.75"/>
     <use xlink:href="#m4b19519867" x="246.697788" y="139.067428" style="fill: #3e356b; stroke: #ffffff; stroke-width: 0.75"/>
     <use xlink:href="#m4b19519867" x="263.893474" y="133.017863" style="fill: #3e356b; stroke: #ffffff; stroke-width: 0.75"/>
     <use xlink:href="#m4b19519867" x="281.08916" y="128.699726" style="fill: #3e356b; stroke: #ffffff; stroke-width: 0.75"/>
     <use xlink:href="#m4b19519867" x="298.284845" y="122.650344" style="fill: #3e356b; stroke: #ffffff; stroke-width: 0.75"/>
     <use xlink:href="#m4b19519867" x="315.480531" y="118.332271" style="fill: #3e356b; stroke: #ffffff; stroke-width: 0.75"/>
     <use xlink:href="#m4b19519867" x="332.676217" y="112.279825" style="fill: #3e356b; stroke: #ffffff; stroke-width: 0.75"/>
     <use xlink:href="#m4b19519867" x="349.871902" y="107.966929" style="fill: #3e356b; stroke: #ffffff; stroke-width: 0.75"/>
     <use xlink:href="#m4b19519867" x="367.067588" y="101.914757" style="fill: #3e356b; stroke: #ffffff; stroke-width: 0.75"/>
     <use xlink:href="#m4b19519867" x="384.263274" y="97.599397" style="fill: #3e356b; stroke: #ffffff; stroke-width: 0.75"/>
     <use xlink:href="#m4b19519867" x="401.458959" y="91.544382" style="fill: #3e356b; stroke: #ffffff; stroke-width: 0.75"/>
     <use xlink:href="#m4b19519867" x="418.654645" y="87.228905" style="fill: #3e356b; stroke: #ffffff; stroke-width: 0.75"/>
     <use xlink:href="#m4b19519867" x="435.850331" y="81.176693" style="fill: #3e356b; stroke: #ffffff; stroke-width: 0.75"/>
     <use xlink:href="#m4b19519867" x="453.046016" y="76.861176" style="fill: #3e356b; stroke: #ffffff; stroke-width: 0.75"/>
     <use xlink:href="#m4b19519867" x="470.241702" y="70.807974" style="fill: #3e356b; stroke: #ffffff; stroke-width: 0.75"/>
     <use xlink:href="#m4b19519867" x="487.437388" y="66.496121" style="fill: #3e356b; stroke: #ffffff; stroke-width: 0.75"/>
     <use xlink:href="#m4b19519867" x="504.633073" y="60.44391" style="fill: #3e356b; stroke: #ffffff; stroke-width: 0.75"/>
     <use xlink:href="#m4b19519867" x="521.828759" y="56.128419" style="fill: #3e356b; stroke: #ffffff; stroke-width: 0.75"/>
     <use xlink:href="#m4b19519867" x="539.024445" y="50.073679" style="fill: #3e356b; stroke: #ffffff; stroke-width: 0.75"/>
     <use xlink:href="#m4b19519867" x="556.22013" y="45.760717" style="fill: #3e356b; stroke: #ffffff; stroke-width: 0.75"/>
     <use xlink:href="#m4b19519867" x="573.415816" y="39.707802" style="fill: #3e356b; stroke: #ffffff; stroke-width: 0.75"/>
    </g>
   </g>
   <g id="line2d_21">
    <path d="M 74.740932 184.152329 
L 91.936617 179.151229 
L 109.132303 175.836837 
L 126.327989 170.822387 
L 143.523674 167.508673 
L 160.71936 162.496426 
L 177.915046 159.179609 
L 195.110731 154.167871 
L 212.306417 150.853648 
L 229.502103 145.836656 
L 246.697788 142.522446 
L 263.893474 137.510721 
L 281.08916 134.196511 
L 298.284845 129.181018 
L 315.480531 125.866691 
L 332.676217 120.850976 
L 349.871902 117.536688 
L 367.067588 112.524937 
L 384.263274 109.208198 
L 401.458959 104.193787 
L 418.654645 100.882211 
L 435.850331 95.865219 
L 453.046016 92.55363 
L 470.241702 87.536389 
L 487.437388 84.222115 
L 504.633073 79.2067 
L 521.828759 75.896388 
L 539.024445 70.882068 
L 556.22013 67.567833 
L 573.415816 62.553487 
" clip-path="url(#pfea864db85)" style="fill: none; stroke: #357ba3; stroke-width: 1.5; stroke-linecap: round"/>
    <defs>
     <path id="md089eac1d8" d="M -3 3 
L 3 3 
L 3 -3 
L -3 -3 
z
" style="stroke: #ffffff; stroke-width: 0.75; stroke-linejoin: miter"/>
    </defs>
    <g clip-path="url(#pfea864db85)">
     <use xlink:href="#md089eac1d8" x="74.740932" y="184.152329" style="fill: #357ba3; stroke: #ffffff; stroke-width: 0.75; stroke-linejoin: miter"/>
     <use xlink:href="#md089eac1d8" x="91.936617" y="179.151229" style="fill: #357ba3; stroke: #ffffff; stroke-width: 0.75; stroke-linejoin: miter"/>
     <use xlink:href="#md089eac1d8" x="109.132303" y="175.836837" style="fill: #357ba3; stroke: #ffffff; stroke-width: 0.75; stroke-linejoin: miter"/>
     <use xlink:href="#md089eac1d8" x="126.327989" y="170.822387" style="fill: #357ba3; stroke: #ffffff; stroke-width: 0.75; stroke-linejoin: miter"/>
     <use xlink:href="#md089eac1d8" x="143.523674" y="167.508673" style="fill: #357ba3; stroke: #ffffff; stroke-width: 0.75; stroke-linejoin: miter"/>
     <use xlink:href="#md089eac1d8" x="160.71936" y="162.496426" style="fill: #357ba3; stroke: #ffffff; stroke-width: 0.75; stroke-linejoin: miter"/>
     <use xlink:href="#md089eac1d8" x="177.915046" y="159.179609" style="fill: #357ba3; stroke: #ffffff; stroke-width: 0.75; stroke-linejoin: miter"/>
     <use xlink:href="#md089eac1d8" x="195.110731" y="154.167871" style="fill: #357ba3; stroke: #ffffff; stroke-width: 0.75; stroke-linejoin: miter"/>
     <use xlink:href="#md089eac1d8" x="212.306417" y="150.853648" style="fill: #357ba3; stroke: #ffffff; stroke-width: 0.75; stroke-linejoin: miter"/>
     <use xlink:href="#md089eac1d8" x="229.502103" y="145.836656" style="fill: #357ba3; stroke: #ffffff; stroke-width: 0.75; stroke-linejoin: miter"/>
     <use xlink:href="#md089eac1d8" x="246.697788" y="142.522446" style="fill: #357ba3; stroke: #ffffff; stroke-width: 0.75; stroke-linejoin: miter"/>
     <use xlink:href="#md089eac1d8" x="263.893474" y="137.510721" style="fill: #357ba3; stroke: #ffffff; stroke-width: 0.75; stroke-linejoin: miter"/>
     <use xlink:href="#md089eac1d8" x="281.08916" y="134.196511" style="fill: #357ba3; stroke: #ffffff; stroke-width: 0.75; stroke-linejoin: miter"/>
     <use xlink:href="#md089eac1d8" x="298.284845" y="129.181018" style="fill: #357ba3; stroke: #ffffff; stroke-width: 0.75; stroke-linejoin: miter"/>
     <use xlink:href="#md089eac1d8" x="315.480531" y="125.866691" style="fill: #357ba3; stroke: #ffffff; stroke-width: 0.75; stroke-linejoin: miter"/>
     <use xlink:href="#md089eac1d8" x="332.676217" y="120.850976" style="fill: #357ba3; stroke: #ffffff; stroke-width: 0.75; stroke-linejoin: miter"/>
     <use xlink:href="#md089eac1d8" x="349.871902" y="117.536688" style="fill: #357ba3; stroke: #ffffff; stroke-width: 0.75; stroke-linejoin: miter"/>
     <use xlink:href="#md089eac1d8" x="367.067588" y="112.524937" style="fill: #357ba3; stroke: #ffffff; stroke-width: 0.75; stroke-linejoin: miter"/>
     <use xlink:href="#md089eac1d8" x="384.263274" y="109.208198" style="fill: #357ba3; stroke: #ffffff; stroke-width: 0.75; stroke-linejoin: miter"/>
     <use xlink:href="#md089eac1d8" x="401.458959" y="104.193787" style="fill: #357ba3; stroke: #ffffff; stroke-width: 0.75; stroke-linejoin: miter"/>
     <use xlink:href="#md089eac1d8" x="418.654645" y="100.882211" style="fill: #357ba3; stroke: #ffffff; stroke-width: 0.75; stroke-linejoin: miter"/>
     <use xlink:href="#md089eac1d8" x="435.850331" y="95.865219" style="fill: #357ba3; stroke: #ffffff; stroke-width: 0.75; stroke-linejoin: miter"/>
     <use xlink:href="#md089eac1d8" x="453.046016" y="92.55363" style="fill: #357ba3; stroke: #ffffff; stroke-width: 0.75; stroke-linejoin: miter"/>
     <use xlink:href="#md089eac1d8" x="470.241702" y="87.536389" style="fill: #357ba3; stroke: #ffffff; stroke-width: 0.75; stroke-linejoin: miter"/>
     <use xlink:href="#md089eac1d8" x="487.437388" y="84.222115" style="fill: #357ba3; stroke: #ffffff; stroke-width: 0.75; stroke-linejoin: miter"/>
     <use xlink:href="#md089eac1d8" x="504.633073" y="79.2067" style="fill: #357ba3; stroke: #ffffff; stroke-width: 0.75; stroke-linejoin: miter"/>
     <use xlink:href="#md089eac1d8" x="521.828759" y="75.896388" style="fill: #357ba3; stroke: #ffffff; stroke-width: 0.75; stroke-linejoin: miter"/>
     <use xlink:href="#md089eac1d8" x="539.024445" y="70.882068" style="fill: #357ba3; stroke: #ffffff; stroke-width: 0.75; stroke-linejoin: miter"/>
     <use xlink:href="#md089eac1d8" x="556.22013" y="67.567833" style="fill: #357ba3; stroke: #ffffff; stroke-width: 0.75; stroke-linejoin: miter"/>
     <use xlink:href="#md089eac1d8" x="573.415816" y="62.553487" style="fill: #357ba3; stroke: #ffffff; stroke-width: 0.75; stroke-linejoin: miter"/>
    </g>
   </g>
   <g id="patch_3">
    <path d="M 49.807188 198.465938 
L 49.807188 32.145938 
" style="fill: none; stroke: #ffffff; stroke-width: 1.25; stroke-linejoin: miter; stroke-linecap: square"/>
   </g>
   <g id="patch_4">
    <path d="M 607.807188 198.465938 
L 607.807188 32.145938 
" style="fill: none; stroke: #ffffff; stroke-width: 1.25; stroke-linejoin: miter; stroke-linecap: square"/>
   </g>
   <g id="patch_5">
    <path d="M 49.807187 198.465938 
L 607.807188 198.465938 
" style="fill: none; stroke: #ffffff; stroke-width: 1.25; stroke-linejoin: miter; stroke-linecap: square"/>
   </g>
   <g id="patch_6">
    <path d="M 49.807187 32.145938 
L 607.807188 32.145938 
" style="fill: none; stroke: #ffffff; stroke-width: 1.25; stroke-linejoin: miter; stroke-linecap: square"/>
   </g>
   <g id="legend_1">
    <g id="line2d_22">
     <path d="M 212.129844 16.108281 
L 223.129844 16.108281 
L 234.129844 16.108281 
" style="fill: none; stroke: #3e356b; stroke-width: 1.5; stroke-linecap: round"/>
     <g>
      <use xlink:href="#m4b19519867" x="223.129844" y="16.108281" style="fill: #3e356b; stroke: #ffffff; stroke-width: 0.75"/>
     </g>
    </g>
    <g id="text_22">
     <!-- Storage Read -->
     <g style="fill: #262626" transform="translate(242.929844 19.958281) scale(0.11 -0.11)">
      <defs>
       <path id="DejaVuSans-6f" d="M 1959 3097 
Q 1497 3097 1228 2736 
Q 959 2375 959 1747 
Q 959 1119 1226 758 
Q 1494 397 1959 397 
Q 2419 397 2687 759 
Q 2956 1122 2956 1747 
Q 2956 2369 2687 2733 
Q 2419 3097 1959 3097 
z
M 1959 3584 
Q 2709 3584 3137 3096 
Q 3566 2609 3566 1747 
Q 3566 888 3137 398 
Q 2709 -91 1959 -91 
Q 1206 -91 779 398 
Q 353 888 353 1747 
Q 353 2609 779 3096 
Q 1206 3584 1959 3584 
z
" transform="scale(0.015625)"/>
       <path id="DejaVuSans-67" d="M 2906 1791 
Q 2906 2416 2648 2759 
Q 2391 3103 1925 3103 
Q 1463 3103 1205 2759 
Q 947 2416 947 1791 
Q 947 1169 1205 825 
Q 1463 481 1925 481 
Q 2391 481 2648 825 
Q 2906 1169 2906 1791 
z
M 3481 434 
Q 3481 -459 3084 -895 
Q 2688 -1331 1869 -1331 
Q 1566 -1331 1297 -1286 
Q 1028 -1241 775 -1147 
L 775 -588 
Q 1028 -725 1275 -790 
Q 1522 -856 1778 -856 
Q 2344 -856 2625 -561 
Q 2906 -266 2906 331 
L 2906 616 
Q 2728 306 2450 153 
Q 2172 0 1784 0 
Q 1141 0 747 490 
Q 353 981 353 1791 
Q 353 2603 747 3093 
Q 1141 3584 1784 3584 
Q 2172 3584 2450 3431 
Q 2728 3278 2906 2969 
L 2906 3500 
L 3481 3500 
L 3481 434 
z
" transform="scale(0.015625)"/>
       <path id="DejaVuSans-52" d="M 2841 2188 
Q 3044 2119 3236 1894 
Q 3428 1669 3622 1275 
L 4263 0 
L 3584 0 
L 2988 1197 
Q 2756 1666 2539 1819 
Q 2322 1972 1947 1972 
L 1259 1972 
L 1259 0 
L 628 0 
L 628 4666 
L 2053 4666 
Q 2853 4666 3247 4331 
Q 3641 3997 3641 3322 
Q 3641 2881 3436 2590 
Q 3231 2300 2841 2188 
z
M 1259 4147 
L 1259 2491 
L 2053 2491 
Q 2509 2491 2742 2702 
Q 2975 2913 2975 3322 
Q 2975 3731 2742 3939 
Q 2509 4147 2053 4147 
L 1259 4147 
z
" transform="scale(0.015625)"/>
       <path id="DejaVuSans-64" d="M 2906 2969 
L 2906 4863 
L 3481 4863 
L 3481 0 
L 2906 0 
L 2906 525 
Q 2725 213 2448 61 
Q 2172 -91 1784 -91 
Q 1150 -91 751 415 
Q 353 922 353 1747 
Q 353 2572 751 3078 
Q 1150 3584 1784 3584 
Q 2172 3584 2448 3432 
Q 2725 3281 2906 2969 
z
M 947 1747 
Q 947 1113 1208 752 
Q 1469 391 1925 391 
Q 2381 391 2643 752 
Q 2906 1113 2906 1747 
Q 2906 2381 2643 2742 
Q 2381 3103 1925 3103 
Q 1469 3103 1208 2742 
Q 947 2381 947 1747 
z
" transform="scale(0.015625)"/>
      </defs>
      <use xlink:href="#DejaVuSans-53"/>
      <use xlink:href="#DejaVuSans-74" x="63.476562"/>
      <use xlink:href="#DejaVuSans-6f" x="102.685547"/>
      <use xlink:href="#DejaVuSans-72" x="163.867188"/>
      <use xlink:href="#DejaVuSans-61" x="204.980469"/>
      <use xlink:href="#DejaVuSans-67" x="266.259766"/>
      <use xlink:href="#DejaVuSans-65" x="329.736328"/>
      <use xlink:href="#DejaVuSans-20" x="391.259766"/>
      <use xlink:href="#DejaVuSans-52" x="423.046875"/>
      <use xlink:href="#DejaVuSans-65" x="488.029297"/>
      <use xlink:href="#DejaVuSans-61" x="549.552734"/>
      <use xlink:href="#DejaVuSans-64" x="610.832031"/>
     </g>
    </g>
    <g id="line2d_23">
     <path d="M 339.107656 16.108281 
L 350.107656 16.108281 
L 361.107656 16.108281 
" style="fill: none; stroke: #357ba3; stroke-width: 1.5; stroke-linecap: round"/>
     <g>
      <use xlink:href="#md089eac1d8" x="350.107656" y="16.108281" style="fill: #357ba3; stroke: #ffffff; stroke-width: 0.75; stroke-linejoin: miter"/>
     </g>
    </g>
    <g id="text_23">
     <!-- Storage Write -->
     <g style="fill: #262626" transform="translate(369.907656 19.958281) scale(0.11 -0.11)">
      <defs>
       <path id="DejaVuSans-57" d="M 213 4666 
L 850 4666 
L 1831 722 
L 2809 4666 
L 3519 4666 
L 4500 722 
L 5478 4666 
L 6119 4666 
L 4947 0 
L 4153 0 
L 3169 4050 
L 2175 0 
L 1381 0 
L 213 4666 
z
" transform="scale(0.015625)"/>
      </defs>
      <use xlink:href="#DejaVuSans-53"/>
      <use xlink:href="#DejaVuSans-74" x="63.476562"/>
      <use xlink:href="#DejaVuSans-6f" x="102.685547"/>
      <use xlink:href="#DejaVuSans-72" x="163.867188"/>
      <use xlink:href="#DejaVuSans-61" x="204.980469"/>
      <use xlink:href="#DejaVuSans-67" x="266.259766"/>
      <use xlink:href="#DejaVuSans-65" x="329.736328"/>
      <use xlink:href="#DejaVuSans-20" x="391.259766"/>
      <use xlink:href="#DejaVuSans-57" x="423.046875"/>
      <use xlink:href="#DejaVuSans-72" x="517.423828"/>
      <use xlink:href="#DejaVuSans-69" x="558.537109"/>
      <use xlink:href="#DejaVuSans-74" x="586.320312"/>
      <use xlink:href="#DejaVuSans-65" x="625.529297"/>
     </g>
    </g>
   </g>
  </g>
 </g>
 <defs>
  <clipPath id="pfea864db85">
   <rect x="49.807188" y="32.145938" width="558" height="166.32"/>
  </clipPath>
 </defs>
</svg>
